<svg id="Layer_2" data-name="Layer 2" xmlns="http://www.w3.org/2000/svg" viewBox="0 0 427.7 140.7"><defs><style>.cls-1{fill:#e88930;}</style></defs><path class="cls-1" d="M505.2,250.7a15.6,15.6,0,0,1-4,1,9.6,9.6,0,0,1-6-1.2,10.8,10.8,0,0,0-5.9-.5l.3-.8a11.2,11.2,0,0,0,.8-2.6c.3-1.6,1.1-5.8-1.2-9s-9.6-4.3-13.9-2a12,12,0,0,0-5.7,6.9c-.1.6-1.5,5.6,1.7,9.9l.6.7a40.5,40.5,0,0,1-4.7-1.2.7.7,0,0,0-.4,1.4,24,24,0,0,0,8.8,2.4,19.8,19.8,0,0,0,9-2.1c3.1-1.5,6.6-2.9,9.8-1.2a13.8,13.8,0,0,0,6.9,1.1c3.1-.3,5.5-2,8.6-1.9s5.2,1.4,8,2.4a22.5,22.5,0,0,0,9.3.4,23.7,23.7,0,0,0,8.5-3.2.8.8,0,0,0,.2-.8.7.7,0,0,0-.8-.3,27.6,27.6,0,0,1-8.8,2.5,9.8,9.8,0,0,0,3.3-3.6c2-4.3.1-9.8-4.3-12.3S513.9,235,511,240a10.7,10.7,0,0,0-1.7,7.3h0a5.7,5.7,0,0,0,1.2,2.3A13.9,13.9,0,0,0,505.2,250.7Zm-24-12.9c2.8.1,5,2.3,6,4.6a6.9,6.9,0,0,1-3.3,8.9c-3.9,2.1-8.6.4-9.9-3.2S476.8,237.7,481.2,237.8Zm31.6,4.8a9.8,9.8,0,0,1,4.6-4.2,7.6,7.6,0,0,1,2.1-.3,7.8,7.8,0,0,1,5.4,2.8,9.1,9.1,0,0,1,2,6.2c0,2.4-1.7,3.8-3.6,4.5a8,8,0,0,1-4.6.4l-1.5-.5-.6-.2C513.5,249.8,510.8,246.3,512.8,242.6Z" transform="translate(-279 -179.6)"/><path class="cls-1" d="M582.3,255.2c-.5-9.4-.7-19.9-7.3-27.4a19.4,19.4,0,0,0-4.6-3.9c-3.5-1.8-6.5-3-9.1-5.9s-4.3-5.6-6.2-9a22.3,22.3,0,0,0-8.9-7.8,32.8,32.8,0,0,1-8.8-6.3c-2.5-2.7-4.7-6.3-8.2-8.2s-11.3-2.7-16.9-3.3c-3.7-.5-6.9-2.6-10.6-3.4-5.8-1.5-12,2.1-17,3.3s-7.7.1-11.4,1.8-6,5.2-8.7,7.7-6.8,2.7-9.9,5.3-4.3,6.6-6.3,9.8a26.7,26.7,0,0,1-3.2,4.3c-2.4,2.7-6.1,4.5-8.4,7.5-3.9,4.4-5.2,10.2-8.2,15a34.7,34.7,0,0,1-3.1,4.4c-1.3,1.4-2.9,2.6-3.9,4.3-4.2,6.7-5.3,15.2-2.1,22.5a31.9,31.9,0,0,1,.7,5.4,53.7,53.7,0,0,1-.1,5.6,19.1,19.1,0,0,0,1,5.8c5.1,14.5,21.7,19.6,32.8,8.2.5-.5-.3-1.2-.7-.7-8.8,8.5-21.3,7-27.9-3.2a19.3,19.3,0,0,1-3.1-10.1c0-1.8.3-3.8.2-5.7a28,28,0,0,0-.8-5.8c-.4-1.9-1.3-3.5-1.5-5.3a23.4,23.4,0,0,1,3.5-15.3c1-1.6,2.5-2.6,3.8-4a52,52,0,0,0,3.5-4.7c3.1-4.7,4.3-10.4,8-14.6s5.8-4.5,8.4-7.4a39.1,39.1,0,0,0,3.6-4.7c1.5-2.3,2.2-5.1,3.9-7.3a7.7,7.7,0,0,1,1.8-1.8c2.9-.9,3.5,3.4,3.7,5.8a14.5,14.5,0,0,1-.3,5.1c-.6,1.7-1.6,3.4-1.8,5.2,0,.3.4.3.5.1.7-2.7,3.1-4.7,3.1-7.6s.3-8.4-2.2-10.3a40.3,40.3,0,0,0,4.3-1.9c4.3-2.1,6.3-7.1,10.5-8.9s6.8-.8,10.9-1.6c8.7-2.3,12-5.7,20.8-1.6a26.1,26.1,0,0,0,5.8,1.7c5.4.7,11.1-.2,15.9,2.8,3.2,1.8,5.1,5,7.6,7.7a28.2,28.2,0,0,0,4.6,3.8c1.8,1.3,3.9,2.3,5.8,3.4a3.5,3.5,0,0,0-2.4,1.7,4.9,4.9,0,0,0-.1,4.1,36.2,36.2,0,0,0,3.8,8.5c.2.2.6,0,.5-.2a53.8,53.8,0,0,1-2.5-8.7,3.9,3.9,0,0,1,.2-2.6,5.8,5.8,0,0,1,3.7-.7l.4.4c2.9,2.4,4.3,5.5,6.3,8.8a27.7,27.7,0,0,0,8.5,8.2c3.4,1.8,6.6,2.8,9.1,5.8,6.3,7,6.5,17,7.1,26,.2,3.7.5,7.5.4,11.2.2,14.5-15.2,31.4-28.7,18.6-.2-.3-.5.1-.3.3a21.8,21.8,0,0,0,4.5,3.5c9.7,5.2,19.2-2.7,23.4-11.2C583.4,270.8,582.5,262.7,582.3,255.2Z" transform="translate(-279 -179.6)"/><path class="cls-1" d="M547.9,271.2c0-.2-.4-.1-.3.1.4,3.2.7,6.5.8,9.7,0,5.2,1.1,14.5-3.6,17.6-2.8,1.5-6.2,1.3-9.3,2.6s-5.9,4-8,6.3c-4.4,4.8-9.6,8.2-16,9.1-9.2,1.4-19.4,1.3-27.8-3.1-4.3-2.3-7.4-6.1-11.2-9.1s-8.7-4.9-11.9-8.3-3.9-8.6-3.9-13.2a78.7,78.7,0,0,1,2.4-14.4c0-.1-.1-.1-.1-.2h-.2a65.1,65.1,0,0,0-3.4,14.5c-.4,5,.2,10.6,3.6,14.6s8.1,5.6,11.9,8.9,7,7.2,11.4,9.6c9.2,4.9,19.7,5.1,29.7,3.5s14.4-6.9,20.7-13.6a17.2,17.2,0,0,1,3.7-2.5c3-1.3,6.5-1.1,9.5-3.1,4.5-3.2,4.1-9.5,3.9-14.4A81.1,81.1,0,0,0,547.9,271.2Z" transform="translate(-279 -179.6)"/><path class="cls-1" d="M479.4,224.8c-3.7,1.9-6.2,4.3-10.3,4.8a9.7,9.7,0,0,0-5.9,5.8,16.6,16.6,0,0,1,3.1-2.3,10.1,10.1,0,0,1,3.3-1.2,13.9,13.9,0,0,0,4-.6c2.5-.7,4.9-2.7,7-3.9s6.9-.4,10.5.7C488.3,225.2,483.5,223,479.4,224.8Z" transform="translate(-279 -179.6)"/><path class="cls-1" d="M520.5,230.2c2.2.8,3.7,2.5,6.2,3.2a9,9,0,0,0,4,0,10.4,10.4,0,0,0,5.9-4.3c-3.1,1.4-6,2.6-9.1,1.5s-3.8-2.5-6-3.1a12.7,12.7,0,0,0-10.7,1.8C514.3,229,517.4,228.9,520.5,230.2Z" transform="translate(-279 -179.6)"/><path class="cls-1" d="M498.6,283.7c-1.2,2.2-2.6,4.5-5,5.6s-5.4,2.6-8,1.9-2.8-2.3-3.1-4.1c-.1-.2-.2-.4-.4-.3a.4.4,0,0,0-.4.4,7.3,7.3,0,0,0,.9,3.1c1.5,2.7,4.4,3,7.2,2.4,3.7,10.2,18.8,10.3,20.1-1.5,4.3,1.2,9.6,1.1,10.2-3.9.1-.3-.5-.4-.5-.1-1.4,5.4-8.7,3.1-12.2,1.2a11.3,11.3,0,0,1-4.1-4.8c-.2-.2-.3-.5-.6-.7,5.6-2.1,10.6-8.5,6.5-14.1-1.9-2.1-4.8-2.5-7.4-2.1l-1.2.2c-2.4-.8-6.9-.5-8.9,2a7.2,7.2,0,0,0,.9,10.4,17.2,17.2,0,0,0,6,3.5l.5.2c-.1.1-.2.2-.2.3S498.7,283.6,498.6,283.7Zm8,6.2,2.1.9a11.8,11.8,0,0,1-3.1,5c-4.6,4.1-11.6,1.4-14.8-3.3l3.7-1.4a17.3,17.3,0,0,0,6.6-5.7A18.4,18.4,0,0,0,506.6,289.9Zm-14.3-14.4c-1-2.4.8-5.7,3.4-5.9a10.7,10.7,0,0,1,3.6.1l.9.2a3.6,3.6,0,0,0,1.5-.2c1.8-.5,4.3-.6,5.8.7s1.4,5.7-.5,7.8a12.6,12.6,0,0,1-5.2,3.5,3,3,0,0,1-2.6-.4C496.4,280.2,493.4,278.2,492.3,275.5Z" transform="translate(-279 -179.6)"/><path class="cls-1" d="M300.1,221.4a34.1,34.1,0,0,1,10.7,1.9,3.1,3.1,0,0,1,1.3,2.2,2.6,2.6,0,0,1-1.2,2.1,4.4,4.4,0,0,1-2.7.9,27.8,27.8,0,0,0-7.3-1c-5.2,0-9.1,1.5-11.8,4.6s-4,7.6-4,13.7,1.6,10.7,4.7,14.1a7.8,7.8,0,0,0,5.9,2.7q3.3,0,10.8-3.6a10.4,10.4,0,0,1,3.4-1.2,1.7,1.7,0,0,1,1.9,1.9A4,4,0,0,1,310,263a66.6,66.6,0,0,1-9.7,4.3,18.2,18.2,0,0,1-5.9,1.1,11.7,11.7,0,0,1-8.9-3.8c-4.4-4.7-6.5-11.1-6.5-19.2s2-14.2,6.2-18.1A20.9,20.9,0,0,1,300.1,221.4Z" transform="translate(-279 -179.6)"/><path class="cls-1" d="M328,235c3.4,0,6.3,1.6,8.5,4.9a22.2,22.2,0,0,1-.1,23.8,10.7,10.7,0,0,1-18.1-.1,19.5,19.5,0,0,1-3.5-11.2c0-5.2,1.1-9.4,3.2-12.5S323.6,235,328,235Zm-.9,5.9c-2,0-3.6,1-4.9,3.1a12.7,12.7,0,0,0-2,6.7c0,3.7.7,6.5,2.2,8.4s3,2.9,4.9,2.9,5.3-1.5,6.2-4.3a17.5,17.5,0,0,0,.6-5C334.1,244.8,331.8,240.9,327.1,240.9Z" transform="translate(-279 -179.6)"/><path class="cls-1" d="M354.6,240.8l-10.3.9c-2.3,0-3.4-1-3.4-2.9s1.2-3.2,3.5-3.3h13.9a11.3,11.3,0,0,1,5.3,1.4,5.8,5.8,0,0,1,3.1,5.5c0,2.5-1.7,5.2-5.2,8.2a43.7,43.7,0,0,1-4.6,3.7c-5.3,4.1-8,6.6-8,7.7s.9,1.1,2.7,1.1a26,26,0,0,0,5-.4l4.9-.7,3.2-.4c2,0,3,.7,3,2.2,0,3.2-4.9,4.9-14.7,4.9-3.5,0-6-.4-7.6-1.2a5.4,5.4,0,0,1-2.9-4.1,2.5,2.5,0,0,1-.1-.8c0-1.4.8-3,2.3-4.9a41,41,0,0,1,8.3-7.5c3.9-2.6,6.1-4.5,6.7-5.6a2.4,2.4,0,0,0,.4-1.7C359.8,241.5,358,240.8,354.6,240.8Z" transform="translate(-279 -179.6)"/><path class="cls-1" d="M392.3,235.2a3.4,3.4,0,0,1,1.8.7,1.7,1.7,0,0,1,.9,1.4c0,1.4-2,9-6.1,22.6s-7.1,23.3-9.1,28.8c-.4,1.3-1.1,2-2,2a2.7,2.7,0,0,1-2.2-1,4.5,4.5,0,0,1-.7-2.8q0-1.9,2.4-9c1.6-4.7,2.5-7.7,2.9-9-1.2-2.1-5.3-12.1-12.2-30.3a2.2,2.2,0,0,1-.1-.9,2.8,2.8,0,0,1,.8-1.5,3.3,3.3,0,0,1,2.4-1,2.9,2.9,0,0,1,2.5,1.6l3.3,9c1.5,4.3,2.7,7.4,3.5,9.3a53.6,53.6,0,0,1,2.4,6c.7-2.3,1.9-6.6,3.5-13.2s2.6-10.2,2.8-11.1S390.4,235.2,392.3,235.2Z" transform="translate(-279 -179.6)"/><path class="cls-1" d="M618,229l8-.2c3.6,0,5.4,1,5.4,2.8a2.2,2.2,0,0,1-.3,1.4l-.5.6c0,.2-.2.3-.5.4l-1.5.4h-.8l-2.6.3h-5.5l-8.7-.3v13.3h14.7a2.1,2.1,0,0,1,1.5.7,2.5,2.5,0,0,1,.6,1.6c0,2.2-.9,3.3-2.8,3.3H611l.3,18.9c0,2.4-.8,3.6-2.5,3.6s-2.6-1.1-2.9-3.3c-.2-.7-.2-6.8-.3-18.3s-.1-18.1-.2-19.8c-1.7.2-2.6-.8-2.6-3.1a3.4,3.4,0,0,1,.7-1.9,2.4,2.4,0,0,1,1.3-1.1h1.3l4.1.3C613.2,228.8,615.8,229,618,229Z" transform="translate(-279 -179.6)"/><path class="cls-1" d="M629.6,229c.1-1.8.4-3,.9-3.5a2.5,2.5,0,0,1,2.2-.9c2,0,3.1.9,3.1,2.6s-.1,4.6-.4,10.1-.3,10.4-.3,14.7a93.5,93.5,0,0,0,.5,10.4c.6,4.7,1.4,7,2.5,7s1.8-.8,2.3-2.3a5.7,5.7,0,0,1,1.2-1.5,2.7,2.7,0,0,1,2-.7c1.7,0,2.5,1.4,2.5,4.2s-.8,3.1-2.5,4.6a7.4,7.4,0,0,1-4.9,2.3,8.7,8.7,0,0,1-3.9-.8,6.4,6.4,0,0,1-2.4-2.5,17.3,17.3,0,0,1-1.4-3.2,18,18,0,0,1-.8-3.8c-.3-2.4-.5-6.3-.6-11.6s-.2-10.3-.2-15.2S629.5,230.8,629.6,229Z" transform="translate(-279 -179.6)"/><path class="cls-1" d="M647.1,242.8a3,3,0,0,1,1.9-.9,2.5,2.5,0,0,1,1.6.4l.6.6a6.2,6.2,0,0,1,.3,1c-.3,3.8-.5,7.2-.5,10.2a59.4,59.4,0,0,0,1.1,10.3c.7,3.8,1.5,5.8,2.4,5.8s2.9-.8,4.9-2.2a15,15,0,0,0,4.3-4.5c-.6-7-.9-12.9-.9-17.8a4,4,0,0,1,1-2.6,3.1,3.1,0,0,1,2.3-1.1c1.5,0,2.3,1,2.3,3s.2,8.5.7,15.2a84.1,84.1,0,0,0,1.6,12.8,6.1,6.1,0,0,1,.1,1.4c0,.5-.3.9-.9,1.4a4.2,4.2,0,0,1-2.6.7,2,2,0,0,1-2-1.7c-.1-1-.4-2.4-.7-4.4-3.4,3.5-6.8,5.3-10.2,5.3a5.8,5.8,0,0,1-4.2-1.8,11.4,11.4,0,0,1-3-4.9,39.2,39.2,0,0,1-1.9-11.2c0-3.5.2-7.9.6-13A3.7,3.7,0,0,1,647.1,242.8Z" transform="translate(-279 -179.6)"/><path class="cls-1" d="M704.6,244.8c0,2-1.4,3.1-4.3,3.2h-3.8c.1,1.9.3,5.3.7,10.2s.5,9.7.5,14.4a2.7,2.7,0,0,1-1.2,2.3,3.5,3.5,0,0,1-2.3.9c-1.3,0-2-.8-2-2.3,0-4.4-.2-8.6-.5-12.6s-.6-8.4-.7-12.9l-3.3-.2a6.1,6.1,0,0,1-1.9.2h-2.7c.1,1.9.3,5.3.7,10.3s.5,9.7.5,14.3a2.6,2.6,0,0,1-1.2,2.3,3.5,3.5,0,0,1-2.3.9c-1.3,0-2-.8-2-2.3,0-4.3-.2-8.5-.5-12.6s-.6-8.4-.7-12.9c-4.3,0-6.8-.4-7.6-1.3a1.8,1.8,0,0,1-.4-1.3,2.3,2.3,0,0,1,1.5-2.4,10.5,10.5,0,0,1,3.6-.6h2.9c.1-7.8.6-12.7,1.3-14.6a4.8,4.8,0,0,1,1.8-2.5,3,3,0,0,1,1.9-.9l2.8-.2c4.2,0,6.8.8,7.5,2.3a3.7,3.7,0,0,1,2.3-1.9,26.1,26.1,0,0,1,4.6-.3,11.6,11.6,0,0,1,4.9.9,3.4,3.4,0,0,1,2,3.4c0,1.8-.7,2.6-2.1,2.6a10.7,10.7,0,0,1-2.5-.7l-2.5-.8c-1.7,0-2.7,1-3.1,3s-.1,2.2-.1,4.5v5.5h5C703.5,242.7,704.6,243.4,704.6,244.8Zm-18.4-2.3H691a80.7,80.7,0,0,1,.6-11.4h-.4a12.1,12.1,0,0,1-2.4-.8l-2.6-.8c-1.7,0-2.7,1.1-3.1,3.1s-.1,2.2-.1,4.4v5.5Z" transform="translate(-279 -179.6)"/></svg>