<svg id="Layer_2" data-name="Layer 2" xmlns="http://www.w3.org/2000/svg" viewBox="0 0 1351.62 1473.27"><defs><style>.cls-1,.cls-2{fill:#fff;}.cls-1{stroke:#0af;stroke-miterlimit:10;stroke-width:7px;}</style></defs><path class="cls-1" d="M2180.15,379.21" transform="translate(-975.07 -119.54)"/><path class="cls-1" d="M2180.15,379.21" transform="translate(-975.07 -119.54)"/><path class="cls-2" d="M1644.66,986l.29-8.78-3.35-4c29.12-55.27,266.68-505.68,314-595.4l6.47-12.28,18.57,9.8L1976,384.1c-2.22,4.21-188.66,357.68-275.35,522.08,77-86.84,153.88-174.2,228.73-259.22,79.28-90,161.25-183.14,242.48-274.72l6.64-7.49,15.7,13.95-6.63,7.47c-81.13,91.47-163.11,184.58-242.39,274.62C1851.54,767.14,1754.76,877.07,1658.73,985l-.19.22-7.15,3.26Z" transform="translate(-975.07 -119.54)"/><path class="cls-2" d="M1650.45,977.8h0c31.94-60.63,313-593.45,315.81-598.83l.88.47c-2.78,5.28-274,519.57-313.89,595.19,95.09-106.92,190.92-215.76,283.63-321.06,79.3-90.07,161.29-183.2,242.45-274.7l.75.67c-81.16,91.49-163.15,184.62-242.45,274.69-93.59,106.3-190.38,216.23-286.37,324.14h0Z" transform="translate(-975.07 -119.54)"/><path class="cls-2" d="M1956.36,380.73c-.13-1.45-13.74-148.13-21.09-212.33l-1.14-9.93,20.87-2.4,1.13,9.94c7.13,62.25,19.72,197.45,21.13,212.66l.94,10.09-20.92,1.93Z" transform="translate(-975.07 -119.54)"/><path class="cls-2" d="M1966.32,379.81c-.14-1.47-13.7-147.8-21.11-212.55l1-.11c7.41,64.75,21,211.1,21.11,212.57Z" transform="translate(-975.07 -119.54)"/><path class="cls-2" d="M1648,976.69l-7.36-1,.09-.35h0c44.38-185.09,135.8-550.8,146.78-594.68l-15.94-29.08-96.07-175.29-1.36-2.46,15.31-12.39,1.76,1.53c38.41,27.58,262.66,193.17,281.87,207.92L1981,377l-12.79,16.65-7.93-6.08c-16-12.32-167.62-124.32-243.81-180.16,21.11,38.5,91.52,167,91.52,167l1.85,3.41-1,4c-.94,3.75-90.28,360.7-139.69,565.08,68.39-62.67,249.62-226.8,399.49-362.54l.72-.64c113.89-103.16,213-192.91,231.44-209.94L2301,372l2.73-.94,2.69-2.52,2.29.19.07,6.11,12.91,5.19.08.22-2.24,4a9.24,9.24,0,0,1-.67,1,10,10,0,0,1-1.6,1.92h0c-11.63,10.9-114.89,104.42-234.45,212.71-178,161.19-399.48,361.8-424.67,385.81l-6.14,3.88Z" transform="translate(-975.07 -119.54)"/><path class="cls-2" d="M1650.4,977.93l.06-.27c46.4-193.5,145-587.75,147.71-598.39-3.83-7-113.28-206.69-113.91-207.82L1682.9,169l2.11,1.83c37.29,26.75,262.71,193.2,282,208l-.61.79c-19-14.58-238.09-176.36-280.2-206.7C1697.68,193.83,1798.07,377,1799.14,379l.09.17,0,.19c-1,4-100.48,401.52-147.43,597.19,30.47-28.74,248.2-225.94,423.66-384.85C2195.37,483,2299,389.2,2309.85,379l.16-.16h.12l.15-.05-.47.65s1.1,0,1-.27l-.32.11s0,.56-.1.56c-11.56,10.83-114.82,104.35-234.32,212.58-178,161.25-399.61,361.93-424.86,386Z" transform="translate(-975.07 -119.54)"/><polygon class="cls-2" points="956.16 48.73 963.64 40.48 970.13 44.43 977.57 39.78 1219.09 258.6 1204.99 274.16 956.16 48.73"/><rect class="cls-2" x="2062.2" y="115.33" width="1" height="315.75" transform="translate(-499.76 1498.87) rotate(-47.82)"/><path class="cls-2" d="M1644,986l-1.45-1.37-6.61-6.21,3.34-4.33-3.89-24.93,8.81,8.25,6.85-23.7,9.62,40.12a9.75,9.75,0,0,1,.71,2.05l1.25,5.56-11.77,11.1Z" transform="translate(-975.07 -119.54)"/><path class="cls-2" d="M1651.31,977.66c-.39-1.6-.78-3.24-1.17-4.87,0,0,0,.08-.05.12l0,.11a1.66,1.66,0,0,1-.22.66l-.06.44c0,.17-.07.35-.11.53s0,.16-.05.24l.39,1.63-.28-.26,0,.09a1.49,1.49,0,0,1-.21.77l-.15.19,1.5,1.41.72-.68C1651.59,978,1651.33,977.75,1651.31,977.66Z" transform="translate(-975.07 -119.54)"/><polygon class="cls-2" points="1332.18 270.28 646.26 270.28 646.26 249.28 1304.8 249.28 1048.71 49.15 956.08 21.16 651.62 21.16 651.62 0.16 959.2 0.16 960.63 0.6 1058.56 30.18 1060.05 31.35 1341.53 251.33 1351.62 259.05 1336.82 272.43 1332.18 270.28"/><polygon class="cls-2" points="1335.02 260.58 1334.38 260.28 656.26 260.28 656.26 259.28 1333.83 259.28 1053.39 40.11 957.55 11.16 661.62 11.16 661.62 10.16 957.7 10.16 957.77 10.18 1053.86 39.21 1053.94 39.27 1335.41 259.25 1336 259.69 1335.02 260.58"/><polygon class="cls-2" points="665.94 264.38 658.55 218.92 672.16 216.72 700.87 40.11 721.6 43.47 685.68 264.38 665.94 264.38"/><polygon class="cls-2" points="675.81 262.78 670.03 227.19 671.01 227.03 675.81 256.55 709.13 51.58 710.12 51.74 675.81 262.78"/><path class="cls-2" d="M2177.17,393.4,2023.56,170.25l-78.63,7.58-1.66-.41-149.88-36.24-112,42.51-30.51-37-9,10.9-16.2-13.36L1642.4,124a10.93,10.93,0,0,1,3.69-2.91l4.75,3.29,4.84-3.29a10.9,10.9,0,0,1,3.69,2.9L1688,158.72l100.68-38.22.36.93,1.55-.59-.15-.66,2.83-.64,153.17,37,83-8,.48.18,1.14,5.44,7.14.38,156.21,226.91Z" transform="translate(-975.07 -119.54)"/><path class="cls-2" d="M1792.66,129.94l.55-.13,152.53,36.89,82.42-7.94.56.21.39-.05,151.46,220-.83.57L2028.46,159.73l-82.79,8-.09,0-152.84-37-108.2,41.07-.22-.28L1650.89,131l-10.35,12.55-.77-.64,10.34-12.54a1,1,0,0,1,1.55,0l33.2,40.25,107.38-40.76" transform="translate(-975.07 -119.54)"/><rect class="cls-2" x="817.43" y="0.2" width="0.34" height="20"/><line class="cls-2" x1="817.77" y1="10.2" x2="817.43" y2="10.2"/><path class="cls-2" d="M1792.31,129.82" transform="translate(-975.07 -119.54)"/><path class="cls-2" d="M1792.31,129.82" transform="translate(-975.07 -119.54)"/><path class="cls-1" d="M1121.62,379.21" transform="translate(-975.07 -119.54)"/><path class="cls-1" d="M1121.62,379.21" transform="translate(-975.07 -119.54)"/><path class="cls-2" d="M1643.21,985.21,1643,985c-96-108-192.81-217.88-286.4-324.18l-.22-.25c-79.22-90-161.14-183-242.21-274.42l-6.63-7.47,15.71-13.94,6.64,7.48C1211.1,463.76,1293.1,556.9,1372.4,647c74.86,85,151.77,172.39,228.73,259.22C1514.49,741.89,1328,388.31,1325.78,384.11l-4.66-8.85,18.57-9.8,6.55,12.42c47.32,89.72,284.84,540.05,313.93,595.26l1.22,5.24-10,1.74Z" transform="translate(-975.07 -119.54)"/><path class="cls-2" d="M1651.33,977.8h0c-31.95-60.63-313-593.45-315.82-598.83l-.88.47c2.78,5.28,274,519.57,313.9,595.2-95.1-106.93-190.93-215.77-283.64-321.07-79.29-90.07-161.29-183.2-242.45-274.69l-.74.66c81.15,91.5,163.15,184.63,242.44,274.69,93.6,106.3,190.38,216.23,286.37,324.14h0Z" transform="translate(-975.07 -119.54)"/><path class="cls-2" d="M1323.58,388.76l.93-10.09c1.42-15.22,14-150.45,21.13-212.66l1.14-9.94,20.86,2.4-1.14,9.93c-7.45,65.11-21,210.88-21.09,212.34l-.92,9.95Z" transform="translate(-975.07 -119.54)"/><path class="cls-2" d="M1335.46,379.82c.13-1.47,13.69-147.81,21.11-212.56l-1-.11c-7.41,64.76-21,211.1-21.11,212.57Z" transform="translate(-975.07 -119.54)"/><path class="cls-2" d="M1643.64,985.64C1618.44,961.62,1397,761,1219,599.83,1099.41,491.54,996.15,398,984.52,387.12h0a10,10,0,0,1-1.6-1.92c-.27-.37-.49-.72-.67-1L980,380.27l.08-.25,10.83-3.17,2.14-8.16,2.3-.19,2.68,2.53,2.73.93.12,1.72c18.45,17,117.55,106.78,231.45,209.94l.71.64C1382.94,720,1564.17,884.13,1632.56,946.8c-49.41-204.37-138.74-561.33-139.68-565l-1-4,1.95-3.58,91.42-166.8c-76.18,55.84-227.76,167.85-243.81,180.16l-7.93,6.08L1320.74,377l7.94-6.09c19.21-14.75,243.47-180.34,281.87-207.92l1.77-1.53,15.3,12.39-1.36,2.47-112,204.36c11,43.88,102.4,409.6,146.79,594.68l-3.88,1.58-6.94,11.67Z" transform="translate(-975.07 -119.54)"/><path class="cls-2" d="M1651.38,977.93a2.68,2.68,0,0,1-.07-.27c-46.4-193.5-145-587.75-147.71-598.38,3.83-7,113.28-206.7,113.91-207.83l1.36-2.47-2.11,1.83c-37.29,26.75-262.71,193.2-282,208l.61.79c19-14.58,238.08-176.36,280.19-206.7C1604.09,193.83,1503.7,377,1502.63,379l-.09.17,0,.19c1,4,100.48,401.52,147.42,597.19-30.47-28.74-248.2-225.94-423.65-384.85C1106.4,483,1002.8,389.2,991.92,379l-.16-.15h-.12l-.15-.06.47.66s-1.09-.05-1-.28l.32.11s0,.56.1.56c11.56,10.83,114.82,104.36,234.32,212.59,178,161.24,399.61,361.92,424.86,386Z" transform="translate(-975.07 -119.54)"/><polygon class="cls-2" points="132.53 258.6 373.32 40.45 380.19 41.89 385.88 38.16 395.46 48.73 146.64 274.16 132.53 258.6"/><rect class="cls-2" x="1081.19" y="272.71" width="315.75" height="1" transform="translate(-837.7 783.12) rotate(-42.18)"/><path class="cls-2" d="M1639.15,981.4l1.26-5.56a9.72,9.72,0,0,1,.7-2.05l.8-3.34,4.09-.05-1.09-1.16,20.47-19.17-3,23.86,3.43,4.45-6.61,6.21-1.45,1.38-6.86,6.52Z" transform="translate(-975.07 -119.54)"/><path class="cls-2" d="M1650.46,977.66c.39-1.6.78-3.24,1.17-4.87l.06.13a.36.36,0,0,0,0,.1,1.53,1.53,0,0,0,.23.66c0,.15,0,.29,0,.44s.07.35.11.53,0,.16.06.25c-.13.54-.27,1.08-.39,1.62l.27-.26v.1a1.47,1.47,0,0,0,.2.76l.15.19-1.49,1.41-.73-.68C1650.18,978,1650.44,977.75,1650.46,977.66Z" transform="translate(-975.07 -119.54)"/><polygon class="cls-2" points="0 259.06 10.1 251.34 293 30.24 294.87 29.64 392.37 0.18 393.92 0.16 700 0.16 700 21.16 395.55 21.16 302.91 49.15 46.83 249.28 705.37 249.28 705.37 270.28 19.44 270.28 14.8 272.42 0 259.06"/><polygon class="cls-2" points="16.6 260.58 17.25 260.28 695.37 260.28 695.37 259.28 17.79 259.28 298.23 40.12 394.07 11.16 690 11.16 690 10.16 393.92 10.16 393.85 10.19 297.76 39.21 297.69 39.27 16.21 259.25 15.63 259.69 16.6 260.58"/><polygon class="cls-2" points="630.03 43.48 650.75 40.11 679.47 216.72 693.07 218.92 685.68 264.38 665.94 264.38 630.03 43.48"/><polygon class="cls-2" points="675.81 262.78 681.6 227.19 680.61 227.03 675.81 256.55 642.49 51.58 641.5 51.74 675.81 262.78"/><path class="cls-2" d="M1124.6,393.4l-17.3-11.91,156.26-227,5.62-.75,2.61-5,.48-.18,83,8,153.17-37,2.83.64-.15.65,1.55.59.36-.93,100.68,38.22L1642.4,124a10.93,10.93,0,0,1,3.69-2.91l3.91,3.85,5.68-3.85a10.9,10.9,0,0,1,3.69,2.9l16.71,20.27-16.2,13.36-9-10.91-30.52,37-112-42.51L1356.9,177.81l-1.75-.14-76.94-7.42Z" transform="translate(-975.07 -119.54)"/><path class="cls-2" d="M1509.11,129.94l-.55-.12L1356,166.7l-82.42-7.94-.56.21-.39-.05-151.45,220,.82.57,151.29-219.76,82.79,8,.08,0,152.85-37,108.19,41.07.23-.27L1650.89,131l10.34,12.55.78-.64-10.35-12.54a1,1,0,0,0-1.55,0l-33.2,40.25-107.38-40.76" transform="translate(-975.07 -119.54)"/><rect class="cls-2" x="533.85" y="0.2" width="0.34" height="20"/><line class="cls-2" x1="533.85" y1="10.2" x2="534.19" y2="10.2"/><path class="cls-2" d="M1509.46,129.82" transform="translate(-975.07 -119.54)"/><path class="cls-2" d="M1509.46,129.82" transform="translate(-975.07 -119.54)"/><rect class="cls-2" x="665.81" y="259.87" width="20" height="597.88"/><polyline class="cls-2" points="675.81 857.75 675.81 262.78 675.81 259.87"/><polygon class="cls-2" points="672.82 860.28 665.31 858.86 665.31 249.87 686.31 249.87 686.31 858.23 681.73 860.49 675.81 867.75 672.82 860.28"/><rect class="cls-2" x="675.31" y="259.87" width="1" height="597.88"/><path class="cls-2" d="M1010.68,1287.76q-16.53,0-33.89.41l-.55-5.88,16.82-5.06q3.56-1.1,3.69-4.24.13-5.46.2-12.24t.07-15V1134.9c0-4.64,0-8.84-.07-12.57s-.11-7.11-.2-10.12a4.67,4.67,0,0,0-3.28-4.65l-17-5.33-.27-5.88q17.64.54,34.31.55,13.65,0,26.36-.69t26.09-.68q47.8,0,71.85,21.81t24.05,64.73q0,50.6-26.71,78.55t-74.93,28q-13.24,0-23.63-.41T1010.68,1287.76Zm13.14-12.17q8.07,1.1,15.79,1.43t15.52.35q36.09,0,55-21.26T1129,1191q0-42.66-17.92-63.23t-56.73-20.58q-6.15,0-13.61.27t-16.88,1Z" transform="translate(-975.07 -119.54)"/><path class="cls-2" d="M1231.29,1245.78q0,8.21.07,14.91c.05,4.46.11,8.52.21,12.16q.14,3.42,4.78,4.65l15.45,4.79.27,5.88q-17.62-.42-33.9-.41-16.55,0-33.91.41l-.55-5.88,16.82-5.06a4.53,4.53,0,0,0,3.69-4.24q.13-5.46.21-12.24t.07-15V1134.9c0-4.64,0-8.84-.07-12.57s-.12-7.11-.21-10.12a4.65,4.65,0,0,0-3.28-4.65l-17-5.33-.28-5.88q17.64.54,33.91.55t33.91-.55l.54,5.88-17,5.06a4.33,4.33,0,0,0-3.55,4.24c-.1,3.19-.16,6.67-.21,10.45s-.07,7.91-.07,12.38Z" transform="translate(-975.07 -119.54)"/><path class="cls-2" d="M1365.76,1093.48l60.7,167.21q3.42,9.42,6.22,12.78a16.62,16.62,0,0,0,8,5l12.85,3.83.27,5.88q-17.91-.42-33.22-.41-15.58,0-36.78.41l-.54-5.88,13-3.83a10.36,10.36,0,0,0,3.89-2.12,4.91,4.91,0,0,0,1.16-3.62,24.49,24.49,0,0,0-1.43-7.18q-1.44-4.44-4-11.83L1383,1217.07h-65.89l-14.36,36.51q-2.87,7.65-4.51,12.16a22.25,22.25,0,0,0-1.64,7.11,4.43,4.43,0,0,0,1.3,3.49,10.42,10.42,0,0,0,3.89,2l12.72,3.69.27,6.16q-19.41-.42-31.72-.41t-27.48.41l-.68-5.88,13.81-4.24a14.35,14.35,0,0,0,7.65-5.06,55.56,55.56,0,0,0,5.47-10.66l69.87-166.8Zm-43.62,111.15h56.33l-26.66-75.33Z" transform="translate(-975.07 -119.54)"/><path class="cls-2" d="M1637.88,1096.35q12.86.54,23.26.55,10.11,0,27.21-.55l.54,5.88-17.22,5.33a4.65,4.65,0,0,0-3.28,4.65q-.29,9-.28,22.69v110.88q0,16.14.28,27.21.13,3.15,3.82,4.24l16.41,5.06.27,5.88q-18-.42-34.52-.41-16.2,0-31.92.41l-.55-5.88,15.73-4.79c2.18-.63,3.32-2.23,3.41-4.78q.27-10.8.28-26.94v-118.4l-67.82,160.38-10,1.09-68.22-161.47v118.4q0,16.14.27,26.94c.09,2.55,1.28,4.15,3.56,4.78l15.31,4.79.28,5.88q-16.28-.42-27.21-.41-10.66,0-28.3.41l-.55-5.88,16.82-5.06q3.55-1.1,3.69-4.24.27-11.07.27-27.21V1134.9q0-13.67-.27-22.69a4.67,4.67,0,0,0-3.28-4.65l-17-5.33-.27-5.88q17.64.54,27.9.55,11.76,0,24.49-.55l63.48,150Z" transform="translate(-975.07 -119.54)"/><path class="cls-2" d="M1910.86,1188q0,47.31-26.85,76.09t-75.07,28.77q-45.78,0-70.84-26.59t-25.07-72q0-47.29,27-74.85t74.8-27.55q45.92,0,71,25.77T1910.86,1188ZM1743,1189.73q0,44.57,18,68.29t52.91,23.72q34.3,0,50.65-21.53t16.34-67.61q0-43.2-17.36-66.45t-53.6-23.24q-35.13,0-51.06,21.54T1743,1189.73Z" transform="translate(-975.07 -119.54)"/><path class="cls-2" d="M1968.35,1135.31v110.47q0,16.14.28,26.8.13,3.83,3.41,4.65l16.27,4.78.28,6.16q-17.1-.42-28-.41-10.66,0-28.3.41l-.55-5.88,16.82-5.06q3.56-1.1,3.69-4.24.27-11.07.27-27.21V1134.9q0-13.67-.27-22.69a4.67,4.67,0,0,0-3.28-4.65l-17-5.33-.28-5.88q17.64.54,27.89.55,6.15,0,12.44-.55l114.85,143.42V1134.36q0-13.26-.28-22.83-.14-3.15-3.55-4.24l-16.13-4.65-.28-6.29q17.51.54,28.3.55,11,0,28-.55l.55,5.88-17.23,5.33a4.65,4.65,0,0,0-3.28,4.65q-.27,9-.27,22.69v152.86l-11.49,1.09Z" transform="translate(-975.07 -119.54)"/><path class="cls-2" d="M2176.5,1287.76q-16.53,0-33.9.41l-.54-5.88,16.81-5.06q3.55-1.1,3.69-4.24.14-5.46.21-12.24t.07-15V1134.9c0-4.64,0-8.84-.07-12.57s-.12-7.11-.21-10.12a4.65,4.65,0,0,0-3.28-4.65l-17-5.33-.27-5.88q17.63.54,34.3.55,13.66,0,26.37-.69t26.09-.68q47.8,0,71.85,21.81t24,64.73q0,50.6-26.7,78.55t-74.93,28q-13.26,0-23.63-.41T2176.5,1287.76Zm13.13-12.17q8.07,1.1,15.8,1.43c5.14.23,10.32.35,15.51.35q36.11,0,55-21.26t18.87-65.15q0-42.66-17.91-63.23t-56.74-20.58q-6.15,0-13.6.27t-16.89,1Z" transform="translate(-975.07 -119.54)"/><path class="cls-2" d="M1253,1493.15v52.63q0,16.14.27,27.07a4.54,4.54,0,0,0,3.56,4.65l15.18,4.79.41,5.88q-16.28-.42-32.54-.41t-33.91.41l-.55-5.88,16.82-5.06q3.55-1.1,3.69-4.24.27-11.07.27-27.21V1434.9q0-13.67-.27-22.69a4.65,4.65,0,0,0-3.28-4.65l-16.95-5.33-.28-5.88q17.64.54,33.91.55t32.4-.55l.69,5.88-15.59,4.78a4.19,4.19,0,0,0-3.56,4.24q-.27,9.84-.27,23.11v46.35h99.53v-46.35q0-13.26-.27-23.11a4.19,4.19,0,0,0-3.56-4.24l-15.17-4.78-.27-5.88q16.66.54,32.94.55t33.36-.55l.55,5.88-17.23,5.33a4.67,4.67,0,0,0-3.28,4.65q-.27,9-.27,22.69v110.88q0,16.14.27,27.21.14,3.15,3.69,4.24l16.55,5.06.27,5.88q-18-.42-34.45-.41t-31.86.41l-.54-5.88,15.44-4.79a4.54,4.54,0,0,0,3.56-4.65q.27-10.93.27-27.07v-52.63Z" transform="translate(-975.07 -119.54)"/><path class="cls-2" d="M1622.17,1488q0,47.31-26.84,76.09t-75.08,28.77q-45.76,0-70.84-26.59t-25.07-72q0-47.29,27-74.85t74.81-27.55q45.9,0,71,25.77T1622.17,1488Zm-167.89,1.78q0,44.57,18,68.29t52.91,23.72q34.32,0,50.65-21.53t16.34-67.61q0-43.2-17.36-66.45t-53.6-23.24q-35.13,0-51.06,21.54T1454.28,1489.73Z" transform="translate(-975.07 -119.54)"/><path class="cls-2" d="M1715.76,1587.76q-16.82,0-37.19.41l-.54-5.88,20.23-6a4.31,4.31,0,0,0,3.55-4.24q.29-10.38.28-26.52V1409.06h-48.26l-12.17,36.37-5.47,1-3.56-49,1-1.09q33.63.54,64.4.55h36.5q30.63,0,64.67-.55l.82,1.09-8.62,48-5.46,1-8.75-37.33h-48.27v136.45q0,16.14.28,26.52a4.31,4.31,0,0,0,3.55,4.24l20.24,6,.27,5.88Q1732,1587.75,1715.76,1587.76Z" transform="translate(-975.07 -119.54)"/><path class="cls-2" d="M1845.85,1396.9h33.22q30.63,0,64.67-.55l.82,1.09-7.93,42.25-5.47,1-8.47-31.59h-63.17v75.2H1872q14.22,0,31.72-.27a4.69,4.69,0,0,0,4.65-3.56l4.79-18.46,7.38-.27q-.42,19.14-.41,28.3,0,8.89.41,27.89l-7.38.55-4.93-18.73q-1.1-3.56-4.23-3.69-17.78-.27-32.13-.28h-12.31v49.77q0,15.18.27,29.94h65.63l16.68-34.73,6.15-1.09-3,47.58-1,1q-35.41-.42-65.35-.41H1846.4q-16.55,0-33.91.41l-.55-5.88,16.82-5.06a4.53,4.53,0,0,0,3.69-4.24q.13-5.46.21-12.24t.06-15V1434.9c0-4.64,0-8.84-.06-12.57s-.12-7.11-.21-10.12a4.65,4.65,0,0,0-3.28-4.65l-17-5.33-.28-5.88Q1829.58,1396.89,1845.85,1396.9Z" transform="translate(-975.07 -119.54)"/><path class="cls-2" d="M2019.28,1434.36v111.15q0,15.18.27,29.94h66.59l17.5-36.23,6.15-1-3,49-.82,1q-35.41-.42-65.49-.41h-34.31q-16.54,0-33.91.41l-.55-5.88,16.82-5.06a4.53,4.53,0,0,0,3.69-4.24q.13-5.46.21-12.24t.06-15V1434.9c0-4.64,0-8.84-.06-12.57s-.12-7.11-.21-10.12a4.67,4.67,0,0,0-3.28-4.65l-17-5.33-.28-5.88q17.64.54,33.91.55t33.9-.55l.55,5.88-17,5.06a4.35,4.35,0,0,0-3.56,4.24q-.13,4.79-.2,13.94T2019.28,1434.36Z" transform="translate(-975.07 -119.54)"/></svg>