<svg id="Final_Logo" data-name="Final Logo" xmlns="http://www.w3.org/2000/svg" viewBox="0 0 934.533 748.668"><defs><style>.cls-1{fill:#001f3f;}.cls-2{fill:#cd0828;}</style></defs><polygon class="cls-1" points="627.699 748.668 890.367 748.668 759.033 679.622 627.699 748.668"/><polygon class="cls-1" points="865.284 602.426 890.367 748.668 934.533 748.668 934.533 534.925 865.284 602.426"/><polygon class="cls-1" points="699.193 465.713 759.033 344.465 723.148 344.465 723.148 302.865 585.692 302.865 583.533 313.049 583.533 396.211 659.788 465.713 699.193 465.713"/><polygon class="cls-2" points="927.507 232.495 857.156 167.921 723.148 167.921 723.148 122.77 792.675 122.77 792.675 156.759 934.533 156.759 934.533 69.28 858.277 0 660.349 0 647.43 11.754 600.616 232.495 927.507 232.495"/><polygon class="cls-1" points="603.823 239.495 659.385 290.69 793.236 290.69 793.236 344.465 759.033 344.465 818.872 465.713 858.277 465.713 934.533 396.211 934.533 239.495 603.823 239.495"/><polygon class="cls-2" points="351 232.495 351 169.767 132.083 169.767 132.083 120.098 351 120.098 351 0 0 0 0 232.495 351 232.495"/><polygon class="cls-1" points="351 289.358 351 239.495 0 239.495 0 465.713 351 465.713 351 348.65 131.557 348.65 131.557 289.358 351 289.358"/><polygon class="cls-2" points="358 162.768 358 232.495 593.46 232.495 642.766 0 504.495 0 468.533 209.52 429.026 0 358 0 358 127.098 318.168 127.098 325.577 162.768 358 162.768"/><polygon class="cls-1" points="358 239.495 358 296.358 353.327 296.358 388.507 465.713 544.001 465.713 591.976 239.495 358 239.495"/><polygon class="cls-1" points="204.858 648.632 223.955 648.632 214.406 619.14 204.858 648.632"/><polygon class="cls-1" points="465.107 648.632 484.203 648.632 474.655 619.14 465.107 648.632"/><path class="cls-1" d="M1102.774,1232.736q-3.01-3.125-8.983-3.223h-12.082v23.828h11.765q5.793,0,9.051-3.149a11.428,11.428,0,0,0,3.258-8.619Q1105.783,1235.861,1102.774,1232.736Z" transform="translate(-985.575 -615.5)"/><path class="cls-1" d="M1031.487,1229.513h-8.01v51.269h7.467q9,0,13.825-6.079t4.91-17.456v-3.955q0-11.572-4.661-17.676T1031.487,1229.513Z" transform="translate(-985.575 -615.5)"/><path class="cls-1" d="M1564.6,1146.03H985.575v218.138h627.7l25.083-146.242Zm-503.426,110.876a40.124,40.124,0,0,1-3.734,17.773,27.414,27.414,0,0,1-10.634,11.816,30.076,30.076,0,0,1-15.816,4.151h-18.961v-71.094h19.459a28.784,28.784,0,0,1,15.5,4.2,27.846,27.846,0,0,1,10.476,11.914,40.3,40.3,0,0,1,3.711,17.676Zm58.774,33.74h-12.263L1094.47,1263.3h-12.761v27.344H1070.26v-71.094h23.169q11.4,0,17.6,5.522t6.2,15.981a21.165,21.165,0,0,1-3.19,11.948,20.59,20.59,0,0,1-8.892,7.4l14.8,29.606Zm48.909,0h-43.08v-71.094h42.764v9.961h-31.315v19.629h27.061v9.765h-27.061v21.875h31.631Zm49.272,0-5.385-16.553H1187.22l-5.34,16.553h-11.9l24.889-71.094h10.272l24.934,71.094Zm84.7,0h-11.4v-23.438l1.132-31.347-19.459,54.785h-8.191l-19.413-54.737,1.131,31.3v23.438h-11.4v-71.094h14.843l19.006,54.492,18.961-54.492h14.8Zm76.866-61.133h-20.544v61.133H1347.8v-61.133h-20.364v-9.961H1379.7Zm49.407,61.133h-43.08v-71.094h42.764v9.961h-31.315v19.629h27.061v9.765h-27.061v21.875h31.631Zm49.272,0-5.386-16.553h-25.522l-5.34,16.553h-11.9l24.889-71.094h10.272l24.934,71.094Zm84.7,0h-11.4v-23.438l1.131-31.347-19.458,54.785h-8.191l-19.414-54.737,1.132,31.3v23.438h-11.4v-71.094h14.843l19.006,54.492,18.961-54.492h14.8Z" transform="translate(-985.575 -615.5)"/></svg>