<svg id="Layer_1" data-name="Layer 1" xmlns="http://www.w3.org/2000/svg" xmlns:xlink="http://www.w3.org/1999/xlink" viewBox="0 0 803.12 168.31"><defs><style>.cls-1{fill:url(#linear-gradient);}.cls-2{fill:url(#linear-gradient-2);}.cls-3{fill:url(#linear-gradient-3);}.cls-4{fill:url(#linear-gradient-4);}.cls-5{fill:url(#linear-gradient-5);}.cls-6{fill:url(#linear-gradient-6);}.cls-7{fill:url(#linear-gradient-7);}.cls-8{fill:url(#linear-gradient-8);}</style><linearGradient id="linear-gradient" x1="15.24" y1="32.49" x2="130.89" y2="140.22" gradientUnits="userSpaceOnUse"><stop offset="0" stop-color="#f69940"/><stop offset="0.33" stop-color="#f7b34c"/><stop offset="0.66" stop-color="#24c1d1"/><stop offset="1" stop-color="#0ba3c5"/></linearGradient><linearGradient id="linear-gradient-2" x1="142.33" y1="30.57" x2="262.8" y2="151.04" xlink:href="#linear-gradient"/><linearGradient id="linear-gradient-3" x1="247.57" y1="41.89" x2="336.71" y2="131.03" xlink:href="#linear-gradient"/><linearGradient id="linear-gradient-4" x1="353.11" y1="44.7" x2="442.74" y2="134.33" xlink:href="#linear-gradient"/><linearGradient id="linear-gradient-5" x1="453.72" y1="47.46" x2="545.57" y2="139.3" xlink:href="#linear-gradient"/><linearGradient id="linear-gradient-6" x1="577.32" y1="28.81" x2="678.08" y2="129.57" xlink:href="#linear-gradient"/><linearGradient id="linear-gradient-7" x1="659.78" y1="33.04" x2="738.92" y2="112.18" xlink:href="#linear-gradient"/><linearGradient id="linear-gradient-8" x1="721.3" y1="43.17" x2="803.21" y2="125.09" xlink:href="#linear-gradient"/></defs><path class="cls-1" d="M70,43.69a31,31,0,1,0,31,31A31,31,0,0,0,70,43.69ZM84.49,75c0,.1,0,.21,0,.31s-.06.25-.09.38,0,.17-.08.25a3,3,0,0,1-.19.41l-.09.19a3.19,3.19,0,0,1-.31.44.56.56,0,0,0,0,.08l-.12.14,0,0L67.82,95.93a4.4,4.4,0,0,1-.54.52l-.16.11a3.55,3.55,0,0,1-.53.32l-.1.06a3.37,3.37,0,0,1-.68.22l-.18,0a5.51,5.51,0,0,1-.57.06h-.19l-.41,0-.19,0a4.21,4.21,0,0,1-.61-.16,3.76,3.76,0,0,1-2.47-3.53h0V55.83a3.76,3.76,0,0,1,6.63-2.41L83.48,72.09s0,0,0,0l.12.15a.56.56,0,0,1,0,.08,3.19,3.19,0,0,1,.31.44l.09.18a3.17,3.17,0,0,1,.19.42c0,.08,0,.16.08.25s.07.25.09.38,0,.2,0,.3a2,2,0,0,1,0,.35A1.93,1.93,0,0,1,84.49,75Zm53.72-3.86a22.4,22.4,0,0,0-7.42-8.69c.35-3.87.2-12.18-6.14-19.07a25.72,25.72,0,0,0-18.61-8A22.4,22.4,0,0,0,95,22.78a20.25,20.25,0,0,0-12-1.53,20.49,20.49,0,0,0-10.17-4.81A23.08,23.08,0,0,0,59,19C56.1,18.29,48,17,40.14,21.33a27,27,0,0,0-11.6,13,23.57,23.57,0,0,0-10.62,4.14C14.66,40.83,9.12,46,8.61,54.12a19.36,19.36,0,0,0,1.1,7.61,20.88,20.88,0,0,0-7.47,8.16C-2.16,78.42.06,90.07,7.58,98.76a25.2,25.2,0,0,0,2.31,18.46c6.37,11.1,19,12.07,21.43,12.15a28.13,28.13,0,0,0,17.3-5.58,30.61,30.61,0,0,0,14.05,6.3c9.21,1.45,16.83-2.16,20.79-4.64a19.75,19.75,0,0,0,5,1.58,21.75,21.75,0,0,0,10-1,.69.69,0,0,1,.58.1,17.8,17.8,0,0,1,5.34,5.1,49.58,49.58,0,0,1,8.19,18.2A3.4,3.4,0,0,0,115.1,152a3.53,3.53,0,0,0,.72.08,3.42,3.42,0,0,0,2.72-1.35,57.86,57.86,0,0,0,8.56-16.2c1.72-5.07,1.87-10.1,2-14.54.09-3.11.21-6.42.49-9.69a31.1,31.1,0,0,1,2.18-10.1,44,44,0,0,1,3-5.24c1.87-3,3.8-6,4.7-9.85A21.33,21.33,0,0,0,138.21,71.16ZM70,114.52a39.85,39.85,0,1,1,39.85-39.84A39.88,39.88,0,0,1,70,114.52Z"/><path class="cls-2" d="M219.09,40.68A10.31,10.31,0,0,1,222,48.24V128a41.09,41.09,0,0,1-5.22,20.81,38.48,38.48,0,0,1-14.3,14.3,41.44,41.44,0,0,1-21,5.23,9.92,9.92,0,0,1-7.42-3,11.15,11.15,0,0,1,0-15,10.07,10.07,0,0,1,7.4-2.92,20,20,0,0,0,10.17-2.52,19,19,0,0,0,6.86-6.86,19.63,19.63,0,0,0,2.52-10V48.24a10.14,10.14,0,0,1,3-7.58,11.16,11.16,0,0,1,15,0ZM211.53,2.1a12.46,12.46,0,0,0-9.09,3.8,12.49,12.49,0,0,0-3.8,9.09,12.46,12.46,0,0,0,3.8,9.09,12.75,12.75,0,0,0,18.18,0,12.46,12.46,0,0,0,3.8-9.09,12.49,12.49,0,0,0-3.8-9.09A12.46,12.46,0,0,0,211.53,2.1Z"/><path class="cls-3" d="M314.19,43.33h0a46.08,46.08,0,0,0-23.74-6.21,46.55,46.55,0,0,0-23.8,6.2,46,46,0,0,0-16.79,16.87,47.27,47.27,0,0,0-6.2,24,49.93,49.93,0,0,0,5.68,23.9A44.22,44.22,0,0,0,264.89,125a43.15,43.15,0,0,0,44.67,0,43.31,43.31,0,0,0,6.57-5.06v.34a10.48,10.48,0,1,0,20.95,0v-36a47.29,47.29,0,0,0-6.19-24A46.24,46.24,0,0,0,314.19,43.33Zm2.59,40.9a29.84,29.84,0,0,1-3.44,14.35,26.07,26.07,0,0,1-9.37,10,26.88,26.88,0,0,1-27,0,26.35,26.35,0,0,1-9.53-10A29.22,29.22,0,0,1,264,84.23a29.6,29.6,0,0,1,3.51-14.49,26.43,26.43,0,0,1,9.53-10,26.88,26.88,0,0,1,27,0,26.22,26.22,0,0,1,9.37,10A30.23,30.23,0,0,1,316.78,84.23Z"/><path class="cls-4" d="M424.27,42h0a43.6,43.6,0,0,0-21-5,41.71,41.71,0,0,0-20.28,5,38.45,38.45,0,0,0-5.24,3.44,9.68,9.68,0,0,0-2.59-4.68,11.16,11.16,0,0,0-15,0,10.14,10.14,0,0,0-3,7.58v72a10.64,10.64,0,0,0,18.06,7.45,10.39,10.39,0,0,0,2.88-7.45V74.71a15.59,15.59,0,0,1,2.83-9.28,20.85,20.85,0,0,1,7.88-6.63A25,25,0,0,1,400,56.29a27.3,27.3,0,0,1,12.16,2.6,19,19,0,0,1,8.18,7.75c2.05,3.51,3.08,8.18,3.08,13.88v39.71a10.48,10.48,0,1,0,21,0V80.52c0-9.27-1.8-17.24-5.36-23.68A36.81,36.81,0,0,0,424.27,42Z"/><path class="cls-5" d="M533.51,43.15a51.23,51.23,0,0,0-48.23,0A43.87,43.87,0,0,0,468.71,59.8a48.81,48.81,0,0,0-6,24.43,51.22,51.22,0,0,0,5.59,24.21,41.49,41.49,0,0,0,38,22.74,36.84,36.84,0,0,0,20.94-6.11,39.36,39.36,0,0,0,8.62-7.85V118c0,6.59-1.22,12.2-3.61,16.7a24.61,24.61,0,0,1-9.54,10.08,26.35,26.35,0,0,1-13.18,3.42,33.31,33.31,0,0,1-14.06-2.86,27.71,27.71,0,0,1-10.13-7.87,10.44,10.44,0,0,0-6.43-4.08,10,10,0,0,0-7.77,1.64,9.4,9.4,0,0,0-4.08,6.1,9.09,9.09,0,0,0,2,7.48,47.65,47.65,0,0,0,17.78,13.88,54.06,54.06,0,0,0,22.39,4.72,46.47,46.47,0,0,0,24.49-6.46,45.53,45.53,0,0,0,16.54-17.39,50.23,50.23,0,0,0,5.92-24.23V84.23a48.91,48.91,0,0,0-6-24.43A43.94,43.94,0,0,0,533.51,43.15Zm2.29,41.08a30.52,30.52,0,0,1-3.37,14.6,24.94,24.94,0,0,1-9.26,9.79,28.19,28.19,0,0,1-27.39,0,25.53,25.53,0,0,1-9.36-9.81A30,30,0,0,1,483,84.23a30.42,30.42,0,0,1,3.45-14.67,25.33,25.33,0,0,1,9.35-9.87,28.12,28.12,0,0,1,27.39,0,24.8,24.8,0,0,1,9.26,9.86A31,31,0,0,1,535.8,84.23Z"/><path class="cls-6" d="M659.41,109.91h-4c-1,0-2.43-.28-3.88-2.76a17.28,17.28,0,0,1-2-8.71V10.31A10,10,0,0,0,639.24,0a10.13,10.13,0,0,0-6.73,2.31A65.16,65.16,0,0,0,624.2.58,63.71,63.71,0,0,0,616,0c-8.36,0-15.47,1.86-21.14,5.52A34.83,34.83,0,0,0,582,20.35a47.59,47.59,0,0,0-4.24,20.14V41h-4.7a10,10,0,0,0-7,2.53,8.86,8.86,0,0,0-2.81,6.81,8.5,8.5,0,0,0,2.81,6.49,10,10,0,0,0,7,2.53h4.7v60.71a10.24,10.24,0,0,0,3,7.36,10.61,10.61,0,0,0,15,0,10.27,10.27,0,0,0,3-7.36V59.36h11a10,10,0,0,0,7-2.53,8.51,8.51,0,0,0,2.82-6.49,8.88,8.88,0,0,0-2.82-6.81,10,10,0,0,0-7-2.53h-11V38.88c0-6.23,1.64-11,5-14.42s7.64-5.13,13.08-5.13c2.2,0,4.63.08,7.21.24a33.62,33.62,0,0,1,4.92.7V98.44a39,39,0,0,0,3.27,16.34,28,28,0,0,0,9.29,11.47,23.55,23.55,0,0,0,13.89,4.29h.32a15.24,15.24,0,0,0,9.24-2.7,9.21,9.21,0,0,0,4-7.61,10.63,10.63,0,0,0-2.59-7.31A8.91,8.91,0,0,0,659.41,109.91Z"/><path class="cls-7" d="M701.75,5.9a12.49,12.49,0,0,1,3.8,9.09,12.46,12.46,0,0,1-3.8,9.09,12.75,12.75,0,0,1-18.18,0A12.43,12.43,0,0,1,679.76,15a12.45,12.45,0,0,1,3.81-9.09,12.77,12.77,0,0,1,18.18,0Zm-9.09,31.87a10.32,10.32,0,0,0-7.45,2.89,10.1,10.1,0,0,0-3,7.58v71.83a10.63,10.63,0,0,0,18,7.45,10.34,10.34,0,0,0,2.89-7.45V48.24a10,10,0,0,0-10.47-10.47Z"/><path class="cls-8" d="M800.26,114.43,775.81,85.18,799,54.78a12.33,12.33,0,0,0,2.82-7.29,10,10,0,0,0-2.2-6.72,8.64,8.64,0,0,0-7.07-3,11.07,11.07,0,0,0-4,.72,9,9,0,0,0-3.72,2.92l-22,29.3L738.13,41.33a9.73,9.73,0,0,0-7.87-3.56,8.73,8.73,0,0,0-7,2.89,9.14,9.14,0,0,0-2.15,6.65,11.8,11.8,0,0,0,2.79,6.9l25.41,30.08-23.85,29.88a11.6,11.6,0,0,0-2.73,7.19,9.17,9.17,0,0,0,2.44,6.43,8.75,8.75,0,0,0,6.74,2.75,10,10,0,0,0,7.56-3.43l22.72-28.57L786,127.11a8.28,8.28,0,0,0,3.79,2.83,11.86,11.86,0,0,0,3.77.6,9.46,9.46,0,0,0,6.8-2.56,8.83,8.83,0,0,0,2.79-6.32A10.83,10.83,0,0,0,800.26,114.43Z"/></svg>