<?xml version="1.0" encoding="UTF-8"?><svg id="Layer_1" xmlns="http://www.w3.org/2000/svg" viewBox="0 0 200 200"><defs><style>.cls-1{fill:none;stroke:#231f20;stroke-linecap:round;stroke-linejoin:round;stroke-width:8px;}</style></defs><path class="cls-1" d="M109.7,131.1h80.3c3.3,0,6,2.7,6,6v10.3c0,3.3-2.7,6-6,6H10c-3.3,0-6-2.7-6-6v-10.3c0-3.3,2.7-6,6-6h80.3"/><path class="cls-1" d="M38.7,131.1c0-33.9,27.5-61.3,61.3-61.3s61.3,27.5,61.3,61.3"/><circle class="cls-1" cx="100" cy="131.1" r="9.7"/><line class="cls-1" x1="51.4" y1="82.5" x2="56.6" y2="87.7"/><line class="cls-1" x1="36.6" y1="104.8" x2="43.3" y2="107.6"/><line class="cls-1" x1="73.7" y1="67.6" x2="76.5" y2="74.4"/><line class="cls-1" x1="126.3" y1="67.6" x2="123.5" y2="74.4"/><line class="cls-1" x1="163.4" y1="104.8" x2="156.7" y2="107.6"/><line class="cls-1" x1="100" y1="62.4" x2="100" y2="69.7"/><line class="cls-1" x1="148.6" y1="82.5" x2="143.4" y2="87.7"/><path class="cls-1" d="M158.3,70.08c16.08,15.37,26.1,37.03,26.1,61.02"/><path class="cls-1" d="M145.98,60.31c.46.3.92.61,1.38.92"/><path class="cls-1" d="M15.6,131.1c0-46.61,37.79-84.4,84.4-84.4,11.89,0,23.21,2.46,33.48,6.9"/></svg>