<?xml version="1.0" encoding="UTF-8"?><svg id="Layer_1" xmlns="http://www.w3.org/2000/svg" viewBox="0 0 200 200"><defs><style>.cls-1{fill:none;stroke:#231f20;stroke-linecap:round;stroke-linejoin:round;stroke-width:8px;}</style></defs><polyline class="cls-1" points="25.7 14.9 14.9 4 4 14.9"/><path class="cls-1" d="M177.7,185.1H31.1c-9,0-16.3-7.3-16.3-16.3V22.3"/><polyline class="cls-1" points="185.1 196 196 185.1 185.1 174.3"/><line class="cls-1" x1="50.5" y1="33.2" x2="33.2" y2="50.5"/><line class="cls-1" x1="166.8" y1="149.5" x2="149.5" y2="166.8"/><line class="cls-1" x1="166.8" y1="33.2" x2="33.2" y2="166.8"/><line class="cls-1" x1="99.2" y1="61.3" x2="33.2" y2="127.3"/><line class="cls-1" x1="127.3" y1="33.2" x2="110.8" y2="49.7"/><line class="cls-1" x1="166.8" y1="72.7" x2="72.7" y2="166.8"/><line class="cls-1" x1="87.6" y1="33.2" x2="33.2" y2="87.6"/><line class="cls-1" x1="118.3" y1="160.9" x2="112.4" y2="166.8"/><line class="cls-1" x1="125.1" y1="154.1" x2="125" y2="154.2"/><line class="cls-1" x1="166.8" y1="112.4" x2="133.7" y2="145.5"/></svg>