<svg id="Layer_2" data-name="Layer 2" xmlns="http://www.w3.org/2000/svg" viewBox="0 0 200 200"><defs><style>.cls-1{fill:none;stroke:#1d1d1b;stroke-linecap:round;stroke-miterlimit:10;stroke-width:6px;}</style></defs><path class="cls-1" d="M43.1,158.4,18,138.3a11.6,11.6,0,0,1-3.7-5.7c-1.9-8.9,5.8-17.7,12.5-24.4,3.9-3.9,7-7.6,15-12.9a4.4,4.4,0,0,1,1.6-.6h0a4.4,4.4,0,0,1,2.3.2h.2a5.2,5.2,0,0,1,1.9,1.4l.9,1.1"/><path class="cls-1" d="M43.1,158.4a91.8,91.8,0,0,0-14.7,10c-3.9,3.1-6.3,5.9-11.9,8.5a3.6,3.6,0,0,1-1.4.2,10.1,10.1,0,0,1-10.3-4.4c-1.7-2.4-2-6.7-1-12.5s1.6-7.8,6.3-16a9.6,9.6,0,0,1,4.2-4h0l1.1-.4h.7a8.1,8.1,0,0,1,4.8,1.3l2.8,1.9"/><path class="cls-1" d="M68.7,138.5l3.9,8v.3a4.5,4.5,0,0,1-2.2,6.2h0l-14.3,6.7a15.7,15.7,0,0,1-5.2.9,12.7,12.7,0,0,1-5.8-1,9.8,9.8,0,0,1-2.1-1.2"/><line class="cls-1" x1="60.9" y1="122.6" x2="63.3" y2="127.4"/><path class="cls-1" d="M155.7,144.6a8.9,8.9,0,0,1-1.7,1.6,12.2,12.2,0,0,1-5.4,2.5,14.4,14.4,0,0,1-5.3.3l-15.4-3h0a4.5,4.5,0,0,1-3.7-5.5v-.4l11.1-52.5a17.1,17.1,0,0,0-.2-8.7v-.2c-2.3-8.4-13.1-11.7-20-13.4s-14.4-2.3-26.6-.7h.6c-12.3,1.4-18.8,3.4-25.7,7.1s-16,9.1-16.2,17.9h0a17,17,0,0,0,1.9,8.6l6,12.3"/><path class="cls-1" d="M155.7,144.6,175.3,119a11.6,11.6,0,0,0,2.1-6.4c-.3-9.1-9.8-15.7-18-20.7-4.7-2.8-8.6-5.6-17.7-8.8a3,3,0,0,0-1.6-.2h0a4.8,4.8,0,0,0-2.3.7h-.1a4.5,4.5,0,0,0-1.5,1.8l-.6,1.2"/><path class="cls-1" d="M155.7,144.6c7.7,1.9,11.9,4,16.7,6.1s7.6,4.3,13.6,5.4a3.1,3.1,0,0,0,1.4-.1,10.1,10.1,0,0,0,8.9-6.8c1.1-2.7.4-7-2-12.3s-3.4-7.3-9.9-14.1a10.3,10.3,0,0,0-5.1-2.8h-1.8a7.2,7.2,0,0,0-4.4,2.4l-2.3,2.4"/><path class="cls-1" d="M124.2,140.5l-.8,3a11.9,11.9,0,0,1-2.1,4.4l-.8.9h0a9.1,9.1,0,0,1-5.1,2.5l-7.8.9-23.8,2.9a8.2,8.2,0,0,1-5.5-1.1h0l-.9-.6a12.6,12.6,0,0,1-3.2-3.7l-1.5-2.8"/><path class="cls-1" d="M60.3,72.1,56.1,41.9a11.1,11.1,0,0,1,1.3-6.6c4.6-7.7,16.1-8.8,25.5-9,5.5-.2,10.2-.7,19.5.9a4.4,4.4,0,0,1,1.6.6h0a4.9,4.9,0,0,1,1.5,1.7v.2a3.5,3.5,0,0,1,.4,2.2v1.4"/><path class="cls-1" d="M58.9,73a94.3,94.3,0,0,0-15.7-2.4c-4.9-.4-8.6,0-14.4-2a5.2,5.2,0,0,1-1.1-.7,10,10,0,0,1-4.4-10.2c.3-2.9,3-6.2,7.7-9.7s6.5-4.6,15.4-7.2a9.2,9.2,0,0,1,5.7,0h0a2.1,2.1,0,0,1,1.1.5l.5.3a7.5,7.5,0,0,1,2.6,4.2l.8,3.3"/><path class="cls-1" d="M162.8,93.6l12.1-8.4a16.2,16.2,0,0,0,5.8-6.4h.1c4-7.7-1.5-17.4-5.3-23.3s-8.8-11.5-18.7-18.7l.5.4c-9.7-7.3-15.8-10.3-23.3-12.3s-17.6-4.3-23.8,1.9h-.1a17.4,17.4,0,0,0-4.4,7.5L100.4,51"/><path class="cls-1" d="M190,129.1c3.6-6.8,1.5-16.5-.8-24.5-1.4-5.2-2.3-9.9-6.6-18.3a4.7,4.7,0,0,0-1.1-1.3h0a4.1,4.1,0,0,0-2.1-1h-.1a4.5,4.5,0,0,0-2.3.3l-1.3.5"/><path class="cls-1" d="M154.4,146.2a92.8,92.8,0,0,1,4.2,9.5c1.9,4.5,2.6,8.2,6.2,13.1a3.9,3.9,0,0,0,1.1.9,10.2,10.2,0,0,0,11,1.2c2.6-1.2,5-4.8,6.9-10.3a28.9,28.9,0,0,0,1.4-4.5"/></svg>