<svg id="Layer_1" data-name="Layer 1" xmlns="http://www.w3.org/2000/svg" viewBox="0 0 200 200"><defs><style>.cls-1{fill:none;}.cls-1,.cls-2,.cls-3{stroke:#000;stroke-linecap:round;stroke-width:8px;}.cls-1,.cls-3{stroke-linejoin:round;}.cls-2,.cls-3{fill:#fff;}.cls-2{stroke-miterlimit:10;}</style></defs><path class="cls-1" d="M144.4,125.4a33.4,33.4,0,0,0,5.2,1.4c7,1.4,19.6,2.7,30.4-3.5a28.7,28.7,0,0,0,7-5.5c5.4-5.6,8-13,8.8-20.7,1.1-10.5-2-21.1-6.5-30.7C175.5,37.1,146.2,14.9,114,11.2a109.5,109.5,0,0,0-46.2,4.6A101,101,0,0,0,43.4,27.9a92.4,92.4,0,0,0-26.2,27c-19.1,30-17.1,68,3.9,96.4a93.2,93.2,0,0,0,16.3,16.9c14.2,11.4,31.9,18.1,49.9,20.4a116.9,116.9,0,0,0,19.6.8c4.5-.3,9.8-.8,13.2-4.3s3.7-8.5.4-12-4.9-3.6-7.5-5.2c-9-5.5-16.2-15.7-13.2-26.6a23.3,23.3,0,0,1,10.4-12.7c3.2-1.9,9.8-4.5,19.3-4.9A45.3,45.3,0,0,1,144.4,125.4Z"/><circle class="cls-1" cx="48.6" cy="78.4" r="15.7"/><circle class="cls-1" cx="99.9" cy="49" r="15.7"/><circle class="cls-1" cx="151.6" cy="77" r="15.7"/><circle class="cls-1" cx="56.1" cy="136.9" r="15.7"/><path class="cls-2" d="M138.4,119.4l53.3,53.3c4.1,4.1,4.4,10.4.7,14.1h0c-3.6,3.7-10,3.3-14.1-.7l-53.2-53.3"/><path class="cls-3" d="M120.1,92.9c6.6,3.1,10.4,5.9,13.7,11.1s7.1,17.1,0,24.1-18.6,3.4-24.1,0-8.1-7-11.2-13.7c-2.2-4.6-7.9-23.6-9.8-29.9a1.1,1.1,0,0,1,.7-1.4h.7C96.4,84.9,115.4,90.7,120.1,92.9Z"/></svg>