<?xml version="1.0" encoding="UTF-8"?><svg id="Layer_1" xmlns="http://www.w3.org/2000/svg" viewBox="0 0 200 200"><defs><style>.cls-1{fill:none;stroke:#231f20;stroke-linecap:round;stroke-linejoin:round;stroke-width:8px;}</style></defs><ellipse class="cls-1" cx="77.3" cy="70.6" rx="73.3" ry="38.1"/><path class="cls-1" d="M4,70.6v54.2c0,21,32.8,38.1,73.3,38.1h102.5"/><line class="cls-1" x1="77.3" y1="108.7" x2="179.9" y2="108.7"/><path class="cls-1" d="M51.6,50.9c1.5-.4,3.1-.9,4.7-1.2"/><path class="cls-1" d="M69.1,47.7c2.7-.2,5.4-.3,8.2-.3,26.8,0,48.6,10.4,48.6,23.2s-21.8,23.2-48.6,23.2-48.6-10.4-48.6-23.2,4.2-10.8,11.2-14.8"/><path class="cls-1" d="M77.3,79.9c-14.6,0-26.5-4.2-26.5-9.3s11.9-9.3,26.5-9.3,26.5,4.2,26.5,9.3-4.7,6.1-11.9,7.8"/><path class="cls-1" d="M185.7,103.9h10.3v63.6h-10.3c-7.8-1.3-7.8-62.3,0-63.6Z"/><line class="cls-1" x1="162.4" y1="162.8" x2="162.4" y2="138"/><line class="cls-1" x1="144.8" y1="162.8" x2="144.8" y2="148.8"/><line class="cls-1" x1="127.2" y1="162.8" x2="127.2" y2="138"/><line class="cls-1" x1="109.5" y1="162.8" x2="109.5" y2="148.8"/><line class="cls-1" x1="91.9" y1="162.8" x2="91.9" y2="138"/><line class="cls-1" x1="74.3" y1="162.8" x2="74.3" y2="148.8"/><line class="cls-1" x1="56.7" y1="161.2" x2="56.7" y2="136.4"/><line class="cls-1" x1="39.1" y1="157.2" x2="39.1" y2="143.3"/><line class="cls-1" x1="21.5" y1="149.4" x2="21.5" y2="124.6"/><line class="cls-1" x1="150.6" y1="70.6" x2="150.6" y2="108.7"/></svg>