<svg id="Layer_1" data-name="Layer 1" xmlns="http://www.w3.org/2000/svg" viewBox="0 0 32 32"><defs><style>.cls-1{fill:#71ff15;}.cls-2{fill:#fff;}</style></defs><path class="cls-1" d="M11.8,26.9h-.7a12.1,12.1,0,0,1-5.9-5.9,1.5,1.5,0,0,1,.8-2,1.5,1.5,0,0,1,2,.7A8.6,8.6,0,0,0,12.4,24a1.5,1.5,0,0,1,.7,2A1.4,1.4,0,0,1,11.8,26.9Z"/><path class="cls-2" d="M31,17H21.9a1,1,0,0,1,0-2H31a1,1,0,0,1,0,2Z"/><path class="cls-2" d="M10.1,17H1a1,1,0,0,1,0-2h9.1a1,1,0,1,1,0,2Z"/><path class="cls-2" d="M16,11.1a.9.9,0,0,1-1-1V1a1,1,0,0,1,2,0v9.1A.9.9,0,0,1,16,11.1Z"/><path class="cls-2" d="M16,32a1,1,0,0,1-1-1V21.9a1,1,0,0,1,2,0V31A1,1,0,0,1,16,32Z"/><path class="cls-1" d="M6.6,13.3,6,13.1a1.5,1.5,0,0,1-.8-2,12.1,12.1,0,0,1,5.9-5.9,1.5,1.5,0,0,1,2,.8,1.5,1.5,0,0,1-.7,2A8.6,8.6,0,0,0,8,12.4,1.7,1.7,0,0,1,6.6,13.3Z"/><path class="cls-1" d="M25.4,13.3a1.7,1.7,0,0,1-1.4-.9A8.6,8.6,0,0,0,19.6,8a1.5,1.5,0,0,1-.7-2,1.5,1.5,0,0,1,2-.8,12.1,12.1,0,0,1,5.9,5.9,1.5,1.5,0,0,1-.8,2Z"/><path class="cls-1" d="M20.2,26.9a1.4,1.4,0,0,1-1.3-.9,1.5,1.5,0,0,1,.7-2A8.6,8.6,0,0,0,24,19.6a1.5,1.5,0,0,1,2-.7,1.5,1.5,0,0,1,.8,2,12.1,12.1,0,0,1-5.9,5.9Z"/><circle class="cls-2" cx="16" cy="16" r="2"/></svg>