<?xml version="1.0" encoding="UTF-8"?><svg id="Layer_1" xmlns="http://www.w3.org/2000/svg" viewBox="0 0 200 200"><defs><style>.cls-1{fill:none;stroke:#231f20;stroke-linecap:round;stroke-linejoin:round;stroke-width:8px;}</style></defs><rect class="cls-1" x="31" y="4" width="138" height="192" rx="19.8" ry="19.8"/><circle class="cls-1" cx="51" cy="24" r="4"/><circle class="cls-1" cx="149" cy="24" r="4"/><circle class="cls-1" cx="100" cy="86.4" r="4"/><path class="cls-1" d="M118.6,78.3c1.1,2.5,1.7,5.3,1.7,8.2,0,11.2-9.1,20.3-20.3,20.3s-20.3-9.1-20.3-20.3,9.1-20.3,20.3-20.3c3.4,0,6.7.9,9.5,2.4"/><path class="cls-1" d="M146.4,141.9c1.4-3.1.7-6.6-1.5-8.8s-2.2-1.6-3.4-1.9l-40.4-11.4c-.4,0-.8.2-1,.6s-.1.9.2,1.1l34.7,23.6c1.1.8,2.4,1.3,3.7,1.4,3.2.3,6.3-1.5,7.8-4.5l-.1-.1Z"/><path class="cls-1" d="M137,163.1h7.5c3.6,0,6.5,2.9,6.5,6.5h0c0,3.6-2.9,6.5-6.5,6.5H57.5c-3.6,0-6.5-2.9-6.5-6.5h0c0-3.6,2.9-6.5,6.5-6.5h50.9"/><line class="cls-1" x1="121.5" y1="163.1" x2="124.1" y2="163.1"/><path class="cls-1" d="M100,136.4c-27.614,0-50-22.386-50-50s22.386-50,50-50,50,22.386,50,50c0,11.924-4.174,22.874-11.141,31.467"/></svg>