<?xml version="1.0" encoding="UTF-8"?><svg id="Layer_1" xmlns="http://www.w3.org/2000/svg" viewBox="0 0 200 200"><defs><style>.cls-1{fill:none;stroke:#231f20;stroke-linecap:round;stroke-linejoin:round;stroke-width:8px;}</style></defs><circle class="cls-1" cx="89" cy="51.5" r="7"/><circle class="cls-1" cx="54.5" cy="51.5" r="8"/><circle class="cls-1" cx="97" cy="81.1" r="9"/><circle class="cls-1" cx="126.7" cy="118.4" r="6"/><circle class="cls-1" cx="129.6" cy="62.3" r="8"/><circle class="cls-1" cx="155.7" cy="104.7" r="8"/><circle class="cls-1" cx="161.7" cy="142.3" r="6"/><circle class="cls-1" cx="108.9" cy="29" r="6"/><circle class="cls-1" cx="121.6" cy="159.4" r="8"/><circle class="cls-1" cx="80.1" cy="121.4" r="9"/><circle class="cls-1" cx="39.5" cy="100" r="6"/><circle class="cls-1" cx="42.5" cy="129.4" r="7"/><circle class="cls-1" cx="59.6" cy="151.4" r="8"/><path class="cls-1" d="M145.4,81.3l5.4-3.1"/><path class="cls-1" d="M161.7,72.2l14.3-8.2c3.3-1.8,5.5-5.1,5.8-8.7s0-.7,0-1v-1c-.4-3.6-2.6-6.9-5.8-8.7L108.9,6.6c-4-1.8-6.5-2.6-8.9-2.6s-4.9.8-8.9,2.6L24,44.7c-3.3,1.8-5.5,5.1-5.8,8.7s0,.7,0,1v1c.4,3.6,2.6,6.9,5.8,8.7l67.1,38.1c4,1.8,6.5,2.6,8.9,2.6s4.9-.8,8.9-2.6l21.7-12.3"/><path class="cls-1" d="M181.8,54.3v92.3c-.4,3.6-2.6,6.9-5.8,8.7l-67.1,38.1c-4,1.8-6.5,2.6-8.9,2.6s-4.9-.8-8.9-2.6l-67.1-38.1c-3.3-1.8-5.5-5.1-5.8-8.7s0-.7,0-1V54.3"/><line class="cls-1" x1="99.9" y1="104.7" x2="99.9" y2="196"/></svg>