<?xml version="1.0" encoding="UTF-8"?>
<svg id="Layer_1" data-name="Layer 1" xmlns="http://www.w3.org/2000/svg" version="1.1" viewBox="0 0 200 200">
  <defs>
    <style>
      .cls-1 {
        fill: #000;
      }

      .cls-1, .cls-2 {
        stroke-width: 0px;
      }

      .cls-2 {
        fill: #231f20;
      }
    </style>
  </defs>
  <path class="cls-2" d="M179.2,52.5L108.2,2.6c-4.9-3.5-11.5-3.5-16.3,0L20.8,52.4c-3.8,2.6-6.1,7-6.1,11.7v71.8c0,4.7,2.3,9,6,11.6l71,49.9c2.5,1.8,5.3,2.6,8.2,2.6s5.7-.9,8.1-2.6l71.1-50c3.8-2.8,6-7,6-11.6v-70.7c0-.4.1-.7.1-1.1,0-4.7-2.3-9-6-11.6ZM98.8,12.4c.4-.3.8-.4,1.2-.4s.9.1,1.3.4l67.5,47.5-67.6,47.5c-.7.5-1.7.5-2.5,0L31.2,59.8,98.8,12.4ZM27.6,137.6c-.6-.4-.9-1-.9-1.7v-64.6l65.1,45.7c.7.5,1.4.9,2.2,1.3v66l-66.4-46.7ZM172.1,137.7l-66.1,46.5v-65.8c.8-.4,1.5-.8,2.1-1.2l65-45.6v64.4c0,.7-.3,1.4-1,1.8Z"/>
  <ellipse class="cls-1" cx="42.5" cy="130.2" rx="8" ry="7.5"/>
  <ellipse class="cls-1" cx="78.4" cy="125.3" rx="8" ry="7.5"/>
  <ellipse class="cls-1" cx="78.4" cy="155.5" rx="8" ry="7.5"/>
  <ellipse class="cls-1" cx="42.5" cy="100" rx="8" ry="7.5"/>
  <ellipse class="cls-1" cx="121.6" cy="155.5" rx="8" ry="7.5"/>
  <ellipse class="cls-1" cx="157.6" cy="100" rx="8" ry="7.5"/>
  <ellipse class="cls-1" cx="136.2" cy="56.4" rx="8" ry="7.5"/>
  <ellipse class="cls-1" cx="116.2" cy="70.4" rx="8" ry="7.5"/>
  <ellipse class="cls-1" cx="96.3" cy="84.4" rx="8" ry="7.5"/>
  <ellipse class="cls-1" cx="63.8" cy="61.6" rx="8" ry="7.5"/>
  <ellipse class="cls-1" cx="83.8" cy="47.6" rx="8" ry="7.5"/>
  <ellipse class="cls-1" cx="103.7" cy="33.6" rx="8" ry="7.5"/>
</svg>