<svg id="Layer_2" data-name="Layer 2" xmlns="http://www.w3.org/2000/svg" viewBox="0 0 200 200"><defs><style>.cls-1,.cls-2{fill:none;stroke:#1d1d1b;stroke-miterlimit:10;stroke-width:6px;}.cls-2{stroke-linecap:round;}</style></defs><path class="cls-1" d="M4.2,112.7l-.2-.8a26,26,0,0,1-.6-10C4.9,91.7,12.3,84,22.7,81.5a4.1,4.1,0,0,0,2.8-2.8l1-2.7c3.7-9.2,7.4-11.5,15.3-13.9A14.1,14.1,0,0,0,45.6,60l.2-.2c13.3-11.9,34.6-20.7,58.6-7.2L107,51a43.2,43.2,0,0,1,22.3-6.8c14.5-.4,28,6.3,31.6,19.7a4.1,4.1,0,0,0,2.9,2.9l6.9,1.8a26,26,0,0,1,4.7,1.6c14.2,6,27.2,25.1,18.8,42"/><path class="cls-1" d="M71.8,108.7H188a7.2,7.2,0,0,1,7.2,7.9c-1.1,10.1-4.6,27.7-16.7,43.7-5.6,7.5-12.6,12.6-18.7,16.4a61.5,61.5,0,0,1-32.5,9.2H71.4a61,61,0,0,1-32.5-9.2,66.9,66.9,0,0,1-18.8-16.4c-12-16-15.6-33.6-16.6-43.7a7.2,7.2,0,0,1,7.2-7.9Z"/><path class="cls-2" d="M175.5,124.7a74.8,74.8,0,0,1-4,8.9,72.9,72.9,0,0,1-5.6,9.4"/><path class="cls-2" d="M159.7,151.5a52.4,52.4,0,0,1-4.1,4.5,51.5,51.5,0,0,1-5.5,4.6"/><rect class="cls-2" x="63.9" y="185.9" width="65.6" height="10.98" rx="5.5"/><line class="cls-2" x1="133.8" y1="69" x2="143" y2="73.2"/><line class="cls-2" x1="147" y1="93" x2="156.3" y2="93"/><line class="cls-2" x1="98.9" y1="68.2" x2="109.1" y2="72.2"/><line class="cls-2" x1="104.6" y1="93" x2="94.4" y2="93"/><line class="cls-2" x1="70.2" y1="70.2" x2="60.9" y2="74.5"/><line class="cls-2" x1="54.7" y1="93" x2="43.6" y2="93"/><path class="cls-2" d="M129.9,44.1l10.2-36a8.4,8.4,0,0,1,2.4-3.4h0a8.3,8.3,0,0,1,5.3-1.6,7.4,7.4,0,0,1,6.3,10l-12,32.7"/><path class="cls-2" d="M149.5,49.1,183.8,5.6a9.2,9.2,0,0,1,3.6-2.3h0a8.3,8.3,0,0,1,5.4.6,7.3,7.3,0,0,1,2,11.7L157.5,56.4"/></svg>