<?xml version="1.0" encoding="UTF-8"?><svg id="Layer_1" xmlns="http://www.w3.org/2000/svg" viewBox="0 0 200 200"><defs><style>.cls-1{fill:none;stroke:#231f20;stroke-linecap:round;stroke-linejoin:round;stroke-width:12px;}.cls-2{fill:#231f20;stroke-width:0px;}</style></defs><path class="cls-1" d="M130.36,131.85c-4.52,2.73-16.34,8.44-30.31,8.44-13.97,0-25.8-5.7-30.31-8.44"/><path class="cls-2" d="M148.74,66.99c-10.89.47-19.06,1.9-26.97,3.28-3.09.54-6.12,1.07-9.21,1.52,1.5,2.44,2.53,5.09,3.1,8.05.49,2.55.77,5.06,1.04,7.49.35,3.15.67,6.13,1.43,8.81,2.89,10.21,15.51,14.49,25.6,16.28,7.89,1.4,14.36,1.28,19.78-.37,10.98-3.34,16.01-13.07,16.83-32.53.16-3.86.22-7.92.18-12.33-10.53-.59-21.18-.66-31.77-.2Z"/><circle class="cls-1" cx="100" cy="100" r="94"/><path class="cls-1" d="M185.53,63.86c-8.29-.68-21.22-1.4-37.07-.71-20.93.9-31.35,5.58-48.42,5.58-17.07,0-27.48-4.68-48.42-5.58-15.85-.68-28.78.03-37.07.71"/><path class="cls-1" d="M16.63,65.26c-.12,5.17-.11,10.34.11,15.5.61,14.57,3.7,30.16,19.5,34.97,6.67,2.03,13.86,1.72,20.72.5,11.18-1.99,24.52-6.98,27.92-19.03,1.4-4.95,1.38-10.23,2.36-15.27.6-3.11,1.87-5.48,3.69-7.55,2.29-2.6,5.64-4.04,9.11-4.04h0c3.47,0,6.81,1.43,9.11,4.04,1.82,2.07,3.09,4.44,3.69,7.55.97,5.04.96,10.32,2.36,15.27,3.41,12.05,16.75,17.05,27.92,19.03,6.87,1.22,14.05,1.53,20.72-.5,15.8-4.81,18.89-20.4,19.5-34.97.22-5.16.22-10.34.11-15.5"/><path class="cls-2" d="M51.34,66.99c-10.6-.46-21.25-.38-31.77.21-.04,4.41.02,8.47.18,12.33.82,19.46,5.85,29.19,16.83,32.53,5.42,1.65,11.89,1.77,19.78.37,10.08-1.79,22.71-6.07,25.59-16.28.76-2.69,1.09-5.66,1.43-8.82.27-2.43.54-4.93,1.03-7.49.57-2.95,1.6-5.61,3.1-8.05-3.09-.45-6.12-.98-9.21-1.52-7.9-1.38-16.08-2.81-26.97-3.28Z"/></svg>