<svg id="Layer_1" data-name="Layer 1" xmlns="http://www.w3.org/2000/svg" viewBox="0 0 200 200"><defs><style>.cls-1{fill:none;stroke:#000;stroke-linecap:round;stroke-miterlimit:10;stroke-width:8px;}</style></defs><path class="cls-1" d="M169.1,16.9A28.1,28.1,0,0,1,190,44.1V167.8A28.1,28.1,0,0,1,161.9,196H38.1A28.1,28.1,0,0,1,10,167.8V44.1A28.1,28.1,0,0,1,38.1,16h81"/><rect class="cls-1" x="43.4" y="95.5" width="116" height="20.89" rx="7.3"/><rect class="cls-1" x="43.4" y="48" width="56.6" height="20.89" rx="7.3"/><rect class="cls-1" x="43.4" y="143" width="116" height="20.89" rx="7.3"/><path class="cls-1" d="M161.3,4c4.3,0,7.8,4.5,7.8,10V66a2,2,0,0,1-3.5,1.4L146.1,47.9a2.8,2.8,0,0,0-4,0L122.6,67.4a2,2,0,0,1-3.5-1.4V14c0-5.5,3.5-10,7.8-10Z"/></svg>