<svg id="Layer_1" data-name="Layer 1" xmlns="http://www.w3.org/2000/svg" viewBox="0 0 200 200"><defs><style>.cls-1{fill:none;stroke:#fff;stroke-linecap:round;stroke-miterlimit:10;stroke-width:8px;}</style></defs><path class="cls-1" d="M52,13.3V168.4"/><path class="cls-1" d="M100,186.7V31.6"/><path class="cls-1" d="M100,31.6V186.7"/><path class="cls-1" d="M52,168.4V13.3"/><path class="cls-1" d="M148,168.4V13.3"/><path class="cls-1" d="M152.5,173.1l37.4,17.1a4.3,4.3,0,0,0,6.1-3.9V31.8a4.5,4.5,0,0,0-2.5-4L159,12a27.5,27.5,0,0,0-11-2.4h0A27.5,27.5,0,0,0,137,12L104.5,26.9a9.9,9.9,0,0,1-4.5,1h0a9.9,9.9,0,0,1-4.5-1L63,12A27.5,27.5,0,0,0,52,9.6h0A27.5,27.5,0,0,0,41,12L6.5,27.8a4.5,4.5,0,0,0-2.5,4V186.3a4.3,4.3,0,0,0,6.1,3.9l37.4-17.1a9.9,9.9,0,0,1,4.5-1h0a9.9,9.9,0,0,1,4.5,1L89,188a27.5,27.5,0,0,0,11,2.4h0a27.5,27.5,0,0,0,11-2.4l32.5-14.9a9.9,9.9,0,0,1,4.5-1h0A9.9,9.9,0,0,1,152.5,173.1Z"/><path class="cls-1" d="M148,13.3V168.4"/></svg>