<?xml version="1.0" encoding="UTF-8"?><svg id="Layer_1" xmlns="http://www.w3.org/2000/svg" viewBox="0 0 200 200"><defs><style>.cls-1{stroke-linecap:round;stroke-linejoin:round;}.cls-1,.cls-2{fill:none;stroke:#1d1d1b;stroke-width:8px;}.cls-2{stroke-miterlimit:10;}</style></defs><path class="cls-1" d="M116.9,85.3c-2.6-1.1-14.2-5.9-20-18.6-.9-2-1.6-4.1-2.1-6.3-1.1-5.1-1.1-10.4,0-15.5v-.4c.6-2,2.6-3.2,4.6-2.8.3,0,.7.2,1,.4l2.9,1.8c5.2,3.5,9.4,8.3,12.1,14,6.1,12.6,2.3,24.6,1.5,27.3"/><path class="cls-1" d="M141.8,118.4l1,2.5c2.4,5.9,3.1,12.3,2,18.5"/><path class="cls-1" d="M131.1,108.3c1.4.5,2.8,1.2,4,2.1"/><path class="cls-2" d="M81,185.2c-.9-.3-2.4-.5-3-.7-3.9-.9-16.6-1.2-23.4-7.5-7.1-6.5-9.3-17.7-11.2-26.7-2.5-12-4.5-25.1-.5-37,1.8-5.3,4.5-10.4,8-14.8.9-1.2,19.3-24.3,41.9-18.4,9,2.4,15,8.3,18.4,12.6,0,0,1.7,1.6,2.6,1.9h0c.9.4,3.2.2,3.2.2,5.3-1,13.7-1.7,22.1,2.3,21.1,10,20.4,39.6,20.3,41.1-.2,5.6-1.3,11.3-3.3,16.5-4.6,11.7-14.4,20.4-24,28-7.2,5.7-16.1,12.8-25.6,13.2-9.3.4-19.2-7.6-22.7-9.4s-1.8-1.1-2.8-1.4Z"/><path class="cls-1" d="M129.9,64c-1.5,1.3-3.1,3-4.7,5.1-2.5,3.2-4.8,7.2-5.7,9.8l-5.7,15.8"/><line class="cls-1" x1="41.3" y1="61.4" x2="41.3" y2="73.8"/><line class="cls-1" x1="41.3" y1="4" x2="41.3" y2="45.3"/><line class="cls-1" x1="196" y1="57.5" x2="196" y2="127.3"/><line class="cls-1" x1="4" y1="59.6" x2="4" y2="98.9"/><line class="cls-1" x1="140.9" y1="43.1" x2="140.9" y2="43.3"/><line class="cls-1" x1="140.9" y1="4" x2="140.9" y2="27.6"/><line class="cls-1" x1="72.7" y1="22.1" x2="72.7" y2="38.9"/><line class="cls-1" x1="170.6" y1="62.4" x2="170.6" y2="79.2"/></svg>