<?xml version="1.0" encoding="UTF-8"?><svg id="Layer_1" xmlns="http://www.w3.org/2000/svg" viewBox="0 0 200 200"><defs><style>.cls-1{fill:none;stroke:#231f20;stroke-linecap:round;stroke-linejoin:round;stroke-width:8px;}</style></defs><circle class="cls-1" cx="100" cy="100" r="96"/><path class="cls-1" d="M30,99.7h10.3c.7,0,1.3.5,1.6,1.3l7.9,23.8c.6,1.8,2.8,1.6,3.2-.3l13.2-72.9c.4-2.2,3-2.1,3.3.1l13.2,99.1c.3,2.2,2.8,2.3,3.3.2l12.8-59.6c.4-1.9,2.6-2.1,3.2-.2l12.2,40.4c.6,1.9,2.8,1.7,3.2-.2l13.2-70.6c.4-2.1,2.8-2.1,3.3,0l13.1,62.7c.4,1.9,2.6,2.1,3.2.2l6.6-22.5c.2-.8.9-1.3,1.6-1.3h11.8"/></svg>