<svg xmlns="http://www.w3.org/2000/svg" viewBox="0 0 280 280"><defs><style>.cls-1{fill:none;stroke:#000;stroke-miterlimit:10;stroke-width:8px;}</style></defs><g id="Layer_3" data-name="Layer 3"><rect class="cls-1" x="129.5" y="91" width="19.6" height="98.16" rx="8.7" transform="translate(139.9 -57.5) rotate(45)"/><path class="cls-1" d="M122,206.3l20.4-20.4a9.8,9.8,0,0,1,13.8,0h0a9.7,9.7,0,0,1,0,13.9l-20.3,20.4a53.8,53.8,0,0,1-76.1-76.1l20.4-20.3a9.7,9.7,0,0,1,13.9,0h0a9.8,9.8,0,0,1,0,13.8L73.7,158A34.2,34.2,0,0,0,122,206.3Z"/><path class="cls-1" d="M206.3,122l-20.4,20.4a9.8,9.8,0,0,0,0,13.8h0a9.7,9.7,0,0,0,13.9,0l20.4-20.3a53.8,53.8,0,0,0-76.1-76.1L123.8,80.2a9.7,9.7,0,0,0,0,13.9h0a9.8,9.8,0,0,0,13.8,0L158,73.7A34.2,34.2,0,1,1,206.3,122Z"/></g></svg>