<?xml version="1.0" encoding="UTF-8"?><svg id="Layer_1" xmlns="http://www.w3.org/2000/svg" viewBox="0 0 200 200"><defs><style>.cls-1{fill:none;stroke:#000;stroke-linecap:round;stroke-miterlimit:10;stroke-width:8px;}</style></defs><path class="cls-1" d="M79.5,25.8v-1.4c0-11.3,9.3-20.5,20.6-20.4,11.3,0,20.4,9.3,20.4,20.6,0,11.3-9.3,20.5-20.6,20.4-6.6,0-12.7-3.2-16.5-8.5"/><path class="cls-1" d="M53.3,196h127.5c13.5,0,16.5-4.5,14.8-15.6l-20.5-112c-3.1-13.7-15.2-23.5-29.3-23.5H54.3c-14.1,0-26.2,9.7-29.3,23.5L4.5,180.4c-1.8,11.1,1.3,15.6,14.8,15.6h93.1"/><path class="cls-1" d="M29.5,122l-4.6,24.7c-1.5,9,4.4,17.4,12.2,17.4h125.7c7.8,0,13.7-8.4,12.2-17.4l-9.9-53.3c-2-10.5-10.2-16.5-19.7-16.5H54.6c-9.5,0-17.7,6-19.7,16.5l-1.4,7.2"/><line class="cls-1" x1="31.5" y1="111.4" x2="31.5" y2="111.6"/><path class="cls-1" d="M153.3,59.5c-3.5-2.1-7.4-3.3-11.5-3.5"/><path class="cls-1" d="M164,72.1c-.8-2.1-1.9-4.1-3.3-5.9"/><line class="cls-1" x1="44.4" y1="185.3" x2="44.5" y2="185.3"/><path class="cls-1" d="M17.6,178.4c.8,5,4.5,6.9,13,6.9h4"/></svg>