<svg xmlns="http://www.w3.org/2000/svg" viewBox="0 0 200 200"><defs><style>.cls-1,.cls-2{fill:none;stroke:#1d1d1b;stroke-miterlimit:10;stroke-width:6px;}.cls-2{stroke-linecap:round;}</style></defs><g id="Layer_2" data-name="Layer 2"><path class="cls-1" d="M148.2,3h22.2a7.7,7.7,0,0,1,7.6,7.6h0a7.7,7.7,0,0,1-4.4,6.9,7.1,7.1,0,0,1-3.2.7H138.5a7.2,7.2,0,0,1-3.3-.7,7.6,7.6,0,0,1-4.3-6.9h0A7.6,7.6,0,0,1,138.5,3Z"/><path class="cls-2" d="M112,86.6a79.1,79.1,0,0,1,7.3-26.9l14.5-30.5a17.1,17.1,0,0,0,1.8-7.7V18.2"/><path class="cls-2" d="M173.2,18.2v3.3a17.1,17.1,0,0,0,1.8,7.7l14.5,30.5A83.2,83.2,0,0,1,196.9,87h0c0,1,.1,2.1.1,3.1v88.5h0A18.5,18.5,0,0,1,178.4,197h-48a18.4,18.4,0,0,1-18.5-16.2"/><path class="cls-1" d="M187,55.3a78.3,78.3,0,0,0-10.7,2.2,20.6,20.6,0,0,1-7.1,1.3c-7.7,0-8.1-2.3-14.8-2.3s-7,2.3-14.8,2.3a20.6,20.6,0,0,1-7.1-1.3,77.4,77.4,0,0,0-10.6-2.2"/><line class="cls-2" x1="184" y1="110.5" x2="184" y2="119.2"/><path class="cls-2" d="M181.1,72.2a31.3,31.3,0,0,1,2,6.3A48.7,48.7,0,0,1,184,88V99.4"/><path class="cls-1" d="M148.2,3h22.2a7.7,7.7,0,0,1,7.6,7.6h0a7.7,7.7,0,0,1-4.4,6.9,7.1,7.1,0,0,1-3.2.7H138.5a7.2,7.2,0,0,1-3.3-.7,7.6,7.6,0,0,1-4.3-6.9h0A7.6,7.6,0,0,1,138.5,3Z"/><path class="cls-1" d="M112,86.6a79.1,79.1,0,0,1,7.3-26.9l14.5-30.5a17.1,17.1,0,0,0,1.8-7.7V18.2"/><path class="cls-1" d="M173.2,18.2v3.3a17.1,17.1,0,0,0,1.8,7.7l14.5,30.5A83.2,83.2,0,0,1,196.9,87h0c0,1,.1,2.1.1,3.1v88.5h0A18.5,18.5,0,0,1,178.4,197h-48a18.4,18.4,0,0,1-18.5-16.2"/><path class="cls-1" d="M187,55.3a78.3,78.3,0,0,0-10.7,2.2,20.6,20.6,0,0,1-7.1,1.3c-7.7,0-8.1-2.3-14.8-2.3s-7,2.3-14.8,2.3a20.6,20.6,0,0,1-7.1-1.3,77.4,77.4,0,0,0-10.6-2.2"/><line class="cls-1" x1="184" y1="110.5" x2="184" y2="119.2"/><path class="cls-1" d="M181.1,72.2a31.3,31.3,0,0,1,2,6.3A48.7,48.7,0,0,1,184,88V99.4"/></g><g id="Layer_4" data-name="Layer 4"><path class="cls-1" d="M39.6,81.2c20.4-6,53.4.9,67.6,4.5,22.8,5.7,34.3,10.7,45.3,25.6s4.7,33.7,3.5,37.3c-5.3,17.5-15.6,25.8-24.5,28.8-5.6,1.4-11,1.3-19.2,2.8-20.6,3.7-26,10.9-41.6,14.5-6.5,1.5-26.8,6.1-44-4.7C7.8,178.3,3.1,155.6,3.1,146.6c0-6.1.3-35.7,13.2-50.6A49.9,49.9,0,0,1,39.6,81.2"/><path class="cls-2" d="M27.7,100.3l-1.6,1.3c-10.6,8.7-10.8,26.1-10.8,29.7,0,5.3,3.8,18.6,19.2,25.5s30.5,3.6,35.8,2.7c12.7-2.1,15.2-6.1,31.6-9.5,6.8-1.4,12.4-1.7,16.9-2.5,7.3-1.7,15.4-2.3,21.7-14.7,1.1-2.1,5.5-13.2-3.6-22.2S118.6,98.9,100,95.5c-11.5-2-38.4-6.2-55-2.6A54.3,54.3,0,0,0,37.9,95"/><ellipse class="cls-1" cx="51.8" cy="118.6" rx="15.2" ry="11.8"/><path class="cls-2" d="M137.5,154.9a29.9,29.9,0,0,0,9.2-6.3,33.4,33.4,0,0,0,8.3-18.5c1.4-13.5-6.1-23.2-7.7-25.1"/><path class="cls-2" d="M70.9,172.5c9.7-1.8,14.2-4.3,29.1-8.4,9.3-2.5,14.3-2.1,24-4.5"/><path class="cls-2" d="M3.6,133.9c-.4,5.8,3.1,20.7,16.5,30.2,17.9,12.6,36.4,10.4,41.3,9.8h1.1"/><path class="cls-2" d="M116.1,136.9c-8.1,1.8-15.1,1.3-24.5,3.9l-4.7,1.5"/><path class="cls-2" d="M126.3,115.7c2.3,2.2,4.4,5.1,4.5,8.3a11.4,11.4,0,0,1-1.1,5.2"/></g></svg>