<?xml version="1.0" encoding="UTF-8"?><svg id="Layer_1" xmlns="http://www.w3.org/2000/svg" viewBox="0 0 200 200"><defs><style>.cls-1{stroke:#000;}.cls-1,.cls-2{fill:none;stroke-linecap:round;stroke-linejoin:round;stroke-width:8px;}.cls-2{stroke:#231f20;}</style></defs><path class="cls-2" d="M136.3,83.1c22.4,48.1,24.3,94.6,4.3,103.9s-54.4-22-76.9-70.1c-22.4-48.1-24.3-94.6-4.3-103.9,7.8-3.6,17.7-1.1,28.3,6.1"/><circle class="cls-2" cx="87.7" cy="19.1" r="4.3"/><path class="cls-2" d="M118.1,147.68c-23.22,28.89-48.98,44.13-63.9,35.46-7.4-4.3-11.1-13.9-11.2-26.7"/><path class="cls-2" d="M67.5,79.95c26.5-45.9,63.5-74.2,82.7-63.1,19.1,11.1,13.2,57.2-13.3,103.2-3.2,5.5-6.5,10.7-9.9,15.6"/><circle class="cls-2" cx="42.9" cy="156.35" r="4.3"/><circle class="cls-2" cx="178.5" cy="123.1" r="4.3"/><path class="cls-1" d="M60.18,63.6c12.13-2.32,25.62-3.62,39.85-3.64,53.06.03,96,17.96,95.98,40.01-.03,8.59-6.48,16.51-17.49,23.07"/><path class="cls-1" d="M32.7,71.5c.69-.28,1.38-.56,2.09-.83"/><path class="cls-1" d="M99.98,140.04c-53.06-.03-96-17.96-95.98-40.01,0-8.15,5.87-15.74,15.94-22.07"/><path class="cls-2" d="M115.64,96.59c.24,1.1.36,2.24.36,3.41,0,8.84-7.16,16-16,16s-16-7.16-16-16,7.16-16,16-16c1.83,0,3.58.31,5.22.87"/></svg>