<?xml version="1.0" encoding="UTF-8"?>
<svg id="Layer_1" data-name="Layer 1" xmlns="http://www.w3.org/2000/svg" version="1.1" viewBox="0 0 200 200">
  <defs>
    <style>
      .cls-1 {
        fill: #000;
        stroke-width: 0px;
      }

      .cls-2 {
        stroke-miterlimit: 10;
      }

      .cls-2, .cls-3 {
        fill: none;
        stroke: #000;
        stroke-width: 8px;
      }

      .cls-3 {
        stroke-linecap: round;
        stroke-linejoin: round;
      }
    </style>
  </defs>
  <path class="cls-3" d="M134,21.3h7.1c5.8,0,11.4,2.4,15.5,6.5l32.9,32.8c4.1,4.1,6.4,9.7,6.4,15.5v101.9c0,9.9-8.1,17.9-18,18h-89.5c-9.7,0-17.6-7.6-18-17.2"/>
  <path class="cls-3" d="M114.5,5.8v33.6c0,8,6.5,14.5,14.5,14.6h33.6"/>
  <path class="cls-1" d="M81.5,92.2c-1.5-1.8-3.3-3.3-5.4-4.4-2.3-1-4.8-1.6-7.4-1.6h-12.8c-1.1,0-2.2.4-3.1,1.2-.8.8-1.3,1.9-1.2,3.1v31.2c0,1.1.4,2.2,1.2,3,.7.8,1.7,1.2,2.7,1.2h13.2c3.3.1,6.6-.8,9.4-2.7,2.6-1.8,4.6-4.3,5.8-7.3,1.4-3.1,2-6.5,2-9.9,0-2.6-.4-5.1-1.1-7.5-.6-2.3-1.8-4.5-3.3-6.3ZM77,106.1c0,2-.4,4.1-.9,6.1-.6,1.6-1.6,3-2.9,4.2-1.5,1-3.2,1.6-5,1.5h-7.9v-23.5h7.9c1.4,0,2.7.3,3.9.9,1.1.6,2,1.5,2.7,2.5.8,1.1,1.4,2.4,1.7,3.7.4,1.5.6,3,.6,4.6Z"/>
  <path class="cls-1" d="M112,94.3c1.1,0,2.2-.4,3-1.2.8-.6,1.2-1.6,1.2-2.6,0-1.2-.3-2.3-1.2-3.2-.8-.7-1.9-1.1-3-1.1h-17.5c-1.2,0-2.3.4-3.2,1.2-.7.8-1.1,1.9-1.1,3.1v31.2c0,1.1.4,2.3,1.2,3.1.9.8,2,1.2,3.2,1.1,2.3,0,4.1-1.7,4.2-4,0,0,0-.1,0-.2v-11.6h10.8c1.1,0,2.2-.4,3-1.2.8-.7,1.2-1.7,1.2-2.8,0-1.1-.4-2.1-1.2-2.9-.8-.8-1.9-1.3-3-1.2h-10.8v-7.6h13.2Z"/>
  <path class="cls-2" d="M37,68.1V22c0-9.9,8.1-18,18.1-18h52.6c5.8,0,11.4,2.4,15.5,6.5l32.9,32.8c4.1,4.1,6.4,9.7,6.4,15.5v101.9c0,9.9-8.1,17.9-18,18H55.1c-9.9,0-18-8-18.1-18v-18.2"/>
  <path class="cls-1" d="M40.7,87.2h0c-1.7-1.2-3.7-1.8-5.8-1.8h-12.3c-1.1,0-2.2.4-3,1.2-.8.8-1.3,1.9-1.3,3.1v31.2c0,1.1.4,2.2,1.1,3,.7.8,1.7,1.2,2.8,1.2h.4c1.1,0,2.1-.5,2.8-1.2.7-.8,1-1.9,1-3v-9.3h8.5c2.1,0,4.1-.6,5.8-1.8,1.8-1.2,3.3-2.8,4.3-4.7,3.2-6.2,1.4-13.8-4.3-17.9ZM38.2,98.5c0,1.7-.7,3.3-2,4.5h0c-.3.4-.8.7-1.3.7h-8.5v-10.1h8.5c.5,0,1,.3,1.4.7.6.5,1,1.2,1.4,1.9.4.7.6,1.6.6,2.4Z"/>
  <path class="cls-2" d="M111.8,142.6H22c-9.9,0-17.9-8.1-18-18v-38.5c0-9.9,8.1-17.9,18-18h89.8c9.9,0,17.9,8.1,18,18v38.5c0,9.9-8.1,17.9-18,18Z"/>
</svg>