<?xml version="1.0" encoding="UTF-8"?><svg id="Layer_1" xmlns="http://www.w3.org/2000/svg" viewBox="0 0 200 200"><defs><style>.cls-1{fill:none;stroke:#231f20;stroke-linecap:round;stroke-linejoin:round;stroke-width:8px;}</style></defs><path class="cls-1" d="M31,23.8c0-10.9,8.9-19.8,19.8-19.8h57.8c6.4,0,12.6,2.6,17.1,7.1l36.1,36c4.6,4.6,7.1,10.7,7.1,17.1v111.9c0,10.9-8.9,19.8-19.8,19.8H50.8c-10.9,0-19.8-8.9-19.8-19.8V23.8Z"/><path class="cls-1" d="M115.3,5v37c0,8.8,7.1,15.9,15.9,16h36.9"/><path class="cls-1" d="M53.1,91c2.2-1,4.7-2.3,7.2-3.9,3.7-2.4,6.6-4.9,8.8-7.1v40"/><path class="cls-1" d="M127.5,91c2.2-1,4.7-2.3,7.2-3.9,3.7-2.4,6.6-4.9,8.8-7.1v40"/><path class="cls-1" d="M89.2,148.7c2.2-1,4.7-2.3,7.2-3.9,3.7-2.4,6.6-4.9,8.8-7.1v40"/><ellipse class="cls-1" cx="100.2" cy="100" rx="11" ry="20"/><ellipse class="cls-1" cx="132.5" cy="157.6" rx="11" ry="20"/><ellipse class="cls-1" cx="64.1" cy="157.6" rx="11" ry="20"/></svg>