<svg id="Layer_2" data-name="Layer 2" xmlns="http://www.w3.org/2000/svg" viewBox="0 0 200 200"><defs><style>.cls-1,.cls-2{fill:none;stroke:#1d1d1b;stroke-miterlimit:10;stroke-width:6px;}.cls-2{stroke-linecap:round;}</style></defs><path class="cls-1" d="M148.1,30.9c6.8,4.2,25,15.9,22.9,21.3-1.4,3.8-12.4,4.8-20.7,3-5.3-1.2-5.1-2.5-9.3-3.1-9.7-1.3-12.7,5-22.4,5.1s-9-5.2-18-5.1-11.3,6.6-20.1,6-9.8-6.8-17.2-5.9c-5.1.7-5.4,3.6-13.9,5.5a26,26,0,0,1-9.7.5A25.5,25.5,0,0,1,33.1,56c-4.6-2.2-6.8-3-6.5-4.6S29.7,46.6,37.2,41c4.6-3.5,9.9-6.6,15.4-10.1Z"/><rect class="cls-1" x="43.4" y="3.2" width="111.2" height="25.68" rx="12.8"/><line class="cls-2" x1="169.8" y1="18.8" x2="147.3" y2="28.8"/><line class="cls-2" x1="143.7" y1="28.8" x2="173.5" y2="32.3"/><path class="cls-1" d="M161.3,55.9h0a43.6,43.6,0,0,1,3.5,4,42.9,42.9,0,0,1,8.4,25.3v69.1a42.8,42.8,0,0,1-42.6,42.6H70.2a42.8,42.8,0,0,1-42.6-42.6V85.2A42.2,42.2,0,0,1,37.9,57.5"/><path class="cls-2" d="M94.1,88.8h38.7A21.3,21.3,0,0,1,154,110v17a21.3,21.3,0,0,1-21.2,21.2H68A21.3,21.3,0,0,1,46.8,127V110A21.3,21.3,0,0,1,68,88.8Z"/></svg>