<svg xmlns="http://www.w3.org/2000/svg" viewBox="0 0 200 200"><defs><style>.cls-1,.cls-2,.cls-3{fill:none;stroke:#1d1d1b;stroke-width:6px;}.cls-1,.cls-3{stroke-linecap:round;}.cls-1,.cls-2{stroke-miterlimit:10;}.cls-3{stroke-linejoin:round;}</style></defs><g id="Layer_2" data-name="Layer 2"><line class="cls-1" x1="155.7" y1="26.3" x2="145.3" y2="45.6"/><rect class="cls-2" x="142" y="33.5" width="8.8" height="40.38" rx="4.4" transform="translate(4.9 119.2) rotate(-45)"/><path class="cls-2" d="M156.1,69.5a91.2,91.2,0,0,1-8.3,29.7c-4.4,9.2-7.4,11.7-10.9,15.1-5.3,5.2-5.7,6-17.8,11.5a187.4,187.4,0,0,1-24.6,9.5c-4.7,1.5-9.1,2.8-13.1,3.9a16.1,16.1,0,0,1-13-1.5h0a17.7,17.7,0,0,1-3.5-2.6h0a17.7,17.7,0,0,1-2.6-3.5h0a16.4,16.4,0,0,1-1.5-13c1.2-3.9,2.4-8.4,3.9-13.1a193.1,193.1,0,0,1,9.5-24.6c5.5-12.1,6.3-12.4,11.6-17.8,3.3-3.5,5.8-6.5,15-10.9A89.1,89.1,0,0,1,130.5,44"/><path class="cls-2" d="M71.5,140l-11.8,8.6a5.4,5.4,0,0,1-2.7,1.1h0a5.4,5.4,0,0,1-5-1.6h-.1a5.8,5.8,0,0,1-1.6-5h0a8.1,8.1,0,0,1,1.1-2.7L60,128.6"/><line class="cls-1" x1="163.3" y1="49.9" x2="154.4" y2="54.7"/><line class="cls-1" x1="173.7" y1="44.4" x2="171.4" y2="45.6"/><path class="cls-1" d="M162.4,65.2c3,.3,7.4-.4,12.5-1.6,7.8-1.8,13.5-3.6,16.6-6.7s7.4-9.4,4.2-14.4a12.1,12.1,0,0,0-4.5-4.2c-1.7-.9-3.6-1.2-5.2-2.1s-3.6-5-4.4-8-1-4.6-2.8-6.3l-.7-.7c-1.7-1.7-3.9-2.1-6.3-2.8s-6.2-1.5-7.9-4.4-1.3-3.5-2.2-5.2a12.7,12.7,0,0,0-4.1-4.5c-5.1-3.2-10.5.3-14.5,4.3s-4.9,8.8-6.7,16.5c-1.2,5.1-1.9,9.5-1.6,12.6"/><path class="cls-1" d="M102.4,121l-3.3,1.1-2.6.8"/><path class="cls-1" d="M139.4,90.6c-.9,2.3-1.7,4.3-2.5,5.9-3.1,6.5-5.2,8.3-7.7,10.7s-4.1,4.2-12.7,8.2l-1.7.7"/><path class="cls-1" d="M102.5,63.7a28.6,28.6,0,0,0-9.6,7.2c-3.7,3.8-4.3,4-8.2,12.7a11.1,11.1,0,0,0-.7,1.6c-1.8,4-2.8,6.4-4.3,10.6"/></g><g id="Layer_4" data-name="Layer 4"><path class="cls-3" d="M10.8,197c-4.1,0-7.5-4.3-7.7-9.6s1-7.7,4.7-12.5c5.7-7.2,15.5-11.4,18.6-14.1a16,16,0,0,0,2.5,5.8c2.4,3.5,4.6,3.9,9.7,7.9s7.6,5.4,8.9,9.4c.5,1.4,1.5,5.1-.1,8.2a8.3,8.3,0,0,1-7.6,4.9Z"/><path class="cls-1" d="M22.3,163.8A76,76,0,0,0,14.7,177c-1.5,3.4-2.2,5-1.9,7.9a7.4,7.4,0,0,0,2.6,4.5"/><path class="cls-1" d="M37.7,186a6.6,6.6,0,0,1,.1,1.5,7,7,0,0,1-.3,2c-1.6,4.8-4.7,7.5-9.6,7.5"/><path class="cls-1" d="M27.2,163.7a25.4,25.4,0,0,0,2.9,9.4,50.1,50.1,0,0,0,2.9,4.7"/></g></svg>