<svg id="Layer_2" data-name="Layer 2" xmlns="http://www.w3.org/2000/svg" viewBox="0 0 200 200"><defs><style>.cls-1{fill:#fff;}</style></defs><rect class="cls-1" x="134.4" y="96.9" width="18.8" height="18.75"/><rect class="cls-1" x="146.9" y="84.4" width="18.8" height="18.75"/><rect class="cls-1" x="46.9" y="96.9" width="18.8" height="18.75"/><rect class="cls-1" x="59.4" y="84.4" width="18.8" height="18.75"/><rect class="cls-1" x="37.5" y="25" width="12.5" height="12.5"/><rect class="cls-1" x="25" y="37.5" width="12.5" height="12.5"/><polygon class="cls-1" points="25 125 12.5 125 12.5 137.5 12.5 150 25 150 25 137.5 25 125"/><rect class="cls-1" x="25" y="150" width="12.5" height="12.5"/><rect class="cls-1" x="37.5" y="162.5" width="12.5" height="12.5"/><polygon class="cls-1" points="62.5 175 50 175 50 187.5 62.5 187.5 75 187.5 75 175 62.5 175"/><polygon class="cls-1" points="100 150 87.5 150 75 150 75 162.5 87.5 162.5 100 162.5 112.5 162.5 125 162.5 125 150 112.5 150 100 150"/><rect class="cls-1" x="125" y="137.5" width="12.5" height="12.5"/><rect class="cls-1" x="62.5" y="137.5" width="12.5" height="12.5"/><polygon class="cls-1" points="100 187.5 87.5 187.5 75 187.5 75 200 87.5 200 100 200 112.5 200 125 200 125 187.5 112.5 187.5 100 187.5"/><polygon class="cls-1" points="125 175 125 187.5 137.5 187.5 150 187.5 150 175 137.5 175 125 175"/><rect class="cls-1" x="150" y="162.5" width="12.5" height="12.5"/><rect class="cls-1" x="162.5" y="150" width="12.5" height="12.5"/><polygon class="cls-1" points="175 137.5 175 150 187.5 150 187.5 137.5 187.5 125 175 125 175 137.5"/><path class="cls-1" d="M187.5,75V50H175V75H25V50H12.5V75H0v50H12.5V87.5H25v25H37.5V125H75V112.5H87.5v-25h25v25H125V125h37.5V112.5H175v-25h12.5V125H200V75ZM75,100H62.5v12.5H50V100H62.5V87.5H75Zm87.5,0H150v12.5H137.5V100H150V87.5h12.5Z"/><rect class="cls-1" x="162.5" y="37.5" width="12.5" height="12.5"/><rect class="cls-1" x="150" y="25" width="12.5" height="12.5"/><polygon class="cls-1" points="137.5 25 150 25 150 12.5 137.5 12.5 125 12.5 125 25 137.5 25"/><polygon class="cls-1" points="100 12.5 112.5 12.5 125 12.5 125 0 112.5 0 100 0 87.5 0 75 0 75 12.5 87.5 12.5 100 12.5"/><polygon class="cls-1" points="75 25 75 12.5 62.5 12.5 50 12.5 50 25 62.5 25 75 25"/></svg>