<?xml version="1.0" encoding="UTF-8"?><svg id="Layer_1" xmlns="http://www.w3.org/2000/svg" viewBox="0 0 200 200"><defs><style>.cls-1{fill:none;stroke:#231f20;stroke-miterlimit:10;stroke-width:8px;}</style></defs><path class="cls-1" d="M74.2,114c0-4.5,1.5-8.3,4.4-11.3,2.9-3,6.7-4.5,11.2-4.5,7.1,0,13.5-1.1,19.2-3.2,5.7-2.2,10.2-5.7,13.6-10.5,3.4-4.8,5.1-11.2,5.1-19.2s-1.4-11.1-4.3-15.6c-2.9-4.5-6.7-8-11.7-10.6-4.9-2.6-10.5-3.9-16.7-3.9s-9.4.9-13.6,2.6c-4.2,1.7-8.1,4.1-11.5,7-2.8,2.4-6.1,4.2-10,5.3-3.9,1.1-7.8.2-11.8-2.7-4.2-3.1-6.4-6.8-6.7-11.2-.3-4.3,1.3-8.3,4.9-11.9,6.2-6.4,13.5-11.4,21.9-14.9,8.4-3.5,17.3-5.3,26.9-5.3s22.7,2.7,32.3,8.2c9.6,5.4,17.3,12.8,23,21.9,5.7,9.2,8.6,19.5,8.6,31.1s-1.3,16.3-3.9,23c-2.6,6.7-6.3,12.4-11,17.1-4.8,4.8-10.3,8.6-16.6,11.4-6.3,2.9-13.2,4.9-20.6,6.1-.3.2-.6.3-.9.5-.3.2-.4.4-.4.8v9.6c0,4.5-1.5,8.3-4.4,11.3-2.9,3-6.7,4.5-11.2,4.5s-8.2-1.5-11.2-4.5c-2.9-3-4.4-6.8-4.4-11.3v-19.7ZM88.5,196c-5,0-8.9-1.3-11.5-4-2.7-2.7-4-6.5-4-11.5v-4.4c0-5,1.3-8.9,4-11.5,2.7-2.7,6.5-4,11.5-4h3.4c5,0,8.9,1.3,11.5,4,2.7,2.7,4,6.5,4,11.5v4.4c0,5-1.3,8.9-4,11.5-2.7,2.7-6.5,4-11.5,4h-3.4Z"/></svg>