<svg id="Layer_2" data-name="Layer 2" xmlns="http://www.w3.org/2000/svg" viewBox="0 0 200 200"><defs><style>.cls-1,.cls-2,.cls-4{fill:none;stroke-width:6px;}.cls-1,.cls-2{stroke:#1d1d1b;stroke-miterlimit:10;}.cls-2,.cls-4{stroke-linecap:round;}.cls-3{fill:#ffed00;}.cls-4{stroke:#000;stroke-linejoin:round;}</style></defs><circle class="cls-1" cx="100" cy="118.9" r="79.3"/><path class="cls-2" d="M43.4,145.1a62,62,0,0,1-5.8-26.2,61.1,61.1,0,0,1,.6-8.6"/><path class="cls-2" d="M56.9,163.9a22.8,22.8,0,0,1-2.2-2.2"/><path class="cls-2" d="M133.6,171.4a62.2,62.2,0,0,1-33.6,9.9,61.4,61.4,0,0,1-33.9-10.1"/><path class="cls-2" d="M161.8,110.2a62.5,62.5,0,0,1-14.7,49.6"/><path class="cls-3" d="M103.3,45l-8.7,8.7a8.9,8.9,0,0,1-6.8,2.9,23.1,23.1,0,0,0-17.6,7.1L28.4,105.5,11.2,122.7a4.9,4.9,0,0,1-3.4,1.4,4.7,4.7,0,0,1-3.3-1.4,4.7,4.7,0,0,1,0-6.7L21.7,98.7,63.5,56.9a23.6,23.6,0,0,0,7.1-17.5,9,9,0,0,1,2.9-6.9l8.6-8.6A7.5,7.5,0,0,0,92.7,34.5a7.4,7.4,0,0,0,0,10.5A7.5,7.5,0,0,0,103.3,45Z"/><path class="cls-4" d="M103,3.1,96.7,9.4,82.1,23.9l-8.6,8.6a9,9,0,0,0-2.9,6.9,23.6,23.6,0,0,1-7.1,17.5L21.7,98.7,4.5,116a4.7,4.7,0,0,0,0,6.7,4.7,4.7,0,0,0,3.3,1.4,4.9,4.9,0,0,0,3.4-1.4l17.2-17.2L70.2,63.7a23.1,23.1,0,0,1,17.6-7.1,8.9,8.9,0,0,0,6.8-2.9l8.7-8.7,9.2-9.2"/><polyline class="cls-4" points="112.5 35.8 117.8 30.5 124.1 24.2"/><path class="cls-4" d="M92.7,34.5A7.5,7.5,0,0,1,82.1,23.9"/><path class="cls-4" d="M103.3,45a7.5,7.5,0,0,1-10.6,0,7.4,7.4,0,0,1,0-10.5l20.8-20.9"/><path class="cls-1" d="M169.1,89.5,125.7,46.2l-9.9-10L83.1,3.5a1.3,1.3,0,0,0-2.3.6l-.2,1.3c-2.3,15.2,3.1,31.1,14.5,42.4l3.8,3.8,7.9,7.9a23.7,23.7,0,0,0,17.4,7.1h5.6a7.7,7.7,0,0,1,5.1,2.1L162.3,96l26.4,26.5a4.9,4.9,0,0,0,6.9.2h0a4.9,4.9,0,0,0-.2-6.9L169,89.4"/></svg>