<?xml version="1.0" encoding="UTF-8"?><svg id="Layer_1" xmlns="http://www.w3.org/2000/svg" viewBox="0 0 200 200"><defs><style>.cls-1{fill:none;stroke:#231f20;stroke-linecap:round;stroke-linejoin:round;stroke-width:8px;}</style></defs><ellipse class="cls-1" cx="100" cy="79" rx="75" ry="75"/><path class="cls-1" d="M52.9,118c-8.1-9.8-12.7-21.5-13.8-33.3"/><path class="cls-1" d="M39.2,73.3c1.2-12.7,6.2-24.2,13.8-33.3"/><path class="cls-1" d="M61,31.9c9.8-8.1,21.5-12.7,33.3-13.8"/><path class="cls-1" d="M105.7,18.1c12.7,1.2,24.2,6.2,33.3,13.8"/><path class="cls-1" d="M147.1,40c8.1,9.8,12.7,21.5,13.8,33.3"/><path class="cls-1" d="M160.8,84.7c-1.2,12.7-6.2,24.2-13.8,33.3"/><path class="cls-1" d="M113.9,124.8h3.5c3,0,5.5,2.5,5.5,5.5h0c0,3-2.5,5.5-5.5,5.5h-34.7c-3,0-5.5-2.5-5.5-5.5h0c0-3,2.5-5.5,5.5-5.5h19.2"/><path class="cls-1" d="M98.7,88l-7,7c-1.9,1.9-5.2,1.7-7.3-.4h0c-2.1-2.1-2.3-5.4-.4-7.3l7-7"/><path class="cls-1" d="M101.3,69.9l14.6-14.6c1.9-1.9,15.3-11.8,17.4-9.7h0c2.1,2.1-7.8,15.5-9.7,17.4l-14.6,14.6"/><circle class="cls-1" cx="100" cy="79" r="8.8"/><path class="cls-1" d="M122.7,153.1c0,6.1,1.4,13.7,5.4,18.5,3.9,4.6,9.6,6.9,15.5,6.9,0,0,43.7,0,43.7,0,4.8,0,8.7,3.9,8.7,8.7s-3.9,8.7-8.7,8.7H12.7c-4.8,0-8.7-3.9-8.7-8.7s3.9-8.7,8.7-8.7c0,0,43.7,0,43.7,0,5.9,0,11.6-2.3,15.5-6.9,4.1-4.8,5.4-12.4,5.4-18.5"/><path class="cls-1" d="M122.6,184.6s0,0,.1,0"/><path class="cls-1" d="M110.4,163.4c.7,3.8,1.8,7.7,3.5,11.1"/></svg>