<svg id="Layer_2" data-name="Layer 2" xmlns="http://www.w3.org/2000/svg" viewBox="0 0 200 200"><defs><style>.cls-1,.cls-2{fill:none;stroke:#1d1d1b;stroke-miterlimit:10;stroke-width:6px;}.cls-1{stroke-linecap:round;}</style></defs><path class="cls-1" d="M46.2,107.4l15.6,15.5a8.5,8.5,0,0,0,12.1,0l6.5-6.4"/><path class="cls-1" d="M71.9,107.1l36.7,36.6a8.6,8.6,0,0,0,12.1,0L157.3,107"/><line class="cls-2" x1="17.2" y1="92.2" x2="17.2" y2="106.7"/><path class="cls-2" d="M100,3c18.9,0,31.8,1.4,57.1,16.1,23.3,13.7,30.9,31,33.9,43.1a9.8,9.8,0,0,1-9.5,12.2H18.5A9.8,9.8,0,0,1,9,62.2c3-12.1,10.6-29.4,33.9-43.1C68.2,4.4,81.1,3,100,3Z"/><path class="cls-2" d="M189.2,72.1c5.4,14.2-.2,17.7-3.4,19.2s-8.4-1.7-18.2-1.8-11,3.8-21.2,4.3c-12.2.6-13.1-4.8-25.5-4.5S110.7,94,100,94s-9.7-4.4-20.9-4.7-13.3,5.1-25.5,4.5c-10.2-.5-10.6-4.3-21.2-4.3s-13.9,3.8-18.2,1.8-8.8-5-3.4-19.2"/><line class="cls-2" x1="182.8" y1="92.2" x2="182.8" y2="106.7"/><path class="cls-1" d="M137.8,139.9H180a16.7,16.7,0,0,0,16.7-16.6h0A16.6,16.6,0,0,0,180,106.7H20A16.6,16.6,0,0,0,3.3,123.3h0A16.7,16.7,0,0,0,20,139.9H91.2"/><path class="cls-2" d="M189.2,137.2c5.4,14.3-.2,17.7-3.4,19.3s-8.4-1.8-18.2-1.9-11,3.8-21.2,4.3c-12.2.6-13.1-4.8-25.5-4.4s-10.2,4.6-20.9,4.6-9.7-4.3-20.9-4.6-13.3,5-25.5,4.4c-10.2-.5-10.6-4.3-21.2-4.3s-13.9,3.8-18.2,1.9-8.8-5-3.4-19.3"/><path class="cls-2" d="M187.3,156.2v10.9A29.9,29.9,0,0,1,157.4,197H42.6a29.9,29.9,0,0,1-29.9-29.9V156.2"/><path class="cls-1" d="M142.5,25.4a82.6,82.6,0,0,1,8.4,4.9,78.3,78.3,0,0,1,11.9,9.2"/><path class="cls-1" d="M123.3,18.4,129,20"/><circle class="cls-1" cx="103.1" cy="28.5" r="0.5"/><circle class="cls-1" cx="54.1" cy="51" r="0.5"/><circle class="cls-1" cx="68.7" cy="29.5" r="0.5"/><circle class="cls-1" cx="96" cy="56" r="0.5"/><circle class="cls-1" cx="124.4" cy="43.6" r="0.5"/><circle class="cls-1" cx="156.2" cy="56.5" r="0.5"/></svg>