<svg id="Layer_2" data-name="Layer 2" xmlns="http://www.w3.org/2000/svg" viewBox="0 0 200 200"><defs><style>.cls-1,.cls-2{fill:none;stroke:#1d1d1b;stroke-miterlimit:10;stroke-width:6px;}.cls-1{stroke-linecap:round;}</style></defs><path class="cls-1" d="M183.6,48.7a6.9,6.9,0,0,1-1.1,1.3h0l-.8.7"/><path class="cls-1" d="M182.5,35.3h0a10.6,10.6,0,0,1,2.9,5.4"/><path class="cls-2" d="M122.5,44.3C114,52.5,107,57.8,101.3,60.7c-9.6,4.9-19.2,7.2-27.6,15.7-3.1,3.1-4.1,5.3-5.5,9a26.2,26.2,0,0,0-1,15.8l31.6,31.6a26.8,26.8,0,0,0,15.8-.9c3.7-1.5,5.9-2.5,9-5.5,8.5-8.5,10.9-18.1,15.7-27.7,2.9-5.7,8.2-12.7,16.5-21.1Z"/><rect class="cls-2" x="36.5" y="111" width="39.3" height="65.71" rx="15.2" transform="translate(-85.3 81.8) rotate(-45)"/><rect class="cls-2" x="67.3" y="90.7" width="18.2" height="65.71" rx="9.1" transform="translate(-65 90.2) rotate(-45)"/><rect class="cls-2" x="136.8" y="21.2" width="18.2" height="65.66" rx="9.1" transform="translate(4.5 119) rotate(-45)"/><rect class="cls-2" x="146.6" y="0.9" width="39.3" height="65.66" rx="19.7" transform="translate(24.8 127.5) rotate(-45)"/><path class="cls-2" d="M187.3,27l7.2-7.2a10,10,0,0,0,0-14.3,10.2,10.2,0,0,0-14.3,0L173,12.7"/><path class="cls-1" d="M125.4,104.9a47.6,47.6,0,0,1-9.5,14l-.4.4a18.9,18.9,0,0,1-5.8,4"/><circle class="cls-2" cx="26.6" cy="173.4" r="0.5"/><circle class="cls-2" cx="3.1" cy="196.9" r="0.5"/><circle class="cls-2" cx="3.2" cy="173.3" r="0.5"/><circle class="cls-2" cx="26.7" cy="196.8" r="0.5"/><circle class="cls-2" cx="14.9" cy="185.1" r="0.5"/></svg>