<?xml version="1.0" encoding="UTF-8"?><svg id="Layer_1" xmlns="http://www.w3.org/2000/svg" viewBox="0 0 200 200"><defs><style>.cls-1{fill:none;stroke:#231f20;stroke-linecap:round;stroke-linejoin:round;stroke-width:8px;}</style></defs><path class="cls-1" d="M100,196c21.5,0,39-17.5,39-39,0-14.2-7.6-26.7-19-33.5h0V24c0-11-9-20-20-20h0c-11,0-20,9-20,20v99.5h0c-11.4,6.8-19,19.3-19,33.5,0,21.5,17.5,39,39,39h0Z"/><path class="cls-1" d="M117.3,171.1c-4.3,5.5-11.2,8.9-18.7,8.4-12.2-.8-21.4-11.2-20.6-23.4s11.2-21.4,23.4-20.6,10.5,2.7,14.1,6.3"/><path class="cls-1" d="M122,156.5s0,0,0,0"/><line class="cls-1" x1="96.5" y1="101.7" x2="96.5" y2="135.4"/><line class="cls-1" x1="120" y1="114.3" x2="110.4" y2="114.3"/><line class="cls-1" x1="120" y1="80.9" x2="110.4" y2="80.9"/><line class="cls-1" x1="120" y1="47.5" x2="110.4" y2="47.5"/><line class="cls-1" x1="120" y1="97.6" x2="114.7" y2="97.6"/><line class="cls-1" x1="120" y1="64.2" x2="114.7" y2="64.2"/><line class="cls-1" x1="117.3" y1="30.9" x2="112.6" y2="30.9"/></svg>