<svg id="Layer_1" data-name="Layer 1" xmlns="http://www.w3.org/2000/svg" viewBox="0 0 200 200"><defs><style>.cls-1{fill:none;stroke:#000;stroke-linecap:round;stroke-miterlimit:10;stroke-width:8px;}.cls-2{fill:#946aff;}</style></defs><path class="cls-1" d="M195.9,100.5a95.8,95.8,0,0,1-62,89.3"/><path class="cls-1" d="M77.6,193.3A96,96,0,0,1,100,4a95.2,95.2,0,0,1,79.4,41.9"/><path class="cls-1" d="M98.9,45.9V99.8a1.1,1.1,0,0,0,.6.9l17.4,8.7"/><path class="cls-2" d="M198.6,67h0a9.6,9.6,0,0,0-13.1-3.5.1.1,0,0,1-.1.1,13.8,13.8,0,0,0-2.6,2.2L112.2,153a4.1,4.1,0,0,1-5.8.6h0a3.4,3.4,0,0,1-.8-.9l-17-24.2a15.3,15.3,0,0,0-21.3-3.7,18.6,18.6,0,0,0-2.9,2.7h0a15.5,15.5,0,0,0-.8,18.6l34.7,49.5a10.6,10.6,0,0,0,14.7,2.6,10.7,10.7,0,0,0,2.6-2.6l9.9-14.3L198.2,77.4A9.4,9.4,0,0,0,198.6,67Z"/></svg>