<svg id="Layer_2" data-name="Layer 2" xmlns="http://www.w3.org/2000/svg" viewBox="0 0 200 200"><defs><style>.cls-1,.cls-2{fill:none;stroke:#1d1d1b;stroke-miterlimit:10;stroke-width:6px;}.cls-2{stroke-linecap:round;}</style></defs><path class="cls-1" d="M79.5,151A66.8,66.8,0,0,0,76,123.7,62.7,62.7,0,0,0,60.1,99C40.2,80.1,15.7,81.4,11.8,81.6l-3.4.3a5.5,5.5,0,0,0-4.9,5l-.3,3.3c-.3,3.9-1.6,28.4,17.4,48.4a62,62,0,0,0,24.7,15.9A68.1,68.1,0,0,0,72.6,158h.8a6.5,6.5,0,0,0,4.2-1.9,6.3,6.3,0,0,0,1.9-4.2Z"/><line class="cls-2" x1="51.6" y1="130.3" x2="77.3" y2="156"/><path class="cls-1" d="M80.9,147.3a102,102,0,0,1,5.3-41.4,95.6,95.6,0,0,1,24.1-37.5c30.3-28.8,67.5-26.8,73.4-26.4l5.2.5a8.1,8.1,0,0,1,7.4,7.4l.4,5.1c.5,6,2.4,43.2-26.4,73.4a95.7,95.7,0,0,1-37.4,24.2,102.5,102.5,0,0,1-41.5,5.3H90.2a10,10,0,0,1-9.2-9.2Z"/><line class="cls-2" x1="112.9" y1="126.3" x2="84.3" y2="154.8"/><line class="cls-2" x1="131.9" y1="107.2" x2="123.5" y2="115.6"/><path class="cls-2" d="M140,63.3a73.7,73.7,0,0,1,24.9-5.2"/><path class="cls-2" d="M125.5,71.3l5.1-3.3"/><path class="cls-2" d="M46.2,101.7A41,41,0,0,0,25.6,96"/><line class="cls-2" x1="47.8" y1="126.4" x2="63.7" y2="142.3"/></svg>