<?xml version="1.0" encoding="utf-8"?>
<!-- Generator: Adobe Illustrator 26.0.0, SVG Export Plug-In . SVG Version: 6.00 Build 0)  -->
<svg version="1.1" id="Layer_1" xmlns="http://www.w3.org/2000/svg" xmlns:xlink="http://www.w3.org/1999/xlink" x="0px" y="0px"
	 viewBox="0 0 200 200" style="enable-background:new 0 0 200 200;" xml:space="preserve">
<style type="text/css">
	.st0{fill:none;stroke:#1D1D1B;stroke-width:10;stroke-linecap:round;stroke-linejoin:round;}
</style>
<path class="st0" d="M20.8,18h158.5c8.7,0,15.7,7,15.7,15.7v111.2c0,8.7-7,15.7-15.7,15.7H20.8c-8.7,0-15.7-7-15.7-15.7V33.7
	C5.1,25,12.1,18,20.8,18z"/>
<line class="st0" x1="67.8" y1="182" x2="132.2" y2="182"/>
<line class="st0" x1="138.7" y1="138.6" x2="170.2" y2="138.6"/>
<line class="st0" x1="51.6" y1="138.6" x2="116.1" y2="138.6"/>
<line class="st0" x1="29.8" y1="138.6" x2="29.9" y2="138.6"/>
<path class="st0" d="M67.1,60.2l-30,17.4c-0.9,0.5-1.1,1.6-0.6,2.5c0.2,0.3,0.4,0.5,0.6,0.6l30,17.3"/>
<path class="st0" d="M132.9,60.2l30,17.4c0.9,0.5,1.1,1.6,0.6,2.5c-0.2,0.3-0.4,0.5-0.6,0.6l-30,17.3"/>
<line class="st0" x1="117.5" y1="41.6" x2="82.5" y2="116.6"/>
</svg>
