<?xml version="1.0" encoding="utf-8"?>
<!-- Generator: Adobe Illustrator 26.0.0, SVG Export Plug-In . SVG Version: 6.00 Build 0)  -->
<svg version="1.1" id="Layer_1" xmlns="http://www.w3.org/2000/svg" xmlns:xlink="http://www.w3.org/1999/xlink" x="0px" y="0px"
	 viewBox="0 0 64 64" style="enable-background:new 0 0 64 64;" xml:space="preserve">
<style type="text/css">
	.st0{fill:#222222;}
	.st1{fill:#FFFFFF;}
	.st2{fill:#EBDFFF;}
</style>
<path class="st0" d="M52,64H12C5.4,64,0,58.6,0,52V12C0,5.4,5.4,0,12,0h40c6.6,0,12,5.4,12,12v40C64,58.6,58.6,64,52,64z"/>
<g>
	<path class="st1" d="M10.2,56c-0.3,0-0.6-0.1-0.9-0.2c-0.8-0.3-1.3-1.1-1.3-2V10.1C8,9,9,8,10.2,8c0.8,0,1.5,0.4,1.9,1.1l7.4,13.4
		c0.6,1,0.3,2.3-0.7,3c-1,0.6-2.3,0.3-3-0.7c0,0-0.1-0.1-0.1-0.2l-3.4-6.1v30.6l18.3-15.9c0.8-0.7,2-0.7,2.8,0l18.3,15.9V18.5
		l-3.4,6.1c-0.6,1-1.9,1.4-2.9,0.8s-1.4-1.9-0.8-2.9L52,9.1c0.6-1,1.9-1.4,2.9-0.8c0.7,0.4,1.1,1.1,1.1,1.9v43.7
		c0,1.2-1,2.2-2.2,2.1c-0.5,0-1-0.2-1.4-0.5L32,37.7L11.6,55.5C11.2,55.8,10.7,56,10.2,56z"/>
	<path class="st1" d="M32,51.8c-0.8,0-1.5-0.4-1.9-1.1l-8.2-14.9c-0.6-1-0.2-2.3,0.8-2.9c1-0.6,2.3-0.2,2.9,0.8c0,0,0,0,0,0.1
		L32,45.2l6.3-11.5c0.6-1.1,1.9-1.5,2.9-0.9c1.1,0.6,1.5,1.9,0.9,2.9c0,0,0,0,0,0.1l-8.2,14.9C33.5,51.4,32.8,51.8,32,51.8z"/>
	<path class="st2" d="M32,30.3c-5,0-9.1-4.1-9.1-9.1s4.1-9.1,9.1-9.1s9.1,4.1,9.1,9.1C41.1,26.3,37,30.3,32,30.3z M32,16.5
		c-2.6,0-4.8,2.1-4.8,4.8c0,2.6,2.1,4.8,4.8,4.8s4.8-2.1,4.8-4.8l0,0C36.8,18.6,34.6,16.5,32,16.5L32,16.5z"/>
</g>
</svg>
