<?xml version="1.0" encoding="utf-8"?>
<!-- Generator: Adobe Illustrator 26.0.0, SVG Export Plug-In . SVG Version: 6.00 Build 0)  -->
<svg version="1.1" id="Layer_1" xmlns="http://www.w3.org/2000/svg" xmlns:xlink="http://www.w3.org/1999/xlink" x="0px" y="0px"
	 viewBox="0 0 266.4 256" style="enable-background:new 0 0 266.4 256;" xml:space="preserve">
<style type="text/css">
	.st0{fill:#FFFFFF;}
</style>
<path class="st0" d="M137.9,254.1c-10.9,0-21.8-1.4-32.8-4.5c-32.5-8.7-59.7-29.7-76.5-58.8C11.9,162,7.4,128.1,16.1,95.3
	c8.7-32.5,29.7-59.6,58.8-76.4c24.1-14,51.3-19.3,79-16c3.6,0.6,6.4,3.1,7,6.4c0.8,3.4-0.8,7-3.6,9c-39,24.4-51.6,74.8-28.6,114.8
	s73.1,54.3,113.7,32.8c3.1-1.7,7-1.1,9.5,1.1c2.5,2.5,3.4,6.2,2,9.5c-10.6,25.8-28.8,46.8-52.9,60.8
	C181.3,248.5,159.8,254.1,137.9,254.1z M129.8,19.1c-16.2,1.1-32.2,6.2-46.5,14.3C58.1,48,39.9,71.5,32.3,99.8s-3.6,57.7,10.9,82.9
	s38.1,43.4,66.4,51s57.7,3.6,82.9-10.9c14.6-8.4,26.6-19.6,35.6-33c-43.7,11.2-90.5-7.3-114-47.9C90.6,100.9,97.9,51.1,129.8,19.1
	L129.8,19.1z"/>
</svg>
