<?xml version="1.0" encoding="utf-8"?>
<!-- Generator: Adobe Illustrator 26.0.0, SVG Export Plug-In . SVG Version: 6.00 Build 0)  -->
<svg version="1.1" id="Layer_3" xmlns="http://www.w3.org/2000/svg" xmlns:xlink="http://www.w3.org/1999/xlink" x="0px" y="0px"
	 viewBox="0 0 200 138.9" style="enable-background:new 0 0 200 138.9;" xml:space="preserve">
<style type="text/css">
	.st0{opacity:0.9;}
	.st1{fill:#808384;}
</style>
<g class="st0">
	<path class="st1" d="M125.1,43.8c-0.8-1.1-2-1.9-3.3-2.3c-1.4-0.3-3-0.1-4.2,0.5c-2.6,1.3-4.3,4-6,6.2
		c-1.1,1.4-33.4,45.1-34.1,45.4c-0.5,0.2-1.1,0.2-1.7,0c-1.1-0.4-11.6-14.5-12.9-16.4c-0.2-0.2-0.8-1.1-0.9-1.1
		c-1.6-1.8-3.8-3.3-6.2-3.1c-1.3,0.1-2.5,0.6-3.5,1.4c-0.4,0.3-0.8,0.6-1.1,0.9C50.7,76,17,121.2,16.4,122.5
		c-0.5,0.8-0.5,1.7-0.1,2.5c0.5,0.5,1.4,0.8,2.2,0.8c1.9,0.1,151.9,0.1,156.4,0.1c1.7,0,3.3,0,5-0.2c0.6-0.1,1.3-0.2,1.8-0.5
		c0.6-0.3,1.1-0.8,1.3-1.4c0.4-1.3-0.4-2.4-1.1-3.4C181,119.5,127.3,46.5,125.1,43.8z"/>
	<circle class="st1" cx="32.3" cy="35" r="14.6"/>
	<path class="st1" d="M184.1,0H15.9C7.2,0,0,7.2,0,15.9V123c0,8.7,7.2,15.9,15.9,15.9h168.2c8.7,0,15.9-7.2,15.9-15.9V15.9
		C199.9,7.2,192.8,0.1,184.1,0z M192.8,23.1v98.7c0,5.5-4.4,9.9-9.9,9.9H17c-5.5,0-9.9-4.4-9.9-9.9V17.1c0-5.5,4.4-9.9,9.9-9.9
		h165.9c5.5,0,9.9,4.4,9.9,9.9L192.8,23.1L192.8,23.1z"/>
</g>
</svg>
