<?xml version="1.0" encoding="UTF-8"?><svg id="Layer_1" xmlns="http://www.w3.org/2000/svg" viewBox="0 0 1135.8 510"><defs><style>.cls-1{fill:#cfcfcf;}.cls-1,.cls-2{stroke-width:0px;}.cls-2{fill:#07abdb;}</style></defs><path class="cls-2" d="M289.8,290.4h-36.6V75.6c0-8.8-2.8-16.1-8.4-21.9-5.6-5.8-12.8-8.7-21.6-8.7s-9.4,1-13.8,3c-4.4,2-8.2,5-11.4,9L7.8,295.8c-5.2,6-7.8,12.8-7.8,20.4s3.2,14.9,9.6,20.7c6.4,5.8,13.2,8.7,20.4,8.7h162.6v88.8c0,8.8,2.9,16.1,8.7,21.9,5.8,5.8,12.9,8.7,21.3,8.7s15.6-2.9,21.6-8.7c6-5.8,9-13.1,9-21.9v-88.8h36.6c8,0,14.7-2.6,20.1-7.8,5.4-5.2,8.1-11.6,8.1-19.2s-2.7-14.7-8.1-20.1-12.1-8.1-20.1-8.1ZM80.5,290.4l112.1-143.2v143.2h-112.1Z"/><path class="cls-2" d="M1127.7,298.5c-5.4-5.4-12.1-8.1-20.1-8.1h-36.6V75.6c0-8.8-2.8-16.1-8.4-21.9-5.6-5.8-12.8-8.7-21.6-8.7s-9.4,1-13.8,3c-4.4,2-8.2,5-11.4,9l-190.2,238.8c-5.2,6-7.8,12.8-7.8,20.4s3.2,14.9,9.6,20.7c6.4,5.8,13.2,8.7,20.4,8.7h162.6v88.8c0,8.8,2.9,16.1,8.7,21.9,5.8,5.8,12.9,8.7,21.3,8.7s15.6-2.9,21.6-8.7c6-5.8,9-13.1,9-21.9v-88.8h36.6c8,0,14.7-2.6,20.1-7.8,5.4-5.2,8.1-11.6,8.1-19.2s-2.7-14.7-8.1-20.1ZM898.3,290.4l112.1-143.2v143.2h-112.1Z"/><path class="cls-2" d="M567.9,100c41.4,0,80.3,16.1,109.6,45.4,29.3,29.3,45.4,68.2,45.4,109.6s-16.1,80.3-45.4,109.6c-29.3,29.3-68.2,45.4-109.6,45.4s-80.3-16.1-109.6-45.4c-29.3-29.3-45.4-68.2-45.4-109.6s16.1-80.3,45.4-109.6c29.3-29.3,68.2-45.4,109.6-45.4M567.9,45c-116,0-210,94-210,210s94,210,210,210,210-94,210-210-94-210-210-210h0Z"/><path class="cls-1" d="M567.9,152.7c-4.4,0-8-3.6-8-8v-19.5c0-4.4,3.6-8,8-8s8,3.6,8,8v19.5c0,4.4-3.6,8-8,8Z"/><path class="cls-1" d="M645.9,185c-2,0-4.1-.8-5.7-2.3-3.1-3.1-3.1-8.2,0-11.3l13.8-13.8c3.1-3.1,8.2-3.1,11.3,0,3.1,3.1,3.1,8.2,0,11.3l-13.8,13.8c-1.6,1.6-3.6,2.3-5.7,2.3Z"/><path class="cls-1" d="M697.7,263h-19.5c-4.4,0-8-3.6-8-8s3.6-8,8-8h19.5c4.4,0,8,3.6,8,8s-3.6,8-8,8Z"/><path class="cls-1" d="M659.7,354.8c-2,0-4.1-.8-5.7-2.3l-13.8-13.8c-3.1-3.1-3.1-8.2,0-11.3,3.1-3.1,8.2-3.1,11.3,0l13.8,13.8c3.1,3.1,3.1,8.2,0,11.3-1.6,1.6-3.6,2.3-5.7,2.3Z"/><path class="cls-1" d="M567.9,392.8c-4.4,0-8-3.6-8-8v-19.5c0-4.4,3.6-8,8-8s8,3.6,8,8v19.5c0,4.4-3.6,8-8,8Z"/><path class="cls-1" d="M476.1,354.8c-2,0-4.1-.8-5.7-2.3-3.1-3.1-3.1-8.2,0-11.3l13.8-13.8c3.1-3.1,8.2-3.1,11.3,0,3.1,3.1,3.1,8.2,0,11.3l-13.8,13.8c-1.6,1.6-3.6,2.3-5.7,2.3Z"/><path class="cls-1" d="M457.6,263h-19.5c-4.4,0-8-3.6-8-8s3.6-8,8-8h19.5c4.4,0,8,3.6,8,8s-3.6,8-8,8Z"/><path class="cls-1" d="M489.9,185c-2,0-4.1-.8-5.7-2.3l-13.8-13.8c-3.1-3.1-3.1-8.2,0-11.3,3.1-3.1,8.2-3.1,11.3,0l13.8,13.8c3.1,3.1,3.1,8.2,0,11.3-1.6,1.6-3.6,2.3-5.7,2.3Z"/><path class="cls-2" d="M567.9,282.5c-15.2,0-27.5-12.3-27.5-27.5v-89.8c0-15.2,12.3-27.5,27.5-27.5s27.5,12.3,27.5,27.5v89.8c0,15.2-12.3,27.5-27.5,27.5Z"/></svg>