<?xml version="1.0" encoding="UTF-8"?><svg id="Layer_1" xmlns="http://www.w3.org/2000/svg" viewBox="0 0 200 200"><defs><style>.cls-1{fill:none;stroke:#231f20;stroke-linecap:round;stroke-linejoin:round;stroke-width:8px;}</style></defs><path class="cls-1" d="M39.1,100c1.8,9.8,4.1,22.7,5.3,32.7,1.1,9.1,2,17.9,1.7,27s0,3.1,0,4.7l-1.2,19.2c-.4,6.7,4.9,12.4,11.7,12.4,13.4,0,34.5,0,47.5,0,6.5,0,11.7-5.3,11.7-11.7s0-5.9,0-8.9,0-3.6,0-5.3,0-3.4.4-5c.7-1.9,2.3-3.2,3.8-4.5,7.6-6.5,11.3-15.3,14.4-24.6,1.6-5,4-9.8,6.9-14.1s3.1-4.2,4.8-6.2c1.8-2,3.8-3.9,5.3-6.1s2.4-3.8,3.5-5.8c2.3-4.1,4.5-8.3,6.5-12.5,3.1-6.3,3.3-13.7-2-18.1-5.4-4.5-12.5-2.9-17.7,1-5.6,4.2-11.6,12.2-16.4,17.1-6.1,6.2-10.6,8.3-15.8,11.9-7.2,5-16.9,4.6-24.2-.2s-11.6-14.3-9.7-23.4c1.4-7.6,2.6-15.2,4.2-22.7,1.4-6.4,2.2-12.8,6.6-18,2.4-2.9,6.6-4.4,10-5.7,4.5-1.7,9.1-2.8,13.7-4,2.2-.6,4.6-.4,6.6.5,8.4,4,10.1,7.8,18.7,11.4,4.8,2,10.4,2,14.2-2,3.2-3.3,4-8.6,2-12.7-1.5-3.2-4.6-4.9-7.4-6.9s-6.9-4.7-10.4-6.9c-4.1-2.7-8.4-5.3-13-7-3.8-1.5-7.1-1.7-10.9-1.1-5.1,1.1-10.1,2.3-15.2,3.4s-7.4,1.6-11.1,2.5-9.4,1.7-13.2,4.5c-4.1,3-6.3,7.8-8.9,12-6.6,10.7-13,21.7-18.1,33.3-2.4,5.4-6.1,11.2-6.7,17.2-.6,5.4.4,10.9,1.2,16.3.3,2.2.7,4.4,1.1,6.6Z"/><path class="cls-1" d="M79.5,61.9l29.7-2.5c6.9-.6,12.8,5,12.5,11.9l-.7,23.4"/><polyline class="cls-1" points="101.3 80.3 93.8 86.2 75.2 86.2"/><line class="cls-1" x1="94.4" y1="87" x2="99.8" y2="106.6"/><path class="cls-1" d="M106.7,161.8c1,.9,1.9,1.8,3.1,2.3s1.9.6,2.8.8c1,.2,2,.3,2.9,0"/></svg>