<?xml version="1.0" encoding="UTF-8"?><svg id="Layer_2" xmlns="http://www.w3.org/2000/svg" viewBox="0 0 200 200"><defs><style>.cls-1{fill:none;stroke:#231f20;stroke-linecap:round;stroke-linejoin:round;stroke-width:8px;}</style></defs><path class="cls-1" d="M139.9,71.9c-3.9,11.8-19.1,24.7-39.7,32.1-20.6,7.5-40.5,7.4-51,.9"/><path class="cls-1" d="M70.4,132.5c-13.8-8.5-23.1-23.8-23.1-41.2,0-26.7,21.6-48.4,48.4-48.4s48.4,21.6,48.4,48.4,0,11.4-.2,13.6"/><path class="cls-1" d="M24.1,152.6c-9.4-3.5-16.1-9-18.8-16.5-5.5-15.3,6.8-35.2,30.2-52.4.3-.2.7,0,.7.4-.1,1.5-.3,4.4-.4,6.1,0,1.6,0,3.7.2,5.5.2,2.7-.5,5.4-1.9,7.8-3.3,5.7-4.3,11.1-2.6,15.9,5.8,15.9,39.8,18,76.1,4.8,36.2-13.2,61-36.8,55.2-52.6-1.8-4.9-6.3-8.5-12.8-10.7s-4.9-2.5-6.6-4.7-2.1-2.8-3.4-4.2c-1.3-1.5-3.1-3.3-4.5-4.6s-.1-.7.3-.8c30-2.3,53.2,4.9,58.9,20.6,3.5,9.6,0,20.9-9,32.3"/><path class="cls-1" d="M146.1,131.3c-9.2,5.1-19.4,9.8-30.3,13.8-28.3,10.3-55.8,13.8-76.5,11.1"/><path class="cls-1" d="M164.1,119.9c-1.6,1.2-3.3,2.3-5,3.5"/><path class="cls-1" d="M170,115.2c-1.9,1.6-3.9,3.1-6,4.6"/><path class="cls-1" d="M86.6,71.4c-13.4,4.4-26.2,2.1-29-5.5-.4-1.2-.6-2.5-.5-3.8"/><path class="cls-1" d="M99.4,64.9c-.8.6-1.7,1.2-2.6,1.8"/><path class="cls-1" d="M106.3,44.2c.9.9,1.6,2,2.1,3.2,1.1,2.8.5,6.1-1.3,9.3"/></svg>