<svg id="Layer_1" data-name="Layer 1" xmlns="http://www.w3.org/2000/svg" xmlns:xlink="http://www.w3.org/1999/xlink" viewBox="0 0 405.9 88.7"><defs><style>.cls-1{fill:none;}.cls-2{clip-path:url(#clip-path);}.cls-3{fill:#35cfe5;}.cls-4{fill:#36d0e5;}.cls-5{fill:#37d0e5;}.cls-6{fill:#38d1e5;}.cls-7{fill:#39d2e5;}.cls-8{fill:#3ad3e5;}.cls-9{fill:#3bd3e5;}.cls-10{fill:#3cd4e5;}.cls-11{fill:#3dd5e5;}.cls-12{fill:#3ed6e6;}.cls-13{fill:#3fd6e6;}.cls-14{fill:#40d7e6;}.cls-15{fill:#41d8e6;}.cls-16{fill:#42d8e6;}.cls-17{fill:#43d9e6;}.cls-18{fill:#44dae6;}.cls-19{fill:#45dbe6;}.cls-20{fill:#47dbe6;}.cls-21{fill:#48dce6;}.cls-22{fill:#49dde6;}.cls-23{fill:#4adee6;}.cls-24{fill:#4bdee6;}.cls-25{fill:#4cdfe6;}.cls-26{fill:#4de0e6;}.cls-27{fill:#4ee0e6;}.cls-28{fill:#4fe1e7;}.cls-29{fill:#50e2e7;}.cls-30{fill:#51e3e7;}.cls-31{fill:#52e3e7;}.cls-32{fill:#53e4e7;}.cls-33{fill:#54e5e7;}.cls-34{fill:#55e6e7;}.cls-35{fill:#56e6e7;}.cls-36{fill:#57e7e7;}.cls-37{clip-path:url(#clip-path-2);}.cls-38{fill:#777af5;}.cls-39{fill:#797bf5;}.cls-40{fill:#7b7cf5;}.cls-41{fill:#7d7df5;}.cls-42{fill:#7f7ef5;}.cls-43{fill:#807ff5;}.cls-44{fill:#8280f5;}.cls-45{fill:#8481f5;}.cls-46{fill:#8582f5;}.cls-47{fill:#8783f5;}.cls-48{fill:#8983f5;}.cls-49{fill:#8a84f5;}.cls-50{fill:#8c85f5;}.cls-51{fill:#8d86f5;}.cls-52{fill:#8e86f5;}.cls-53{fill:#9087f5;}.cls-54{fill:#9188f5;}.cls-55{fill:#9288f5;}.cls-56{fill:#9389f5;}.cls-57{fill:#948af5;}.cls-58{fill:#958af5;}.cls-59{fill:#968bf5;}.cls-60{fill:#978bf5;}.cls-61{fill:#988cf5;}.cls-62{fill:#998cf5;}.cls-63{fill:#9a8df5;}.cls-64{fill:#9b8df5;}.cls-65{fill:#9b8ef5;}.cls-66{fill:#9c8ef5;}.cls-67{fill:#9d8ef5;}.cls-68{fill:#9d8ff5;}.cls-69{fill:#9e8ff5;}.cls-70{fill:#9f8ff5;}.cls-71{fill:#9f90f5;}.cls-72{fill:#a090f5;}.cls-73{clip-path:url(#clip-path-3);}.cls-74{clip-path:url(#clip-path-4);}.cls-75{clip-path:url(#clip-path-5);}.cls-76{clip-path:url(#clip-path-6);}.cls-77{fill:#666;}</style><clipPath id="clip-path" transform="translate(-144.6 -130.7)"><path class="cls-1" d="M207.8,193c-16.2,2.3-43.8,1.2-57-9.3-5.4-4.4-6.2-10.4-1.1-15.4s16.5-8.8,24.6-10.4c17.4-3.2,40.9-2.6,57.1,4.8,3.7,1.8,7.6,4.3,9.9,8a9.7,9.7,0,0,1,1.1,7.1c-1.1,4.5-5,7.6-8.7,9.7a2.2,2.2,0,1,1-2.2-3.7c6.9-3.9,10.2-9.1,2.8-14.7s-13.5-6.5-20.8-7.9a114.3,114.3,0,0,0-38.7-.5c-7.7,1.4-16.8,3.7-22.9,8.8s-1.7,12.3,4.9,15.8c8.5,4.5,18.2,6.3,27.7,7.2a120.9,120.9,0,0,0,23.3-.1c.4,0,.5.6,0,.6Z"/></clipPath><clipPath id="clip-path-2" transform="translate(-144.6 -130.7)"><circle class="cls-1" cx="232.6" cy="185.6" r="3.7"/></clipPath><clipPath id="clip-path-3" transform="translate(-144.6 -130.7)"><path class="cls-1" d="M173.7,177.8c6.2-15.2,20.9-38.5,36.6-44.7,6.5-2.4,12.1-.2,13.9,6.8s-.6,18.6-3.3,26.5c-5.9,16.6-18.1,36.7-32.7,47-3.4,2.3-7.5,4.5-11.8,4.5a9.6,9.6,0,0,1-6.8-2.5c-3.3-3.2-4-8.1-4-12.4a2.2,2.2,0,1,1,4.3,0c-.1,7.9,2.8,13.3,11.4,9.7,6.8-3,12.3-8.5,17.2-14a114.5,114.5,0,0,0,19.7-33.3c2.7-7.3,5.3-16.5,3.9-24.2-2-9.3-9.8-7.7-16.1-3.7-8.2,5.1-14.6,12.6-20.2,20.4a125.5,125.5,0,0,0-11.5,20.2.3.3,0,0,1-.6-.3Z"/></clipPath><clipPath id="clip-path-4" transform="translate(-144.6 -130.7)"><circle class="cls-1" cx="167.8" cy="203" r="3.7"/></clipPath><clipPath id="clip-path-5" transform="translate(-144.6 -130.7)"><path class="cls-1" d="M203.2,154.8c10.1,12.9,23,37.4,20.4,54.1-1.1,6.8-5.9,10.5-12.8,8.6s-15.9-9.8-21.3-16.1c-11.4-13.4-22.7-34-24.3-51.8-.3-4.2-.2-8.8,1.9-12.5a9.8,9.8,0,0,1,5.6-4.6c4.5-1.3,9.1.6,12.8,2.7a2.2,2.2,0,0,1-2.2,3.8c-6.8-4.1-12.9-4.3-14.1,4.9-.8,7.4,1.2,14.9,3.6,22a113.2,113.2,0,0,0,18.9,33.7c5,6,11.6,12.8,19.1,15.4,9,3,11.5-4.6,11.2-12.1-.4-9.6-3.7-18.9-7.6-27.6a118.4,118.4,0,0,0-11.7-20.1.3.3,0,0,1,.5-.4Z"/></clipPath><clipPath id="clip-path-6" transform="translate(-144.6 -130.7)"><circle class="cls-1" cx="184.4" cy="137.1" r="3.7"/></clipPath></defs><g class="cls-2"><polygon class="cls-3" points="8.5 24.1 0 49.9 0 24.1 8.5 24.1"/><polygon class="cls-3" points="11.6 24.1 0 59.2 0 49.9 8.5 24.1 11.6 24.1"/><polygon class="cls-4" points="14.7 24.1 2.7 60.2 0 59.3 0 59.2 11.6 24.1 14.7 24.1"/><polygon class="cls-5" points="17.7 24.1 5.5 61.1 2.7 60.2 14.7 24.1 17.7 24.1"/><polygon class="cls-6" points="20.8 24.1 8.3 62 5.5 61.1 17.7 24.1 20.8 24.1"/><polygon class="cls-7" points="23.8 24.1 11 62.9 8.3 62 20.8 24.1 23.8 24.1"/><polygon class="cls-8" points="26.9 24.1 13.8 63.8 11 62.9 23.8 24.1 26.9 24.1"/><polygon class="cls-9" points="30 24.1 16.6 64.7 16.2 64.7 13.8 63.8 26.9 24.1 30 24.1"/><polygon class="cls-10" points="33 24.1 19.6 64.7 16.6 64.7 30 24.1 33 24.1"/><polygon class="cls-11" points="36.1 24.1 22.7 64.7 19.6 64.7 33 24.1 36.1 24.1"/><polygon class="cls-12" points="39.2 24.1 25.8 64.7 22.7 64.7 36.1 24.1 39.2 24.1"/><polygon class="cls-13" points="42.2 24.1 28.8 64.7 25.8 64.7 39.2 24.1 42.2 24.1"/><polygon class="cls-14" points="45.3 24.1 31.9 64.7 28.8 64.7 42.2 24.1 45.3 24.1"/><polygon class="cls-15" points="48.4 24.1 35 64.7 31.9 64.7 45.3 24.1 48.4 24.1"/><polygon class="cls-16" points="51.4 24.1 38 64.7 35 64.7 48.4 24.1 51.4 24.1"/><polygon class="cls-17" points="54.5 24.1 41.1 64.7 38 64.7 51.4 24.1 54.5 24.1"/><polygon class="cls-18" points="57.6 24.1 44.2 64.7 41.1 64.7 54.5 24.1 57.6 24.1"/><polygon class="cls-19" points="60.6 24.1 47.2 64.7 44.2 64.7 57.6 24.1 60.6 24.1"/><polygon class="cls-20" points="63.7 24.1 50.3 64.7 47.2 64.7 60.6 24.1 63.7 24.1"/><polygon class="cls-21" points="66.8 24.1 53.3 64.7 50.3 64.7 63.7 24.1 66.8 24.1"/><polygon class="cls-22" points="69.8 24.1 56.4 64.7 53.3 64.7 66.8 24.1 69.8 24.1"/><polygon class="cls-23" points="72.9 24.1 59.5 64.7 56.4 64.7 69.8 24.1 72.9 24.1"/><polygon class="cls-24" points="75.3 24.1 75.9 24.3 62.5 64.7 59.5 64.7 72.9 24.1 75.3 24.1"/><polygon class="cls-25" points="75.9 24.3 78.6 25.2 65.6 64.7 62.5 64.7 75.9 24.3"/><polygon class="cls-26" points="78.6 25.2 81.4 26.1 68.7 64.7 65.6 64.7 78.6 25.2"/><polygon class="cls-27" points="81.4 26.1 84.2 27 71.7 64.7 68.7 64.7 81.4 26.1"/><polygon class="cls-28" points="84.2 27 86.9 27.9 74.8 64.7 71.7 64.7 84.2 27"/><polygon class="cls-29" points="86.9 27.9 89.7 28.8 77.9 64.7 74.8 64.7 86.9 27.9"/><polygon class="cls-30" points="89.7 28.8 92.5 29.7 80.9 64.7 77.9 64.7 89.7 28.8"/><polygon class="cls-31" points="92.5 29.7 95.2 30.6 84 64.7 80.9 64.7 92.5 29.7"/><polygon class="cls-32" points="95.2 30.6 98 31.6 87.1 64.7 84 64.7 95.2 30.6"/><polygon class="cls-33" points="98 31.6 98.4 31.7 98.4 39.6 90.1 64.7 87.1 64.7 98 31.6"/><polygon class="cls-34" points="98.4 48.9 93.2 64.7 90.1 64.7 98.4 39.6 98.4 48.9"/><polygon class="cls-35" points="98.4 58.2 96.3 64.7 93.2 64.7 98.4 48.9 98.4 58.2"/><polygon class="cls-36" points="96.3 64.7 98.4 58.2 98.4 64.7 96.3 64.7"/></g><g class="cls-37"><rect class="cls-38" x="84.2" y="51.2" width="7.5" height="7.49"/><circle class="cls-38" cx="88" cy="55" r="3.7"/><circle class="cls-39" cx="88" cy="55" r="3.7"/><circle class="cls-40" cx="88" cy="55" r="3.6"/><circle class="cls-41" cx="88" cy="55" r="3.5"/><circle class="cls-42" cx="88" cy="55" r="3.4"/><circle class="cls-43" cx="88" cy="55" r="3.3"/><circle class="cls-44" cx="88" cy="55" r="3.2"/><circle class="cls-45" cx="88" cy="55" r="3.1"/><circle class="cls-46" cx="88" cy="55" r="3"/><circle class="cls-47" cx="88" cy="55" r="2.9"/><circle class="cls-48" cx="88" cy="55" r="2.8"/><circle class="cls-49" cx="88" cy="55" r="2.7"/><circle class="cls-50" cx="88" cy="55" r="2.6"/><circle class="cls-51" cx="88" cy="55" r="2.6"/><circle class="cls-52" cx="88" cy="55" r="2.5"/><circle class="cls-53" cx="88" cy="55" r="2.4"/><circle class="cls-54" cx="88" cy="55" r="2.3"/><circle class="cls-55" cx="88" cy="55" r="2.2"/><circle class="cls-56" cx="88" cy="55" r="2.1"/><circle class="cls-57" cx="88" cy="55" r="2"/><circle class="cls-58" cx="88" cy="55" r="1.9"/><circle class="cls-59" cx="88" cy="55" r="1.8"/><circle class="cls-60" cx="88" cy="55" r="1.7"/><circle class="cls-61" cx="88" cy="55" r="1.6"/><circle class="cls-62" cx="88" cy="55" r="1.6"/><circle class="cls-63" cx="88" cy="55" r="1.5"/><circle class="cls-64" cx="88" cy="55" r="1.4"/><circle class="cls-65" cx="88" cy="55" r="1.3"/><circle class="cls-66" cx="88" cy="55" r="1.2"/><circle class="cls-67" cx="88" cy="55" r="1.1"/><circle class="cls-68" cx="88" cy="55" r="1"/><circle class="cls-69" cx="88" cy="55" r="0.9"/><circle class="cls-69" cx="88" cy="55" r="0.8"/><circle class="cls-70" cx="88" cy="55" r="0.7"/><circle class="cls-70" cx="88" cy="55" r="0.6"/><circle class="cls-71" cx="88" cy="55" r="0.5"/><circle class="cls-72" cx="88" cy="55" r="0.5"/><circle class="cls-72" cx="88" cy="55" r="0.4"/><circle class="cls-72" cx="88" cy="55" r="0.3"/><circle class="cls-72" cx="88" cy="55" r="0.2"/><circle class="cls-72" cx="88" cy="55" r="0.1"/></g><g class="cls-73"><polygon class="cls-3" points="81.7 10.1 72.7 0 81.7 0 81.7 10.1"/><polygon class="cls-3" points="81.7 14.5 68.8 0 72.7 0 81.7 10.1 81.7 14.5"/><polygon class="cls-4" points="81.7 18.8 64.9 0 68.8 0 81.7 14.5 81.7 18.8"/><polygon class="cls-5" points="81.7 23.2 61 0 64.9 0 81.7 18.8 81.7 23.2"/><polygon class="cls-6" points="81.7 27.6 57.1 0 61 0 81.7 23.2 81.7 27.6"/><polygon class="cls-7" points="81.7 31.9 54.7 1.7 56.6 0 57.1 0 81.7 27.6 81.7 31.9"/><polygon class="cls-8" points="81.7 36.3 52.5 3.6 54.7 1.7 81.7 31.9 81.7 36.3"/><polygon class="cls-9" points="81.7 40.7 50.4 5.6 52.5 3.6 81.7 36.3 81.7 40.7"/><polygon class="cls-10" points="81.7 45.1 48.2 7.5 50.4 5.6 81.7 40.7 81.7 45.1"/><polygon class="cls-11" points="81.7 49.4 46 9.4 48.2 7.5 81.7 45.1 81.7 49.4"/><polygon class="cls-12" points="81.7 53.8 43.8 11.4 46 9.4 81.7 49.4 81.7 53.8"/><polygon class="cls-13" points="81.7 54.1 79.7 55.9 41.7 13.3 43.8 11.4 81.7 53.8 81.7 54.1"/><rect class="cls-14" x="202.8" y="137.7" width="2.9" height="57.06" transform="translate(-203.5 47.4) rotate(-41.7)"/><rect class="cls-15" x="200.6" y="139.6" width="2.9" height="57.06" transform="translate(-205.3 46.5) rotate(-41.7)"/><rect class="cls-16" x="198.4" y="141.6" width="2.9" height="57.06" transform="translate(-207.2 45.5) rotate(-41.7)"/><rect class="cls-17" x="196.2" y="143.5" width="2.9" height="57.06" transform="translate(-209 44.6) rotate(-41.7)"/><rect class="cls-18" x="194.1" y="145.5" width="2.9" height="57.06" transform="translate(-210.8 43.6) rotate(-41.7)"/><rect class="cls-19" x="191.9" y="147.4" width="2.9" height="57.06" transform="translate(-212.7 42.7) rotate(-41.7)"/><rect class="cls-20" x="189.7" y="149.3" width="2.9" height="57.06" transform="translate(-214.5 41.7) rotate(-41.7)"/><rect class="cls-21" x="187.6" y="151.3" width="2.9" height="57.06" transform="translate(-216.4 40.8) rotate(-41.7)"/><rect class="cls-22" x="185.4" y="153.2" width="2.9" height="57.06" transform="translate(-218.2 39.8) rotate(-41.7)"/><polygon class="cls-23" points="60.1 73.3 57.9 75.3 20.9 33.8 20.9 31.8 22.1 30.7 60.1 73.3"/><polygon class="cls-24" points="57.9 75.3 55.8 77.2 20.9 38.1 20.9 33.8 57.9 75.3"/><polygon class="cls-25" points="55.8 77.2 53.6 79.1 20.9 42.5 20.9 38.1 55.8 77.2"/><polygon class="cls-26" points="53.6 79.1 51.4 81.1 20.9 46.9 20.9 42.5 53.6 79.1"/><polygon class="cls-27" points="51.4 81.1 49.2 83 20.9 51.3 20.9 46.9 51.4 81.1"/><polygon class="cls-28" points="49.2 83 47.1 85 20.9 55.6 20.9 51.3 49.2 83"/><polygon class="cls-29" points="47.1 85 44.9 86.9 20.9 60 20.9 55.6 47.1 85"/><polygon class="cls-30" points="44.9 86.9 44.4 87.3 41.4 87.3 20.9 64.4 20.9 60 44.9 86.9"/><polygon class="cls-31" points="37.5 87.3 20.9 68.7 20.9 64.4 41.4 87.3 37.5 87.3"/><polygon class="cls-32" points="33.6 87.3 20.9 73.1 20.9 68.7 37.5 87.3 33.6 87.3"/><polygon class="cls-33" points="29.7 87.3 20.9 77.5 20.9 73.1 33.6 87.3 29.7 87.3"/><polygon class="cls-34" points="25.8 87.3 20.9 81.9 20.9 77.5 29.7 87.3 25.8 87.3"/><polygon class="cls-35" points="21.9 87.3 20.9 86.2 20.9 81.9 25.8 87.3 21.9 87.3"/><polygon class="cls-36" points="20.9 86.2 21.9 87.3 20.9 87.3 20.9 86.2"/></g><g class="cls-74"><rect class="cls-38" x="18.8" y="68" width="8.6" height="8.55"/><circle class="cls-38" cx="23.1" cy="72.3" r="3.7"/><circle class="cls-39" cx="23.1" cy="72.3" r="3.7"/><circle class="cls-40" cx="23.1" cy="72.3" r="3.6"/><circle class="cls-41" cx="23.1" cy="72.3" r="3.5"/><circle class="cls-42" cx="23.1" cy="72.3" r="3.4"/><circle class="cls-43" cx="23.1" cy="72.3" r="3.3"/><circle class="cls-44" cx="23.1" cy="72.3" r="3.2"/><circle class="cls-45" cx="23.1" cy="72.3" r="3.1"/><circle class="cls-46" cx="23.1" cy="72.3" r="3"/><circle class="cls-47" cx="23.1" cy="72.3" r="2.9"/><circle class="cls-48" cx="23.1" cy="72.3" r="2.8"/><circle class="cls-49" cx="23.1" cy="72.3" r="2.7"/><circle class="cls-50" cx="23.1" cy="72.3" r="2.6"/><circle class="cls-51" cx="23.1" cy="72.3" r="2.6"/><circle class="cls-52" cx="23.1" cy="72.3" r="2.5"/><circle class="cls-53" cx="23.1" cy="72.3" r="2.4"/><circle class="cls-54" cx="23.1" cy="72.3" r="2.3"/><circle class="cls-55" cx="23.1" cy="72.3" r="2.2"/><circle class="cls-56" cx="23.1" cy="72.3" r="2.1"/><circle class="cls-57" cx="23.1" cy="72.3" r="2"/><circle class="cls-58" cx="23.1" cy="72.3" r="1.9"/><circle class="cls-59" cx="23.1" cy="72.3" r="1.8"/><circle class="cls-60" cx="23.1" cy="72.3" r="1.7"/><circle class="cls-61" cx="23.1" cy="72.3" r="1.6"/><circle class="cls-62" cx="23.1" cy="72.3" r="1.6"/><circle class="cls-63" cx="23.1" cy="72.3" r="1.5"/><circle class="cls-64" cx="23.1" cy="72.3" r="1.4"/><circle class="cls-65" cx="23.1" cy="72.3" r="1.3"/><circle class="cls-66" cx="23.1" cy="72.3" r="1.2"/><circle class="cls-67" cx="23.1" cy="72.3" r="1.1"/><circle class="cls-68" cx="23.1" cy="72.3" r="1"/><circle class="cls-69" cx="23.1" cy="72.3" r="0.9"/><circle class="cls-69" cx="23.1" cy="72.3" r="0.8"/><circle class="cls-70" cx="23.1" cy="72.3" r="0.7"/><circle class="cls-70" cx="23.1" cy="72.3" r="0.6"/><circle class="cls-71" cx="23.1" cy="72.3" r="0.5"/><circle class="cls-72" cx="23.1" cy="72.3" r="0.5"/><circle class="cls-72" cx="23.1" cy="72.3" r="0.4"/><circle class="cls-72" cx="23.1" cy="72.3" r="0.3"/><circle class="cls-72" cx="23.1" cy="72.3" r="0.2"/><circle class="cls-72" cx="23.1" cy="72.3" r="0.1"/></g><g class="cls-75"><polygon class="cls-3" points="62 88.7 81.5 84.7 81.5 88.7 62 88.7"/><polygon class="cls-3" points="47.7 88.7 81.5 81.7 81.5 84.7 62 88.7 47.7 88.7"/><polygon class="cls-4" points="33.4 88.7 81.5 78.8 81.5 81.7 47.7 88.7 33.4 88.7"/><polygon class="cls-5" points="30.9 88.7 30.4 86.4 81.5 75.8 81.5 78.8 33.4 88.7 30.9 88.7"/><polygon class="cls-6" points="30.4 86.4 29.8 83.5 81.5 72.8 81.5 75.8 30.4 86.4"/><polygon class="cls-7" points="29.8 83.5 29.3 80.7 81.5 69.8 81.5 72.8 29.8 83.5"/><polygon class="cls-8" points="29.3 80.7 28.7 77.8 81.5 66.9 81.5 69.8 29.3 80.7"/><polygon class="cls-9" points="28.7 77.8 28.1 75 81.5 63.9 81.5 66.9 28.7 77.8"/><polygon class="cls-10" points="28.1 75 27.5 72.1 81.5 60.9 81.5 63.9 28.1 75"/><polygon class="cls-11" points="27.5 72.1 26.9 69.3 81.5 57.9 81.5 60.9 27.5 72.1"/><polygon class="cls-12" points="26.9 69.3 26.3 66.4 81.5 55 81.5 57.9 26.9 69.3"/><polygon class="cls-13" points="26.3 66.4 25.7 63.6 81.5 52 81.5 55 26.3 66.4"/><polygon class="cls-14" points="25.7 63.6 25.1 60.7 81 49.1 81.5 51.7 81.5 52 25.7 63.6"/><rect class="cls-15" x="168.9" y="182.7" width="57.1" height="2.91" transform="translate(-178 -86.7) rotate(-11.7)"/><rect class="cls-16" x="168.3" y="179.9" width="57.1" height="2.91" transform="translate(-177.4 -86.9) rotate(-11.7)"/><rect class="cls-17" x="167.7" y="177" width="57.1" height="2.91" transform="translate(-176.8 -87) rotate(-11.7)"/><rect class="cls-18" x="167.1" y="174.2" width="57.1" height="2.91" transform="translate(-176.3 -87.2) rotate(-11.7)"/><rect class="cls-19" x="166.5" y="171.3" width="57.1" height="2.91" transform="translate(-175.7 -87.4) rotate(-11.7)"/><rect class="cls-20" x="165.9" y="168.5" width="57.1" height="2.91" transform="translate(-175.1 -87.6) rotate(-11.7)"/><rect class="cls-21" x="165.3" y="165.6" width="57.1" height="2.91" transform="translate(-174.6 -87.8) rotate(-11.7)"/><rect class="cls-22" x="164.7" y="162.8" width="57.1" height="2.91" transform="translate(-174 -87.9) rotate(-11.7)"/><polygon class="cls-23" points="20.4 37.9 20.2 37.2 20.2 35 75.7 23.5 76.3 26.3 20.4 37.9"/><polygon class="cls-24" points="20.2 32 75.1 20.6 75.7 23.5 20.2 35 20.2 32"/><polygon class="cls-25" points="20.2 29.1 74.5 17.8 75.1 20.6 20.2 32 20.2 29.1"/><polygon class="cls-26" points="20.2 26.1 73.9 14.9 74.5 17.8 20.2 29.1 20.2 26.1"/><polygon class="cls-27" points="20.2 23.1 73.3 12.1 73.9 14.9 20.2 26.1 20.2 23.1"/><polygon class="cls-28" points="20.2 20.1 72.7 9.2 73.3 12.1 20.2 23.1 20.2 20.1"/><polygon class="cls-29" points="20.2 17.2 72.1 6.4 72.7 9.2 20.2 20.1 20.2 17.2"/><polygon class="cls-30" points="20.2 14.2 71.5 3.5 72.1 6.4 20.2 17.2 20.2 14.2"/><polygon class="cls-31" points="20.2 11.2 70.9 0.7 71.5 3.5 20.2 14.2 20.2 11.2"/><polygon class="cls-32" points="20.2 8.3 57.3 0.6 70.9 0.6 70.9 0.7 20.2 11.2 20.2 8.3"/><polygon class="cls-33" points="20.2 5.3 42.9 0.6 57.3 0.6 20.2 8.3 20.2 5.3"/><polygon class="cls-34" points="20.2 2.3 28.6 0.6 42.9 0.6 20.2 5.3 20.2 2.3"/><polygon class="cls-35" points="28.6 0.6 20.2 2.3 20.2 0.6 28.6 0.6"/></g><g class="cls-76"><rect class="cls-38" x="35.5" y="2.1" width="8.6" height="8.55"/><circle class="cls-38" cx="39.8" cy="6.4" r="3.7"/><circle class="cls-39" cx="39.8" cy="6.4" r="3.7"/><circle class="cls-40" cx="39.8" cy="6.4" r="3.6"/><circle class="cls-41" cx="39.8" cy="6.4" r="3.5"/><circle class="cls-42" cx="39.8" cy="6.4" r="3.4"/><circle class="cls-43" cx="39.8" cy="6.4" r="3.3"/><circle class="cls-44" cx="39.8" cy="6.4" r="3.2"/><circle class="cls-45" cx="39.8" cy="6.4" r="3.1"/><circle class="cls-46" cx="39.8" cy="6.4" r="3"/><circle class="cls-47" cx="39.8" cy="6.4" r="2.9"/><circle class="cls-48" cx="39.8" cy="6.4" r="2.8"/><circle class="cls-49" cx="39.8" cy="6.4" r="2.7"/><circle class="cls-50" cx="39.8" cy="6.4" r="2.6"/><circle class="cls-51" cx="39.8" cy="6.4" r="2.6"/><circle class="cls-52" cx="39.8" cy="6.4" r="2.5"/><circle class="cls-53" cx="39.8" cy="6.4" r="2.4"/><circle class="cls-54" cx="39.8" cy="6.4" r="2.3"/><circle class="cls-55" cx="39.8" cy="6.4" r="2.2"/><circle class="cls-56" cx="39.8" cy="6.4" r="2.1"/><circle class="cls-57" cx="39.8" cy="6.4" r="2"/><circle class="cls-58" cx="39.8" cy="6.4" r="1.9"/><circle class="cls-59" cx="39.8" cy="6.4" r="1.8"/><circle class="cls-60" cx="39.8" cy="6.4" r="1.7"/><circle class="cls-61" cx="39.8" cy="6.4" r="1.6"/><circle class="cls-62" cx="39.8" cy="6.4" r="1.6"/><circle class="cls-63" cx="39.8" cy="6.4" r="1.5"/><circle class="cls-64" cx="39.8" cy="6.4" r="1.4"/><circle class="cls-65" cx="39.8" cy="6.4" r="1.3"/><circle class="cls-66" cx="39.8" cy="6.4" r="1.2"/><circle class="cls-67" cx="39.8" cy="6.4" r="1.1"/><circle class="cls-68" cx="39.8" cy="6.4" r="1"/><circle class="cls-69" cx="39.8" cy="6.4" r="0.9"/><circle class="cls-69" cx="39.8" cy="6.4" r="0.8"/><circle class="cls-70" cx="39.8" cy="6.4" r="0.7"/><circle class="cls-70" cx="39.8" cy="6.4" r="0.6"/><circle class="cls-71" cx="39.8" cy="6.4" r="0.5"/><circle class="cls-72" cx="39.8" cy="6.4" r="0.5"/><circle class="cls-72" cx="39.8" cy="6.4" r="0.4"/><circle class="cls-72" cx="39.8" cy="6.4" r="0.3"/><circle class="cls-72" cx="39.8" cy="6.4" r="0.2"/><circle class="cls-72" cx="39.8" cy="6.4" r="0.1"/></g><path class="cls-38" d="M194.5,185.7A10.7,10.7,0,1,1,205.1,175,10.6,10.6,0,0,1,194.5,185.7Zm0-18.3a7.7,7.7,0,1,0,7.6,7.6A7.6,7.6,0,0,0,194.5,167.4Z" transform="translate(-144.6 -130.7)"/><path class="cls-3" d="M301.8,197.2a3.7,3.7,0,0,1-2.3-.6,3.1,3.1,0,0,1-.8-2l.3-3.6a20.3,20.3,0,0,1-2.2,2.6,15.4,15.4,0,0,1-4,2.6,15.7,15.7,0,0,1-6,1.1,15.3,15.3,0,0,1-6.4-1.4,16.6,16.6,0,0,1-5.3-3.8,18.4,18.4,0,0,1-4.8-12.4,16.5,16.5,0,0,1,1.3-6.6,14.6,14.6,0,0,1,3.6-5.5,16.6,16.6,0,0,1,5.3-3.8,15.2,15.2,0,0,1,6.3-1.4,14.5,14.5,0,0,1,5.4.9,12.2,12.2,0,0,1,3.9,2.1,15.8,15.8,0,0,1,2.8,3l-.2-3a3,3,0,0,1,.8-2.3,3.8,3.8,0,0,1,2.4-.7,3.4,3.4,0,0,1,2,.5,2.5,2.5,0,0,1,.8,1.2,10.1,10.1,0,0,1,.2,1.9v27.8a9,9,0,0,1-.2,1.8c-.2.6-.4,1-.9,1.2A3.5,3.5,0,0,1,301.8,197.2Zm-14-6a10,10,0,0,0,5.4-1.5,11.2,11.2,0,0,0,3.8-4,12.5,12.5,0,0,0,1.4-5.9,12.2,12.2,0,0,0-1.4-5.9,10.7,10.7,0,0,0-3.9-4,10,10,0,0,0-5.4-1.5,11.1,11.1,0,0,0-5.8,1.5A10.2,10.2,0,0,0,278,174a11.8,11.8,0,0,0-1.5,5.9,11.1,11.1,0,0,0,1.5,5.8,10.5,10.5,0,0,0,4,4.1A11.1,11.1,0,0,0,287.8,191.2Z" transform="translate(-144.6 -130.7)"/><path class="cls-77" d="M313.8,163.2h18.6a2,2,0,0,1,1.1.9,4.1,4.1,0,0,1,.4,2.1,4.9,4.9,0,0,1-.3,2,1.6,1.6,0,0,1-1.1.9,4.7,4.7,0,0,1-1.7.2H313.6a2.2,2.2,0,0,1-2-.8,3.3,3.3,0,0,1-.6-2.3,2.9,2.9,0,0,1,.7-2.3A2.6,2.6,0,0,1,313.8,163.2Zm16.1,34.1a19.6,19.6,0,0,1-5.8-.7,8.6,8.6,0,0,1-3.8-2,7.3,7.3,0,0,1-2.1-3.5,17.5,17.5,0,0,1-.7-5.5V153.9a9,9,0,0,1,.2-1.8,2,2,0,0,1,.9-1.1,3.5,3.5,0,0,1,2-.4,4.1,4.1,0,0,1,2.1.4,1.4,1.4,0,0,1,.9,1.1,4.1,4.1,0,0,1,.2,1.6v31.9a8,8,0,0,0,.4,3,2.9,2.9,0,0,0,1,1.7,3,3,0,0,0,1.8.7l2.8.2a5.3,5.3,0,0,1,1.9.2,1.6,1.6,0,0,1,1.1.9,4.4,4.4,0,0,1,.3,1.9,4.1,4.1,0,0,1-.4,2.1,1.5,1.5,0,0,1-1.1.8Z" transform="translate(-144.6 -130.7)"/><path class="cls-77" d="M356.3,197.7a17,17,0,0,1-6.7-1.3,19,19,0,0,1-5.7-3.8,17.7,17.7,0,0,1-5.5-12.7,18.2,18.2,0,0,1,1.4-7,17.9,17.9,0,0,1,3.8-5.6,19.9,19.9,0,0,1,5.7-3.9,17.4,17.4,0,0,1,6.9-1.4,17.9,17.9,0,0,1,15.3,8.7,17.4,17.4,0,0,1,2.4,9.1,16.9,16.9,0,0,1-1.5,7.2,17.3,17.3,0,0,1-3.8,5.7,19.3,19.3,0,0,1-5.7,3.7A16.5,16.5,0,0,1,356.3,197.7Zm-.1-6.2a10.9,10.9,0,0,0,5.6-1.5,13,13,0,0,0,4.2-4.2,12.3,12.3,0,0,0,1.5-6.1,11.5,11.5,0,0,0-1.4-5.9,10.8,10.8,0,0,0-4.1-4.1,12.5,12.5,0,0,0-5.9-1.4,11,11,0,0,0-5.7,1.5,11.5,11.5,0,0,0-4.1,4.1,10.7,10.7,0,0,0-1.6,5.9,11.3,11.3,0,0,0,1.6,6.1,12.7,12.7,0,0,0,4.2,4.1A11.6,11.6,0,0,0,356.2,191.5Z" transform="translate(-144.6 -130.7)"/><path class="cls-77" d="M383.9,197.3a3.5,3.5,0,0,1-2-.4,2.2,2.2,0,0,1-.9-1.2,7.9,7.9,0,0,1-.2-1.7V165.5a6.3,6.3,0,0,1,.2-1.6,2,2,0,0,1,.9-1.1,5.2,5.2,0,0,1,2.1-.4,3.2,3.2,0,0,1,2.2.7,2.5,2.5,0,0,1,.7,2.1l-.3,3.1a14.3,14.3,0,0,1,1.5-2.2,15.5,15.5,0,0,1,2.4-1.9,13.5,13.5,0,0,1,3-1.4,12.6,12.6,0,0,1,3.3-.5,10.6,10.6,0,0,1,4.5.9,11,11,0,0,1,3.5,2.6,12.2,12.2,0,0,1,2.7,4.1,23.1,23.1,0,0,1,3.1-4.1,11.4,11.4,0,0,1,3.6-2.6,11.9,11.9,0,0,1,4.7-.9,10.9,10.9,0,0,1,6.9,2.1,11.3,11.3,0,0,1,4.2,5.7,26.4,26.4,0,0,1,1.4,8.9v15.1a8.8,8.8,0,0,1-.2,1.7,1.9,1.9,0,0,1-.9,1.1,3.7,3.7,0,0,1-2.1.4,3.5,3.5,0,0,1-2-.4,1.8,1.8,0,0,1-.9-1.2,4.4,4.4,0,0,1-.2-1.7V178.9a18.2,18.2,0,0,0-.8-5.5,8.1,8.1,0,0,0-2.3-3.7,6.4,6.4,0,0,0-4-1.3,9.1,9.1,0,0,0-4.6,1.3,8.5,8.5,0,0,0-3,3.7,13.1,13.1,0,0,0-1.1,5.5v15.2a3.8,3.8,0,0,1-.4,1.9,2.4,2.4,0,0,1-1.3,1.1,4,4,0,0,1-2.2.1,2.3,2.3,0,0,1-1.6-.5,2,2,0,0,1-.8-1.2,6.6,6.6,0,0,1-.1-1.5V178.9a18.2,18.2,0,0,0-.8-5.5,7.3,7.3,0,0,0-2.3-3.7,6.2,6.2,0,0,0-4-1.3,7.7,7.7,0,0,0-4.5,1.4,7.6,7.6,0,0,0-3.1,3.7,13,13,0,0,0-1.1,5.4v15.2a4.7,4.7,0,0,1-.2,1.7,1.6,1.6,0,0,1-.9,1.1A3.9,3.9,0,0,1,383.9,197.3Z" transform="translate(-144.6 -130.7)"/><path class="cls-77" d="M443,197.4a5.6,5.6,0,0,1-2.1-.4,2.7,2.7,0,0,1-.9-1.2,7.9,7.9,0,0,1-.2-1.7V149.7a9,9,0,0,1,.2-1.8,1.6,1.6,0,0,1,.9-1.1,4.1,4.1,0,0,1,2.1-.4,3.5,3.5,0,0,1,2,.4,2.7,2.7,0,0,1,.9,1.2,7.9,7.9,0,0,1,.2,1.7v45.1a3.7,3.7,0,0,1-.8,2A3.5,3.5,0,0,1,443,197.4Zm14.9-.1a15,15,0,0,1-6.4-1.3,13.5,13.5,0,0,1-4.8-3.7,17.7,17.7,0,0,1-3.2-5.5,19.8,19.8,0,0,1-1-7,21.7,21.7,0,0,1,1.1-6.9,15.3,15.3,0,0,1,3.1-5.6,13.3,13.3,0,0,1,4.9-3.6,14.5,14.5,0,0,1,6.3-1.3,15.5,15.5,0,0,1,11.4,4.9,18.4,18.4,0,0,1,3.5,5.5,20.7,20.7,0,0,1,0,13.9,17.7,17.7,0,0,1-3.5,5.6,15.5,15.5,0,0,1-5.1,3.7A14.5,14.5,0,0,1,457.9,197.3Zm-.9-6.1a10.1,10.1,0,0,0,5.5-1.5,10.7,10.7,0,0,0,3.9-4,12.1,12.1,0,0,0,1.4-5.8,12.5,12.5,0,0,0-1.4-5.9,10.2,10.2,0,0,0-9.4-5.5,10,10,0,0,0-5.4,1.5,10.4,10.4,0,0,0-3.8,4,12.5,12.5,0,0,0-1.4,5.9,12.1,12.1,0,0,0,1.4,5.8,9.8,9.8,0,0,0,3.8,4A10,10,0,0,0,457,191.2Z" transform="translate(-144.6 -130.7)"/><path class="cls-3" d="M485.6,153.8a4.3,4.3,0,0,1-2.4-.5,2.2,2.2,0,0,1-1-1.3,10.1,10.1,0,0,1,0-4,2.1,2.1,0,0,1,1.1-1.2,4.9,4.9,0,0,1,2.4-.4,4.7,4.7,0,0,1,2.3.4,1.9,1.9,0,0,1,1,1.3,6.6,6.6,0,0,1,.3,2.1,5.4,5.4,0,0,1-.3,1.9,1.9,1.9,0,0,1-1,1.3A4.9,4.9,0,0,1,485.6,153.8Zm0,43.5a4.1,4.1,0,0,1-2.1-.4,2.4,2.4,0,0,1-.9-1.1,9.1,9.1,0,0,1-.1-1.7V165.6a4.7,4.7,0,0,1,.2-1.7,1.4,1.4,0,0,1,.9-1.1,4.8,4.8,0,0,1,2.1-.4,4.6,4.6,0,0,1,2,.4,2.7,2.7,0,0,1,.9,1.2,9,9,0,0,1,.2,1.8v28.3a9,9,0,0,1-.2,1.8,2.2,2.2,0,0,1-.9,1A4.1,4.1,0,0,1,485.6,197.3Z" transform="translate(-144.6 -130.7)"/><path class="cls-77" d="M498.5,163.2h18.7a3.1,3.1,0,0,1,1.1.9,5.6,5.6,0,0,1,.4,2.1,4.6,4.6,0,0,1-.4,2,1.4,1.4,0,0,1-1.1.9,4.2,4.2,0,0,1-1.7.2H498.4a2.6,2.6,0,0,1-2.1-.8,4.1,4.1,0,0,1-.5-2.3,3.3,3.3,0,0,1,.6-2.3A2.7,2.7,0,0,1,498.5,163.2Zm16.1,34.1a19.3,19.3,0,0,1-5.7-.7,9,9,0,0,1-3.9-2,7.3,7.3,0,0,1-2.1-3.5,21.5,21.5,0,0,1-.6-5.5V153.9a5,5,0,0,1,.2-1.8,1.5,1.5,0,0,1,.8-1.1,3.9,3.9,0,0,1,2.1-.4,3.5,3.5,0,0,1,2,.4,1.8,1.8,0,0,1,1,1.1,7.8,7.8,0,0,1,.2,1.6v31.9a11.5,11.5,0,0,0,.3,3,3.5,3.5,0,0,0,1,1.7,3.6,3.6,0,0,0,1.9.7l2.8.2a4.7,4.7,0,0,1,1.8.2,1.4,1.4,0,0,1,1.1.9,3.2,3.2,0,0,1,.4,1.9,5.6,5.6,0,0,1-.4,2.1,2,2,0,0,1-1.2.8Z" transform="translate(-144.6 -130.7)"/><path class="cls-77" d="M536.9,197.7a24.6,24.6,0,0,1-3.7-.4,24.2,24.2,0,0,1-3.6-1,15.4,15.4,0,0,1-3.1-1.7,5.4,5.4,0,0,1-1.9-2.1,3.5,3.5,0,0,1-.5-1.3,5,5,0,0,1,.2-1.2,4.4,4.4,0,0,1,.9-1.1,2.1,2.1,0,0,1,1.4-.9,5,5,0,0,1,1.9,1l1.8,1.1,2.2,1.1,2.4.8,2.3.3a10.5,10.5,0,0,0,5.4-1.2,4,4,0,0,0,2-3.4,4.6,4.6,0,0,0-.5-2.1,6.2,6.2,0,0,0-1.4-1.4l-2-1.1-2.4-.8-2.6-.8-3.8-1.1a15.4,15.4,0,0,1-3.4-1.7,7.8,7.8,0,0,1-2.4-2.7,8.3,8.3,0,0,1-1-4.1,8.5,8.5,0,0,1,1.5-5.1,9.5,9.5,0,0,1,4.2-3.4,16.4,16.4,0,0,1,6.5-1.2l3,.2,2.6.7,2.4,1.1a10.7,10.7,0,0,1,2.2,1.5c.9.6,1.4,1.2,1.4,1.9a2.8,2.8,0,0,1-.8,2.1,2.4,2.4,0,0,1-1.4,1.1,1.6,1.6,0,0,1-1.6-.3,12.8,12.8,0,0,0-2.5-1.5,12.3,12.3,0,0,0-2.6-1.2,13.5,13.5,0,0,0-2.8-.4,7.9,7.9,0,0,0-3.2.6,3.8,3.8,0,0,0-2.9,3.9,3.1,3.1,0,0,0,.6,1.9l1.5,1.2,2.4.9,2.7.7,4.3,1.2a21,21,0,0,1,4,1.8,10.4,10.4,0,0,1,2.9,3,9.5,9.5,0,0,1,1.1,4.8,8.8,8.8,0,0,1-3.8,7.5A16.6,16.6,0,0,1,536.9,197.7Z" transform="translate(-144.6 -130.7)"/></svg>