<svg xmlns="http://www.w3.org/2000/svg" xmlns:xlink="http://www.w3.org/1999/xlink" viewBox="0 0 205.329 143.725"><defs><style>.cls-1{fill:url(#linear-gradient);}.cls-2{fill:url(#linear-gradient-2);}</style><linearGradient id="linear-gradient" x1="804.171" y1="473.115" x2="925.772" y2="351.514" gradientUnits="userSpaceOnUse"><stop offset="0" stop-color="#00abdb"/><stop offset="1" stop-color="#e83b8d"/></linearGradient><linearGradient id="linear-gradient-2" x1="756.036" y1="516.64" x2="1085.321" y2="516.64" gradientUnits="userSpaceOnUse"><stop offset="0" stop-color="#00abdb"/><stop offset="0.672" stop-color="#e83b8d"/></linearGradient></defs><g id="Layer_1" data-name="Layer 1"><path class="cls-1" d="M962.236,392.256A47.009,47.009,0,0,0,946.3,373.073a40.833,40.833,0,0,0-23.337-7.6c-21.235,0-31.931,10.215-33.047,11.346l-24.943,24.959-24.909-24.925c-1.15-1.165-11.845-11.38-33.081-11.38a40.828,40.828,0,0,0-23.336,7.6,47.022,47.022,0,0,0-15.938,19.183c-3.957,8.731-5.1,18.962-3.3,29.585A45.933,45.933,0,0,0,776,444.892a44.253,44.253,0,0,0,21.065,12.96,38.52,38.52,0,0,0,9.912,1.314c21.236,0,31.932-10.216,33.048-11.348l24.942-24.958,24.91,24.925c1.149,1.164,11.845,11.381,33.08,11.381a38.524,38.524,0,0,0,9.91-1.313,44.25,44.25,0,0,0,21.067-12.961,45.9,45.9,0,0,0,11.6-23.052C967.334,411.215,966.192,400.985,962.236,392.256ZM829.452,437.183c-.414.391-7.605,6.983-22.471,6.983a23.5,23.5,0,0,1-6.05-.809,29.71,29.71,0,0,1-13.9-8.63,30.777,30.777,0,0,1-7.837-15.391c-.9-5.345-1.263-13.309,2.172-20.888a32.464,32.464,0,0,1,10.846-13.064,26.283,26.283,0,0,1,14.766-4.911c14.813,0,22.007,6.544,22.466,6.978L854.3,412.319Zm121.294-17.847a30.779,30.779,0,0,1-7.838,15.391,29.7,29.7,0,0,1-13.9,8.63,23.486,23.486,0,0,1-6.049.809c-14.813,0-22-6.545-22.465-6.978l-24.852-24.869,24.848-24.865c.418-.4,7.61-6.981,22.469-6.981a26.284,26.284,0,0,1,14.767,4.911,32.45,32.45,0,0,1,10.846,13.064C952.009,406.025,951.65,413.99,950.746,419.336Z" transform="translate(-761.035 -365.473)"/></g><g id="Layer_2" data-name="Layer 2"><path class="cls-2" d="M790.424,496.646a10.5,10.5,0,0,1-4.584,8.687,14.555,14.555,0,0,1-9.009,2.863,21.95,21.95,0,0,1-5.9-.941q-.36,1.942-1.983,1.942a1.724,1.724,0,0,1-1.7-1.02,8.009,8.009,0,0,1-.461-3.2q0-4.685,1.262-20.961l.16-2.262a25.123,25.123,0,0,1,.66-4.725,1.958,1.958,0,0,1,1.962-1.5q1.821,0,1.821,2.424,0-.7-.7,7.193-.762,8.454-.981,18.05a21.144,21.144,0,0,0,6.146,1.062,9.679,9.679,0,0,0,6.586-2.226,6.863,6.863,0,0,0,2.463-5.373q0-6.274-8.648-6.275-.3,0-.911.02t-.931.02q-1.843,0-1.842-1.682a1.607,1.607,0,0,1,1.022-1.641,5.962,5.962,0,0,1,1.761-.361,19.1,19.1,0,0,0,1.942-.259,4.613,4.613,0,0,0,2.753-1.953,6.336,6.336,0,0,0,1.05-3.673,5.227,5.227,0,0,0-2.422-4.6,12.365,12.365,0,0,0-6.926-1.631,17.4,17.4,0,0,0-6.647,1.48q-.861.4-1.742.8a4.764,4.764,0,0,1-1.781.421,1.768,1.768,0,0,1-1.292-.5,1.6,1.6,0,0,1-.511-1.18q0-1.1,1.963-2.243a21.294,21.294,0,0,1,10.91-2.663q5.886,0,9.329,2.663a8.494,8.494,0,0,1,3.384,7.047,9,9,0,0,1-3.043,6.887,9.375,9.375,0,0,1,6.846,9.31Z" transform="translate(-761.035 -365.473)"/><path class="cls-2" d="M812.13,492.3a44.354,44.354,0,0,1-1.6,11.471q-.8,3-2.382,3-1.623,0-1.622-1.841a3.565,3.565,0,0,1,.039-.621,8.788,8.788,0,0,1-4.223,1.1,8.135,8.135,0,0,1-6.036-2.182,8.271,8.271,0,0,1-2.172-6.105,8.05,8.05,0,0,1,8.568-8.648,7.862,7.862,0,0,1,5.7,2.261q-.379-7.906-5.865-7.908a5.647,5.647,0,0,0-2.612.731,5.556,5.556,0,0,1-1.812.731,1.656,1.656,0,0,1-1.221-.561,1.79,1.79,0,0,1-.541-1.281q0-1.2,1.742-2.222a8.574,8.574,0,0,1,4.444-1.1Q812.13,479.128,812.13,492.3Zm-4.065,4.7q0-5.085-4.785-5.084-5.244,0-5.244,5.045,0,5.084,5.205,5.084a4.687,4.687,0,0,0,3.543-1.331A5.135,5.135,0,0,0,808.065,497.005Z" transform="translate(-761.035 -365.473)"/><path class="cls-2" d="M838.739,491.64q0,6.166-3.123,9.679a10.827,10.827,0,0,1-8.528,3.514,7.718,7.718,0,0,1-5.285-1.922,7.993,7.993,0,0,1-.281,2.4,1.728,1.728,0,0,1-1.782,1.242q-1.881,0-1.881-2.363,0,.021.1-2.122.12-2.5.18-5.285.1-4.023.1-8.589a88.354,88.354,0,0,0-.421-10.129q-.138-1.221-.48-2.8a12.167,12.167,0,0,1-.26-1.622,1.435,1.435,0,0,1,.58-1.112,2,2,0,0,1,1.322-.49q1.641,0,2.222,2.462a56.992,56.992,0,0,1,.761,7.828,11.335,11.335,0,0,1,6.807-2.342,9.167,9.167,0,0,1,7.287,3.082Q838.739,486.155,838.739,491.64Zm-3.983.121a9.516,9.516,0,0,0-1.762-6.067,5.721,5.721,0,0,0-4.724-2.222,6.767,6.767,0,0,0-6.227,3.244V489.8q0,2.183-.02,4.695t-.02,2.813v.04a5.55,5.55,0,0,0,5.365,3.763,6.532,6.532,0,0,0,5.316-2.562A10.475,10.475,0,0,0,834.756,491.761Z" transform="translate(-761.035 -365.473)"/><path class="cls-2" d="M857.542,478.968q0,2.522-2.042,8.728a88.591,88.591,0,0,1-6.767,14.514q-.981,1.983-1.981,3.965-.861,1.541-2.043,1.541a1.72,1.72,0,0,1-1.271-.6,1.883,1.883,0,0,1-.571-1.321q0-1.3,1.766-4.344,4.032-7.039,4.173-7.28a67.234,67.234,0,0,1-6.2-9.837q-1.821-3.623-1.822-4.9,0-1.8,1.724-1.8,1.082,0,2.165,1.883.981,2.1,1.943,4.2a44.746,44.746,0,0,0,3.948,6.83,51.81,51.81,0,0,0,2.363-7.97q.94-4.305.961-4.385.58-1.641,1.806-1.641Q857.543,476.546,857.542,478.968Z" transform="translate(-761.035 -365.473)"/><path class="cls-2" d="M897.868,496.646a10.5,10.5,0,0,1-4.584,8.687,14.555,14.555,0,0,1-9.009,2.863,21.955,21.955,0,0,1-5.9-.941q-.36,1.942-1.982,1.942a1.723,1.723,0,0,1-1.7-1.02,7.99,7.99,0,0,1-.461-3.2q0-4.685,1.261-20.961l.16-2.262a25.093,25.093,0,0,1,.661-4.725,1.958,1.958,0,0,1,1.962-1.5q1.819,0,1.821,2.424,0-.7-.7,7.193-.762,8.454-.982,18.05a21.144,21.144,0,0,0,6.147,1.062,9.68,9.68,0,0,0,6.586-2.226,6.865,6.865,0,0,0,2.462-5.373q0-6.274-8.648-6.275-.3,0-.911.02c-.407.013-.718.02-.931.02q-1.842,0-1.842-1.682a1.607,1.607,0,0,1,1.022-1.641,5.962,5.962,0,0,1,1.762-.361,19.066,19.066,0,0,0,1.941-.259,4.61,4.61,0,0,0,2.753-1.953,6.336,6.336,0,0,0,1.051-3.673,5.228,5.228,0,0,0-2.423-4.6,12.363,12.363,0,0,0-6.926-1.631,17.4,17.4,0,0,0-6.646,1.48q-.863.4-1.743.8a4.759,4.759,0,0,1-1.781.421,1.77,1.77,0,0,1-1.292-.5,1.6,1.6,0,0,1-.511-1.18q0-1.1,1.963-2.243a21.3,21.3,0,0,1,10.911-2.663q5.885,0,9.329,2.663a8.493,8.493,0,0,1,3.383,7.047,9,9,0,0,1-3.043,6.887,9.372,9.372,0,0,1,6.846,9.31Z" transform="translate(-761.035 -365.473)"/><path class="cls-2" d="M923.8,489.878a12.783,12.783,0,0,1-3.444,9.38,12.317,12.317,0,0,1-9.188,3.493A9.181,9.181,0,0,1,903.7,499.5q-2.7-3.253-2.7-9.039,0-6.086,3.263-9.449,3.2-3.3,8.888-3.3a9.779,9.779,0,0,1,7.708,3.344A12.879,12.879,0,0,1,923.8,489.878Zm-3.984.041a9.359,9.359,0,0,0-1.952-6.3,6.664,6.664,0,0,0-5.335-2.271q-7.548,0-7.548,9.068a10.794,10.794,0,0,0,1.642,6.436,5.469,5.469,0,0,0,4.705,2.252,8.1,8.1,0,0,0,6.226-2.422A9.533,9.533,0,0,0,919.814,489.919Z" transform="translate(-761.035 -365.473)"/><path class="cls-2" d="M942.82,484.474a1.868,1.868,0,0,1-.461,1.281,1.419,1.419,0,0,1-1.1.519,2.849,2.849,0,0,1-1.421-.7,2.957,2.957,0,0,0-1.7-.7,3.615,3.615,0,0,0-3.082,1.671,7.687,7.687,0,0,0-1.182,4.515v2.623a21.364,21.364,0,0,1-.921,6.966q-.861,2.423-2.221,2.422a1.6,1.6,0,0,1-1.823-1.8,21.3,21.3,0,0,1,.561-2.653,18.231,18.231,0,0,0,.56-4.314,21.087,21.087,0,0,0-1.6-8.969q-.042-.1-1.1-2.022a3.557,3.557,0,0,1-.54-1.561,1.618,1.618,0,0,1,.62-1.2,1.97,1.97,0,0,1,1.342-.561q2.121,0,3.524,5.205,2.081-4.005,6.066-4a5.261,5.261,0,0,1,3.242.931A2.828,2.828,0,0,1,942.82,484.474Z" transform="translate(-761.035 -365.473)"/><path class="cls-2" d="M965.686,490.819a29.966,29.966,0,0,1-1.557,9.469q-.957,2.923-2.373,2.924a1.9,1.9,0,0,1-1.3-.471,1.452,1.452,0,0,1-.539-1.131q0-.182.961-3.654a25.791,25.791,0,0,0,.961-6.9q0-7.788-4.873-7.788a5.716,5.716,0,0,0-4.553,2.062,8.3,8.3,0,0,0-1.825,5.605,36.831,36.831,0,0,0,.551,5.415,36.607,36.607,0,0,1,.55,4.956q0,3.443-1.963,3.443a1.764,1.764,0,0,1-1.38-.441,3.143,3.143,0,0,1-.5-1.4q-.021-1.24-.5-7.167-.822-8.288-.822-11.771,0-6.066,2.343-6.066a1.916,1.916,0,0,1,1.3.47,1.417,1.417,0,0,1,.54,1.091,10.558,10.558,0,0,1-.24,1.662,11.018,11.018,0,0,0-.241,2.062v.46q2.963-4.023,7.208-4.024a7.166,7.166,0,0,1,6.076,2.893Q965.685,485.415,965.686,490.819Z" transform="translate(-761.035 -365.473)"/></g></svg>