<svg id="Layer_2" data-name="Layer 2" xmlns="http://www.w3.org/2000/svg" viewBox="0 0 200 200"><defs><style>.cls-1{fill:none;stroke:#1d1d1b;stroke-miterlimit:10;stroke-width:6px;}</style></defs><rect class="cls-1" x="32.7" y="94.3" width="31.4" height="26.11" rx="6"/><rect class="cls-1" x="32.7" y="145.1" width="31.4" height="26.11" rx="6"/><rect class="cls-1" x="54.2" y="3" width="11.7" height="42.15" rx="5.8"/><path d="M197,51.5v8.7a8.9,8.9,0,0,1-8.8,8.2H11.8A8.9,8.9,0,0,1,3,60.2V51.5a31.3,31.3,0,0,1,8.9-21.2c5.3-5.4,12.1-8.8,18.7-8.8a4,4,0,0,1,4,4v7.8a25.1,25.1,0,0,0,7.5,18,25.5,25.5,0,0,0,43.5-18V25.5a4,4,0,0,1,4-4h20.8a4,4,0,0,1,4,4v7.8a25.6,25.6,0,0,0,51.1,0V25.5a4.1,4.1,0,0,1,4-4C182.5,21.5,197,35,197,51.5Z"/><path class="cls-1" d="M3,60.2V167a30.1,30.1,0,0,0,30,30H167a30.1,30.1,0,0,0,30-30V51.5c0-16.5-14.5-30-27.6-30a4.1,4.1,0,0,0-4,4v7.8a25.6,25.6,0,0,1-51.1,0V25.5a4,4,0,0,0-4-4H89.6a4,4,0,0,0-4,4v7.8a25.5,25.5,0,0,1-43.5,18,25.1,25.1,0,0,1-7.5-18V25.5a4,4,0,0,0-4-4c-6.6,0-13.4,3.4-18.7,8.8A31.3,31.3,0,0,0,3,51.5Z"/><path class="cls-1" d="M197,54.6v5.6a8.9,8.9,0,0,1-8.8,8.2H11.8A8.9,8.9,0,0,1,3,60.2V54.6"/><rect class="cls-1" x="135.9" y="94.3" width="31.4" height="26.11" rx="6" transform="translate(303.2 214.6) rotate(-180)"/><rect class="cls-1" x="135.9" y="145.1" width="31.4" height="26.11" rx="6" transform="translate(303.2 316.4) rotate(-180)"/><rect class="cls-1" x="134.1" y="3" width="11.7" height="42.15" rx="5.8" transform="translate(279.9 48.2) rotate(-180)"/><rect class="cls-1" x="84.3" y="94.3" width="31.4" height="26.11" rx="6"/><rect class="cls-1" x="84.3" y="145.1" width="31.4" height="26.11" rx="6"/></svg>