<?xml version="1.0" encoding="UTF-8"?><svg id="Layer_1" xmlns="http://www.w3.org/2000/svg" viewBox="0 0 420 420"><defs><style>.cls-1{fill:#000;stroke-width:0px;}</style></defs><path class="cls-1" d="M210,55c41.4,0,80.3,16.1,109.6,45.4,29.3,29.3,45.4,68.2,45.4,109.6s-16.1,80.3-45.4,109.6c-29.3,29.3-68.2,45.4-109.6,45.4s-80.3-16.1-109.6-45.4c-29.3-29.3-45.4-68.2-45.4-109.6s16.1-80.3,45.4-109.6,68.2-45.4,109.6-45.4M210,0C94,0,0,94,0,210s94,210,210,210,210-94,210-210S326,0,210,0h0Z"/><path class="cls-1" d="M210,107.7c-4.4,0-8-3.6-8-8v-19.5c0-4.4,3.6-8,8-8s8,3.6,8,8v19.5c0,4.4-3.6,8-8,8Z"/><path class="cls-1" d="M288,140c-2,0-4.1-.8-5.7-2.3-3.1-3.1-3.1-8.2,0-11.3l13.8-13.8c3.1-3.1,8.2-3.1,11.3,0s3.1,8.2,0,11.3l-13.8,13.8c-1.6,1.6-3.6,2.3-5.7,2.3h.1Z"/><path class="cls-1" d="M339.8,218h-19.5c-4.4,0-8-3.6-8-8s3.6-8,8-8h19.5c4.4,0,8,3.6,8,8s-3.6,8-8,8Z"/><path class="cls-1" d="M301.8,309.8c-2,0-4.1-.8-5.7-2.3l-13.8-13.8c-3.1-3.1-3.1-8.2,0-11.3,3.1-3.1,8.2-3.1,11.3,0l13.8,13.8c3.1,3.1,3.1,8.2,0,11.3-1.6,1.6-3.6,2.3-5.7,2.3h.1Z"/><path class="cls-1" d="M210,347.8c-4.4,0-8-3.6-8-8v-19.5c0-4.4,3.6-8,8-8s8,3.6,8,8v19.5c0,4.4-3.6,8-8,8Z"/><path class="cls-1" d="M118.2,309.8c-2,0-4.1-.8-5.7-2.3-3.1-3.1-3.1-8.2,0-11.3l13.8-13.8c3.1-3.1,8.2-3.1,11.3,0,3.1,3.1,3.1,8.2,0,11.3l-13.8,13.8c-1.6,1.6-3.6,2.3-5.7,2.3h.1Z"/><path class="cls-1" d="M99.7,218h-19.5c-4.4,0-8-3.6-8-8s3.6-8,8-8h19.5c4.4,0,8,3.6,8,8s-3.6,8-8,8Z"/><path class="cls-1" d="M132,140c-2,0-4.1-.8-5.7-2.3l-13.8-13.8c-3.1-3.1-3.1-8.2,0-11.3s8.2-3.1,11.3,0l13.8,13.8c3.1,3.1,3.1,8.2,0,11.3s-3.6,2.3-5.7,2.3h.1Z"/><path class="cls-1" d="M210,237.5c-15.2,0-27.5-12.3-27.5-27.5v-89.8c0-15.2,12.3-27.5,27.5-27.5s27.5,12.3,27.5,27.5v89.8c0,15.2-12.3,27.5-27.5,27.5Z"/></svg>