<svg id="Layer_2" data-name="Layer 2" xmlns="http://www.w3.org/2000/svg" viewBox="0 0 280 280"><defs><style>.cls-1{fill:none;stroke:#1d1d1b;stroke-linecap:round;stroke-miterlimit:10;stroke-width:8px;}</style></defs><line class="cls-1" x1="95.5" y1="111.4" x2="110.1" y2="211.5"/><line class="cls-1" x1="140" y1="111.4" x2="140" y2="211.5"/><path class="cls-1" d="M60.6,87.6,83.1,217.9c2.7,12.2,8.8,18.1,24.8,18.1h64.3c15.9,0,22-5.9,24.7-18.1L219.4,87.6"/><path class="cls-1" d="M135.4,86.9h92.2a8.6,8.6,0,0,0,8.4-8.4h0a8.4,8.4,0,0,0-8.4-8.3H52.4A8.4,8.4,0,0,0,44,78.5h0a8.6,8.6,0,0,0,8.4,8.4h83Z"/><path class="cls-1" d="M182,69.4l-8.9-16.9c-2.5-4.2-7.6-8.5-13.5-8.5H120.4c-5.9,0-11,4.3-13.4,8.5L98.1,69.4"/><line class="cls-1" x1="184.5" y1="111.4" x2="169.9" y2="211.5"/><line class="cls-1" x1="221.4" y1="86.9" x2="58.7" y2="86.9"/></svg>