<svg xmlns="http://www.w3.org/2000/svg" viewBox="0 0 200 200"><defs><style>.cls-1{opacity:0.22;}.cls-2,.cls-3,.cls-4{fill:none;stroke:#1d1d1b;stroke-miterlimit:10;stroke-width:6px;}.cls-2,.cls-4{fill-rule:evenodd;}.cls-4{stroke-linecap:round;}</style></defs><g id="Layer_2" data-name="Layer 2"><path class="cls-2" d="M94.3,158.2v22.4a5,5,0,0,1-5,5H73.6a5.8,5.8,0,0,0-5.7,5.7h0a5.7,5.7,0,0,0,5.7,5.6h52.8a5.7,5.7,0,0,0,5.7-5.6h0a5.8,5.8,0,0,0-5.7-5.7H110.7a5,5,0,0,1-5-5V158.2"/><path class="cls-2" d="M116.6,6.9S90.2-3.1,73.2,19.5c-5.7,7.6-7.7,18-7.5,27.6h0a4.1,4.1,0,0,1-2.7,4l-1.6.6A27,27,0,0,0,44.6,84.1l1.4,5"/><circle class="cls-3" cx="127.2" cy="17.6" r="14.5"/><path class="cls-4" d="M116.2,26.9l1,1.1a51.5,51.5,0,0,0,7.6,6.4c6.6,4.6,11,10.3,11.5,18.5l-1.9,1.9c-9,7.1-22.4,14.9-36,8.2h0"/><path class="cls-4" d="M136.3,52.9l1.5.4a25.3,25.3,0,0,1,16.8,35.8h0"/><path class="cls-2" d="M120.6,89.1h36.1a5.7,5.7,0,0,1,5.6,5.7v1.1c-.6,13.2,1.3,30-14.5,48-8.5,9.6-27,13.8-46.6,13.9h0c-20.4.3-40.1-3.8-49-13.9-15.8-18-13.9-34.8-14.5-48V94.8a5.7,5.7,0,0,1,5.6-5.7h77.3Z"/></g></svg>