<svg id="Layer_1" data-name="Layer 1" xmlns="http://www.w3.org/2000/svg" viewBox="0 0 200 200"><defs><style>.cls-1,.cls-2{fill:none;stroke:#1d1d1b;stroke-miterlimit:10;stroke-width:6px;}.cls-2{stroke-linecap:round;}</style></defs><path class="cls-1" d="M100.4,60.2a3.9,3.9,0,0,0,2-2.5l11.1-41.6a.8.8,0,0,1,.7-.5h36a6.3,6.3,0,0,0,6.3-6.3h0a6.3,6.3,0,0,0-6.3-6.2H108.9a6.2,6.2,0,0,0-6,4.5h-.1l-12.5,47a3.7,3.7,0,0,0,.5,3.1h0a7.1,7.1,0,0,0,9.5,2.5Z"/><path class="cls-1" d="M117.8,174.6h8.5a10.3,10.3,0,0,0,10.2-9.2L144.6,90a10.2,10.2,0,0,0-10.2-11.3H58.1A10.2,10.2,0,0,0,47.9,90L56,165.4a10.4,10.4,0,0,0,10.2,9.2h51.9"/><path class="cls-1" d="M117,184.4h9.4a6.3,6.3,0,0,1,6.2,6.3h0a6.3,6.3,0,0,1-6.2,6.3H66.2a6.3,6.3,0,0,1-6.3-6.3h0a6.3,6.3,0,0,1,6.3-6.3Z"/><line class="cls-2" x1="120.4" y1="104.5" x2="142.9" y2="99.7"/><line class="cls-2" x1="51.6" y1="119.2" x2="109" y2="106.9"/><line class="cls-2" x1="86.2" y1="146.5" x2="139.8" y2="135"/><line class="cls-2" x1="55.4" y1="153.1" x2="74.9" y2="148.9"/><path class="cls-2" d="M113.1,56.3h37.1a6.3,6.3,0,0,1,6.3,6.3h0a6.3,6.3,0,0,1-6.3,6.2H42.3A6.3,6.3,0,0,1,36,62.6h0a6.3,6.3,0,0,1,6.3-6.3H79.4"/></svg>