<svg id="Layer_1" data-name="Layer 1" xmlns="http://www.w3.org/2000/svg" viewBox="0 0 200 200"><defs><style>.cls-1{fill:none;stroke:#fff;stroke-linecap:round;stroke-miterlimit:10;stroke-width:8px;}</style></defs><path class="cls-1" d="M132,185.4V39.9"/><path class="cls-1" d="M132,36.4V190"/><path class="cls-1" d="M68,160.1V15.1"/><path class="cls-1" d="M68,163.6a11.2,11.2,0,0,1,4.4.9l53.9,24.3h0a14.1,14.1,0,0,0,11.4,0h0l56-25.2a3.8,3.8,0,0,0,2.3-3.5V14.6a4,4,0,0,0-5.7-3.5L136.4,35.5a11.2,11.2,0,0,1-4.4.9h0a11.2,11.2,0,0,1-4.4-.9L73.7,11.1h0a15,15,0,0,0-11.4,0h0L6.3,36.4A3.8,3.8,0,0,0,4,39.9V185.4a3.9,3.9,0,0,0,5.7,3.4l53.9-24.3a11.2,11.2,0,0,1,4.4-.9Z"/><path class="cls-1" d="M68,10V163.6"/></svg>