<svg xmlns="http://www.w3.org/2000/svg" viewBox="0 0 1186 1186"><defs><style>.cls-1,.cls-3{fill:none;}.cls-1,.cls-2,.cls-3{stroke:#fff;stroke-miterlimit:10;}.cls-1{stroke-width:10px;}.cls-2{fill:#fff;}.cls-3{stroke-width:14px;}</style></defs><g id="Layer_2" data-name="Layer 2"><path id="outer_eye" data-name="outer eye" class="cls-1" d="M2223.5,1150.5s24-22,32-36,22-20,40-16,12,4,28,5-11,5-17,12-7,11-29,19-18,2-26,3S2223.5,1150.5,2223.5,1150.5Z" transform="translate(-1835 -548)"/><path id="eye" class="cls-1" d="M2270.48,1107.46a23.63,23.63,0,0,0-3.87,2.08,23,23,0,0,0-2.84,2.09,11.3,11.3,0,0,0-3.55,6.29,17.16,17.16,0,0,0,.08,5.63,18.72,18.72,0,0,0,2.65,7.52,6.39,6.39,0,0,0,3.73,2.83,8.39,8.39,0,0,0,5.23-.92,46.3,46.3,0,0,0,11.19-7.46c1.48-1.27,2.92-2.6,4.34-3.94s2.76-2.67,4.06-4.08l5-5c1.05-1-1.26-2.84-2-3.31a15.5,15.5,0,0,0-4.11-1.67,46.14,46.14,0,0,0-10.26-2,21.78,21.78,0,0,0-8.52,1.44C2271.23,1107.15,2270.86,1107.3,2270.48,1107.46Z" transform="translate(-1835 -548)"/><path id="nose" class="cls-1" d="M2033.9,1328.18a67.37,67.37,0,0,0,11.68-11.58,61.32,61.32,0,0,0,8.66-14.57,42.16,42.16,0,0,0,3.35-16,31.39,31.39,0,0,0-.19-3.49c-.12-1.2-.4-2.36-.57-3.55a23.52,23.52,0,0,0-1.92-5.8,39.64,39.64,0,0,0-6.67-10.47c-.7-.8-1.44-1.56-2.2-2.3a61.11,61.11,0,0,0-5.16-4.48,55.8,55.8,0,0,0-5.45-3.9l-7.77-4.69" transform="translate(-1835 -548)"/><g id="mouth"><path class="cls-2" d="M2134.68,1353.12q-5.82,0-11.62-.42a157.25,157.25,0,0,1-17.64-2.29c-1.75-.33-3.46-.72-5.12-1.11s-3.13-.72-4.66-1a85.46,85.46,0,0,0-9.73-1.28,87.25,87.25,0,0,0-19.58.76,85.72,85.72,0,0,0-10,2.12l-2.67-9.63a94.91,94.91,0,0,1,11.13-2.38,97.77,97.77,0,0,1,21.83-.84,98.77,98.77,0,0,1,10.85,1.42c1.73.33,3.42.72,5.06,1.1s3.16.74,4.7,1a147,147,0,0,0,16.51,2.13,151.32,151.32,0,0,0,53.3-5.63,104.2,104.2,0,0,0,10.74-3.8c5.21-2.19,9.86-5.38,14.78-8.75q2.23-1.53,4.51-3c7.74-5.1,15.78-9.93,23.88-14.35a296.56,296.56,0,0,1,38.08-17.64,209.63,209.63,0,0,1,24.35-7.31q6.15-1.49,12.37-2.72A53,53,0,0,1,2316,1278c-1.06,0-2.55,1-3.49,1.4-1.76.75-3.49,1.57-5.23,2.36-13.23,6-26.46,12.23-39.65,18.42-10.74,5-21.44,10.06-31.86,15.74-7.86,4.28-15.65,9-23.17,13.92-1.47,1-2.92,2-4.36,3-5.12,3.51-10.41,7.13-16.55,9.71a114.08,114.08,0,0,1-11.78,4.18A160.65,160.65,0,0,1,2134.68,1353.12Z" transform="translate(-1835 -548)"/></g><g id="right_ear" data-name="right ear"><path class="cls-2" d="M2284.93,886c-2.38-8.49-4.84-16.74-9.52-24.3a56.75,56.75,0,0,0-7.12-9.21c-3.07-3.23-6-6.59-9.15-9.77l-1-1-4.07-4.07c-3.55-3.54-7.11-7.17-10.55-10.68-6.56-6.68-13.35-13.6-20.22-20.1-6.6-6.24-13.71-12.86-22.38-20.83q-5.37-4.93-10.77-9.85c-8.41-7.72-13.58-15.06-15.41-21.84l9.65-2.6c1.31,4.85,5.63,10.75,12.5,17.06q5.4,4.89,10.8,9.87c8.7,8,15.85,14.65,22.48,20.92,7,6.63,13.86,13.62,20.49,20.37,3.42,3.49,7,7.1,10.47,10.6l4.08,4.08c6.24,6.23,12.52,12.5,16.84,20.26a60.87,60.87,0,0,1,7.43,24c.21,2.38-.11,4.87-.11,7.27,0,4.92-.29,9.85-.35,14.78l-3.91-14.3C2285.05,886.44,2285,886.23,2284.93,886Z" transform="translate(-1835 -548)"/></g><g id="left_ear" data-name="left ear"><path class="cls-2" d="M2499.17,978a59.81,59.81,0,0,1,3.07-17.73c2-6.65,4.65-13.12,6.47-19.84a131.67,131.67,0,0,0,3.64-20.68c.19-1.78.35-3.55.48-5.33.44-5.94.62-12.3.58-20.6a88.46,88.46,0,0,0-2-20.07,96.25,96.25,0,0,0-5.68-15.93,29.54,29.54,0,0,0-3.05-4.83c-.64-.9-1.31-1.83-1.93-2.79s-1.19-2-1.75-3a22.68,22.68,0,0,0-2.87-4.36l-.38-.37-.28-.44c-3-4.58-5.92-9.2-8.87-13.82-12.26-19.2-24.94-39.06-39.91-56.42a54.76,54.76,0,0,0-16.93-13.37,14.75,14.75,0,0,0-17.06,2.9,82.43,82.43,0,0,0-12.43,20.8,59,59,0,0,0-3.67,11.3,92.09,92.09,0,0,0-1.55,13.35c-.13,2.69-.16,5.54-.1,8.46.14,7.07,1.12,14.07,1.67,21.11a125.16,125.16,0,0,1-.18,21.73,18.78,18.78,0,0,1-.55,4.39,11.75,11.75,0,0,1-.91-1.38,31.13,31.13,0,0,0-1.81-3.09,43.14,43.14,0,0,1-3.64-7c-2.26-5.52-2.74-11-3.31-16.84-.61-6.24-1.15-12.49-1.27-18.75-.07-3.14,0-6.22.11-9.13a104.88,104.88,0,0,1,1.72-14.79,67.58,67.58,0,0,1,4.25-13.19,91.84,91.84,0,0,1,14.11-23.55l.32-.36a24.64,24.64,0,0,1,28.78-4.93,64.55,64.55,0,0,1,20,15.78c15.44,17.9,28.32,38.07,40.77,57.57,2.85,4.47,5.69,8.93,8.57,13.35a32.5,32.5,0,0,1,4.11,6.1c.5.89,1,1.74,1.42,2.43s1.07,1.55,1.68,2.4a37.33,37.33,0,0,1,4.08,6.66,105,105,0,0,1,6.25,17.63,97.72,97.72,0,0,1,2.27,22.32c0,8.58-.14,15.18-.61,21.39a159,159,0,0,1-4,26.14c-2.06,8.31-5.53,15.93-8.36,24q-2.41,6.86-4.24,13.92-.93,3.59-1.7,7.22c-.48,2.22-.51,6.57-1.51,8.57a36,36,0,0,1-2.59-7.61,56.88,56.88,0,0,1-1.24-9.27Z" transform="translate(-1835 -548)"/></g><g id="left_inner_ear" data-name="left inner ear"><path class="cls-2" d="M2476.52,947.46a66.26,66.26,0,0,1-8,6.19c-1.16.76-2.32,1.55-3.47,2.33,1.1-.74,2.06-2.56,2.86-3.61,1-1.28,1.91-2.57,2.82-3.89q2.73-4,5.09-8.14a106.8,106.8,0,0,0,7.87-17.49,105.48,105.48,0,0,0,5.71-28c1.21-19.91-9-39.39-18-54.13-2.6-4.25-5.47-8.52-8.51-12.69-.57-.79-1.16-1.66-1.77-2.56-1.68-2.49-3.59-5.31-5.43-6.4a4.29,4.29,0,0,0-4.1-.55c-1.57.76-2.8,2.78-3.14,5.17a49.89,49.89,0,0,0,0,9.64,71.79,71.79,0,0,1,.16,8.72,118.08,118.08,0,0,1-6,31,102.27,102.27,0,0,1-4,9.69,57.63,57.63,0,0,0-2.51,6.59c-.68,2.11-1.45,4.18-2,6.34a38.6,38.6,0,0,0-.83,13.63l.09.68a38,38,0,0,0,2.28,8.71,40.38,40.38,0,0,0,3.08,6c.21.36.43.71.64,1.06a4.55,4.55,0,0,1,.62,1c-.91-.75-1.76-1.56-2.67-2.31s-1.84-1.48-2.79-2.18a18.69,18.69,0,0,1-1.67-1.55c-.58-.57-1.13-1.16-1.67-1.77a33.77,33.77,0,0,1-6.17-10.07c-2.75-7-2-15.32.79-22.19,1.12-2.77,2.45-5.45,3.69-8.17,1.39-3,2.7-5.91,3.66-8.73a108.35,108.35,0,0,0,5.51-28.38,66.83,66.83,0,0,0-.16-7.56,57.44,57.44,0,0,1,.13-11.63c.82-5.77,4.08-10.55,8.72-12.77,4.24-2,9-1.7,13.52,1,3.77,2.23,6.34,6,8.61,9.4.54.8,1.06,1.57,1.57,2.27,3.2,4.38,6.21,8.88,9,13.36,9.79,16,20.85,37.26,19.48,60-.67,11-2.45,22-7.62,31.92A71,71,0,0,1,2476.52,947.46Z" transform="translate(-1835 -548)"/></g><g id="left_outer_ear" data-name="left outer ear"><path class="cls-2" d="M2363,942l1-23c1-20,2-27.55,0-47.5v-.14a399.69,399.69,0,0,1-.54-42.15l10,.35a389.12,389.12,0,0,0,.51,41C2376.08,891.58,2367.52,922.24,2363,942Z" transform="translate(-1835 -548)"/></g></g><g id="Layer_3" data-name="Layer 3"><g id="head"><path class="cls-2" d="M2406.51,1515.3a96.9,96.9,0,0,1-26-3.38c-13.49-3.42-26.32-10.19-41.6-22l-15.39-11.85,19.2,3c11.87,1.82,22.53,1.33,31.67-1.46,9.7-3,18.93-7.88,26.81-12.26l5-2.77c7.28-4,14.8-8.18,22-12.55q3.32-2,6.49-4.06c-23.85,9.73-49.39,15.34-75.57,11l-.33-.07c-11-2.61-20.6-8.37-28.51-13.66l-15.18-9.21h17.7c.87,0,1.64-.06,2.34,0a57.11,57.11,0,0,0,20.63-4.14l2.28-1c6.27-2.68,12.7-5.55,19.63-8.77,6-2.8,12.38-5.84,19.45-9.31s14.08-7,19.34-9.64l.08,0c-21.92-.54-42.06-3-60.14-7.35a24.09,24.09,0,0,1-3.75-.93l-.06,0-.13,0-14.15-4.39,13.92-5.07.14,0a298.38,298.38,0,0,0,33.53-14.66c19.25-9.86,36.51-22.78,52.53-35.15,1.22-.94,2.43-1.84,3.61-2.69a126.56,126.56,0,0,1,30.6-16.14c-2.56-.29-5.22-.62-8.12-1-4-.49-8.59-1.06-14-1.66-13.17-.86-25.76.16-42.08,3.42l-.41.07c-37.64,4.3-77.48,12.63-108,19.41a64.81,64.81,0,0,0-8.63,2.85c-1.43.55-2.85,1.09-4.25,1.57-4.15,1.45-8.49,3-13.27,4.7-2.91,1-5.89,2.2-8.76,3.31-5.59,2.15-11.37,4.38-17.24,6.11-14.27,4.75-29,8.06-43.28,11.27q-6.08,1.36-12.15,2.77c-18.51,4.32-36.65,8.34-55.05,10.08a179.93,179.93,0,0,1-41.13-.59,54.3,54.3,0,0,1-12.05-3.24,62.85,62.85,0,0,1-10.77-5.36,68.84,68.84,0,0,1-9.51-7.19,77,77,0,0,1-8.24-8.72c-.93-1.13-1.83-2.31-2.7-3.5l-.26-.34c-.18-.22-.4-.49-.62-.81a24.26,24.26,0,0,1-13-6.36,39,39,0,0,1-6-7c-.61-.9-1.2-1.84-1.81-2.86-.22-.39-.42-.78-.63-1.17-.11-.23-.27-.53-.37-.69s-.45-.23-.67-.34l-.63-.31c-.75-.37-1.44-.78-2.06-1.14l-.54-.32c-1.68-1-3.34-2-4.91-3a89.18,89.18,0,0,1-9.27-7,73,73,0,0,1-15.12-18,57.33,57.33,0,0,1-7-17.53,20.06,20.06,0,0,1,4.59-17.24c.4-.47,1.08-1.26,20.35-16.09l22.8-17.34q11.36-8.65,22.69-17.33t22.72-17.45c8.08-6.23,15.54-12,22.82-17.69,7.8-6.07,15.55-12.15,23-18.06q1.9-1.5,3.83-3c4.1-3.18,8.34-6.46,12.05-10a41.76,41.76,0,0,0,7.32-8.91,92.55,92.55,0,0,0,4.62-9.41c.37-.83.73-1.65,1.11-2.47.71-1.57,1.48-3.24,2.32-4.94l2.89-8.67c2.48-7.44,3.81-15.65,5.1-23.59l.47-2.86.72-4.44c1.23-7.63,2.51-15.53,4.31-23.27a123.6,123.6,0,0,1,6.34-20.11,116.76,116.76,0,0,1,10.19-18.55c2-3.06,4.11-6.08,6.31-9A155.46,155.46,0,0,1,2212,996.26c2.66-2.58,5.45-5,8.15-7.32a109.77,109.77,0,0,0,11.44-10.84,87.05,87.05,0,0,0,13-20.06c.59-1.26,1.21-2.57,1.69-3.83,4.59-11.93,2.49-25.39-.18-37-12.22-44.74-33.39-84-54.46-119.68-8.83-15-18.83-35-17.68-56.8l.06-.56a17,17,0,0,1,7.58-11.75,12.91,12.91,0,0,1,10.93-1.17l.57.23c14.15,6.73,26.7,15.79,38.83,24.55,6.31,4.56,12.84,9.27,19.6,13.67,4.54,2.53,9.11,5.32,13.53,8s8.91,5.45,13.32,7.9c10.74,6,22.1,11.42,33.08,16.7,1.91.92,3.83,1.83,5.74,2.76,3.1,1.42,6.28,3,9.36,4.49,1.31.65,2.61,1.29,3.92,1.92,9.3,4.51,17.68,8.6,26.15,12.87l7.59,3.82,1.39-11.79a27.9,27.9,0,0,1,.54-2.92c.1-.49.21-1,.29-1.46,2.71-15.73,6-28.42,10.37-39.93,4.46-11.78,9.61-24,19-33a41.17,41.17,0,0,1,17.84-9.94c15-3.76,30.57,2.64,45,18.48,3.92,4.3,7.55,8.92,11.07,13.39l2.19,2.78c2.37,3,4.5,5.76,6.52,8.48,1.35,1.82,2.68,3.64,4,5.45,5.64,7.72,11,15,17.57,21.7,1.76,1.78,3.55,3.54,5.33,5.29A189.91,189.91,0,0,1,2519.76,816c32.2,7.34,63.18,19.66,93.15,31.59,8.15,3.23,16.57,6.58,24.88,9.78,41.47,16.79,76.88,38.19,118.86,64.43a886.84,886.84,0,0,1,85.52,62.38l.1.08c14.51,12.57,29.52,26.33,39.62,44l.08.15c.28.53,6.8,13,8.72,21.95l3.77,17.54-24.82-26.36c-6.24-5.34-13.56-7.87-19.25-9.48-11.51-3.25-24.67-5.38-41.4-6.69-18.63-1.45-33.36-.19-46.28,4,2.82.39,4.78.69,5,.73l.38.07c13.21,3,16.83,4,28.55,8.13,18.89,6.64,37.85,18.26,56.36,34.52a155.83,155.83,0,0,1,24,26.94c6.88,9.72,11.11,20.26,14,31.76.56,2.2,1.08,4.42,1.58,6.64s1.35,4.46,1.39,6.56a19.18,19.18,0,0,1-2.65-3.07l-3.83-4.56-6.62-7.89a8,8,0,0,0-.65-.77,57.53,57.53,0,0,0-18.19-11.76c-22.51-8.64-45.46-11.09-69.76-13.69l-8.78-1c-14.87-.87-32-1.21-47.58,5.6a48.8,48.8,0,0,0-22.61,19.83c-3.23,6.52-5.33,14.4-6.41,24.07-1.61,20.27.83,39.32,3.42,59.49.53,4.1,1.06,8.24,1.56,12.43,3.32,30.35,6.35,65.57.29,100.13-3.18,18.09-7.29,30.74-14.18,43.68a202.71,202.71,0,0,1-26.63,38.16c-19.62,22.32-44.12,41.45-72.82,56.84-57.55,30.87-123.14,43.86-173.85,51.73A128.82,128.82,0,0,1,2406.51,1515.3Zm-47-23.23a85.16,85.16,0,0,0,23.51,10.17l.11,0c12.25,3.38,25,4,40.14,1.79,49.87-7.74,114.39-20.5,170.6-50.65,27.65-14.83,51.21-33.21,70-54.63a192,192,0,0,0,25.32-36.27c6.37-11.93,10.18-23.73,13.16-40.7,5.84-33.27,2.87-67.64-.37-97.26-.49-4.11-1-8.22-1.55-12.3-2.66-20.73-5.17-40.3-3.46-61.64v-.15c1.22-11,3.67-20,7.5-27.69l.18-.33c6.54-10.89,15.18-18.51,27.22-24,17.7-7.75,36.31-7.39,52.36-6.44l.26,0,8.87,1c23.91,2.56,48.62,5.21,72.37,14.34l.18.07c2.22.95,4.32,1.95,6.32,3a62.64,62.64,0,0,0-6.55-8.88c-1.64-1.84-3.07-3.74-4.45-5.58s-2.75-3.65-4.23-5.27a136.36,136.36,0,0,0-10.63-10.39c-17.54-15.41-35.4-26.38-53.08-32.6-11.26-4-14.49-4.82-27.28-7.77-5.62-.84-20.7-2.92-26.07-2.92h-29.29l48.11-16.92c14.48-4.79,30.63-6.26,50.94-4.68,17.42,1.36,31.19,3.6,43.35,7a64.12,64.12,0,0,1,18.48,8.06c-9.25-15-22.22-26.89-35.82-38.68a878.12,878.12,0,0,0-84.48-61.62c-41.5-25.94-76.53-47.12-117.17-63.57-8.29-3.18-16.73-6.54-24.9-9.79-13.26-5.28-26.52-10.55-39.93-15.42-6.75-2.45-13.54-4.81-20.38-7s-13.65-4.49-20.6-6c.39.86,1.05,1.57,1.44,2.5.53,1.28,1,2.58,1.51,3.88,1,2.6,1.8,5.25,2.53,7.92s1.3,5.15,1.8,7.76.59,5.49,1.23,8.08c-1.5-5.58-5-10.92-8.32-15.54-3.12-4.3-6.64-8.28-10-12.36-1.24-1.5-2.46-3-3.59-4.59-4.76-6.6-10.47-12.22-16.51-18.16-1.82-1.79-3.64-3.57-5.43-5.39-7.12-7.22-12.92-15.15-18.53-22.83q-2-2.68-4-5.39c-1.95-2.63-4-5.32-6.33-8.23l-2.21-2.8c-3.41-4.33-6.93-8.81-10.61-12.86-11.94-13.13-23.74-18.34-35.09-15.51a30.94,30.94,0,0,0-13.42,7.5c-7.91,7.51-12.53,18.59-16.58,29.28-4.13,10.9-7.27,23-9.86,38.09-.11.64-.25,1.27-.39,1.91s-.3,1.37-.37,1.94l-1.7,14.4a11.17,11.17,0,0,1-.89,3.53,7.16,7.16,0,0,1-5.17,4.1,7.94,7.94,0,0,1-5.08-1l-10.57-5.33c-8.41-4.24-16.76-8.31-26-12.8l-4-1.94c-3-1.48-6.14-3-9.21-4.43l-5.81-2.79c-11.12-5.34-22.61-10.86-33.61-17-4.59-2.55-9.21-5.37-13.68-8.1s-8.91-5.45-13.32-7.9l-.3-.18c-7-4.56-13.69-9.38-20.15-14-12.21-8.82-23.75-17.15-36.94-23.48a2.9,2.9,0,0,0-2.37.33,7,7,0,0,0-2.83,4.57c-.89,19,8.25,37.16,16.33,50.89,21.43,36.34,43,76.3,55.51,122.22l0,.2c3,13.1,5.36,28.44-.2,42.91-.62,1.61-1.34,3.15-2,4.5a96.79,96.79,0,0,1-14.52,22.37,119.3,119.3,0,0,1-12.46,11.85c-2.71,2.34-5.27,4.55-7.71,6.92a144.65,144.65,0,0,0-14.32,16.23c-2.06,2.71-4,5.54-5.91,8.39a107.6,107.6,0,0,0-9.36,17,114.79,114.79,0,0,0-5.81,18.49c-1.72,7.42-3,15.14-4.18,22.61-.24,1.49-.48,3-.73,4.46l-.46,2.84c-1.35,8.33-2.75,16.94-5.49,25.15l-3.11,9.34-.16.32c-.83,1.66-1.6,3.34-2.32,4.92l-1.08,2.41a100.65,100.65,0,0,1-5.14,10.43,51.37,51.37,0,0,1-9,11.06,162,162,0,0,1-12.82,10.64c-1.26,1-2.51,2-3.76,2.94-7.51,5.92-15.28,12-23.09,18.09-7.29,5.68-14.77,11.48-22.87,17.72q-11.35,8.76-22.74,17.47t-22.71,17.34q-11.39,8.67-22.78,17.33c-8.16,6.28-17.4,13.47-19,14.83a10,10,0,0,0-2.24,8.6,47.59,47.59,0,0,0,5.86,14.43,62.85,62.85,0,0,0,13.06,15.53,77.32,77.32,0,0,0,8.21,6.24c1.42.94,2.9,1.85,4.41,2.72l.6.36c.53.31,1,.6,1.47.82l.45.22a11.5,11.5,0,0,1,3.51,2.34,12,12,0,0,1,2.14,3.17c.11.21.22.43.34.64.49.84,1,1.59,1.46,2.31a28.64,28.64,0,0,0,4.45,5.2c1.87,1.68,4.81,3.73,8.21,3.93a7.59,7.59,0,0,1,3.1.74,7.27,7.27,0,0,1,3.08,3.2l.09.15a4.28,4.28,0,0,0,.29.38c.17.21.33.42.49.64.77,1.06,1.58,2.1,2.39,3.1a67.55,67.55,0,0,0,7.18,7.59,57.76,57.76,0,0,0,8.11,6.13,52.22,52.22,0,0,0,9,4.51,44.88,44.88,0,0,0,9.84,2.68,170.71,170.71,0,0,0,38.83.53c17.78-1.67,35.55-5.62,53.72-9.86q6.11-1.42,12.23-2.78c14.05-3.16,28.58-6.43,42.39-11l.17-.05c5.51-1.62,11.12-3.78,16.55-5.88,2.93-1.12,6-2.29,9-3.38,4.81-1.72,9.18-3.27,13.36-4.73,1.31-.46,2.64-1,4-1.47a71.29,71.29,0,0,1,10-3.27c30.68-6.82,70.77-15.2,108.8-19.56,17.19-3.43,30.54-4.49,44.61-3.55l.22,0c5.53.61,10.16,1.19,14.24,1.69,14.05,1.73,21.79,2.69,40.1,2.28l44.72-1-43.4,10.85c-3.05.76-6.14,1.44-9.13,2.1-4.41,1-9,2-13.31,3.23a119.67,119.67,0,0,0-36.84,17.68c-1.1.79-2.22,1.63-3.34,2.5-16.4,12.66-34.09,25.89-54.1,36.14-6.39,3.27-12.9,6.33-19.45,9.13,20.29,3.71,43,5.19,67.8,4.37l18.2-.59c-.33,0-1,.65-1.32.84l-1.55,1-3,1.9c-2,1.26-4,2.5-6.05,3.69-4.07,2.38-8.27,4.33-12.48,6.43-8.61,4.3-17.19,8.63-25.81,12.9l-5.27,2.6c-7.13,3.49-13.55,6.57-19.63,9.4-7,3.26-13.55,6.18-19.93,8.9l-2.32,1a59.57,59.57,0,0,1-11.1,3.43,58.48,58.48,0,0,0,12.38,4.64c38.84,6.39,77.08-11.4,109.87-30.67,1.19-.72,2.38-1.42,3.56-2.11l35.13-20.79-28,28c-13.26,13.25-29,25.36-48.1,37-7.36,4.49-15,8.7-22.35,12.77l-5,2.77c-8.34,4.62-18.12,9.83-28.75,13.07A70.36,70.36,0,0,1,2359.53,1492.07Zm77.37-98.59Zm-434.6-120.25,0,0Z" transform="translate(-1835 -548)"/></g></g><g id="Layer_4" data-name="Layer 4"><circle class="cls-3" cx="593" cy="593" r="526"/><circle class="cls-3" cx="593" cy="593" r="586"/></g></svg>