<svg id="Layer_2" data-name="Layer 2" xmlns="http://www.w3.org/2000/svg" viewBox="0 0 200 200"><defs><style>.cls-1,.cls-2{fill:none;stroke:#1d1d1b;stroke-width:6px;}.cls-1{stroke-miterlimit:10;}.cls-2{stroke-linecap:round;stroke-linejoin:round;}</style></defs><path class="cls-1" d="M25.7,152.7A256.9,256.9,0,0,1,10,126c-3.2-6.1-3.9-8.1-4.2-9.1-4.4-13.5-1.3-25.7.3-30.7C6.6,84.7,16.5,55.4,41,53.1c9.7-.9,17.8,2.8,22.6,5.7h0A6.6,6.6,0,0,0,70,59l.2-.2c4.9-2.9,12.9-6.6,22.7-5.7,24.4,2.3,34.3,31.6,34.8,33.1,1.6,5,4.8,17.2.3,30.7-.3,1-1,3-4.2,9.1a235.4,235.4,0,0,1-12.1,21.3"/><path class="cls-2" d="M56.5,174a36.7,36.7,0,0,0-12.6,5.2c-2.6,1.8-4.5,4.3-6.6,6.7s-4.2,3.5-6.9,3.7-5.6-.9-7.1-3.1a6.9,6.9,0,0,1-.5-6.1c1.5-4.2,5.4-7.5,9.1-9.7L11,168.9h-.1c-3.8-.3-7-3.9-6.7-7.5h0c.2-3.6,3.9-6.4,7.7-6.1H12l20.9,1.5c-3.3-2.7-6.6-6.6-7.4-11a7.2,7.2,0,0,1,1.5-6c1.8-1.9,4.9-2.4,7.4-1.9a10,10,0,0,1,6.2,4.8c1.8,2.6,3.2,5.4,5.6,7.6a34.4,34.4,0,0,0,11.6,7.1"/><path class="cls-2" d="M196.5,182.7a17.4,17.4,0,0,1-18.2,14H86.5c-17.8-.6-31.2-15.8-30-31.5s18.6-26,36.1-22.6L182,163.6a17.4,17.4,0,0,1,14.5,19"/><line class="cls-2" x1="90.4" y1="143.3" x2="88.8" y2="159.7"/><line class="cls-2" x1="124.7" y1="151" x2="124" y2="160.1"/><line class="cls-2" x1="93.8" y1="181.2" x2="94.7" y2="173.5"/><line class="cls-2" x1="92" y1="196.2" x2="92.6" y2="191.1"/><line class="cls-2" x1="135.2" y1="180.7" x2="133.5" y2="195.5"/><line class="cls-2" x1="174.4" y1="164" x2="172.4" y2="183"/><path class="cls-2" d="M150.8,40.3a24.2,24.2,0,0,1,4.6.6,22.8,22.8,0,0,1,13.7,10c3.9,6.4,4.2,14.1,6.2,21.2s6.7,15.3,10.6,22.5a98,98,0,0,1,8.1,18.1c4.3,13.9,2.6,29.8-8.2,40.5-3.9,4-10.9,6.9-13.7,8.1"/><path class="cls-2" d="M150.8,40.3a25.2,25.2,0,0,0-4.7.6,23.1,23.1,0,0,0-13.7,10c-3.9,6.4-4.2,14.1-6.1,21.2-.5,1.8-1.1,3.5-1.7,5.1"/><path class="cls-2" d="M134.3,15.7a30.2,30.2,0,0,1,10.8,9.5A31.4,31.4,0,0,1,150.5,40"/><path class="cls-2" d="M150.8,39.6c3-.1,16.1-.7,26.3-11.1a40.6,40.6,0,0,0,4.3-5.4A37.8,37.8,0,0,0,187,7.9V7.6a3.8,3.8,0,0,0-4.5-4.4l-3.5.7a37.8,37.8,0,0,0-17.1,9.4c-10.5,10.2-11.1,23.3-11.1,26.3"/><path class="cls-2" d="M66.7,49.5c-3-.1-16.2-.7-26.4-11.1A40.6,40.6,0,0,1,36,33a36.2,36.2,0,0,1-5.5-15.2v-.4A3.9,3.9,0,0,1,35,13.1l3.5.7a36.1,36.1,0,0,1,17,9.4C66,33.4,66.6,46.5,66.7,49.5"/><line class="cls-2" x1="66.9" y1="23.7" x2="66.9" y2="59.3"/><path class="cls-2" d="M103.2,73l1.9,2.1a35.7,35.7,0,0,1,8.6,17.5"/><path class="cls-2" d="M89,66.9a18.9,18.9,0,0,1,4.7.6"/><path class="cls-2" d="M182.8,131.7a23,23,0,0,1-1.2,3.4,28.3,28.3,0,0,1-9.6,12.2"/><path class="cls-2" d="M180.6,111.8c.2.4.6,1.4,1.1,2.8"/></svg>