<svg id="Layer_2" data-name="Layer 2" xmlns="http://www.w3.org/2000/svg" viewBox="0 0 200 200"><defs><style>.cls-1{fill:none;stroke:#fff;stroke-linecap:round;stroke-linejoin:round;stroke-width:10px;}</style></defs><path class="cls-1" d="M82.6,144.3c-21.1-2.4-43.2-10.5-43.2-46.9a36,36,0,0,1,9.8-25.5,33.5,33.5,0,0,1,.9-25.1s7.9-2.6,26.1,9.7a89.1,89.1,0,0,1,47.5,0c18.1-12.3,26.1-9.7,26.1-9.7a34,34,0,0,1,.9,25.1,36.8,36.8,0,0,1,9.8,25.5c0,36.4-22.1,44.4-43.3,46.8"/><path class="cls-1" d="M117.2,144.2a22.7,22.7,0,0,1,6.4,17.7v26c0,3.2,1.7,5.5,6.5,4.5a95.1,95.1,0,1,0-60.1,0c4.7.9,6.5-2,6.5-4.4V171.9c-26.5,5.7-32-12.8-32-12.8a25.4,25.4,0,0,0-10.7-14c-8.7-5.9.6-5.8.6-5.8a19.4,19.4,0,0,1,14.5,9.8c8.5,14.5,22.1,10.3,27.7,7.9a20.5,20.5,0,0,1,6-12.7"/></svg>