<svg xmlns="http://www.w3.org/2000/svg" viewBox="0 0 200 200"><defs><style>.cls-1,.cls-2,.cls-3{fill:none;stroke:#1d1d1b;stroke-width:6px;}.cls-1,.cls-2{stroke-miterlimit:10;}.cls-2,.cls-3{stroke-linecap:round;}.cls-3{stroke-linejoin:round;}</style></defs><g id="Layer_2" data-name="Layer 2"><path class="cls-1" d="M143.9,59.3a37.6,37.6,0,0,0-10.8,23.4h0a2,2,0,0,0,2,2h0A37.2,37.2,0,0,0,158.5,74a37.9,37.9,0,0,0,10.7-23.4h0a2,2,0,0,0-2-2h0A37.5,37.5,0,0,0,143.9,59.3Z"/><path class="cls-1" d="M112.8,69.9A37.9,37.9,0,0,0,121.7,94h0a2,2,0,0,0,2.8,0h0a37.1,37.1,0,0,0,0-48.2h0a1.9,1.9,0,0,0-2.8,0h0A37.6,37.6,0,0,0,112.8,69.9Z"/><path class="cls-1" d="M148.9,85.3a37.9,37.9,0,0,0-24.1,8.9h0a1.9,1.9,0,0,0,0,2.8h0a36.6,36.6,0,0,0,24.1,8.9A37.3,37.3,0,0,0,173,97h0a2,2,0,0,0,0-2.8h0A37.9,37.9,0,0,0,148.9,85.3Z"/><path class="cls-2" d="M95.1,79.3a34.8,34.8,0,0,0-1.3,9.6,36.7,36.7,0,0,0,9,24h0a1.9,1.9,0,0,0,2.7.1h.1a36.8,36.8,0,0,0,8.9-24,37.4,37.4,0,0,0-8.9-24.1h-.1a1.8,1.8,0,0,0-2.7,0h0a17.5,17.5,0,0,0-2.6,3.4"/><path class="cls-1" d="M129.9,104.3a37.9,37.9,0,0,0-24.1,8.9h0a2,2,0,0,0,0,2.8h0a37.1,37.1,0,0,0,48.2,0h0a1.9,1.9,0,0,0,0-2.8h0A37.6,37.6,0,0,0,129.9,104.3Z"/><path class="cls-1" d="M74.9,107.8a36.8,36.8,0,0,0,8.9,24.1h0a1.9,1.9,0,0,0,2.7.1h.1a36.9,36.9,0,0,0,8.9-24.1,37.3,37.3,0,0,0-8.9-24h-.1a1.9,1.9,0,0,0-2.7.1h0A36.7,36.7,0,0,0,74.9,107.8Z"/><path class="cls-1" d="M110.9,123.3a36.7,36.7,0,0,0-24,8.9h0a2,2,0,0,0-.1,2.8h.1a36.8,36.8,0,0,0,24,8.9A37.4,37.4,0,0,0,135,135h.1a2,2,0,0,0-.1-2.8h0A36.8,36.8,0,0,0,110.9,123.3Z"/><path class="cls-1" d="M56.9,126.8a37.9,37.9,0,0,0,8.9,24.1h0a1.9,1.9,0,0,0,2.8,0h0a36.6,36.6,0,0,0,0-48.1h0a1.9,1.9,0,0,0-2.8.1A37.3,37.3,0,0,0,56.9,126.8Z"/><path class="cls-1" d="M93,142.2a37.3,37.3,0,0,0-24.1,9h0a1.8,1.8,0,0,0,0,2.7h0a37.1,37.1,0,0,0,48.2,0h0a1.8,1.8,0,0,0,0-2.7h0A37,37,0,0,0,93,142.2Z"/><path class="cls-3" d="M46.3,174.2c-13,6.2-28,8.4-36.3,9.3a6.3,6.3,0,0,1-2.7-.4l-.5-.2a5.8,5.8,0,0,1-.4-10.4h0a5.4,5.4,0,0,1,2.2-.5,93.2,93.2,0,0,0,36.3-10.3,101.6,101.6,0,0,0,15.7-10.5,1.8,1.8,0,0,1,.9-.4h0a6.9,6.9,0,0,1,7.1,7.5h0a2.8,2.8,0,0,1-1,2.1l-5.2,4"/><path class="cls-3" d="M54.6,169.6h-.1"/><path class="cls-2" d="M175,42.9a59.9,59.9,0,0,0,12.8-14.6,54.1,54.1,0,0,0,3.9-7.5"/><path class="cls-2" d="M159.9,25.8a97.3,97.3,0,0,0,4.6-9.1"/><path class="cls-2" d="M138.9,50.5a88.8,88.8,0,0,0,14.4-14.8"/><path class="cls-2" d="M130.5,38.6a58.8,58.8,0,0,0,12.9-14.7,58.1,58.1,0,0,0,3.8-7.4"/><path class="cls-2" d="M193.5,72.2a53.6,53.6,0,0,0,3.2-6.3"/><path class="cls-2" d="M180,87.9a58.5,58.5,0,0,0,6.5-6.1"/><path class="cls-2" d="M167.2,80a90.2,90.2,0,0,0,19.7-22.4,104.2,104.2,0,0,0,5.9-11.4"/></g></svg>