<svg xmlns="http://www.w3.org/2000/svg" viewBox="0 0 737 737"><defs><style>.cls-1,.cls-3,.cls-4{fill:none;stroke:#fff;stroke-miterlimit:10;}.cls-1{stroke-width:5px;}.cls-2{fill:#fff;}.cls-3{stroke-width:10px;}.cls-4{stroke-width:3px;}</style></defs><g id="Layer_2" data-name="Layer 2"><path class="cls-1" d="M745.5,657.5c-2.12-18.83-.59-39.36,3.18-57.89,1.83-9,4.22-18,6.85-26.75s6.26-17,9.38-25.46c6-16.41,7.61-34.17,7.87-51.53.2-13.52,1-27.22-.08-40.7a128.67,128.67,0,0,0-9.35-39c-1.76-4.25-3.67-8.14-4.73-12.65A59.31,59.31,0,0,1,757,389.38,49.7,49.7,0,0,1,759,376c4-11,8-22,14-32,2-5,3-11,4-16a193,193,0,0,0,0-34c-1.48-19.26-4.94-38.23-5.6-57.56a154.52,154.52,0,0,1,.93-25,87.86,87.86,0,0,1,6.43-23.89,66.58,66.58,0,0,1,6-10.87,39.18,39.18,0,0,1,3.78-4.92c1.14-1.2,2.18-1.19,3.78-1.28,8.42-.49,15.66,4.69,22,9.54a134.91,134.91,0,0,1,18.47,17.21c3.11,3.45,6.06,7,8.89,10.72,11.29,14.73,20.65,30.92,29.82,47l3.46,6c29-1,58-6,88,2a18.45,18.45,0,0,0,16-5,101,101,0,0,0,13-16c16-23,32-42,55-54,5-3,12-3,17-1,11,3,12,17,13,28,1,9,0,18-1,27-6,30-8,58-16,87-1,7,1,14,3,20,5,11,12,21,14,33,2.21,13.23,1.06,27.53-2,40.51a156.37,156.37,0,0,1-6.64,19.75c-2.46,6.38-5,12.7-7.94,18.89-3.56,7.41-8,14.41-11.38,21.85a31.88,31.88,0,0,0,0,27c6.55,11.79,10.61,24.7,14.32,37.6,1.74,6,2.89,12.79,5.46,18.5a61.54,61.54,0,0,0,10.09,15c3.7,4.26,7.7,8.24,11.53,12.38A192.41,192.41,0,0,1,1122,639.59" transform="translate(-555.18 -45.45)"/><path class="cls-1" d="M989.5,266.5s33-72,72-73c0,0,26.4,19-16.3,121C1045.2,314.5,1026.5,286.5,989.5,266.5Z" transform="translate(-555.18 -45.45)"/></g><g id="Layer_3" data-name="Layer 3"><path class="cls-1" d="M796.5,314.5s22-35,58-51c0,0-30-90-61-85C793.5,178.5,758.5,226.5,796.5,314.5Z" transform="translate(-555.18 -45.45)"/><path class="cls-1" d="M975.5,340.5C965.47,345,956,357,961,369c4,11,18,13,29,12,7-1,13-4,17-10,7-12-1-25-12.12-29.59C994.88,341.41,984.5,336.5,975.5,340.5Z" transform="translate(-555.18 -45.45)"/><path class="cls-1" d="M871.87,336.24c10,4.46,19.5,16.5,14.5,28.5-4,11-18,13-29,12-7-1-13-4-17-10-7-12,1-25,12.11-29.59C852.48,337.15,862.87,332.24,871.87,336.24Z" transform="translate(-555.18 -45.45)"/><path class="cls-1" d="M925.5,390.46a28.88,28.88,0,0,1,9.83,1.85,18.85,18.85,0,0,1,6.76,4.89,25.43,25.43,0,0,1,2.75,3.85,17.06,17.06,0,0,1,1.1,1.95c.13.28.77,1.19.56,1.5-4,6-14,6-14,6,4,11-9,21-9,21l-1.58-1.38c-5-4.83-9.48-12-6.88-19.13a28.69,28.69,0,0,1-9-1.73,12.11,12.11,0,0,1-2.08-.93c-1.27-.73-2.71-2-2.83-3.52a20.3,20.3,0,0,1,2.72-5.35,16.14,16.14,0,0,1,4.13-4.07,28.16,28.16,0,0,1,17-4.95Z" transform="translate(-555.18 -45.45)"/><path class="cls-2" d="M960.87,472.46a17.26,17.26,0,0,1-12.74-5.61,22.78,22.78,0,0,1-2.23-3c-.34-.53-.69-1.05-1.06-1.56a36.78,36.78,0,0,0-16.93-13c-.44-.14-4.1-1-4.68-1.14.11,0-1.07-.42-.23-1.14l.51-1.34H921V431.5h5v12.14l.6.14c.42.1,2.52.62,3,.78a41.85,41.85,0,0,1,19.29,14.72c.45.61.85,1.22,1.23,1.81a18.24,18.24,0,0,0,1.72,2.38,12.5,12.5,0,0,0,3.6,2.71,12.34,12.34,0,0,0,8,1,20.46,20.46,0,0,0,4.62-1.43l5-2.47,10-4.92c1.63-.81,3.29-1.59,4.91-2.4l4.88-2.47,2.41-1.24,1.23-.63a8.62,8.62,0,0,1,.94-.52c.12,0,.5-.14.43.11a1.07,1.07,0,0,1-.35.44c-.14.14-.3.27-.45.4l-.09.07c-.54.48-1,1-1.57,1.49-1.74,1.66-3.46,3.37-5.32,4.89a67.39,67.39,0,0,1-8,5.56c-1.5.9-3,1.78-4.58,2.59l-.36.19c-4,2.09-8.07,4.25-12.68,5.23A17.11,17.11,0,0,1,960.87,472.46Z" transform="translate(-555.18 -45.45)"/><path class="cls-2" d="M885,469.29a29.24,29.24,0,0,1-12.27-3.13,15.48,15.48,0,0,1-3.9-2.66,43.84,43.84,0,0,1-3.56-3.78l-2.43-2.8c-.57-.66-1.17-1.3-1.72-2a11.8,11.8,0,0,1-.79-1.07c-.05-.06-.58-.87-.36-.87s.62.31.88.52c1.27,1,2.6,2,4,3,1,.66,2,1.28,3,1.86l.37.21c2,1.13,4.23,2,6.36,2.95a33.94,33.94,0,0,0,6.42,2.32,17.07,17.07,0,0,0,5.61.4c4.07-.45,7.18-3.68,10.47-7.1.95-1,1.92-2,2.91-2.92a43.75,43.75,0,0,1,14.39-9.1,30.81,30.81,0,0,1,9-1.95l.31,5a25.6,25.6,0,0,0-7.51,1.64,38.61,38.61,0,0,0-12.74,8.07c-.9.84-1.78,1.76-2.72,2.74-3.59,3.73-7.66,7.95-13.54,8.6A18.28,18.28,0,0,1,885,469.29Z" transform="translate(-555.18 -45.45)"/><path class="cls-1" d="M865.57,363.53a18.4,18.4,0,0,1-1.79,2.82,12,12,0,0,1-1.22,1.25c-.15.14-2,1.94-2.06,1.9-11-15,2-25,2-25a11.07,11.07,0,0,1,1.42,1.58,16.33,16.33,0,0,1,2.46,4.67,17.48,17.48,0,0,1,.74,7.6A16.09,16.09,0,0,1,865.57,363.53Z" transform="translate(-555.18 -45.45)"/><path class="cls-1" d="M876.5,357.5" transform="translate(-555.18 -45.45)"/><path class="cls-1" d="M988,365a18.53,18.53,0,0,1-1.53,3,11.78,11.78,0,0,1-1.11,1.34c-.13.15-1.85,2.11-1.88,2.08-12.27-14-.19-25.08-.19-25.08s1.47,1.36,1.55,1.45a16.14,16.14,0,0,1,2.86,4.44,17.56,17.56,0,0,1,1.4,7.5A15.92,15.92,0,0,1,988,365Z" transform="translate(-555.18 -45.45)"/><circle class="cls-3" cx="368" cy="368" r="304.5"/><path class="cls-2" d="M879,725l6,.55,6.64,31.79L904,727.32l6,.55-16.46,38.26-5.26-.48Z" transform="translate(-555.18 -45.45)"/><path class="cls-2" d="M913.91,728l5.56-.09.64,39.6-5.56.09Zm2.7,0,22.74-.37.08,5.28-22.74.37Zm.28,17.29,19.74-.32.09,5.29-19.75.32Zm.27,17,22.74-.36.09,5.28-22.74.37Z" transform="translate(-555.18 -45.45)"/><path class="cls-2" d="M941.25,727.58l27.81-2.78.52,5.26-27.8,2.78Zm11.46,2.11,5.53-.55,3.63,36.18-5.53.56Z" transform="translate(-555.18 -45.45)"/><path class="cls-2" d="M839.33,69.2l5.45-1.09L852.53,107,847.08,108Zm6.81,16.44,21.56-4.3,1,5.19-21.56,4.3ZM861.4,64.8l5.45-1.09,7.74,38.84-5.45,1.09Z" transform="translate(-555.18 -45.45)"/><path class="cls-2" d="M888.93,61.19l4.72-.41,18,38.18-6,.52L892,68.61l-8.14,32.79-6,.52Zm-5.6,26.23,20.75-1.83.47,5.27-20.76,1.82Z" transform="translate(-555.18 -45.45)"/><path class="cls-2" d="M916.26,59.46l5.56.09-.67,39.6-5.56-.09Zm2.54,19,12.66.22a5.88,5.88,0,0,0,3.18-.79,5.66,5.66,0,0,0,2.15-2.36A8,8,0,0,0,937.6,72a8.29,8.29,0,0,0-.69-3.61,5.64,5.64,0,0,0-2.07-2.44A5.76,5.76,0,0,0,931.7,65L919,64.79l.09-5.28,12.48.21a12.52,12.52,0,0,1,6.21,1.62,10.53,10.53,0,0,1,4.11,4.33,13.31,13.31,0,0,1,1.37,6.4,13.13,13.13,0,0,1-1.59,6.33,10.47,10.47,0,0,1-4.25,4.17A12.66,12.66,0,0,1,931.18,84l-12.47-.21Z" transform="translate(-555.18 -45.45)"/><path class="cls-2" d="M952.45,60.64l5.52.66-4.69,39.33-5.51-.66Zm.6,19.17,12.57,1.49a5.82,5.82,0,0,0,3.24-.46,5.59,5.59,0,0,0,2.38-2.13,8.11,8.11,0,0,0,1.17-3.46,8.2,8.2,0,0,0-.32-3.65A5.73,5.73,0,0,0,970.28,69a5.86,5.86,0,0,0-3-1.22l-12.57-1.5.62-5.25,12.39,1.48a12.46,12.46,0,0,1,6,2.24,10.51,10.51,0,0,1,3.65,4.72,14.39,14.39,0,0,1-1.51,12.65,10.44,10.44,0,0,1-4.65,3.71,12.61,12.61,0,0,1-6.37.75l-12.39-1.48Z" transform="translate(-555.18 -45.45)"/><path class="cls-2" d="M995.37,91.16,992,106.9l-5.43-1.18L989.94,90l-6.83-25.53,6,1.31,4.69,19.3,12.25-15.64,6,1.31Z" transform="translate(-555.18 -45.45)"/><circle class="cls-3" cx="368.5" cy="368.5" r="363.5"/></g><g id="whispers"><path class="cls-2" d="M884,413.72a2.5,2.5,0,1,0-2.5-2.5,2.55,2.55,0,0,0,2.5,2.5Z" transform="translate(-555.18 -45.45)"/><path class="cls-2" d="M874,415.32a2.5,2.5,0,1,0-2.5-2.5,2.53,2.53,0,0,0,2.5,2.5Z" transform="translate(-555.18 -45.45)"/><path class="cls-2" d="M866.06,416.3a2.5,2.5,0,1,0-2.5-2.5,2.53,2.53,0,0,0,2.5,2.5Z" transform="translate(-555.18 -45.45)"/><path class="cls-2" d="M868.64,429.67a2.5,2.5,0,1,0-2.5-2.5,2.53,2.53,0,0,0,2.5,2.5Z" transform="translate(-555.18 -45.45)"/><path class="cls-2" d="M875.77,426.19a2.5,2.5,0,1,0-2.5-2.5,2.53,2.53,0,0,0,2.5,2.5Z" transform="translate(-555.18 -45.45)"/><path class="cls-2" d="M887.62,425.12a2.5,2.5,0,1,0-2.5-2.5,2.53,2.53,0,0,0,2.5,2.5Z" transform="translate(-555.18 -45.45)"/><path class="cls-2" d="M888.25,438.4a2.5,2.5,0,1,0-2.5-2.5,2.53,2.53,0,0,0,2.5,2.5Z" transform="translate(-555.18 -45.45)"/><path class="cls-2" d="M878.62,439.83a2.5,2.5,0,1,0-2.5-2.5,2.53,2.53,0,0,0,2.5,2.5Z" transform="translate(-555.18 -45.45)"/><path class="cls-2" d="M869.71,442.86a2.5,2.5,0,1,0-2.5-2.5,2.53,2.53,0,0,0,2.5,2.5Z" transform="translate(-555.18 -45.45)"/><path class="cls-2" d="M963.81,415.62a2.5,2.5,0,1,0-2.5-2.5,2.53,2.53,0,0,0,2.5,2.5Z" transform="translate(-555.18 -45.45)"/><path class="cls-2" d="M973.08,416.57a2.5,2.5,0,1,0-2.5-2.5,2.53,2.53,0,0,0,2.5,2.5Z" transform="translate(-555.18 -45.45)"/><path class="cls-2" d="M981.28,419.54a2.5,2.5,0,1,0-2.5-2.5,2.53,2.53,0,0,0,2.5,2.5Z" transform="translate(-555.18 -45.45)"/><path class="cls-2" d="M980.09,433.44a2.5,2.5,0,1,0-2.5-2.5,2.53,2.53,0,0,0,2.5,2.5Z" transform="translate(-555.18 -45.45)"/><path class="cls-2" d="M970.47,428.81a2.5,2.5,0,1,0-2.5-2.5,2.53,2.53,0,0,0,2.5,2.5Z" transform="translate(-555.18 -45.45)"/><path class="cls-2" d="M960.72,427.38a2.5,2.5,0,1,0-2.5-2.5,2.53,2.53,0,0,0,2.5,2.5Z" transform="translate(-555.18 -45.45)"/><path class="cls-2" d="M960.25,441.4a2.5,2.5,0,1,0-2.5-2.5,2.53,2.53,0,0,0,2.5,2.5Z" transform="translate(-555.18 -45.45)"/><path class="cls-2" d="M970.47,445.08a2.5,2.5,0,1,0-2.5-2.5,2.53,2.53,0,0,0,2.5,2.5Z" transform="translate(-555.18 -45.45)"/><path class="cls-2" d="M980,448.17a2.5,2.5,0,1,0-2.5-2.5,2.53,2.53,0,0,0,2.5,2.5Z" transform="translate(-555.18 -45.45)"/></g><g id="Layer_5" data-name="Layer 5"><path class="cls-4" d="M822.5,362.5l.42,1.43c1.73,6,8.24,10.21,13.53,12.71a56.74,56.74,0,0,0,11.68,4,56.14,56.14,0,0,0,20.26.92c5.4-.76,11.14-2.14,15.9-4.85a27.79,27.79,0,0,0,7.21-6.11,30.13,30.13,0,0,0,3-4.1s0-23-19-34a23.27,23.27,0,0,0-18.51-2,35.61,35.61,0,0,0-10.09,4.85,41,41,0,0,0-8.17,7.55,40.33,40.33,0,0,0-4.83,7.3,37.88,37.88,0,0,1-4.45,7.31,22.55,22.55,0,0,1-2.14,2.23,9.2,9.2,0,0,1-2.53,1.65c-.49.22-1,.43-1.46.66C823,362.22,822.77,362.35,822.5,362.5Z" transform="translate(-555.18 -45.45)"/><path class="cls-4" d="M1025.88,365.62l-.42,1.42c-1.74,6-8.24,10.22-13.53,12.72A57.57,57.57,0,0,1,980,384.68c-5.39-.76-11.13-2.15-15.89-4.85a28.19,28.19,0,0,1-7.22-6.11,30.7,30.7,0,0,1-3-4.1s0-23,19-34a23.27,23.27,0,0,1,18.51-2,35.76,35.76,0,0,1,10.09,4.86,41,41,0,0,1,8.17,7.55,40.25,40.25,0,0,1,4.83,7.29,37.88,37.88,0,0,0,4.45,7.31,23.81,23.81,0,0,0,2.14,2.24,9.4,9.4,0,0,0,2.53,1.64l1.46.67C1025.33,365.33,1025.61,365.47,1025.88,365.62Z" transform="translate(-555.18 -45.45)"/></g></svg>