<svg id="Layer_2" data-name="Layer 2" xmlns="http://www.w3.org/2000/svg" viewBox="0 0 200 200"><defs><style>.cls-1{fill:none;stroke:#fff;stroke-linecap:round;stroke-linejoin:round;stroke-width:10px;}</style></defs><circle class="cls-1" cx="27.8" cy="27.8" r="22.7"/><rect class="cls-1" x="7.7" y="68.6" width="40.6" height="126.25" rx="2"/><path class="cls-1" d="M195,116.1c0-7.9,0-14.2-3.2-23.6A42.5,42.5,0,0,0,171,68.6c-2-1-20.7-10.5-39.9-1-12.7,6.4-18.5,16.8-19.9,24.6h0V70.6a2,2,0,0,0-2-2H74.6a2,2,0,0,0-2,2V192.9a2,2,0,0,0,2,2h34.6c2-1.2,2-1.9,2-2V127.8s-.5-18.2,10.4-25.1a24.2,24.2,0,0,1,24.8-.3c8.5,5.2,9.9,13.7,9.9,27.8v62.6a2,2,0,0,0,2,2H193c2-1.1,2-1.9,2-2V116.1"/></svg>