<?xml version="1.0" encoding="UTF-8"?><svg id="Layer_2" xmlns="http://www.w3.org/2000/svg" viewBox="0 0 200 200"><defs><style>.cls-1{fill:none;stroke:#231f20;stroke-linecap:round;stroke-linejoin:round;stroke-width:8px;}</style></defs><path class="cls-1" d="M196,132.2c-.6-2.9-1.9-7.5-5.2-12.3-2.8-4.1-5.9-6.8-8.2-8.4-2.2,1.6-5.4,4.3-8.2,8.4-3.3,4.8-4.6,9.5-5.2,12.3,2.8-1,7.4-2.2,13.2-2.2,6,0,10.7,1.1,13.5,2.2Z"/><circle class="cls-1" cx="155.1" cy="74.3" r="9.6"/><path class="cls-1" d="M182.7,130c-3.3,16.2-25.8,29.7-54.9,35.1-4.7.9-9.3-2.2-10.7-7.3-4.2-14.8-6.3-54.2-7-69.7-.2-3.6,2.2-6.8,5.4-7.2l29-3.8v-5.6l-30.9-3.4c-2.6-.3-4.7-2.6-4.9-5.6s-.1-1.9-.2-2.9"/><path class="cls-1" d="M17.1,130c2.7,33.6,38.8,60.2,82.9,60.2,44.1,0,80.2-26.6,82.9-60.2"/><path class="cls-1" d="M4,132.2c.6-2.9,1.9-7.5,5.2-12.3,2.8-4.1,5.9-6.8,8.2-8.4,2.2,1.6,5.4,4.3,8.2,8.4,3.3,4.8,4.6,9.5,5.2,12.3-2.8-1-7.4-2.2-13.2-2.2s-10.7,1.1-13.5,2.2Z"/><circle class="cls-1" cx="100" cy="35.6" r="25.8"/><circle class="cls-1" cx="44.9" cy="74.3" r="9.6"/><circle class="cls-1" cx="100" cy="35.6" r="9.6"/><path class="cls-1" d="M17.3,130c3.3,16.2,25.8,29.7,54.9,35.1,4.7.9,9.3-2.2,10.7-7.3,4.2-14.8,6.3-54.2,7-69.7.2-3.6-2.2-6.8-5.4-7.2l-29-3.8v-5.6s30.9-3.4,30.9-3.4c2.6-.3,4.7-2.6,4.9-5.6s.1-1.9.2-2.9"/></svg>