<svg id="Layer_2" data-name="Layer 2" xmlns="http://www.w3.org/2000/svg" viewBox="0 0 200 200"><defs><style>.cls-1,.cls-2,.cls-3{fill:none;stroke-width:6px;}.cls-1,.cls-2{stroke:#1d1d1b;stroke-miterlimit:10;}.cls-2,.cls-3{stroke-linecap:round;}.cls-3{stroke:#000;stroke-linejoin:round;}</style></defs><rect class="cls-1" x="32.7" y="94.3" width="31.4" height="26.11" rx="6"/><rect class="cls-1" x="32.7" y="145.1" width="31.4" height="26.11" rx="6"/><rect class="cls-1" x="54.2" y="3" width="11.7" height="42.15" rx="5.8"/><path d="M197,51.5v8.7a8.9,8.9,0,0,1-8.8,8.2H11.8A8.9,8.9,0,0,1,3,60.2V51.5a31.3,31.3,0,0,1,8.9-21.2c5.3-5.4,12.1-8.8,18.7-8.8a4,4,0,0,1,4,4v7.8a25.1,25.1,0,0,0,7.5,18,25.5,25.5,0,0,0,43.5-18V25.5a4,4,0,0,1,4-4h20.8a4,4,0,0,1,4,4v7.8a25.6,25.6,0,0,0,51.1,0V25.5a4.1,4.1,0,0,1,4-4C182.5,21.5,197,35,197,51.5Z"/><line class="cls-2" x1="197" y1="142.3" x2="197" y2="136"/><path class="cls-2" d="M162.5,197H167a30.2,30.2,0,0,0,28.6-20.9"/><path class="cls-2" d="M197,104.2V51.5c0-16.5-14.5-30-27.6-30a4.1,4.1,0,0,0-4,4v7.8a25.6,25.6,0,0,1-51.1,0V25.5a4,4,0,0,0-4-4H89.6a4,4,0,0,0-4,4v7.8a25.5,25.5,0,0,1-43.5,18,25.1,25.1,0,0,1-7.5-18V25.5a4,4,0,0,0-4-4c-6.6,0-13.4,3.4-18.7,8.8A31.3,31.3,0,0,0,3,51.5V167a30.1,30.1,0,0,0,30,30h89.4"/><path class="cls-2" d="M197,54.6v5.6a8.9,8.9,0,0,1-8.8,8.2H11.8A8.9,8.9,0,0,1,3,60.2V54.6"/><rect class="cls-1" x="134.1" y="3" width="11.7" height="42.15" rx="5.8" transform="translate(279.9 48.2) rotate(-180)"/><path class="cls-2" d="M84.3,115V100.3a6,6,0,0,1,6-6h19.4"/><path class="cls-3" d="M142.3,190.9h.8c11.8.4,15.1-3.7,15.5-17.8l.8-.4a36.2,36.2,0,0,0,4.3-2.4l.5-.4c12.8,7.5,17.8,4.5,23.5-5.8l.6-1.1-1,1.6a.7.7,0,0,0,.4-.5c6.3-10.2,4.2-15-7.8-22.4h0a24.8,24.8,0,0,0,.1-4.7v-.2c12.9-7.3,13.3-13.2,7-23.4v-.2l-.6-.8.9,1.6-.3-.6v-.2c-5.6-10.2-10.6-11.2-23-4.6l-.3-.3a37,37,0,0,0-4.3-2.5l-.7-.3c.2-15-4.8-18.3-16.9-17.9h0c-11.8-.4-15.1,3.8-15.5,17.9l-.8.4a36.2,36.2,0,0,0-4.3,2.4l-.5.4c-12.8-7.6-17.9-4.7-23.6,5.9l-.5.9.9-1.6a4.3,4.3,0,0,0-.4.7c-6.1,9.9-4.5,14.8,7.4,22.1l.3.3c0,1.6,0,3.2.1,4.8C91.8,149.2,91.5,155,98,165.5l.5.7-1-1.5.5.8c5.5,10.1,10.5,11.1,22.9,4.6l.4.2,4.2,2.4.7.4c-.1,14.9,4.8,18.2,16.9,17.8h1.1"/><path class="cls-3" d="M158,139.2a15.7,15.7,0,1,1-15.6-15.6h0A15.6,15.6,0,0,1,158,139.2Z"/></svg>