<svg id="Layer_1" data-name="Layer 1" xmlns="http://www.w3.org/2000/svg" xmlns:xlink="http://www.w3.org/1999/xlink" viewBox="0 0 1068.7 306.6"><defs><style>.cls-1{fill:url(#linear-gradient);}</style><linearGradient id="linear-gradient" x1="323.9" y1="176.59" x2="1407.52" y2="383.06" gradientUnits="userSpaceOnUse"><stop offset="0.01" stop-color="#8ad4f9"/><stop offset="1" stop-color="#c57dfa"/></linearGradient></defs><path class="cls-1" d="M702,238.8c-.9-12.2-3-23.6-12.3-24.4h-.2l-9.1-.5c-16.3-40.7-49.8-73.5-92-90.3v-9.6c0-9.4-11.2-12.5-23.3-14.4s-25.8-2.8-41.3-2.8-30.2,1-41.3,2.8-23.2,5-23.2,14.4v9.6c-42.3,16.8-75.8,49.6-92.1,90.3l-9,.5h-.3c-9.3.8-11.4,12.2-12.3,24.4s-.5,25.9.8,41.4,3.6,29.9,6.4,40.8,6.8,22,15.4,22h.7l14-.6a147.2,147.2,0,0,0,24,23.2c31.4,24.3,72.9,37.7,116.9,37.7s85.5-13.4,116.9-37.7a147.2,147.2,0,0,0,24-23.2l14,.6h.7c8.6,0,12.5-10.5,15.4-22s5-25.4,6.4-40.8S702.8,250,702,238.8ZM523.8,371.3c-74.7,0-135.5-45.4-135.5-101.2,0-70,60.8-126.9,135.5-126.9s135.5,56.9,135.5,126.9C659.3,325.9,598.5,371.3,523.8,371.3Zm62.8-86.9H461.1a43.5,43.5,0,1,1,0-87H586.6a43.5,43.5,0,1,1,0,87Zm-125.5-67a23.5,23.5,0,1,0,0,47H586.6a23.5,23.5,0,1,0,0-47Zm62.7,124.2c-23.2,0-42.4-9.9-47.7-24.6a10,10,0,1,1,18.8-6.7c1.7,4.7,12.7,11.3,28.9,11.3s27.2-6.6,28.9-11.3a10,10,0,1,1,18.8,6.7C566.2,331.7,547,341.6,523.8,341.6ZM917.4,172.2a4.7,4.7,0,0,1,1.5,3.5V291.9a4.7,4.7,0,0,1-1.5,3.5,4.8,4.8,0,0,1-3.4,1.4H890.4a4.9,4.9,0,0,1-3.4-1.4,5,5,0,0,1-1.4-3.5V232.4l-16.9,29.7a14.9,14.9,0,0,1-2.8,3.2,6.1,6.1,0,0,1-3.9,1.3H850.5a6.1,6.1,0,0,1-3.9-1.3,14.9,14.9,0,0,1-2.8-3.2l-16.9-29.7v59.5a4.8,4.8,0,0,1-4.9,4.9H798.5a4.8,4.8,0,0,1-4.9-4.9V175.7a4.8,4.8,0,0,1,4.9-4.9h20.8c3.4,0,6,1.6,7.8,4.9l29.1,49.8,29.2-49.8c1.8-3.3,4.4-4.9,7.7-4.9H914A4.8,4.8,0,0,1,917.4,172.2Zm117.8,32.3a4.1,4.1,0,0,1,1.2,3,2.7,2.7,0,0,1-.2,1.3L986,326.7c-1.1,2.9-2.8,4.3-5.2,4.3H957.2a4.4,4.4,0,0,1-4.3-4.3,5.1,5.1,0,0,1,.2-1.3l13.7-32.2-36.4-84.4a5.1,5.1,0,0,1-.2-1.3,4.4,4.4,0,0,1,4.3-4.3h23.6c2.4,0,4.2,1.4,5.2,4.3l20,46.8,19.8-46.8c1.1-2.9,2.8-4.3,5.2-4.3h23.8A4.2,4.2,0,0,1,1035.2,204.5Zm125.2-27.8a10.7,10.7,0,0,0-2.8-4.2,8.2,8.2,0,0,0-5.3-1.7h-29.1a7.7,7.7,0,0,0-5.2,1.7,10,10,0,0,0-2.9,4.2l-39.3,113.4a10.6,10.6,0,0,0-.7,2.7,3.6,3.6,0,0,0,1.2,2.8,3.8,3.8,0,0,0,2.8,1.2h22.7a7.3,7.3,0,0,0,4.7-1.4,6.2,6.2,0,0,0,2.3-3.1l5-14.9h47.9l5,14.9a6.2,6.2,0,0,0,2.3,3.1,7.4,7.4,0,0,0,4.8,1.4h22.6a3.8,3.8,0,0,0,2.8-1.2,3.6,3.6,0,0,0,1.2-2.8,7.6,7.6,0,0,0-.7-2.7Zm-37.2,72.8,14.6-43.2,14.5,43.2Zm120.6-79.1a5,5,0,0,1,1.4,3.5v118a5,5,0,0,1-1.4,3.5,4.9,4.9,0,0,1-3.4,1.4h-22.7a4.8,4.8,0,0,1-3.4-1.4,4.7,4.7,0,0,1-1.5-3.5V231.8h11.7c2.5,0,4.5-6.8,4.5-15.2s-2-15.2-4.5-15.2h-11.7V173.9a4.7,4.7,0,0,1,1.5-3.5,4.8,4.8,0,0,1,3.4-1.4h22.7A4.9,4.9,0,0,1,1243.8,170.4Zm53.3,0a5,5,0,0,1,1.4,3.5v118a4.8,4.8,0,0,1-4.9,4.9H1271a4.8,4.8,0,0,1-4.9-4.9v-118a4.8,4.8,0,0,1,4.9-4.9h22.6A5,5,0,0,1,1297.1,170.4Zm116.8,37.1a5.1,5.1,0,0,1-.2,1.3l-50.2,117.9c-1.1,2.9-2.8,4.3-5.2,4.3h-23.6a4.2,4.2,0,0,1-3.1-1.3,4.1,4.1,0,0,1-1.2-3,5.3,5.3,0,0,1,.1-1.3l13.7-32.2-36.3-84.4a2.7,2.7,0,0,1-.2-1.3,4.1,4.1,0,0,1,1.2-3,4.2,4.2,0,0,1,3.1-1.3h23.6c2.4,0,4.1,1.4,5.2,4.3l20,46.8,19.8-46.8c1.1-2.9,2.8-4.3,5.2-4.3h23.8a4.4,4.4,0,0,1,4.3,4.3Z" transform="translate(-345.2 -96.7)"/></svg>