<svg xmlns="http://www.w3.org/2000/svg" viewBox="0 0 1536.6 1361.9"><defs><style>.cls-1{fill:#fff;}</style></defs><g id="Layer_2" data-name="Layer 2"><path class="cls-1" d="M2258.2,1730.5a520.4,520.4,0,1,1,203.4-41A520.2,520.2,0,0,1,2258.2,1730.5Zm0-1000c-263.3,0-477.5,214.2-477.5,477.5s214.2,477.5,477.5,477.5,477.5-214.2,477.5-477.5S2521.5,730.5,2258.2,730.5Z" transform="translate(-1491.2 -685.5)"/><path class="cls-1" d="M2258.2,944a263.8,263.8,0,0,1,186.7,77.4,264.1,264.1,0,0,1-84,429.9,263.9,263.9,0,0,1-289.4-56.6,264.1,264.1,0,0,1,84-429.9A261.1,261.1,0,0,1,2258.2,944m0-45c-170.7,0-309,138.4-309,309s138.3,309,309,309,309-138.3,309-309-138.3-309-309-309Z" transform="translate(-1491.2 -685.5)"/><path class="cls-1" d="M2242.2,1223.9a34,34,0,0,1-2.4-2.8c-11.1-14.8-111.9-144.6-231.6-144.6v-45c34.1,0,69.2,8.4,104.4,25,27.7,13.1,55.6,31.2,82.9,54,43.5,36.2,72.5,73.2,80.3,83.6l.2.2c-.4-.4,2.3,3.2,1.4,2.3Z" transform="translate(-1491.2 -685.5)"/><path class="cls-1" d="M1780.7,1208h-45c0-25.4,7.9-49.8,23.6-72.6,14.4-21,34.7-39.6,60.3-55.4,50.7-31.3,117.7-48.5,188.6-48.5v45c-62.7,0-121.3,14.9-165,41.8C1802.9,1143.1,1780.7,1175,1780.7,1208Z" transform="translate(-1491.2 -685.5)"/><path class="cls-1" d="M2508,1384.5c-34.7,0-70.5-8.7-106.4-25.9-28.2-13.4-56.4-32.1-84.1-55.4a537.8,537.8,0,0,1-56.1-55.2c-7.2-8.2-12.4-14.7-15.6-18.8-6.9-8.9-7.7-10.6-8.5-12.6l-5.7-13.9,10.6-10.7,15,14c4.7-4.6,6.3-15.2,10.9-15.8s11.2,9,9,5.8c3.9,5.7,32.2,42,73.2,75.9,37.3,30.9,95,67.6,157.7,67.6s121.3-14.8,165.1-41.7c40.4-24.9,62.6-56.7,62.6-89.8h45c0,25.4-8,49.9-23.6,72.7-14.4,21-34.8,39.6-60.4,55.4C2645.9,1367.3,2578.9,1384.5,2508,1384.5Z" transform="translate(-1491.2 -685.5)"/><path class="cls-1" d="M1629.3,1862.9a13.5,13.5,0,0,1,10.1,4.1,14.8,14.8,0,0,1,3.9,10.4V2029a15.5,15.5,0,0,1-15.8,15.9,20.9,20.9,0,0,1-6.9-1.2,11.8,11.8,0,0,1-5.4-3.2L1513,1910.7l6.8-4.1v123.7a14.1,14.1,0,0,1-4,10.4,13.9,13.9,0,0,1-10.5,4.2,13.3,13.3,0,0,1-10.2-4.2,14.4,14.4,0,0,1-3.9-10.4V1878.7a15.5,15.5,0,0,1,15.9-15.8,23,23,0,0,1,7.5,1.4,11.1,11.1,0,0,1,5.7,4.3l99.1,126.4-4.4,3.1V1877.4a14.8,14.8,0,0,1,3.9-10.4A13.7,13.7,0,0,1,1629.3,1862.9Z" transform="translate(-1491.2 -685.5)"/><path class="cls-1" d="M1743.9,2047.5c-14.7,0-27.5-3.1-38.3-9.2a64.2,64.2,0,0,1-25-25.1c-5.8-10.6-8.7-22.6-8.7-35.9,0-15.6,3.2-28.9,9.5-39.9a67.3,67.3,0,0,1,24.8-25.4,64.3,64.3,0,0,1,32.5-8.8,59.6,59.6,0,0,1,25.1,5.4,69.1,69.1,0,0,1,20.9,15,72,72,0,0,1,14.5,22,67.4,67.4,0,0,1,5.3,26.5,13.5,13.5,0,0,1-4.9,10.1,16.8,16.8,0,0,1-11,3.9h-99.3l-7.8-26h95.4l-5.7,5.2v-7a23.5,23.5,0,0,0-5.3-13.5,35.1,35.1,0,0,0-27.2-13,48.4,48.4,0,0,0-14.5,2.1,28,28,0,0,0-11.7,7,34,34,0,0,0-7.8,13.2c-1.9,5.6-2.9,12.6-2.9,21.1s2,17.3,5.9,23.8a39.9,39.9,0,0,0,34.7,19.9c6.4,0,11.5-.5,15.3-1.6a35.1,35.1,0,0,0,9.2-3.7c2.4-1.5,4.5-2.8,6.4-3.8a19.5,19.5,0,0,1,8.8-2.4,12.5,12.5,0,0,1,9.5,3.9,12.9,12.9,0,0,1,3.8,9.1c0,4.7-2.4,9-7.3,12.8s-10.8,7.1-19,10A74.2,74.2,0,0,1,1743.9,2047.5Z" transform="translate(-1491.2 -685.5)"/><path class="cls-1" d="M1990.7,1905.8a14.3,14.3,0,0,1,10.4,4.5,16.3,16.3,0,0,1,4.4,11.6,16.9,16.9,0,0,1-.3,3.3,13.8,13.8,0,0,1-.8,2.7L1964.7,2035a15.2,15.2,0,0,1-16.4,9.9c-5.9-.4-10.3-3.7-13.3-9.9l-25.7-74.1,6.7.3-24.1,73.8c-3,6.2-7.4,9.5-13.3,9.9a14.2,14.2,0,0,1-9.7-2,13.7,13.7,0,0,1-6.7-7.9l-39.8-107.1a17.2,17.2,0,0,1-1-6,16.8,16.8,0,0,1,4.2-11.2c2.7-3.3,6.5-4.9,11.4-4.9a17.2,17.2,0,0,1,8.8,2.3,12.6,12.6,0,0,1,5.5,7.6l31.5,85.2-6.5-.5,23.6-64.2c2.8-6.4,7.6-9.6,14.3-9.6,3.8,0,6.7.8,8.7,2.5a16.5,16.5,0,0,1,4.8,7.1l23.7,64.2-7.8,1.1,32-85.8C1977.7,1909.1,1982.7,1905.8,1990.7,1905.8Z" transform="translate(-1491.2 -685.5)"/><path class="cls-1" d="M2122.2,1862.9a15.7,15.7,0,0,1,11.1,4.5,15,15,0,0,1,4.8,11.3V2029a14.7,14.7,0,0,1-5,11.3,16.1,16.1,0,0,1-11.4,4.6c-4.9,0-8.8-1.5-11.7-4.6a15.7,15.7,0,0,1-4.4-11.3V1878.7a15,15,0,0,1,4.7-11.3A16.5,16.5,0,0,1,2122.2,1862.9Zm-.8,75.6h116v29.9h-116Zm116-75.6q7.3,0,11.7,4.5a15.9,15.9,0,0,1,4.4,11.3V2029a15.4,15.4,0,0,1-4.5,11.3c-3.1,3.1-7.1,4.6-12.1,4.6a15.4,15.4,0,0,1-11.1-4.6,14.9,14.9,0,0,1-4.8-11.3V1878.7a14.9,14.9,0,0,1,5-11.3A16.4,16.4,0,0,1,2237.4,1862.9Z" transform="translate(-1491.2 -685.5)"/><path class="cls-1" d="M2423.6,1975.5c0,14.2-3.2,26.7-9.5,37.5a69,69,0,0,1-25.5,25.4,70.9,70.9,0,0,1-35.8,9.1c-13.1,0-25.1-3-35.7-9.1a67.6,67.6,0,0,1-25.5-25.4c-6.3-10.8-9.5-23.3-9.5-37.5s3.2-26.8,9.5-37.6a69.3,69.3,0,0,1,25.5-25.5,70.9,70.9,0,0,1,97,25.5C2420.4,1948.7,2423.6,1961.3,2423.6,1975.5Zm-31.2,0c0-8.9-1.8-16.5-5.4-23a39.8,39.8,0,0,0-14.3-15.3,39.4,39.4,0,0,0-39.8,0,41.4,41.4,0,0,0-14.3,15.3c-3.5,6.5-5.3,14.1-5.3,23a47.3,47.3,0,0,0,5.3,22.7,40.3,40.3,0,0,0,14.3,15.2,38.8,38.8,0,0,0,39.8,0,38.8,38.8,0,0,0,14.3-15.2C2390.6,1991.7,2392.4,1984.1,2392.4,1975.5Z" transform="translate(-1491.2 -685.5)"/><path class="cls-1" d="M2465.2,2044.9a14.6,14.6,0,0,1-11.2-4.6,15.3,15.3,0,0,1-4.4-11.3V1921.6a15.5,15.5,0,0,1,4.4-11.3,16.1,16.1,0,0,1,22.3,0,15.5,15.5,0,0,1,4.5,11.3v24.5l-1.9-17.4a40.6,40.6,0,0,1,7.4-11.1,43.9,43.9,0,0,1,10.3-8,48,48,0,0,1,12.2-4.9,58.3,58.3,0,0,1,13-1.5,20.4,20.4,0,0,1,13.2,4.4c3.5,3,5.3,6.4,5.3,10.4,0,5.7-1.5,9.8-4.4,12.4a14.7,14.7,0,0,1-9.6,3.7,21.9,21.9,0,0,1-9-1.8,22.5,22.5,0,0,0-9.2-1.8,22,22,0,0,0-9.5,2.2,27.2,27.2,0,0,0-8.9,6.9,36.9,36.9,0,0,0-6.5,11.6,48.9,48.9,0,0,0-2.4,16.2V2029a15.4,15.4,0,0,1-4.5,11.3A14.5,14.5,0,0,1,2465.2,2044.9Z" transform="translate(-1491.2 -685.5)"/><path class="cls-1" d="M2575.9,1888.9c-5.9,0-10-1-12.5-2.9s-3.6-5.3-3.6-10.1v-5c0-5,1.3-8.4,4-10.2s6.8-2.8,12.4-2.8,10.3,1,12.7,2.9,3.7,5.3,3.7,10.1v5c0,5-1.3,8.4-3.9,10.3S2581.8,1888.9,2575.9,1888.9Zm15.9,140.1a15.7,15.7,0,0,1-4.4,11.3,14.9,14.9,0,0,1-11.2,4.6,14.7,14.7,0,0,1-11.2-4.6,15.3,15.3,0,0,1-4.4-11.3V1921.6a15.5,15.5,0,0,1,4.4-11.3,15,15,0,0,1,11.2-4.5,15.2,15.2,0,0,1,11.2,4.5,15.9,15.9,0,0,1,4.4,11.3Z" transform="translate(-1491.2 -685.5)"/><path class="cls-1" d="M2712.4,2016.3a14.3,14.3,0,0,1,10.4,4,14.5,14.5,0,0,1,0,20.4,14,14,0,0,1-10.4,4.2h-83.7a13,13,0,0,1-10.4-4.7c-2.6-3.1-3.8-6.2-3.6-9.4a31.6,31.6,0,0,1,1-6.8,19,19,0,0,1,3.9-6.9l64.7-83.8-.5,3.7H2631a14.2,14.2,0,0,1-14.5-14.6,13.6,13.6,0,0,1,4.1-10,14.4,14.4,0,0,1,10.4-4h80.1a13.7,13.7,0,0,1,10.2,4.4,14.5,14.5,0,0,1,3.6,11.2,47.1,47.1,0,0,1-.9,5.2,19.1,19.1,0,0,1-3.5,6.2l-63.7,82.4v-1.5Z" transform="translate(-1491.2 -685.5)"/><path class="cls-1" d="M2880.6,1975.5c0,14.2-3.1,26.7-9.5,37.5a68,68,0,0,1-25.4,25.4,70.9,70.9,0,0,1-35.8,9.1c-13.2,0-25.1-3-35.7-9.1a67.6,67.6,0,0,1-25.5-25.4c-6.3-10.8-9.5-23.3-9.5-37.5s3.2-26.8,9.5-37.6a69.3,69.3,0,0,1,25.5-25.5,70.7,70.7,0,0,1,96.9,25.5C2877.5,1948.7,2880.6,1961.3,2880.6,1975.5Zm-31.2,0c0-8.9-1.7-16.5-5.3-23a40.6,40.6,0,0,0-14.3-15.3,39.4,39.4,0,0,0-39.8,0,40.6,40.6,0,0,0-14.3,15.3c-3.5,6.5-5.3,14.1-5.3,23a47.3,47.3,0,0,0,5.3,22.7,39.6,39.6,0,0,0,14.3,15.2,38.8,38.8,0,0,0,39.8,0,39.6,39.6,0,0,0,14.3-15.2C2847.7,1991.7,2849.4,1984.1,2849.4,1975.5Z" transform="translate(-1491.2 -685.5)"/><path class="cls-1" d="M2981,1903.2c12.8,0,22.6,2.7,29.2,8a41.1,41.1,0,0,1,13.8,21.5,109.9,109.9,0,0,1,3.8,29.8V2029a15.7,15.7,0,0,1-4.4,11.3,15.9,15.9,0,0,1-22.4,0,15.7,15.7,0,0,1-4.4-11.3v-66.5a49.6,49.6,0,0,0-2.2-15.5,21.8,21.8,0,0,0-7.9-11.1c-3.9-2.7-9.3-4.1-16.4-4.1s-12.8,1.4-17.6,4.1a29,29,0,0,0-10.9,11.1,31.8,31.8,0,0,0-3.8,15.5V2029a15.3,15.3,0,0,1-4.4,11.3,14.7,14.7,0,0,1-11.2,4.6,14.5,14.5,0,0,1-11.1-4.6,15.4,15.4,0,0,1-4.5-11.3V1921.6a15.5,15.5,0,0,1,4.5-11.3,14.8,14.8,0,0,1,11.1-4.5,15,15,0,0,1,11.2,4.5,15.5,15.5,0,0,1,4.4,11.3v11.2l-3.9-.8a49.8,49.8,0,0,1,6.8-9.4,59.7,59.7,0,0,1,10.4-9.5,51.3,51.3,0,0,1,13.5-7.2A48.2,48.2,0,0,1,2981,1903.2Z" transform="translate(-1491.2 -685.5)"/></g></svg>