<?xml version="1.0" encoding="UTF-8"?><svg id="Layer_1" xmlns="http://www.w3.org/2000/svg" viewBox="0 0 200 200"><defs><style>.cls-1{fill:none;stroke:#231f20;stroke-linecap:round;stroke-linejoin:round;stroke-width:8px;}</style></defs><path class="cls-1" d="M173.3,104.1c2.1,1.9,4.6,4.1,7.3,6.1s5.4,4,7.8,5.6"/><line class="cls-1" x1="179" y1="69.9" x2="196" y2="69.9"/><path class="cls-1" d="M173.3,35.8c2.1-2,4.6-4.1,7.3-6.2s5.4-4,7.8-5.6"/><path class="cls-1" d="M81.4,168.9c-8.9,0-16.1-7.3-16.2-16.2v-5.5c0-4.2-.4-8.5-1.4-12.6-.8-3.8-2.2-7.5-4-11-3.4-7-5.9-7.9-12-18.3-3.2-5.5-5.9-10-7.9-16.4C29.7,55.8,48.4,20.7,81.5,10.4,114.7.2,149.8,18.8,160,52c3.7,12,3.7,24.9,0,37-2,6.4-4.7,10.9-7.9,16.4-6.1,10.4-8.6,11.3-12,18.3-1.8,3.5-3.1,7.2-4,11-.9,4.1-1.4,8.4-1.4,12.6v5.5c0,8.9-7.3,16.1-16.2,16.2h-37.2Z"/><path class="cls-1" d="M79.5,168.9v6.6c0,2.3.6,4.6,1.8,6.5,4,6.4,11,10.3,18.6,10.3h.2c7.6,0,14.6-3.8,18.6-10.3,1.2-2,1.8-4.2,1.8-6.5v-6.6"/><line class="cls-1" x1="65.2" y1="145.4" x2="134.8" y2="145.4"/><path class="cls-1" d="M26.7,104.1c-2.1,1.9-4.6,4.1-7.3,6.1s-5.4,4-7.8,5.6"/><line class="cls-1" x1="21" y1="69.9" x2="4" y2="69.9"/><path class="cls-1" d="M26.7,35.8c-2.1-2-4.6-4.1-7.3-6.2s-5.4-4-7.8-5.6"/><line class="cls-1" x1="107.3" y1="91.4" x2="107.3" y2="91.4"/><polyline class="cls-1" points="101.4 99.1 84.2 121.8 97.1 84.5 74.8 84.5 115.8 30.5 102.9 67.7 125.2 67.7 113.3 83.4"/></svg>