<svg id="Layer_2" data-name="Layer 2" xmlns="http://www.w3.org/2000/svg" viewBox="0 0 280 280"><defs><style>.cls-1{fill:none;stroke:#000;stroke-linecap:round;stroke-miterlimit:10;stroke-width:8px;}</style></defs><line class="cls-1" x1="140" y1="147.4" x2="140" y2="208.1"/><line class="cls-1" x1="98.2" y1="147.4" x2="105.6" y2="208.1"/><path class="cls-1" d="M222.8,129.8l-16.3,91.7C205,229.3,198.8,236,188,236H92c-10.8,0-17-6.6-18.5-14.4L57.2,129.8"/><line class="cls-1" x1="181.8" y1="147.5" x2="174.5" y2="208.2"/><path class="cls-1" d="M228,127.4a8,8,0,0,0,8-8h0a8,8,0,0,0-8-7.9H52a8,8,0,0,0-8,8h0a8,8,0,0,0,8,8Z"/><line class="cls-1" x1="81.6" y1="111.4" x2="131.7" y2="44"/><line class="cls-1" x1="198.4" y1="111.4" x2="148.3" y2="44"/></svg>