<?xml version="1.0" encoding="UTF-8"?><svg id="Layer_2" xmlns="http://www.w3.org/2000/svg" viewBox="0 0 200 200"><defs><style>.cls-1{fill:none;stroke:#231f20;stroke-linecap:round;stroke-linejoin:round;stroke-width:8px;}</style></defs><path class="cls-1" d="M12,167.9c.8,6.2,7.4,10,13.4,7.7,10.3-3.9,20.1-7.2,29.2-5.3,23.1,4.7,47.7,6.4,70.6.2,21.5-5.8,41.1-18.4,58.2-31.9,5.6-4.4,13-9.2,12.5-17.1-.4-6.6-5.7-10.5-12.4-10.2-10.9.5-19.1,8.3-28,13.5-9.2,5.3-19.4,8.9-29.8,11.1-12.2,2.5-24.6,2.7-37,2.2"/><line class="cls-1" x1="7.9" y1="154.3" x2="8.6" y2="156.4"/><path class="cls-1" d="M119.7,137c2.4-.5,4.6-.7,6.9-1.6,3.1-1.2,6-3,7.8-5.7,3-4.5,1.2-9.8-2.9-12.9-2.6-2-6.1-3.4-9.3-4-4.9-.9-10.1-.7-15-.6-6.1,0-12.2.3-18.3.2-11.4-.3-23-2.6-34.2.2s-5.5,1.8-7.4,2.8c-9.3,4.6-20.4,10-36.6,15.7-3.7,1.3-6.2,4.5-6.5,8.1s0,2.2.4,3.2h0"/><circle class="cls-1" cx="149.7" cy="101.7" r="16"/><circle class="cls-1" cx="96.9" cy="60.6" r="16"/><circle class="cls-1" cx="122.5" cy="35.8" r="12"/><circle class="cls-1" cx="77.8" cy="92.8" r="14"/><circle class="cls-1" cx="112.9" cy="95" r="14"/><circle class="cls-1" cx="134.5" cy="67" r="14"/></svg>