<svg id="Layer_2" data-name="Layer 2" xmlns="http://www.w3.org/2000/svg" viewBox="0 0 280 280"><defs><style>.cls-1,.cls-2{fill:none;stroke:#000;stroke-miterlimit:10;stroke-width:8px;}.cls-1{stroke-linecap:round;}</style></defs><line class="cls-1" x1="140" y1="135.1" x2="140" y2="163"/><path class="cls-1" d="M89.2,134.7c1.8,11.4,8.5,21.6,14.1,28.3"/><path class="cls-1" d="M70.5,150C20,125.5,48,49,99,64.2"/><line class="cls-1" x1="71.1" y1="217.8" x2="71.1" y2="150.3"/><line class="cls-1" x1="92" y1="236.3" x2="156" y2="236.3"/><path class="cls-1" d="M71.1,217.4c0,8.7,8.8,18.9,21.9,18.9"/><path class="cls-1" d="M89.5,93.9c3.1-36.8,29.7-52.3,55.8-50"/><path class="cls-1" d="M190.8,134.7c-1.8,11.4-8.5,21.6-14.1,28.3"/><path class="cls-1" d="M209.5,150C260,125.5,232,49,181,64.2"/><line class="cls-1" x1="208.9" y1="217.8" x2="208.9" y2="150.3"/><line class="cls-1" x1="188.1" y1="236.3" x2="124" y2="236.3"/><path class="cls-1" d="M208.9,217.4c0,8.7-8.8,18.9-21.9,18.9"/><path class="cls-1" d="M190.5,93.9c-2.3-32.2-24.4-48.5-46-50"/><line class="cls-2" x1="71.6" y1="198.7" x2="207.5" y2="198.7"/></svg>