<svg xmlns="http://www.w3.org/2000/svg" xmlns:xlink="http://www.w3.org/1999/xlink" viewBox="0 0 776.6 770"><defs><style>.cls-1,.cls-11,.cls-12,.cls-13,.cls-14,.cls-15,.cls-16,.cls-17,.cls-2,.cls-3,.cls-4,.cls-5,.cls-6,.cls-7,.cls-8,.cls-9{stroke:#fff;stroke-miterlimit:10;stroke-width:4px;}.cls-1{fill:url(#linear-gradient);}.cls-2{fill:url(#radial-gradient);}.cls-3{fill:url(#radial-gradient-2);}.cls-4{fill:url(#radial-gradient-3);}.cls-5{fill:url(#radial-gradient-4);}.cls-6{fill:url(#linear-gradient-2);}.cls-7{fill:url(#radial-gradient-5);}.cls-8{fill:url(#radial-gradient-6);}.cls-9{fill:url(#radial-gradient-7);}.cls-10{fill:url(#radial-gradient-8);}.cls-11{fill:url(#linear-gradient-3);}.cls-12{fill:url(#linear-gradient-4);}.cls-13{fill:url(#linear-gradient-5);}.cls-14{fill:url(#linear-gradient-6);}.cls-15{fill:url(#linear-gradient-7);}.cls-16{fill:url(#linear-gradient-8);}.cls-17{fill:url(#linear-gradient-9);}.cls-18{fill:url(#radial-gradient-9);}.cls-19{fill:url(#radial-gradient-14);}</style><linearGradient id="linear-gradient" x1="100.73" y1="380.99" x2="674.95" y2="380.99" gradientUnits="userSpaceOnUse"><stop offset="0" stop-color="#ecde67"/><stop offset="1" stop-color="#cdb552"/></linearGradient><radialGradient id="radial-gradient" cx="509.58" cy="245.79" r="65.58" gradientUnits="userSpaceOnUse"><stop offset="0" stop-color="#cfbd7f"/><stop offset="1" stop-color="#c6a845"/></radialGradient><radialGradient id="radial-gradient-2" cx="694.95" cy="320.68" r="70.51" xlink:href="#radial-gradient"/><radialGradient id="radial-gradient-3" cx="769.83" cy="506.04" r="65.58" xlink:href="#radial-gradient"/><radialGradient id="radial-gradient-4" cx="694.95" cy="691.41" r="70.51" xlink:href="#radial-gradient"/><linearGradient id="linear-gradient-2" x1="420.85" y1="766.3" x2="598.3" y2="766.3" xlink:href="#radial-gradient"/><radialGradient id="radial-gradient-5" cx="324.21" cy="691.42" r="70.51" xlink:href="#radial-gradient"/><radialGradient id="radial-gradient-6" cx="249.33" cy="506.04" r="65.58" xlink:href="#radial-gradient"/><radialGradient id="radial-gradient-7" cx="324.21" cy="320.67" r="70.51" xlink:href="#radial-gradient"/><radialGradient id="radial-gradient-8" cx="387.84" cy="380.99" r="199.95" xlink:href="#radial-gradient"/><linearGradient id="linear-gradient-3" x1="259.56" y1="471.61" x2="516.12" y2="471.61" xlink:href="#linear-gradient"/><linearGradient id="linear-gradient-4" x1="379.51" y1="285.5" x2="396.17" y2="285.5" xlink:href="#linear-gradient"/><linearGradient id="linear-gradient-5" x1="224.25" y1="343.24" x2="240.91" y2="343.24" xlink:href="#linear-gradient"/><linearGradient id="linear-gradient-6" x1="417.78" y1="430.11" x2="434.44" y2="430.11" gradientTransform="translate(428.9 -175.3) rotate(45)" xlink:href="#linear-gradient"/><linearGradient id="linear-gradient-7" x1="534.77" y1="343.24" x2="551.43" y2="343.24" xlink:href="#linear-gradient"/><linearGradient id="linear-gradient-8" x1="584.72" y1="430.11" x2="601.38" y2="430.11" gradientTransform="translate(114.7 -124.8) rotate(13.3)" xlink:href="#linear-gradient"/><linearGradient id="linear-gradient-9" x1="362.28" y1="505.42" x2="656.89" y2="505.42" xlink:href="#linear-gradient"/><radialGradient id="radial-gradient-9" cx="281.61" cy="282.6" r="158.71" xlink:href="#radial-gradient"/><radialGradient id="radial-gradient-14" cx="726.27" cy="722.6" r="172.25" xlink:href="#radial-gradient"/></defs><g id="Layer_2" data-name="Layer 2"><circle class="cls-1" cx="387.8" cy="381" r="287.1"/><path class="cls-2" d="M569.8,272.3a239.5,239.5,0,0,0-120.4,0,15.8,15.8,0,0,1-19.1-10.4l-9.4-29a285.2,285.2,0,0,1,177.4,0l-9.4,28.9A15.9,15.9,0,0,1,569.8,272.3Z" transform="translate(-121.7 -125.1)"/><path class="cls-3" d="M717.5,383.3a240.3,240.3,0,0,0-85.2-85.1,15.8,15.8,0,0,1-6.1-20.9L640,250.2A285.9,285.9,0,0,1,765.5,375.6l-27.2,13.9A15.8,15.8,0,0,1,717.5,383.3Z" transform="translate(-121.7 -125.1)"/><path class="cls-4" d="M743.3,566.3a238.8,238.8,0,0,0,0-120.5,15.9,15.9,0,0,1,10.5-19.1l28.9-9.4a285.6,285.6,0,0,1,0,177.5l-28.9-9.4A15.9,15.9,0,0,1,743.3,566.3Z" transform="translate(-121.7 -125.1)"/><path class="cls-5" d="M632.3,713.9a239.2,239.2,0,0,0,85.1-85.1,15.9,15.9,0,0,1,20.9-6.2l27.2,13.8A286.1,286.1,0,0,1,640,761.9l-13.8-27.1A15.9,15.9,0,0,1,632.3,713.9Z" transform="translate(-121.7 -125.1)"/><path class="cls-6" d="M449.3,739.8a239.9,239.9,0,0,0,120.5,0,15.9,15.9,0,0,1,19.1,10.4l9.4,29a285.6,285.6,0,0,1-177.5,0l9.5-29A15.8,15.8,0,0,1,449.3,739.8Z" transform="translate(-121.7 -125.1)"/><path class="cls-7" d="M301.7,628.8a238.7,238.7,0,0,0,85.2,85.1,15.9,15.9,0,0,1,6.1,20.9l-13.8,27.1A285.4,285.4,0,0,1,253.7,636.5l27.1-13.9A15.9,15.9,0,0,1,301.7,628.8Z" transform="translate(-121.7 -125.1)"/><path class="cls-8" d="M275.8,445.8a240.6,240.6,0,0,0,0,120.4,15.9,15.9,0,0,1-10.4,19.2l-29,9.4a287,287,0,0,1,0-177.5l29,9.4A15.9,15.9,0,0,1,275.8,445.8Z" transform="translate(-121.7 -125.1)"/><path class="cls-9" d="M386.9,298.2a240.3,240.3,0,0,0-85.2,85.1,15.9,15.9,0,0,1-20.9,6.2l-27.1-13.9A284.8,284.8,0,0,1,379.2,250.2L393,277.3A15.9,15.9,0,0,1,386.9,298.2Z" transform="translate(-121.7 -125.1)"/><circle class="cls-10" cx="387.8" cy="381" r="199.9"/><ellipse class="cls-11" cx="387.8" cy="471.6" rx="128.3" ry="13.2"/><circle class="cls-12" cx="387.8" cy="285.5" r="8.3"/><circle class="cls-13" cx="232.6" cy="343.2" r="8.3"/><circle class="cls-14" cx="426.1" cy="430.1" r="8.3" transform="translate(-301.1 302.2) rotate(-45)"/><circle class="cls-15" cx="543.1" cy="343.2" r="8.3"/><circle class="cls-16" cx="593.1" cy="430.1" r="8.3" transform="translate(-204.7 22.7) rotate(-13.3)"/><path class="cls-17" d="M652.1,496.3l-30,42.9a9.8,9.8,0,0,1-17.8-4.1l-11.9-77.8a2.6,2.6,0,0,0-5-.6L562,523.3c-3.2,8.6-15.4,8.4-18.5-.2L512,434.5a2.6,2.6,0,0,0-4.9,0l-31.5,88.6a9.9,9.9,0,0,1-18.5.2l-25.3-66.6a2.7,2.7,0,0,0-5.1.6l-11.9,77.8a9.8,9.8,0,0,1-17.8,4.1l-30-42.9a2.5,2.5,0,0,0-4.6,2l18.1,78.4a1.9,1.9,0,0,0,2.8,1.1C394,571.7,446.4,567,509.6,567s115.6,4.7,126.3,10.8a1.9,1.9,0,0,0,2.8-1.1l18.1-78.4A2.6,2.6,0,0,0,652.1,496.3ZM437.6,551.5c-5.2.6-10.3-6.4-11.3-15.6s2.4-17.2,7.6-17.8,10.4,6.4,11.4,15.7S442.8,550.9,437.6,551.5Zm72-5.2c-5.9,0-10.7-8.4-10.7-18.8s4.8-18.7,10.7-18.7,10.6,8.4,10.6,18.7S515.5,546.3,509.6,546.3Zm83.3-10.4c-1,9.2-6.1,16.2-11.3,15.6s-8.7-8.5-7.7-17.7,6.1-16.3,11.3-15.7S593.9,526.6,592.9,535.9Z" transform="translate(-121.7 -125.1)"/><path class="cls-18" d="M204.8,376.8l-5.2,17-36.4,12.5c-.2.8-.4,1.5-.5,2.1a16.7,16.7,0,0,0-.5,1.8,11.2,11.2,0,0,1-.5,1.3,12.1,12.1,0,0,1-.5,1.4l18.5,5.7a30.3,30.3,0,0,0,5.4,1.1,6.5,6.5,0,0,0,3.3-.4,3.9,3.9,0,0,0,1.8-1.8,16.9,16.9,0,0,0,1-2.7l.8-2.5,1.8.5-8.4,27.3-1.7-.5.7-2.4c.8-2.7.5-4.8-.8-6.6s-3.1-2-6.7-3.1L135.8,415c-3.9-1.2-6.5-1.5-7.8-1s-3,2.4-3.8,4.8l-.7,2.4-1.8-.5,7.1-23.2c1.1-3.4,2.1-6.3,3.1-8.7a29.5,29.5,0,0,1,3-5.7,21.7,21.7,0,0,1,3.5-3.9,16.5,16.5,0,0,1,4.4-2.6,15.2,15.2,0,0,1,5.1-1.2,16.6,16.6,0,0,1,5.4.6,16.4,16.4,0,0,1,9.1,6.9c2.1,3.4,2.9,8,2.5,13.7l22.2-7.5c2.5-.9,4.7-1.7,6.4-2.5a17.5,17.5,0,0,0,4.3-2.6,12.6,12.6,0,0,0,2.9-3.2,26.9,26.9,0,0,0,2.3-4.5ZM158.2,412l.6-1.6.3-1a26.7,26.7,0,0,0,1.4-8.3,17.8,17.8,0,0,0-1.2-6.7,12.7,12.7,0,0,0-3.4-4.8,14.6,14.6,0,0,0-5.2-2.9,13.9,13.9,0,0,0-5.7-.6,10.9,10.9,0,0,0-5.1,1.5,11.5,11.5,0,0,0-4.1,3.5,14.3,14.3,0,0,0-2.7,5.2,39.4,39.4,0,0,0-1.3,7.6Z" transform="translate(-121.7 -125.1)"/><path class="cls-18" d="M171.5,297.5a29.5,29.5,0,0,1,8.6-9,31.8,31.8,0,0,1,11.5-4.9,37.2,37.2,0,0,1,12.9-.2,34.5,34.5,0,0,1,13,4.9,35.9,35.9,0,0,1,10.5,9.6,33.3,33.3,0,0,1,5.8,11.8,32.1,32.1,0,0,1,.9,12.7,32.5,32.5,0,0,1-4.4,12.3,33.7,33.7,0,0,1-8.9,9.5,30.8,30.8,0,0,1-11.5,4.9,33.9,33.9,0,0,1-13.1.1,38.7,38.7,0,0,1-13.4-5.3,36.2,36.2,0,0,1-10.2-9.2,35,35,0,0,1-5.6-11.7,31.9,31.9,0,0,1,3.9-25.5Zm2.5,2.7a18.2,18.2,0,0,0-2.8,8.7,18.6,18.6,0,0,0,1.7,8.9,32.9,32.9,0,0,0,6.1,8.5,53.8,53.8,0,0,0,10.2,7.9,58.3,58.3,0,0,0,11.6,5.6,30.4,30.4,0,0,0,10.7,1.8,19.3,19.3,0,0,0,9-2.2,17.4,17.4,0,0,0,6.7-6.5,18.6,18.6,0,0,0,3-8.2,18.9,18.9,0,0,0-1-8.7,27.8,27.8,0,0,0-5.7-8.9,52.9,52.9,0,0,0-10.8-8.6,61.5,61.5,0,0,0-12.2-5.9,31.3,31.3,0,0,0-10.8-1.8,17.7,17.7,0,0,0-8.9,2.5A19.5,19.5,0,0,0,174,300.2Z" transform="translate(-121.7 -125.1)"/><path class="cls-18" d="M246.2,210.4l16.9-15.9,1.2,1.3-.9.9a9.9,9.9,0,0,0-2.7,6c-.4,2.7-.1,6.4.9,11.2l5.7,29.4,11.5,12.1a20.4,20.4,0,0,0,4,3.6,5.8,5.8,0,0,0,3,1.1,4.2,4.2,0,0,0,2.4-.7,18.4,18.4,0,0,0,2.5-1.9l1.5-1.5,1.3,1.3-20.6,19.5-1.2-1.4,1.7-1.6a11.3,11.3,0,0,0,2.1-2.4,4,4,0,0,0,.7-2.4,6.6,6.6,0,0,0-1-3,29.4,29.4,0,0,0-3.3-4.1L261,250.4l-32.3-7.7-4.8-1-2.7-.4h-1.3a7.9,7.9,0,0,0-2,.4l-2.3.8a11.4,11.4,0,0,0-2.3,1.5l-1.2-1.3,20.6-19.5,1.3,1.3-1.1,1a11.5,11.5,0,0,0-1.4,1.7,8.2,8.2,0,0,0-.9,1.9,4.5,4.5,0,0,0-.1,2,3.8,3.8,0,0,0,.9,1.8,6.1,6.1,0,0,0,2.2,1.2,40.9,40.9,0,0,0,4.4,1.3l24.8,6.1-4.6-23.9c-.7-3.4-1.5-5.8-2.6-7l-1.6-1.1a4,4,0,0,0-1.9-.3,5.2,5.2,0,0,0-2.1.7,7.9,7.9,0,0,0-2.5,1.9Z" transform="translate(-121.7 -125.1)"/><path class="cls-18" d="M341.7,197.1,319.4,210l1.3,11.4a18.7,18.7,0,0,0,1.5,5.8,5.2,5.2,0,0,0,1,1.1,2.3,2.3,0,0,0,1.5.5,8,8,0,0,0,2.5-.3,21,21,0,0,0,3.8-1.6l.9,1.6L313.8,239l-1-1.5a16.8,16.8,0,0,0,3-3,9.1,9.1,0,0,0,1.2-3.1,10,10,0,0,0,.1-3.9c-.1-1.5-.3-3.3-.6-5.5l-7.2-59.1,1.4-.8,47.8,36.2a53.1,53.1,0,0,0,5.1,3.5,12,12,0,0,0,3.7,1.5,6.2,6.2,0,0,0,3.3,0,12.9,12.9,0,0,0,3.4-1.4l.9,1.6-22.8,13.2-.9-1.5c2.3-1.5,3.6-2.7,4-3.9a3.4,3.4,0,0,0-.1-3.1,25.2,25.2,0,0,0-5.2-4.9Zm-3.1-2.5L315.4,177l3.5,29.1Z" transform="translate(-121.7 -125.1)"/><path class="cls-18" d="M439.9,164.4l1.6-.2-.5,19-49.6,14.2-.5-1.8,2.4-.7c2.7-.8,4.3-2.2,5.1-4.3s0-3.6-1-7.2L385.6,142c-1.2-3.9-2.3-6.3-3.5-7a6.8,6.8,0,0,0-6-.6l-2.5.7-.5-1.8,29-8.2.5,1.7a32.6,32.6,0,0,0-4.2,1.5,16.3,16.3,0,0,0-2.7,1.5,5,5,0,0,0-1.4,1.6,6.1,6.1,0,0,0-.7,1.7c-.2,1.1.3,3.6,1.4,7.5l11.5,40.2a16.7,16.7,0,0,0,1.8,4.6,3.4,3.4,0,0,0,2.6,1.5c.9.1,3.4-.5,7.5-1.7l4.6-1.3c5-1.4,8.3-2.7,10.1-4a12.6,12.6,0,0,0,2.4-2.2,12.3,12.3,0,0,0,1.9-3.2,19.5,19.5,0,0,0,1.5-4.3A52.7,52.7,0,0,0,439.9,164.4Z" transform="translate(-121.7 -125.1)"/><path class="cls-19" d="M892.9,614l-22.5-3.1.4-1.5c7-.6,12.4-2.5,16.1-5.5a21.8,21.8,0,0,0,7.1-12.3,22.7,22.7,0,0,0,0-9.7,18.6,18.6,0,0,0-4.3-8.5,30.3,30.3,0,0,0-8.9-6.8,53.4,53.4,0,0,0-13.7-4.7,39.6,39.6,0,0,0-12.2-.8,26.4,26.4,0,0,0-10,2.8,21.7,21.7,0,0,0-7.4,6.4,25.8,25.8,0,0,0-4.2,10,22.4,22.4,0,0,0,.4,11.8c1,3.5,3.8,7.8,8.5,12.9l-1.3,1.3c-5.1-4.5-8.5-9.2-10.3-14.1a29,29,0,0,1-.8-16.4,34.3,34.3,0,0,1,5.1-12.2,29.2,29.2,0,0,1,8.9-8.6,34,34,0,0,1,11.9-4.4,39.2,39.2,0,0,1,30.8,8.6,31.5,31.5,0,0,1,10.1,14.6,33.3,33.3,0,0,1,1,17.7,32.2,32.2,0,0,1-6.3,13.2,7.2,7.2,0,0,0-1.7,2.6,3.4,3.4,0,0,0,.7,2.9,6.8,6.8,0,0,0,3,2.1Z" transform="translate(-121.7 -125.1)"/><path class="cls-19" d="M820,671.2l11.5-23.1-7.3-8.7c-1.9-2.1-3.3-3.5-4.5-4a3.9,3.9,0,0,0-1.4-.5,2.7,2.7,0,0,0-1.6.5,8.9,8.9,0,0,0-1.9,1.7,14.3,14.3,0,0,0-2.2,3.3l-1.7-.8,9.4-18.8,1.6.8a14.6,14.6,0,0,0-.8,4.1,9.2,9.2,0,0,0,.6,3.3,16.2,16.2,0,0,0,2.1,3.3l3.5,4.2,38.6,45.4-.8,1.5-59.8-3.9a45.4,45.4,0,0,0-6.1-.2,14.9,14.9,0,0,0-4.1.8,6.8,6.8,0,0,0-2.6,1.8,12.9,12.9,0,0,0-2.1,3l-1.6-.8,11.7-23.6,1.6.9c-1.1,2.4-1.5,4.2-1.2,5.3a3.4,3.4,0,0,0,1.8,2.6,27.9,27.9,0,0,0,7,1.3Zm3.9.4,29.1,1.9-18.9-22.4Z" transform="translate(-121.7 -125.1)"/><path class="cls-19" d="M801.6,776,784,761.1l1.2-1.3c5.2,3.3,10.2,4.8,14.7,4.5a16.8,16.8,0,0,0,11.7-6.3,11.7,11.7,0,0,0,3-8.5,9.3,9.3,0,0,0-.9-4,8.7,8.7,0,0,0-2.3-3.1,9.4,9.4,0,0,0-3.1-1.7,20.5,20.5,0,0,0-6.9.2c-4.8,1.5-8.9,2.9-12.4,4.3s-8,2.9-14.1,4.7a18.9,18.9,0,0,1-8.2,0,16,16,0,0,1-7-3.5,16.2,16.2,0,0,1-4.4-5.7,17.7,17.7,0,0,1-1.8-7.1,21,21,0,0,1,1.2-7.7,22.7,22.7,0,0,1,4.4-7.4,28.2,28.2,0,0,1,3.8-3.9l2-1.4,3.4-2.3,3.4-2.3,1.8-1.3a2.4,2.4,0,0,0,.6-1.9c0-.7-.6-1.6-1.6-2.8l1.2-1.4,17.4,14.7-1.2,1.4a33.2,33.2,0,0,0-10.4-4.3,12.4,12.4,0,0,0-4.3,0,18.8,18.8,0,0,0-4.5,1.2,26.7,26.7,0,0,0-4.3,2.5,20.5,20.5,0,0,0-3.8,3.4,17.6,17.6,0,0,0-2.9,4.8,11.4,11.4,0,0,0-.8,4.7,10,10,0,0,0,.9,4.3,9.7,9.7,0,0,0,2.6,3.4,10.3,10.3,0,0,0,4.7,2.2,15.8,15.8,0,0,0,6.7-.4l8.2-2.8c6-2.2,11.5-3.9,16.5-5.3a21.3,21.3,0,0,1,8.3-.2,16,16,0,0,1,7,3.5,15.8,15.8,0,0,1,4.2,5.4,17.9,17.9,0,0,1,1.7,6.8,19.8,19.8,0,0,1-1.1,7.1,21.8,21.8,0,0,1-4,6.9,27.3,27.3,0,0,1-9.1,6.9l-2.3,1.2a2.5,2.5,0,0,0-1.2,1,2.7,2.7,0,0,0-.8,2,5.2,5.2,0,0,0,1.5,3Z" transform="translate(-121.7 -125.1)"/><path class="cls-19" d="M707.9,771.4l-1.1-1.4,22-18,1.2,1.4-1.8,1.5a16.3,16.3,0,0,0-2.3,2.2,3.5,3.5,0,0,0-.9,2.3,7.1,7.1,0,0,0,.8,3.2,28.3,28.3,0,0,0,3.1,4.5l27.3,33.3a28.4,28.4,0,0,0,2.4,2.9,8.5,8.5,0,0,0,1.9,1.6,2.6,2.6,0,0,0,1.5.7,5.4,5.4,0,0,0,1.8,0,10.2,10.2,0,0,0,4.2-2l1.8-1.5,1.2,1.4-22.1,18.1-1.1-1.5,1.8-1.4a22.7,22.7,0,0,0,2.2-2.2,4,4,0,0,0,.9-2.4,6,6,0,0,0-.8-3.2,19.2,19.2,0,0,0-3.1-4.5l-27.2-33.3-2.4-2.9a12.4,12.4,0,0,0-1.9-1.6,2.5,2.5,0,0,0-1.6-.6,4.8,4.8,0,0,0-1.7,0,8.2,8.2,0,0,0-4.2,2Z" transform="translate(-121.7 -125.1)"/><path class="cls-19" d="M724.6,840.5l-16,8.3-59.1-25.7,17.6,34.1a20.6,20.6,0,0,0,2.9,4.5,6.5,6.5,0,0,0,2.6,2,3.6,3.6,0,0,0,2.5,0,12.4,12.4,0,0,0,2.8-1.1l2.1-1.1.8,1.6-20.6,10.7-.9-1.6,2.2-1.1a19.6,19.6,0,0,0,2.6-1.7,3.8,3.8,0,0,0,1.3-2.2,7,7,0,0,0-.1-3.2,27.6,27.6,0,0,0-2-4.8l-25.8-49.9,1.5-.8L702.6,836l-18.8-36.4a23.2,23.2,0,0,0-2.9-4.6,6.6,6.6,0,0,0-2.5-1.9,4.3,4.3,0,0,0-2.5-.1l-2.8,1.2-2.1,1.1-.8-1.6L690.7,783l.9,1.7-2.1,1a19.6,19.6,0,0,0-2.6,1.7,4.6,4.6,0,0,0-1.4,2.2,7,7,0,0,0,.1,3.2,35.9,35.9,0,0,0,2,4.8l21.3,41.1,3.5,1.3a15.3,15.3,0,0,0,2.4.7H717l2.7-.4a15,15,0,0,0,4.1-1.5Z" transform="translate(-121.7 -125.1)"/><path class="cls-19" d="M593.6,894.4a28.8,28.8,0,0,1-12.4,0,32,32,0,0,1-11.5-5,36.8,36.8,0,0,1-15-36.1,36.8,36.8,0,0,1,4.5-12.4,32.1,32.1,0,0,1,8.6-9.4,29.8,29.8,0,0,1,11.9-5.3,31.2,31.2,0,0,1,12.9-.2,28.5,28.5,0,0,1,11.6,4.9,33.6,33.6,0,0,1,9.1,9.3,38.3,38.3,0,0,1,5.5,13.4,37.3,37.3,0,0,1,.4,13.7,35.7,35.7,0,0,1-4.5,12.2,32.4,32.4,0,0,1-8.7,9.4A34.1,34.1,0,0,1,593.6,894.4Zm.2-3.8a17.9,17.9,0,0,0,8.3-4,18.9,18.9,0,0,0,5.1-7.4,29.5,29.5,0,0,0,1.9-10.3,54.5,54.5,0,0,0-1.3-12.8,58.2,58.2,0,0,0-4-12.2,36.4,36.4,0,0,0-6.1-9,19.6,19.6,0,0,0-7.9-5,18.2,18.2,0,0,0-9.3-.3,21.5,21.5,0,0,0-8,3.5,17.6,17.6,0,0,0-5.5,6.8,27.3,27.3,0,0,0-2.5,10.2,50,50,0,0,0,1.3,13.8,59.2,59.2,0,0,0,4.2,12.9,29,29,0,0,0,6.1,9,18.4,18.4,0,0,0,17.7,4.8Z" transform="translate(-121.7 -125.1)"/></g></svg>