<svg id="Layer_2" data-name="Layer 2" xmlns="http://www.w3.org/2000/svg" viewBox="0 0 200 200"><defs><style>.cls-1,.cls-2{fill:none;stroke:#1d1d1b;stroke-miterlimit:10;stroke-width:6px;}.cls-2{stroke-linecap:round;}</style></defs><path class="cls-1" d="M135.7,51.5a33.2,33.2,0,0,1,32.9,28l8.3,52.3a13.3,13.3,0,0,1-13.1,15.4H36.2a13.3,13.3,0,0,1-13.1-15.4l8.3-52.3a33.2,33.2,0,0,1,32.9-28Z"/><path class="cls-2" d="M110.5,96.8a2.8,2.8,0,0,1-.1-.9c-.7-4.9-4.5-8-9.3-8.6H98.9a11.7,11.7,0,0,0-8.5,5.2c-1.4,2.6-1.3,5.4-1.7,8.2a10.1,10.1,0,0,1-2.5,5.8c-3.8,4-12.2,3.5-15.1-1s-1.7-6.8-3-10.1a12.1,12.1,0,0,0-6.8-6.9,12.6,12.6,0,0,0-12.6,2c-1.5,1.2-2.7,2.6-4.2,3.8-6.8,5.1-13.7-.6-14.3-6.4"/><path class="cls-2" d="M169.8,87.9c-.5,4.5-4.6,8.6-9.3,8.4s-7.8-5.8-12.2-7.9-9.8-1.3-12.6,2.3a12.5,12.5,0,0,0-2.3,5.4c-1.2,5.4-.3,11.2-1.4,16.7-.5,2.6-1.6,5.6-3.7,7.2a10.8,10.8,0,0,1-7.9,2.4,10.3,10.3,0,0,1-8.3-5.5,20.8,20.8,0,0,1-1.3-8.2"/><rect class="cls-2" x="3" y="157.5" width="193.9" height="20.7" rx="10.4"/><path class="cls-2" d="M153.6,74.5a24.3,24.3,0,0,1,2.8,5.3"/><path class="cls-2" d="M129.5,63.1h2.7a24.9,24.9,0,0,1,12.4,3.2"/><path class="cls-2" d="M81.4,45.7a9.8,9.8,0,0,0,12.9-1.6,5.9,5.9,0,0,0,.2-7.4c-1.2-1.5-3.3-2.4-4.2-3.1s-2.4-2.4-4.2-3.1a5.9,5.9,0,0,0-7,2.4,9.5,9.5,0,0,0,2.3,12.7Z"/><path class="cls-2" d="M115.4,47.3a9.8,9.8,0,0,0,6.8-11.1,5.9,5.9,0,0,0-5.7-4.7c-2,0-4,1-5.1,1.3s-3.3.4-5,1.4a5.9,5.9,0,0,0-2.5,7c1.3,4.2,6.5,7.4,11.5,6.1Z"/><path class="cls-2" d="M90.4,32.8A31.7,31.7,0,0,1,103,18.5a30.9,30.9,0,0,1,14.3-4.2"/><path class="cls-2" d="M111.2,32.2a24.1,24.1,0,0,0-4.8-6.2,22.4,22.4,0,0,0-6.8-4.2"/></svg>