<svg id="Layer_1" data-name="Layer 1" xmlns="http://www.w3.org/2000/svg" viewBox="0 0 200 200"><defs><style>.cls-1{fill:none;stroke:#000;stroke-linecap:round;stroke-linejoin:round;stroke-width:5px;}</style></defs><rect class="cls-1" x="2.6" y="137.5" width="50" height="60" rx="15"/><rect class="cls-1" x="75" y="107.5" width="50" height="90" rx="15"/><rect class="cls-1" x="147.5" y="77.5" width="50" height="120" rx="15"/><path class="cls-1" d="M143.1,37.4a7.5,7.5,0,0,1,10.6,0h0a7.5,7.5,0,0,1,0,10.6L110.8,90.9h-.1a7.5,7.5,0,0,1-10.6,0L82.8,73.7a3,3,0,0,0-4.3,0L31.2,121a7.5,7.5,0,0,1-10.6,0h0a7.5,7.5,0,0,1,0-10.6L75.3,55.7a7.5,7.5,0,0,1,10.6,0h0L103.3,73a3.1,3.1,0,0,0,4.2,0Z"/><path class="cls-1" d="M174.1,9.5a7.5,7.5,0,0,1,7.5,7.5V42a7.6,7.6,0,0,1-7.5,7.5h0a7.6,7.6,0,0,1-7.5-7.5V29.5a5,5,0,0,0-5-5H149.1a7.6,7.6,0,0,1-7.5-7.5h0a7.5,7.5,0,0,1,7.5-7.5h25a7.5,7.5,0,0,1,7.5,7.5"/></svg>