<svg id="Layer_2" data-name="Layer 2" xmlns="http://www.w3.org/2000/svg" viewBox="0 0 200 200"><defs><style>.cls-1,.cls-2{fill:none;stroke:#1d1d1b;stroke-miterlimit:10;stroke-width:6px;}.cls-2{stroke-linecap:round;}</style></defs><line class="cls-1" x1="86.8" y1="149.4" x2="86.8" y2="96.3"/><path class="cls-1" d="M64.1,112a11.4,11.4,0,0,0-22.7,0v9.8"/><path class="cls-1" d="M86.8,149.4a11.4,11.4,0,1,1-22.7,0V112"/><path class="cls-1" d="M41.4,121.8a11.4,11.4,0,0,1-11.6,11.3c-6.2-.1-11.1-5.5-11.1-11.7V107.8h0a34.2,34.2,0,0,1,3.5-15.1l.5-.9L60.6,27.1a20.3,20.3,0,0,1,9.5-8.6c6.9-3,15.6-2.4,21.8,2.6a13.6,13.6,0,0,1,2.4,2.4h.1a80.6,80.6,0,0,1,7.9,11.2l24.6,40.7c5.5,9.1,6.4,14.2,6.4,21.6v4.1c0,6.4-6.1,11.8-12.5,11.6a11.6,11.6,0,0,1-11.2-11.7V97.3c0-6.9-4.9-12.3-11.2-12.4A11.4,11.4,0,0,0,86.8,96.3"/><path class="cls-1" d="M18.7,116.3,5.2,140h0a13.3,13.3,0,0,0,10.6,20H141.2a13.3,13.3,0,0,0,12.2-18.3h0a19.1,19.1,0,0,0-1.6-3.2l-19.3-33.4"/><path class="cls-1" d="M74.5,160.8l1.8,10.7h0a14,14,0,0,0,22.8,7.7l21.4-18.4"/><path class="cls-1" d="M149.8,134.9l41.7-35.6h0a14.2,14.2,0,0,0-5.1-24.4l-75.9-26"/><circle class="cls-1" cx="160.8" cy="86.9" r="0.5"/><circle class="cls-1" cx="166.7" cy="103" r="0.5"/><circle class="cls-1" cx="178.9" cy="89.8" r="0.5"/><circle class="cls-1" cx="124.5" cy="123.7" r="0.5"/><circle class="cls-1" cx="49.6" cy="136.4" r="0.5"/><circle class="cls-1" cx="32.9" cy="148.9" r="0.5"/><line class="cls-2" x1="93.2" y1="42.3" x2="99.5" y2="53.3"/><line class="cls-2" x1="104.2" y1="61.4" x2="107.3" y2="66.7"/><circle class="cls-2" cx="104.6" cy="127" r="6.5"/><circle class="cls-2" cx="124.5" cy="142.7" r="6.5"/></svg>