<?xml version="1.0" encoding="UTF-8"?>
<svg id="Layer_1" data-name="Layer 1" xmlns="http://www.w3.org/2000/svg" version="1.1" viewBox="0 0 200 200">
  <defs>
    <style>
      .cls-1 {
        fill: none;
        stroke: #231f20;
        stroke-linecap: round;
        stroke-linejoin: round;
        stroke-width: 8px;
      }
    </style>
  </defs>
  <circle class="cls-1" cx="100" cy="100" r="96"/>
  <path class="cls-1" d="M176.5,115.2c-2.9,14.6-10,28.6-21.4,39.9"/>
  <path class="cls-1" d="M169.2,64c5.1,9.8,8,20.4,8.6,31.1"/>
  <path class="cls-1" d="M139.6,32.8c5.6,3.3,10.8,7.3,15.6,12.1s2.1,2.1,3,3.2"/>
  <path class="cls-1" d="M101.2,22c7.3.1,14.7,1.2,21.7,3.4"/>
  <path class="cls-1" d="M63.5,31c6-3.2,12.4-5.5,18.9-7"/>
  <path class="cls-1" d="M37,54c2.3-3.2,5-6.3,7.9-9.2s2.5-2.4,3.8-3.6"/>
  <path class="cls-1" d="M23.7,83.8c1.1-5.3,2.8-10.5,5-15.5"/>
  <path class="cls-1" d="M23.2,113.9c-.8-4.7-1.3-9.5-1.2-14.2"/>
  <path class="cls-1" d="M32.2,138.7c-1.9-3.3-3.5-6.7-4.9-10.2"/>
  <path class="cls-1" d="M44.8,155.2c-1.4-1.4-2.7-2.8-4-4.3"/>
  <path class="cls-1" d="M92.5,107.6c3.5,3.5,9,3.9,12.9,1.1.7-.5,1.3-1.2,1.9-1.9l34.6-43.1c.9-1.1,1.2-2.7.7-4s-.5-.9-.8-1.2c-.4-.4-.8-.6-1.2-.8-1.3-.6-2.9-.3-4,.7l-43.1,34.6c-.7.6-1.4,1.2-1.9,1.9-2.8,3.9-2.5,9.4,1.1,12.9l-.2-.2Z"/>
  <path class="cls-1" d="M125.2,150.8c5.3,0,8.8,5.6,6.5,10.3-5,10.3-17.3,17.6-31.7,17.6s-26.7-7.3-31.7-17.6,1.2-10.3,6.5-10.3c0,0,50.4,0,50.4,0Z"/>
  <path class="cls-1" d="M129.3,100c0,16.2-13.1,29.3-29.3,29.3s-29.3-13.1-29.3-29.3,13.1-29.3,29.3-29.3"/>
</svg>