<svg id="Capa_1" data-name="Capa 1" xmlns="http://www.w3.org/2000/svg" viewBox="0 0 487.2 465.2"><defs><style>.cls-1{fill:none;stroke:#000;stroke-linecap:round;stroke-miterlimit:10;stroke-width:16px;}</style></defs><path class="cls-1" d="M251.7,14.6,317,147.2a8.9,8.9,0,0,0,6.8,4.9l146.3,21.3a8.9,8.9,0,0,1,5,15.2L369.2,291.9a9.3,9.3,0,0,0-2.6,7.9l25,145.8a8.9,8.9,0,0,1-12.9,9.4L247.8,386.1a9.3,9.3,0,0,0-8.3,0L108.5,455a9,9,0,0,1-13-9.4l25.1-145.8a9.3,9.3,0,0,0-2.6-7.9L12.1,188.6a8.9,8.9,0,0,1,5-15.2l146.3-21.3a8.9,8.9,0,0,0,6.8-4.9L235.6,14.6A9,9,0,0,1,251.7,14.6Z"/></svg>