<svg id="Layer_2" data-name="Layer 2" xmlns="http://www.w3.org/2000/svg" viewBox="0 0 200 200"><defs><style>.cls-1,.cls-2{fill:none;stroke:#1d1d1b;stroke-miterlimit:10;stroke-width:6px;}.cls-1{stroke-linecap:round;}</style></defs><line class="cls-1" x1="83.8" y1="119.7" x2="88" y2="135.2"/><line class="cls-1" x1="69.9" y1="68.9" x2="79.3" y2="103.4"/><path class="cls-2" d="M63.4,156.8c.4,5.4,1.4,12.2-.7,21.3-1.4,6.2-5.4,19.2-10.2,18.8s-3.8-6.5-7.5-12.5c-1.8-3-2.7-4.3-7-7.2-7.1-4.8-12.9-6.6-16-8.1A34.4,34.4,0,0,1,9.6,158.7c-3.1-4.4-5-8.8-3.9-13.2,1.8-6.8,12.8-9,17.5-10a41.8,41.8,0,0,1,18.9.5"/><path class="cls-1" d="M33,150.9a33.7,33.7,0,0,1,10.9-2.3,46.1,46.1,0,0,1,8.5.2"/><path class="cls-1" d="M46,148.6a19.2,19.2,0,0,0-.1,7.3,16.3,16.3,0,0,0,3.5,7.4"/><path class="cls-2" d="M64.6,74.2,87,51.8a43.5,43.5,0,0,1,61.2,0h0a43.5,43.5,0,0,1,0,61.2l-29.4,29.4h0l-5.8,5.8a43.5,43.5,0,0,1-61.2,0h0a43.5,43.5,0,0,1,0-61.2Z"/><line class="cls-1" x1="116.2" y1="80.3" x2="112" y2="64.8"/><line class="cls-1" x1="130.1" y1="131.1" x2="120.7" y2="96.6"/><path class="cls-2" d="M136.6,43.2c-.4-5.4-1.4-12.2.7-21.3,1.4-6.2,5.4-19.2,10.2-18.8s3.8,6.5,7.5,12.5c1.8,3,2.7,4.3,7,7.2,7.1,4.8,12.9,6.6,16,8.1a34.4,34.4,0,0,1,12.4,10.4c3.1,4.4,5,8.8,3.9,13.2-1.8,6.8-12.8,9-17.5,10a41.8,41.8,0,0,1-18.9-.5"/><path class="cls-1" d="M167,49.1a33.7,33.7,0,0,1-10.9,2.3,46.1,46.1,0,0,1-8.5-.2"/><path class="cls-1" d="M154,51.4a19.2,19.2,0,0,0,.1-7.3,16.3,16.3,0,0,0-3.5-7.4"/></svg>