<svg id="Layer_1" data-name="Layer 1" xmlns="http://www.w3.org/2000/svg" viewBox="0 0 584.5 770.5"><defs><style>.cls-1{fill:none;}.cls-2{fill:#fff;}.cls-3{fill:#d33d83;}</style></defs><path class="cls-1" d="M294.8,530.1" transform="translate(-196.7 -102.9)"/><path class="cls-2" d="M297.1,400.2c-23.1-1.8-45.7,3.7-62.2,19.3-8.5,8.1-15.5,17.8-19.2,29-7.8,23.1-1.5,51.4,19.7,65.4,8.4,5.8,18.4,9.5,28.8,11.7a118.2,118.2,0,0,0,15.8,2.5,57,57,0,0,0,15.8-1.6,1,1,0,0,1,1.2.8.9.9,0,0,1-.6,1.1c-6.4,2.4-13.6,4.2-20.7,4-44.6.6-78.4-23.1-79-70.2-.2-24.7,10.3-50.7,32.3-63.7s48.7-13.4,68.7-.2a1,1,0,0,1-.6,1.9Z" transform="translate(-196.7 -102.9)"/><path class="cls-2" d="M307.5,430.5c-12.1-14.2-17.1-34.4-12-52.6,7-24.4,31.8-41.1,56.9-41.4,30.9-.8,49.1,27.9,41.9,56.4A45,45,0,0,1,379,417.3a1,1,0,0,1-1.6-1,33.8,33.8,0,0,1,.8-3.4c.5-1.8,1-4.6,1.3-6.4,2.8-16.9-.7-35.7-14.7-46.6-19.5-15.1-51,.1-59.9,21.3-4.8,11.1-4.9,24.7-1,36.4a61.9,61.9,0,0,0,5.3,11.8,1,1,0,0,1-1.7,1.1Z" transform="translate(-196.7 -102.9)"/><path class="cls-2" d="M377.9,366.6c-5.2-8.3-.4-19.4,7.9-23.6s19.9-2.6,24.1,6.2c-3.5,2.7-11,9.6-14.6,11.4a53.8,53.8,0,0,1-6.4,2.5c-3.5,1-7.5,2.4-11,3.5Z" transform="translate(-196.7 -102.9)"/><path class="cls-1" d="M683,530.1" transform="translate(-196.7 -102.9)"/><path class="cls-2" d="M680.1,398.3c31.5-20.7,78.3-6.8,93.5,28.1,9.9,22.2,10.5,49-.8,70.8-13.7,26.2-43,35.6-70.7,35.2-7.1.2-14.2-1.6-20.6-4a1,1,0,0,1,.5-1.9,57.7,57.7,0,0,0,15.9,1.6,120.8,120.8,0,0,0,15.8-2.5c10.4-2.2,20.4-5.9,28.7-11.7,21.3-14,27.5-42.3,19.8-65.4A72.2,72.2,0,0,0,712,402.7a96.6,96.6,0,0,0-31.2-2.5,1.1,1.1,0,0,1-.7-1.9Z" transform="translate(-196.7 -102.9)"/><path class="cls-2" d="M668.7,429.4c10.5-17.7,11.5-42-1.9-58.2s-41.5-25.1-57.3-8.3c-11.9,12.1-14.1,30.7-10.6,46.8.4,2.2,1.1,4.4,1.6,6.6a1.1,1.1,0,0,1-1.7,1,46.2,46.2,0,0,1-15.3-24.4c-7.2-28.5,11.1-57.2,42-56.4,36.6.8,66.4,32.8,57.2,69.7a57.8,57.8,0,0,1-4.8,13,63.8,63.8,0,0,1-7.6,11.3,1,1,0,0,1-1.6-1.1Z" transform="translate(-196.7 -102.9)"/><path class="cls-2" d="M599.7,366.6c-3.5-1.1-7.5-2.5-11-3.5a53.8,53.8,0,0,1-6.4-2.5c-3.6-1.8-11.2-8.7-14.6-11.4,4.2-8.8,16-10.8,24.1-6.2s13.1,15.3,7.9,23.6Z" transform="translate(-196.7 -102.9)"/><path class="cls-2" d="M681.5,528.4c-8.1-1.5-16-4.1-24-5.7-15.4-3-31.5-3.5-46.6.7-11.5,3.2-23.4,8.5-35.6,11-8.6,1.9-17.9,1.6-26.7.7a180.9,180.9,0,0,1-25.3-4.4A109.2,109.2,0,0,0,512,528a142.6,142.6,0,0,0-46.1,0,111,111,0,0,0-11.4,2.7,165,165,0,0,1-38.3,5.1c-17.2.2-33.5-8-49.3-12.4a92.3,92.3,0,0,0-22.9-3.1,133.7,133.7,0,0,0-35.5,5.2c-4,1-8,2.1-12.1,2.9a1,1,0,0,1-1.1-.8.9.9,0,0,1,.5-1c7.7-3.1,15-6.9,22.9-9.7a99.8,99.8,0,0,1,63.2-2c11.6,3.1,25.2,7.2,36.8,5.8l8.7-1a195.2,195.2,0,0,0,23-4.7,122.5,122.5,0,0,1,12.6-3.2c21.3-3.8,43.6-3.2,64.4,3.2a179.6,179.6,0,0,0,31.8,5.7c8.2.8,16.2-.5,24.9-2.7,7.1-1.8,17.1-4.6,24.3-5.9,16.9-3.2,34.7-.9,50.7,4.8,7.9,2.8,15.2,6.5,22.9,9.6a1,1,0,0,1,.6,1.3,1,1,0,0,1-1.1.6Z" transform="translate(-196.7 -102.9)"/><path class="cls-2" d="M682.6,528.3a545.3,545.3,0,0,0-27.4,80.5,559,559,0,0,0-15.4,89.1,53,53,0,0,1-1,5.5,36.5,36.5,0,0,1-35.1,27h-8c-66.3.1-157.9.4-224.2-.1-16-1.1-30.1-13.8-32.9-29.7-4.3-45-13.2-89.7-27.9-132.6-4.6-13.4-9.7-26.6-15.3-39.7a1,1,0,0,1,.5-1.3.9.9,0,0,1,1.2.4c29.7,49.7,48,106.1,56.5,163.5l.7,4.8c.1.6.3,1.3.4,2,2.1,8.1,9.7,14.5,18.2,14.6H377c21.8-.6,47.5-1.1,69.3-1.3,49.5-.5,105.5-.1,154.7,1.2,3.2.1,6.7.3,9.7-.8a20.3,20.3,0,0,0,13-15.4,468.8,468.8,0,0,1,24.7-100,402,402,0,0,1,29.7-63.8l2.7-4.6a.9.9,0,0,1,1.4-.4.9.9,0,0,1,.4,1.2Z" transform="translate(-196.7 -102.9)"/><path class="cls-2" d="M383.3,558.7a297.9,297.9,0,0,1,21.2,58.4,299.1,299.1,0,0,1,8.7,60.9,1.1,1.1,0,0,1-.9,1,.9.9,0,0,1-.9-.8A297.3,297.3,0,0,0,397.9,619a293.4,293.4,0,0,0-25.1-54.6c-3.9-7.3,6.6-13,10.5-5.7Z" transform="translate(-196.7 -102.9)"/><path class="cls-2" d="M605.1,564.4A293.8,293.8,0,0,0,579.9,619a297.1,297.1,0,0,0-13.4,59.2,1,1,0,0,1-1,.8,1.1,1.1,0,0,1-.9-1,302.1,302.1,0,0,1,29.9-119.3,6,6,0,1,1,10.6,5.7Z" transform="translate(-196.7 -102.9)"/><path class="cls-2" d="M495,557.5c-2.5,41.5-4,83.1-5.1,124.6a.9.9,0,0,1-1.8,0c-.5-20.8-1.2-41.5-2-62.3s-1.8-41.6-3.1-62.3c-.2-8.5,12.2-8.5,12,0Z" transform="translate(-196.7 -102.9)"/><path class="cls-3" d="M479.7,291.1c-8.5-24.1-34.3-40.4-58.7-29.4-10.2,4.7-17.8,14-21.5,24.5s-3.5,24.1,1.3,35.3,13.6,22.2,23.9,30,25.2,14.5,35.5,24.2c8.4,7.6,15.6,17.3,18.5,28.5s.4,25.3-10.2,31.7c-6.7,4.1-16.2,3.5-21.6-2.4a1,1,0,0,1,1.4-1.4c8.1,6.8,20,2.2,23.5-7.1,6.1-16.2-5.5-32.2-18-41.7s-24.5-12.9-36.8-20.9c-16.1-10.7-29.4-26.6-35.2-45.3-11.5-34.3,7.7-74.2,46-76.9,29.3-2.2,55.3,22,53.9,50.6a1,1,0,0,1-2,.3Z" transform="translate(-196.7 -102.9)"/><path class="cls-3" d="M496.1,290.8c-1.3-29.2,25.7-53.6,55.5-50.5,32.3,3,51.6,34.2,47.2,64.9-3.3,23.6-18.4,44.3-38,57.2-12.3,8-25.6,12.1-36.7,20.9S500,408.9,506,425c3.6,9.3,15.4,13.9,23.5,7.1a1,1,0,0,1,1.4,1.4c-5.4,5.9-14.9,6.5-21.6,2.4a21.6,21.6,0,0,1-8-8.7c-9.3-18.3,2.5-39.2,16.3-51.5,10.4-9.7,24.6-15.9,35.6-24.2,15-11.4,27.1-28.7,27.9-47.9.8-32.4-29.4-56.3-59.8-40.3-11,6-18.7,15.8-23.2,27.8a1,1,0,0,1-2-.3Z" transform="translate(-196.7 -102.9)"/><path class="cls-3" d="M338.8,206.5c-5.1-.7-8.7-3.5-11-8.6a12.3,12.3,0,0,1-1.5-6.7,5.3,5.3,0,0,1,3.1-4,5.5,5.5,0,0,1,3.7-.4,3.5,3.5,0,0,1,2.4,2,13,13,0,0,1,1,2.7l.4,1a5.2,5.2,0,0,0,.6,1.6c1,2.2,2.8,3.3,5.5,3.4s6-.9,10-2.7,7-4.1,8.6-6.7a7.6,7.6,0,0,0,.7-7.8,7.2,7.2,0,0,0-3.6-3.5,13.2,13.2,0,0,0-5.3-1.1,78.1,78.1,0,0,0-8.2.1,82.1,82.1,0,0,1-11,.1,22.1,22.1,0,0,1-8.5-2.6,15,15,0,0,1-6.3-7.2,17.9,17.9,0,0,1-1.5-10.6,20.3,20.3,0,0,1,5.1-10.1,35.4,35.4,0,0,1,11.4-7.9,31.9,31.9,0,0,1,10.4-2.9,15.9,15.9,0,0,1,9.3,1.5,12.7,12.7,0,0,1,6.3,6.6c1.4,3,2,5.6,1.8,7.5a5.3,5.3,0,0,1-6.7,4.5,4.1,4.1,0,0,1-2.6-2.2,16.1,16.1,0,0,1-.9-2.6,27.1,27.1,0,0,0-1.1-2.9,5.4,5.4,0,0,0-5.1-3.2,15.8,15.8,0,0,0-8.1,1.8c-4.2,1.9-7,4.1-8.5,6.7a8.5,8.5,0,0,0,3.5,11.9,17.6,17.6,0,0,0,5.8,1.3c2.1.1,4.9,0,8.5-.2a96.1,96.1,0,0,1,10.8,0,20.5,20.5,0,0,1,7.9,2.3,13.7,13.7,0,0,1,5.9,6.6c2.7,5.8,2.5,11.2-.4,16.2s-8,9.3-15.3,12.6S343.8,207.2,338.8,206.5Z" transform="translate(-196.7 -102.9)"/><path class="cls-3" d="M483.1,134.3a2.6,2.6,0,0,1,1.2,1.9,5.8,5.8,0,0,1-.5,3.9,4.5,4.5,0,0,1-3.5,2.3,53.3,53.3,0,0,1-11.4,1.2,68.6,68.6,0,0,1-9.6,21.9c-4.2,6.1-8.8,9.7-13.9,10.6s-8.5-1-11.7-5.4-5.8-10.8-7.6-19c-1.5,9.7-3.8,17.1-6.9,22.3s-6.9,8.2-11.4,9.1-9.4-1.5-13.1-7.3-6.6-14-8.6-24.6a175.6,175.6,0,0,1-2.6-25.8c-.2-2.7.2-4.6,1-5.8s2.2-2,4.3-2.4a5.9,5.9,0,0,1,3.8.3,4.7,4.7,0,0,1,2,3.6,16.9,16.9,0,0,1,.3,2.1,193.7,193.7,0,0,0,2.7,27.9c1.3,7.1,2.9,12.4,4.8,16s3.9,5.2,6,4.8,3.7-2.7,5.5-7,3.4-10.5,4.6-18.6A172.5,172.5,0,0,0,420,118c0-2.5.4-4.3,1.4-5.4a6.9,6.9,0,0,1,4.3-2.3,5.6,5.6,0,0,1,3.8.4,4.1,4.1,0,0,1,1.7,3,9.6,9.6,0,0,1,.3,2,151.8,151.8,0,0,0,2.5,26.1c1.1,5.8,2.2,10.4,3.2,13.8a20.1,20.1,0,0,0,3.7,7.5,5.7,5.7,0,0,0,5.5,1.8c2.5-.5,4.9-2.9,7.3-7.3a64.4,64.4,0,0,0,5.9-15.8,19.5,19.5,0,0,1-8.7-6.4,25,25,0,0,1-4.5-10.5,26.5,26.5,0,0,1,0-10.9,14.9,14.9,0,0,1,4.1-7.4,13.7,13.7,0,0,1,7-3.5,9.9,9.9,0,0,1,8.7,2.2q3.6,3,4.8,9.3a61.5,61.5,0,0,1-.2,20.5,51.3,51.3,0,0,0,9.5-1.1A4.1,4.1,0,0,1,483.1,134.3Zm-21.8-1c1-6.2,1.1-11.2.4-15.1a10.5,10.5,0,0,0-1.8-4.7,2.5,2.5,0,0,0-2.6-1c-1.4.2-2.4,1.3-3,3.1s-.6,4.2,0,7.3C455.2,128,457.6,131.5,461.3,133.3Z" transform="translate(-196.7 -102.9)"/><path class="cls-3" d="M543.8,160.7a2,2,0,0,1,1.8,1.1,3.9,3.9,0,0,1,.5,2.5,6.7,6.7,0,0,1-1.4,4,9.5,9.5,0,0,1-4.1,2.8,49.7,49.7,0,0,1-12.4,2.8,93.6,93.6,0,0,1-14.9.5,53,53,0,0,1-16.7-3.3c-4.4-1.8-7.7-4.1-9.7-6.9a13.6,13.6,0,0,1-2.8-9.2,17.2,17.2,0,0,1,5.1-11.5c3.2-3,7.6-5.1,13.5-6.2a13.4,13.4,0,0,1-7-5.2,12.7,12.7,0,0,1-2-7.8,15.6,15.6,0,0,1,4.2-10,22.8,22.8,0,0,1,10.2-6.2,35.6,35.6,0,0,1,13.6-1.6c6.6.4,11.5,2.1,14.6,5.1a13.8,13.8,0,0,1,4.3,11.4,14.5,14.5,0,0,1-2.1,7.5,5.3,5.3,0,0,1-5.1,2.6,4.8,4.8,0,0,1-3.5-1.2,3.7,3.7,0,0,1-1.1-3,19.8,19.8,0,0,1,.6-3,19,19,0,0,0,.6-3.5,5.8,5.8,0,0,0-1.9-4.8c-1.3-1.3-3.7-2.1-7-2.3s-8.2.5-11.1,2.3a8.9,8.9,0,0,0-4.5,7.5,7.4,7.4,0,0,0,2.7,6.4c2,1.7,5.2,2.8,9.9,3.2a2.8,2.8,0,0,1,3,3.4q-.3,5.3-5.1,5.1a30.4,30.4,0,0,0-11.1,1.2,13.2,13.2,0,0,0-6.6,3.9,8.7,8.7,0,0,0-2.3,5.4,7.9,7.9,0,0,0,4.2,7.7c3,1.9,7.8,3,14.6,3.4a68.7,68.7,0,0,0,14.1-.7,83.7,83.7,0,0,0,12.8-3A6.3,6.3,0,0,1,543.8,160.7Z" transform="translate(-196.7 -102.9)"/><path class="cls-3" d="M603,176.2a2.1,2.1,0,0,1,1.6,1.4,4.5,4.5,0,0,1,.1,2.6,7.1,7.1,0,0,1-2.1,3.7,11.6,11.6,0,0,1-4.6,2,51,51,0,0,1-12.8.5,87.2,87.2,0,0,1-14.6-2.3,52.7,52.7,0,0,1-15.9-6.3c-4-2.6-6.8-5.4-8.3-8.5a14,14,0,0,1-1-9.6,16.7,16.7,0,0,1,7.1-10.3c3.7-2.4,8.5-3.7,14.4-3.7a12.5,12.5,0,0,1-6.4-14.4,15.2,15.2,0,0,1,5.9-9,22.7,22.7,0,0,1,11.2-4.3,35.8,35.8,0,0,1,13.7.9c6.4,1.6,10.9,4.2,13.4,7.8a14.2,14.2,0,0,1,2.2,11.9,14.9,14.9,0,0,1-3.6,7,5.4,5.4,0,0,1-5.4,1.7,5.3,5.3,0,0,1-3.2-1.9,3.2,3.2,0,0,1-.5-3.2,12.4,12.4,0,0,1,1.1-2.8,15.6,15.6,0,0,0,1.2-3.4,5.6,5.6,0,0,0-.9-5c-1.1-1.5-3.3-2.7-6.6-3.5s-8.1-1-11.2.2a9.2,9.2,0,0,0-5.9,6.5,7.7,7.7,0,0,0,1.5,6.8c1.6,2,4.6,3.7,9.1,5a3.4,3.4,0,0,1,2.2,1.4,3,3,0,0,1,.1,2.5c-.8,3.4-2.8,4.7-5.9,4a37.5,37.5,0,0,0-11.1-.9,14,14,0,0,0-7.2,2.7,8.3,8.3,0,0,0-3.2,4.9,8.1,8.1,0,0,0,2.7,8.4c2.6,2.4,7.1,4.4,13.6,6a75.1,75.1,0,0,0,14,1.9,76.8,76.8,0,0,0,13.3-.7Z" transform="translate(-196.7 -102.9)"/><path class="cls-3" d="M686.8,160.9a3.7,3.7,0,0,1,0,3.1,4.6,4.6,0,0,1-2.9,2.9c-1.3.3-2.8-.1-4.7-1.1l-9.9-5.4-9.5-4.7c-5.9,8.1-11.7,16.3-17.3,24.7-2.1,3-4.4,6.6-6.9,10.6s-4.6,7.4-6,10a4.4,4.4,0,0,1-3.3,2.4,6.6,6.6,0,0,1-4.3-.6,5.8,5.8,0,0,1-3.2-2.9,4.1,4.1,0,0,1,.1-3.6,51.1,51.1,0,0,1,3.2-5.6l5.1-7.8q2.8-4.1,4.8-7.2c2.2-3.4,4.5-6.8,6.9-10.1s4.6-6.5,6.8-9.4c.4-.7,1-1.4,1.6-2.3a34,34,0,0,0,2.1-2.8,60,60,0,0,0-11.7-4c-3-.6-5.3-.6-7,0a6.2,6.2,0,0,0-3.7,3.6,8.9,8.9,0,0,0-.7,5.4,2.7,2.7,0,0,1-.3,1.2,3.5,3.5,0,0,1-2.8,1.8,6.4,6.4,0,0,1-3.9-.3,3.1,3.1,0,0,1-1.7-1.7,9.3,9.3,0,0,1-.8-4.6,15.1,15.1,0,0,1,1.5-5.6,13.8,13.8,0,0,1,8.6-8.1c3.8-1.3,8.7-1.2,14.8.2s13.3,4,21.9,7.9c5.4,2.5,9.6,4.5,12.7,6.2a60.8,60.8,0,0,1,7.9,4.8A7.1,7.1,0,0,1,686.8,160.9Z" transform="translate(-196.7 -102.9)"/><path class="cls-3" d="M323.9,832.1c-2.9-4.1-3.2-8.7-1.1-13.8,1.2-2.7,2.5-4.6,4-5.6a4.9,4.9,0,0,1,5.1-.4,5.1,5.1,0,0,1,2.8,2.4,3.6,3.6,0,0,1,.1,3.2,10.8,10.8,0,0,1-1.3,2.4l-.5,1a10.9,10.9,0,0,0-.8,1.5,5.8,5.8,0,0,0,1.3,6.4c1.7,2,4.6,3.9,8.7,5.6s7.7,2.4,10.7,1.9a7.6,7.6,0,0,0,6.2-4.8,6.7,6.7,0,0,0,.2-5,14.7,14.7,0,0,0-2.8-4.8c-1.2-1.5-3.1-3.4-5.5-5.8a72.8,72.8,0,0,1-7.5-8.2,22.1,22.1,0,0,1-3.9-8,15.3,15.3,0,0,1,1.1-9.5,18.1,18.1,0,0,1,6.8-8.3,20.4,20.4,0,0,1,10.9-2.9,35.2,35.2,0,0,1,13.5,3,31.2,31.2,0,0,1,9.2,5.7,17.9,17.9,0,0,1,5.2,7.9,12.6,12.6,0,0,1-.7,9.1c-1.3,3.1-2.7,5.2-4.3,6.4a4.9,4.9,0,0,1-5.2.6,5.5,5.5,0,0,1-2.7-2.5,4.2,4.2,0,0,1-.1-3.3,19.1,19.1,0,0,1,1.3-2.5,17.5,17.5,0,0,0,1.4-2.7,5.4,5.4,0,0,0-1-6,15.4,15.4,0,0,0-6.8-4.8c-4.2-1.8-7.8-2.4-10.7-1.8a8.1,8.1,0,0,0-6.1,5.1,7.5,7.5,0,0,0-.3,5.5,16.8,16.8,0,0,0,2.9,5.2c1.4,1.6,3.3,3.6,5.9,6.2s5.5,5.7,7.3,7.9a20.1,20.1,0,0,1,3.6,7.5,13.7,13.7,0,0,1-.9,8.8c-2.4,5.8-6.5,9.3-12.2,10.6s-12.3.3-19.7-2.8S326.8,836.3,323.9,832.1Z" transform="translate(-196.7 -102.9)"/><path class="cls-3" d="M463.6,809.8a3.8,3.8,0,0,1,.7,3,4.8,4.8,0,0,1-2.3,3.5,7.2,7.2,0,0,1-4.8-.1l-10.8-3.1-10.3-2.5c-4,9.2-7.8,18.5-11.5,27.8-1.4,3.4-2.9,7.4-4.5,11.9s-2.8,8.2-3.7,11.1a4.2,4.2,0,0,1-2.6,3,7.2,7.2,0,0,1-4.4.4,6.1,6.1,0,0,1-3.7-2.1,4.2,4.2,0,0,1-.7-3.6,59,59,0,0,1,1.9-6.1c1-2.8,2.1-5.8,3.3-8.8s2.3-5.8,3.1-8q2.3-5.9,4.5-11.4l4.6-10.7,1.1-2.5q.8-1.5,1.5-3.3a65.7,65.7,0,0,0-12.3-1.3q-4.6,0-6.9,1.5a6.6,6.6,0,0,0-2.8,4.3,9.2,9.2,0,0,0,.5,5.4,2.9,2.9,0,0,1,0,1.3,3.6,3.6,0,0,1-2.3,2.4,6.3,6.3,0,0,1-4,.5,3.4,3.4,0,0,1-2-1.3,9.9,9.9,0,0,1-1.7-4.3,15.5,15.5,0,0,1,6.8-15.6c3.5-2,8.3-3.1,14.5-3s13.9,1,23.2,3c5.7,1.2,10.3,2.3,13.6,3.3a75.7,75.7,0,0,1,8.8,2.9A7.7,7.7,0,0,1,463.6,809.8Z" transform="translate(-196.7 -102.9)"/><path class="cls-3" d="M467.8,869a14.2,14.2,0,0,1-3.2-10,43.9,43.9,0,0,1,1.1-8.6l5.4-22.8c.1-.4.4-1.6.8-3.5a30.2,30.2,0,0,0,.7-6.2,4.6,4.6,0,0,0-.7-2.9,2.3,2.3,0,0,0-2-1,10.6,10.6,0,0,0-5.7,2.2,34.2,34.2,0,0,0-6.8,6.9,3.3,3.3,0,0,1-2.5,1.5,2.7,2.7,0,0,1-2-1.2,4.1,4.1,0,0,1-.8-2.4,10.2,10.2,0,0,1,2.4-5.6c5.5-7.3,12-11,19.3-10.9a10.2,10.2,0,0,1,7.6,3.1c1.8,2,2.6,4.9,2.6,8.8a56.3,56.3,0,0,1-.7,7.5q-.6,3.5-2.1,9.3l-3.5,14.6-.6,2.6c-.3,1.2-.5,2.3-.7,3.4a18.4,18.4,0,0,0-.3,3.3,6.2,6.2,0,0,0,1.4,4.1,5.7,5.7,0,0,0,4.1,1.6c3.2,0,6.4-1.6,9.8-5s6.4-8.8,9.3-16.4,5.3-17.2,7-29a13.5,13.5,0,0,1,1.8-5.7q1-1.5,4.2-1.5a4.9,4.9,0,0,1,4.1,1.7c.9,1.2,1.3,3,1.3,5.5a36.7,36.7,0,0,1-.6,5.7c-.4,2.3-1,5.6-1.7,9.8-1.6,8.1-2.9,15.6-3.8,22.4a49.9,49.9,0,0,0-.8,6.9,7.5,7.5,0,0,0,1.4,5,4.8,4.8,0,0,0,3.9,1.8,8.7,8.7,0,0,0,5.2-1.7,37,37,0,0,0,6.1-5.7,2.6,2.6,0,0,1,2.2-1.1,1.8,1.8,0,0,1,1.6,1,4.1,4.1,0,0,1,.5,2.6,6.9,6.9,0,0,1-1.6,4.9,29.9,29.9,0,0,1-8.3,7.3,17.8,17.8,0,0,1-8.6,2.2c-4.4-.1-7.8-1.3-10.1-3.6a11.7,11.7,0,0,1-3.4-8.9,86.5,86.5,0,0,1,1.5-11.8c-2.8,7.8-6.3,13.7-10.4,17.7a19.7,19.7,0,0,1-14.3,6C473.5,872.8,470.1,871.5,467.8,869Z" transform="translate(-196.7 -102.9)"/><path class="cls-3" d="M599,791.6a4.7,4.7,0,0,1,1.4,2.5c.7,3.6-.9,5.7-4.8,6.2l-2.8.4-9.3,1.3c-3.1.5-6.3,1-9.7,1.7l-3.5.8c1,7.8,1.8,15,2.5,21.5l13.4-3c1.9-.4,3.3-.4,4.1.2a3.6,3.6,0,0,1,1.5,2.5,5.3,5.3,0,0,1-.7,4.5,6,6,0,0,1-4.1,2.5l-13.4,2.8.2,3.5c.7,8.8-.3,15.4-3.1,19.8s-7.4,7.3-13.7,8.6a21.9,21.9,0,0,1-10.2-.3,17.2,17.2,0,0,1-7.8-4.2,7.1,7.1,0,0,1-1.5-3,5.9,5.9,0,0,1,.2-3.5,2.8,2.8,0,0,1,1.9-1.9,3.5,3.5,0,0,1,2,.3,9.7,9.7,0,0,1,2.8,1.9c3.2,2.8,6.7,3.8,10.4,3a9.5,9.5,0,0,0,6.7-5.2q2.3-4.3,1.5-12.3l-.4-4.4-3.8.8a5.3,5.3,0,0,1-3.3-.4,3.7,3.7,0,0,1-1.9-2.6,4.6,4.6,0,0,1,3.9-6.1l4.3-.9c-.6-5.9-1.4-13-2.4-21.4-5.5,1.7-9.3,3.5-11.3,5.3a6.2,6.2,0,0,0-2.2,6.5,8.9,8.9,0,0,0,2.6,4.7,3.1,3.1,0,0,1,.8,1.3,3,3,0,0,1-1.1,2.8,5.4,5.4,0,0,1-3.3,1.8,5.3,5.3,0,0,1-3.9-.5,7.8,7.8,0,0,1-2.4-2.8,16.1,16.1,0,0,1-2-5.2c-1.4-6.5,1-11.9,7-16.2s15.5-7.8,28.3-10.5a190.4,190.4,0,0,1,23.8-3.5A5.1,5.1,0,0,1,599,791.6Z" transform="translate(-196.7 -102.9)"/><path class="cls-3" d="M654.2,765.3a4.4,4.4,0,0,1,1.8,2.2c1.4,3.4.3,5.7-3.5,7l-2.6.9-9,3-9.1,3.6-3.3,1.4c2.5,7.5,4.6,14.4,6.5,20.7l12.6-5.6c1.8-.7,3.2-.9,4.1-.5a4.4,4.4,0,0,1,2,2.2,5.5,5.5,0,0,1,.1,4.5,5.6,5.6,0,0,1-3.6,3.2l-12.6,5.3.9,3.4c2.4,8.5,2.6,15.2.7,20.1s-5.9,8.5-11.8,11a21,21,0,0,1-10.1,1.7,17.4,17.4,0,0,1-8.4-2.7,6.4,6.4,0,0,1-2.5-6.1,2.5,2.5,0,0,1,1.5-2.2,3.4,3.4,0,0,1,2-.2,12.5,12.5,0,0,1,3.1,1.4,11.9,11.9,0,0,0,10.8,1,9.7,9.7,0,0,0,5.6-6.4c.9-3.1.6-7.2-.9-12.4l-1.3-4.2-3.5,1.5a4.8,4.8,0,0,1-3.3.2,3.5,3.5,0,0,1-2.4-2.2,5.7,5.7,0,0,1-.3-4,4.9,4.9,0,0,1,3-2.6l4-1.8c-1.7-5.7-3.8-12.5-6.4-20.5-5.1,2.7-8.4,5.1-10.1,7.3a6.5,6.5,0,0,0-.9,6.8,9.3,9.3,0,0,0,3.5,4.2,3.5,3.5,0,0,1,1,1.1,2.9,2.9,0,0,1-.6,2.9,5.7,5.7,0,0,1-2.9,2.4,5.1,5.1,0,0,1-3.8.3,8.5,8.5,0,0,1-3-2.3,16.3,16.3,0,0,1-3-4.8c-2.5-6.1-1.2-11.8,3.9-17.2s13.7-10.6,25.7-15.7a177.8,177.8,0,0,1,22.7-7.9A4.9,4.9,0,0,1,654.2,765.3Z" transform="translate(-196.7 -102.9)"/></svg>