<?xml version="1.0" encoding="UTF-8"?><svg id="Layer_1" xmlns="http://www.w3.org/2000/svg" viewBox="0 0 200 200"><defs><style>.cls-1{fill:none;stroke:#000;stroke-linecap:round;stroke-linejoin:round;stroke-width:10px;}</style></defs><path class="cls-1" d="M183,48.3c6.4,0,11.6,5.2,11.6,11.6h0c0,6.4-5.2,11.6-11.6,11.6H50.6c-2.1,0-3,2.4-1.6,4l19.3,19.3c4.5,4.5,4.5,12,0,16.4h0c-4.5,4.5-12,4.5-16.4,0L8.7,68.2c-2.1-2.1-3.4-5-3.4-8.2h0c0-3.1,1.3-6.1,3.4-8.2L51.9,8.6c4.5-4.5,12-4.5,16.4,0h0c4.5,4.5,4.5,12,0,16.4l-19.3,19.3c-1.4,1.4-.5,4,1.6,4h132.4Z"/><path class="cls-1" d="M149.4,128.4c2.1,0,3-2.6,1.6-4l-19.3-19.3c-4.5-4.4-4.5-11.9,0-16.4h0c4.4-4.5,11.9-4.5,16.4,0l43.2,43.3c2.1,2.1,3.4,5,3.4,8.2h0c0,3.1-1.3,6.1-3.4,8.2l-43.2,43.1c-4.4,4.5-11.9,4.5-16.4,0h0c-4.5-4.4-4.5-11.9,0-16.4l19.3-19.3c1.4-1.5.5-4-1.6-4H17c-6.4,0-11.6-5.2-11.6-11.6h0c0-6.4,5.2-11.6,11.6-11.6h132.4Z"/></svg>