<svg xmlns="http://www.w3.org/2000/svg" viewBox="0 0 604.78 493.66"><defs><style>.cls-1{fill:#fff;}</style></defs><g id="Layer_1" data-name="Layer 1"><path class="cls-1" d="M692.7,452.64C593.06,452.64,512,371.58,512,271.93S593.06,91.21,692.7,91.21s180.72,81.07,180.72,180.72S792.35,452.64,692.7,452.64Zm0-346.43C601.33,106.21,527,180.55,527,271.93S601.33,437.64,692.7,437.64,858.42,363.3,858.42,271.93,784.08,106.21,692.7,106.21Z" transform="translate(-392.46 -91.21)"/><path class="cls-1" d="M403.91,560.11c1.54,10.12,8.35,15.25,18,15.25,9.83,0,15.76-4.89,15.76-13.46,0-8.85-4.37-12.58-18.4-16.88C401.58,539.74,395,533.77,395,521.89c0-13.56,10.36-22,25.82-22,18.2,0,25.93,10.46,26.83,22.45h-11.4c-1.22-8-5.71-13.23-15.68-13.23-9.26,0-13.87,4.49-13.87,11.73,0,7.47,4.28,10.28,17.26,14.17,20.53,6.19,25.58,14.12,25.58,25.61,0,13.71-9.41,24-28.13,24-17.33,0-27.76-9.2-28.92-24.51Z" transform="translate(-392.46 -91.21)"/><path class="cls-1" d="M480.7,583.67V551.3a4.26,4.26,0,0,0-.65-2.3l-26.78-48.06h13.05C473,513.83,483.54,533.25,487,540c6.2-11.9,14.25-26.71,20.73-39.05h12.16l-27.17,48.17a3.35,3.35,0,0,0-.52,2.12v32.44Z" transform="translate(-392.46 -91.21)"/><path class="cls-1" d="M595.24,549.25c0-15,.17-31,.53-39.89h-.39c-3.86,15.29-15.76,50.63-24,74.31H560.85c-6.22-19.82-18.43-58.48-22.32-74.49h-.46c.66,9.6.95,28,.95,42.19v32.3H528.23V500.94h17.29c8.1,23.5,18.5,56.34,21.25,67.95H567c1.67-8.47,14.25-44.28,22.71-67.95h16.8v82.73H595.24Z" transform="translate(-392.46 -91.21)"/><path class="cls-1" d="M627,500.94h28.29c15.41,0,27.23,8,27.23,23.26,0,16.42-11.67,24.57-28.61,24.57H638.55v34.9H627Zm11.56,38.4h14.81c10.42,0,17.34-3.64,17.34-14.92,0-9.69-7-14.06-17.13-14.06h-15Z" transform="translate(-392.46 -91.21)"/><path class="cls-1" d="M696.11,500.94h11.5v34.4h37v-34.4h11.56v82.73H744.66v-38.5h-37v38.5h-11.5Z" transform="translate(-392.46 -91.21)"/><path class="cls-1" d="M842.86,541.81c0,23.77-11.13,43.06-35.71,43.06-23.36,0-34.76-18.49-34.76-43,0-21.42,11.23-42,35.77-42C831.38,499.79,842.86,518.26,842.86,541.81Zm-58.51-.12c0,18.86,7.62,33.62,23.39,33.62,16.5,0,23.34-14.39,23.34-33.43,0-18.21-7-32.53-23.37-32.53S784.35,523.84,784.35,541.69Z" transform="translate(-392.46 -91.21)"/><path class="cls-1" d="M859.07,583.67V500.94h15.11c31.4,57.15,35.77,65.11,37.23,68.81h.17c-.77-10.79-.89-24.16-.89-37.6V500.94h10.8v82.73H907.35c-33.61-62.06-36.28-67.53-38-70.92h-.12c.6,10.65.52,24.6.52,39.44v31.48Z" transform="translate(-392.46 -91.21)"/><path class="cls-1" d="M958.06,583.67V551.3a4.18,4.18,0,0,0-.66-2.3l-26.78-48.06h13.06c6.7,12.89,17.21,32.31,20.67,39.05,6.21-11.9,14.26-26.71,20.74-39.05h12.15l-27.16,48.17a3.29,3.29,0,0,0-.53,2.12v32.44Z" transform="translate(-392.46 -91.21)"/></g><g id="Layer_2" data-name="Layer 2"><path class="cls-1" d="M824.22,268.81c-13.12-41-13.83-80.78-13.83-80.78l.09-1.26L793,226l-.08.18L725.17,378.38c-6.31-6.42-15.84-11.79-27.14-14.6-22.78-5.68-44.11,1.16-47.63,15.29s12.09,30.18,34.88,35.87c21.68,5.4,42-.54,47-13.3,0,0,0,0,.06-.05l63.54-142.72S838.33,322.73,776,391.05C836.27,347.37,833.21,296.85,824.22,268.81Z" transform="translate(-392.46 -91.21)"/><path class="cls-1" d="M561,275.26c13.12,41,13.83,80.79,13.83,80.79l-.09,1.25,17.46-39.22.08-.18,67.77-152.2c6.31,6.41,15.84,11.78,27.14,14.6C710,186,731.31,179.13,734.83,165S722.74,134.82,700,129.14c-21.68-5.41-42,.54-47,13.29,0,0-.05,0-.06.06L589.37,285.2S546.9,221.34,609.26,153C549,196.7,552,247.23,561,275.26Z" transform="translate(-392.46 -91.21)"/></g></svg>