<svg xmlns="http://www.w3.org/2000/svg" xmlns:xlink="http://www.w3.org/1999/xlink" viewBox="0 0 464.75 624.64"><defs><style>.cls-1{fill:url(#radial-gradient);}.cls-2{font-size:110px;fill:#fff;font-family:SourceSansPro-Semibold, Source Sans Pro;font-weight:600;}.cls-3{letter-spacing:-0.02em;}</style><radialGradient id="radial-gradient" cx="1370.64" cy="1021.12" fx="1548.5902217881749" fy="976.2106809232108" r="183.53" gradientUnits="userSpaceOnUse"><stop offset="0.06" stop-color="#f5e082"/><stop offset="0.93" stop-color="#bd9e45"/></radialGradient></defs><g id="Layer_2" data-name="Layer 2"><path class="cls-1" d="M1487.82,1140.65c-3.46-16.61-12.62-30.45-20.22-40.66-10.36-13.9-22.06-25.42-33.25-36h0l-2.49-2.34L1324.56,960.52h0l-1-1c-11.82-11.18-21.41-20.95-29.82-32.24-6.06-8.14-13.34-19-15.8-30.83-2.28-10.93-2.4-30.22-1.07-40.69,1.43-11.32,4.08-17.6,10.12-24a50.74,50.74,0,0,1,5.28-4.89c6.77-5.38,15.6-8.58,27.79-10.06a152.79,152.79,0,0,1,17.8-.89l65.6-.16a152.25,152.25,0,0,1,17.76.89c12.19,1.48,21,4.68,27.79,10.06a49.83,49.83,0,0,1,5.29,4.89c6,6.4,8.69,12.68,10.12,24,1.32,10.47,1.21,29.76-1.07,40.69-2.46,11.83-9.74,22.69-15.8,30.83-10.73,14.4-23.55,26.39-37.13,39.09l-11.84,11.26h0a12.5,12.5,0,1,0,17.4,17.94h0l11.33-10.76.19-.18c13.78-12.89,28-26.22,40.1-42.42,7.6-10.2,16.76-24,20.22-40.66,3-14.17,3-36,1.4-48.93-1.54-12.16-4.62-25.18-16.73-38a74.87,74.87,0,0,0-7.92-7.31c-10.54-8.38-23.35-13.24-40.32-15.31a175.78,175.78,0,0,0-20.8-1.07l-65.64.16A175.81,175.81,0,0,0,1317,792c-17,2.07-29.78,6.93-40.32,15.31a73.82,73.82,0,0,0-7.92,7.31c-12.11,12.83-15.2,25.86-16.73,38-1.64,12.92-1.56,34.75,1.39,48.93,3.47,16.61,12.63,30.45,20.23,40.65,3.77,5.07,7.77,9.86,11.87,14.43l-.09.09c6.82,7.49,13.88,14.32,19.9,20l109.34,103.08c4,3.72,7,6.6,9.74,9.34l0,0a221,221,0,0,1,23.07,25.75c6.06,8.14,13.34,19,15.8,30.83,2.28,10.93,2.39,30.21,1.07,40.69-1.43,11.31-4.08,17.59-10.12,24a49.83,49.83,0,0,1-5.29,4.89c-6.77,5.38-15.6,8.58-27.79,10.06a152.69,152.69,0,0,1-17.8.89l-65.59.16a152.51,152.51,0,0,1-17.77-.89c-12.19-1.48-21-4.68-27.79-10.06a49.67,49.67,0,0,1-5.28-4.89c-6-6.4-8.69-12.68-10.12-24-1.33-10.47-1.21-29.76,1.07-40.69,2.46-11.83,9.74-22.69,15.8-30.83,10.73-14.4,23.55-26.4,37.13-39.1l12.11-11.5h0a12.49,12.49,0,1,0-17.27-18v0L1314,1057.56l-.19.17c-13.79,12.9-28,26.23-40.1,42.43-7.6,10.2-16.76,24-20.23,40.65-3,14.18-3,36-1.39,48.94,1.53,12.16,4.62,25.18,16.73,38a75.74,75.74,0,0,0,7.92,7.3c10.54,8.38,23.35,13.24,40.32,15.31a175.88,175.88,0,0,0,20.8,1.07l65.63-.16a175.71,175.71,0,0,0,20.77-1.07c17-2.07,29.79-6.93,40.33-15.31a75.94,75.94,0,0,0,7.92-7.31c12.11-12.83,15.19-25.86,16.73-38C1490.85,1176.66,1490.78,1154.82,1487.82,1140.65Z" transform="translate(-1138.27 -790.8)"/><text class="cls-2" transform="translate(0 591.2)">TIMELE<tspan class="cls-3" x="346.61" y="0">S</tspan><tspan x="404.8" y="0">S</tspan></text></g></svg>