<svg id="Layer_1" data-name="Layer 1" xmlns="http://www.w3.org/2000/svg" viewBox="0 0 200 200"><defs><style>.cls-1{fill:#07abdb;}.cls-2{fill:none;stroke:#000;stroke-linecap:round;stroke-miterlimit:10;stroke-width:8px;}</style></defs><path class="cls-1" d="M154.3,130.4h0a24.2,24.2,0,0,1-24-24V97.8a24,24,0,0,1,24-23.9h0a23.9,23.9,0,0,1,24,23.8h0v8.6a23.9,23.9,0,0,1-23.8,24Z"/><path class="cls-1" d="M167.8,133.7a28.7,28.7,0,0,1-27,0,38,38,0,0,0-32.2,37.4v24.8a4.4,4.4,0,0,0,4.2,4.2h83.1a4.2,4.2,0,0,0,4.1-4.2V171.1A38,38,0,0,0,167.8,133.7Z"/><path class="cls-2" d="M90.2,195.5a96.1,96.1,0,1,1,102.2-69.8"/><path class="cls-2" d="M98.9,45.9V99.8a1.1,1.1,0,0,0,.6.9l17.4,8.7"/></svg>