<?xml version="1.0" encoding="UTF-8"?><svg id="Layer_1" xmlns="http://www.w3.org/2000/svg" viewBox="0 0 200 200"><defs><style>.cls-1{fill:none;stroke:#231f20;stroke-linecap:round;stroke-linejoin:round;stroke-width:8px;}</style></defs><rect class="cls-1" x="41.1" y="4" width="117.8" height="13.6" rx="4.6" ry="4.6"/><rect class="cls-1" x="41.1" y="182.4" width="117.8" height="13.6" rx="4.6" ry="4.6" transform="translate(200 378.4) rotate(180)"/><path class="cls-1" d="M153.3,29c-.3-3.7-.8-7.4-1.6-11.3"/><path class="cls-1" d="M151.4,49.4c.8-2.8,1.3-5.6,1.6-8.5"/><path class="cls-1" d="M151.6,182.4c3.9-18.2,1.6-34.3-8.3-48.8-7.3-10.7-20.2-16.6-27.6-28.3-1-1.6-1.5-3.4-1.5-5.3h0c0-1.9.5-3.7,1.5-5.3,7.4-11.7,20.3-17.6,27.6-28.2,1.5-2.2,2.8-4.3,3.9-6.6"/><path class="cls-1" d="M48.4,182.3c-3.9-18.2-1.6-34.3,8.3-48.8,7.3-10.7,20.2-16.6,27.6-28.2,1-1.5,1.5-3.4,1.5-5.2h0c0-1.9-.5-3.8-1.5-5.4-7.4-11.7-20.3-17.6-27.6-28.3-9.8-14.5-12.2-30.6-8.3-48.8"/><line class="cls-1" x1="103.3" y1="41.9" x2="106.1" y2="41.9"/><path class="cls-1" d="M119.8,41.9h7.9c5.2,0,8.9,4.8,7.5,9.7-4.3,14.9-25,26.5-35.2,26.5s-30.9-11.5-35.2-26.5c-1.4-4.8,2.3-9.7,7.5-9.7h20.2"/><path class="cls-1" d="M83.9,145.8c6.1-.7,12.1-.7,16.1-.7,11.2,0,38.8,0,38.8,15.3s0,10-8.3,10h-61q-8.3,0-8.3-10c0-6.7,5.2-10.4,12-12.6"/></svg>