<svg id="Layer_1" data-name="Layer 1" xmlns="http://www.w3.org/2000/svg" viewBox="0 0 200 200"><defs><style>.cls-1{fill:none;stroke:#000;stroke-linecap:round;stroke-miterlimit:10;stroke-width:8px;}.cls-2{fill:#0086bf;}</style></defs><path class="cls-1" d="M100,196A96,96,0,1,1,184.7,54.7"/><path class="cls-1" d="M98.9,45.9V99.8a1.1,1.1,0,0,0,.6.9l17.4,8.7"/><path class="cls-2" d="M173.8,133.3l1.5-1.4c9.1-7.7,20.3-17.5,21.4-41.6a4,4,0,0,0,3.3-3.9V77.7a3.9,3.9,0,0,0-3.9-3.9H122.8a3.9,3.9,0,0,0-3.9,3.9v8.7a4,4,0,0,0,3.3,3.9c1,24.1,12.3,33.7,21.4,41.6l1.5,1.4a2.6,2.6,0,0,1,.9.9,4.6,4.6,0,0,1-.9,6.6h0l-1.5,1.3c-9.1,7.8-20.3,17.4-21.4,41.4a4,4,0,0,0-3.3,3.9v8.7a3.9,3.9,0,0,0,3.9,3.9h73.3a3.9,3.9,0,0,0,3.9-3.9v-8.7a4,4,0,0,0-3.3-3.9c-1.1-24-12.4-33.6-21.4-41.4l-1.5-1.3-.9-.9a4.7,4.7,0,0,1,.9-6.6Zm-7.8-8.9a10.4,10.4,0,0,0-2.1,2.1,16.6,16.6,0,0,0,2,23.4h0l1.6,1.4c8,6.9,15.6,13.4,17.1,30.3H134c1.5-16.9,9.1-23.4,17.1-30.3l1.6-1.4,2.2-2.2a16.6,16.6,0,0,0-2.2-23.4l-1.6-1.4c-8-6.9-15.6-13.5-17.1-30.4h50.6c-1.5,16.9-9.1,23.5-17.1,30.4Z"/></svg>