<svg id="Layer_2" data-name="Layer 2" xmlns="http://www.w3.org/2000/svg" viewBox="0 0 200 200"><defs><style>.cls-1{fill:none;stroke:#1d1d1b;stroke-miterlimit:10;stroke-width:8px;}</style></defs><path class="cls-1" d="M6.7,66.3c-.1-.3-.5-.2-.5,0-.9,4.4-2.4,13.2-2.1,19.4C5,105.2,14.4,118.9,18.7,125c14.8,21.1,35.1,29.4,44.5,33.1a110.9,110.9,0,0,0,40.6,7.7h6.3a4.1,4.1,0,0,1,4.1,4.1v22.3a3.6,3.6,0,0,0,5.5,3l74.7-48.8a3.6,3.6,0,0,0,0-5.9L119.7,91.7a3.5,3.5,0,0,0-5.5,2.9v22.5a4.1,4.1,0,0,1-4.1,4.1h-8.7a127.5,127.5,0,0,1-23.8-2.7c-8.7-1.9-25.9-5.9-43.2-19.1A101.2,101.2,0,0,1,6.7,66.3Z"/><path class="cls-1" d="M51.3,5.1a.6.6,0,0,0-.8-.8A69.2,69.2,0,0,0,29.4,18.9,68.5,68.5,0,0,0,13.4,46a5,5,0,0,0,.1,3.2A92.1,92.1,0,0,0,24.8,69.8,89.6,89.6,0,0,0,43.6,89.2a.6.6,0,0,0,.9-.6c-2-7.9-4.8-21-4.9-32.4-.1-7.7-.2-19.2,4.1-33.1C45.6,16.9,49.7,8.4,51.3,5.1Z"/></svg>