<?xml version="1.0" encoding="UTF-8"?>
<svg id="Layer_1" data-name="Layer 1" xmlns="http://www.w3.org/2000/svg" viewBox="0 0 631.33 631.33">
  <defs>
    <style>
      .cls-1 {
        fill: #07abdb;
      }

      .cls-1, .cls-2 {
        stroke-width: 0px;
      }

      .cls-2 {
        fill: #fff;
      }
    </style>
  </defs>
  <g>
    <path class="cls-2" d="M12.21,285.18c3.9-75.42,39.02-149.12,94.18-200.86,116.81-111.39,302.94-112.5,422.26-4.11,28.93,26.02,52.88,57.54,70.27,92.35,17.32,34.82,28.11,72.91,31.19,111.53.7,8.81-5.87,16.52-14.68,17.22-8.58.68-16.11-5.53-17.15-13.99v-.07c-8.09-69.11-41.49-134.5-93.13-181.07C365.64-20.14,145.81,19.52,55.9,184.45c-17.2,31.28-28.57,65.9-33.82,101.72-.83,5.8-9.87,5.73-9.88-.99h0Z"/>
    <path class="cls-2" d="M619.12,346.16c-3.9,75.42-39.02,149.12-94.18,200.86-116.81,111.39-302.94,112.5-422.26,4.11-28.93-26.02-52.88-57.54-70.27-92.35-17.32-34.82-28.11-72.91-31.19-111.53-.7-8.81,5.87-16.52,14.68-17.22,8.58-.68,16.11,5.53,17.15,13.99,0,0,0,.07,0,.07,8.08,69.11,41.48,134.5,93.12,181.07,139.51,126.32,359.33,86.66,449.24-78.27,17.2-31.28,28.57-65.9,33.82-101.72.83-5.8,9.87-5.73,9.88.99h0Z"/>
  </g>
  <path class="cls-1" d="M505.67,315.67h0c0-2.23-1.75-4.08-3.97-4.17-98.59-4.07-177.79-83.26-181.86-181.86-.09-2.23-1.95-3.97-4.17-3.97h0c-2.23,0-4.08,1.75-4.17,3.97-4.07,98.59-83.26,177.79-181.86,181.86-2.23.09-3.97,1.95-3.97,4.17h0c0,2.23,1.75,4.08,3.97,4.17,98.59,4.07,177.79,83.26,181.86,181.86.09,2.23,1.95,3.97,4.17,3.97h0c2.23,0,4.08-1.75,4.17-3.97,4.07-98.59,83.26-177.79,181.86-181.86,2.23-.09,3.97-1.95,3.97-4.17Z"/>
</svg>