<?xml version="1.0" encoding="UTF-8"?><svg id="Layer_1" xmlns="http://www.w3.org/2000/svg" viewBox="0 0 200 200"><defs><style>.cls-1{fill:none;stroke:#231f20;stroke-linecap:round;stroke-linejoin:round;stroke-width:8px;}</style></defs><path class="cls-1" d="M128.6,70.3l4.5-2.6"/><path class="cls-1" d="M142.1,62.7l11.9-6.8c2.7-1.5,4.6-4.2,4.8-7.2s0-.6,0-.8v-.8c-.3-3-2.2-5.7-4.8-7.2l-55.7-31.6c-3.3-1.5-5.4-2.2-7.4-2.2s-4.1.7-7.4,2.2l-55.7,31.6c-2.7,1.5-4.6,4.2-4.8,7.2s0,.6,0,.8v.8c.3,3,2.2,5.7,4.8,7.2l55.7,31.6c3.3,1.5,5.4,2.2,7.4,2.2s4.1-.7,7.4-2.2l18-10.2"/><path class="cls-1" d="M158.8,47.9v76.6c-.3,3-2.2,5.7-4.8,7.2l-55.7,31.6c-3.3,1.5-5.4,2.2-7.4,2.2s-4.1-.7-7.4-2.2l-55.7-31.6c-2.7-1.5-4.6-4.2-4.8-7.2s0-.6,0-.8V47.9"/><line class="cls-1" x1="90.8" y1="89.7" x2="90.8" y2="165.5"/><path class="cls-1" d="M186.1,64.7c.1.8,0,42.1,0,42.1"/><polyline class="cls-1" points="196 54.4 186.2 44.5 176.3 54.4"/><polyline class="cls-1" points="176.2 117.2 186.1 127.1 195.9 117.2"/><path class="cls-1" d="M21.5,159.5c.7.3,36.6,20.8,36.6,20.8"/><polyline class="cls-1" points="17.4 145.8 4 149.4 7.7 162.9"/><polyline class="cls-1" points="62.3 193.9 75.8 190.2 72 176.8"/><path class="cls-1" d="M123.4,180.2c.7-.3,36.6-20.8,36.6-20.8"/><polyline class="cls-1" points="109.6 176.8 105.9 190.3 119.3 193.9"/><polyline class="cls-1" points="173.9 162.9 177.7 149.5 164.2 145.8"/></svg>